<svg width="20" height="20" viewBox="0 0 20 20" fill="none" xmlns="http://www.w3.org/2000/svg">
<path d="M3 3H4V1H2.5C1.67157 1 1 1.67157 1 2.5V4H3V3Z" fill="#5C5F62"/>
<path d="M6 3H9V1H6V3Z" fill="#5C5F62"/>
<path d="M11 3L14 3V1H11V3Z" fill="#5C5F62"/>
<path d="M9 19H6V17H9V19Z" fill="#5C5F62"/>
<path d="M11 19H14V17H11V19Z" fill="#5C5F62"/>
<path d="M17 4V3L16 3V1H17.5C18.3284 1 19 1.67157 19 2.5V4H17Z" fill="#5C5F62"/>
<path d="M3 17V16H1V17.5C1 18.3284 1.67157 19 2.5 19H4V17H3Z" fill="#5C5F62"/>
<path d="M16 17H17V16H19V17.5C19 18.3284 18.3284 19 17.5 19H16V17Z" fill="#5C5F62"/>
<path d="M10 6C10.5523 6 11 6.44772 11 7V9H13C13.5523 9 14 9.44771 14 10C14 10.5523 13.5523 11 13 11H11V13C11 13.5523 10.5523 14 10 14C9.44772 14 9 13.5523 9 13V11H7C6.44772 11 6 10.5523 6 10C6 9.44771 6.44772 9 7 9H9V7C9 6.44772 9.44771 6 10 6Z" fill="#5C5F62"/>
<path d="M1 9V6H3L3 9H1Z" fill="#5C5F62"/>
<path d="M1 11V14H3L3 11H1Z" fill="#5C5F62"/>
<path d="M17 9V6H19V9H17Z" fill="#5C5F62"/>
<path d="M17 11V14H19V11H17Z" fill="#5C5F62"/>
</svg>
