<svg width="118" height="79" viewBox="0 0 118 79" fill="none" xmlns="http://www.w3.org/2000/svg">
<path d="M113.503 34.4192L112.508 35.2576L111.863 34.493L111.366 34.9122C111.026 35.1986 110.726 35.5145 110.466 35.8531L111.259 36.4619C110.806 37.0526 110.503 37.7229 110.35 38.4201L109.373 38.2057C109.186 39.0576 109.186 39.9424 109.373 40.7943L110.35 40.5799C110.503 41.2771 110.806 41.9474 111.259 42.5381L110.466 43.1469C110.726 43.4855 111.026 43.8014 111.366 44.0878L111.863 44.507L112.508 43.7424L113.503 44.5808L113.149 45H113V45.1771L112.858 45.3454L113 45.465V45.8438H114V47.5312H113V48.375V49.4844H114V51.7031H113V53.9219H114V56.1406H113V57.25V58.3958H114V60.6875H113V62.9792H114V65.2708H113V67.5625H114V69.8542H113V71C113 71.2016 112.98 71.3977 112.943 71.5866L113.924 71.7806C113.82 72.3054 113.614 72.7933 113.326 73.2225L112.495 72.6661C112.276 72.9937 111.994 73.276 111.666 73.4953L112.222 74.3263C111.793 74.6136 111.305 74.82 110.781 74.9239L110.587 73.9429C110.398 73.9802 110.202 74 110 74H109.019V75H107.058V74H105.096V75H103.135V74H101.173V75H99.2116V74H97.25V75H95.2885V74H93.327V75H91.3654V74H89.4039V75H87.4423V74H85.4808V75H83.5193V74H81.5577V75H79.5962V74H77.6346V75H75.6731V74H73.7116V75H71.75V74H69.7885V75H67.8269V74H65.8654V75H63.9039V74H61.9423V75H59.9808V74H58.0192V75H56.0577V74H54.0962V75H52.1346V74H50.1731V75H48.2115V74H46.25V75H44.2885V74H42.3269V75H40.3654V74H38.4038V75H36.4423V74H34.4808V75H32.5192V74H30.5577V75H28.5962V74H26.6346V75H24.6731V74H22.7115V75H20.75V74H18.7885V75H16.8269V74H14.8654V75H12.9038V74H10.9423V75H8.98077V74H8C7.79837 74 7.60233 73.9802 7.41342 73.9429L7.21936 74.9239C6.69458 74.82 6.20671 74.6136 5.77754 74.3263L6.33386 73.4953C6.00627 73.276 5.72402 72.9937 5.50471 72.6661L4.67374 73.2225C4.38642 72.7933 4.17995 72.3054 4.07614 71.7806L5.05712 71.5866C5.01975 71.3977 5 71.2016 5 71V69.8542H4V67.5625H5V65.2708H4V62.9792H5V60.6875H4V58.3958H5V57.25V56.1406H4V53.9219H5V51.7031H4V49.4844H5V48.375V47.5312H4V45.8438H5V45.505L5.09388 45.4358L5 45.3085V45H4.77247L4.50033 44.631L5.501 43.893L6.09454 44.6978L6.59488 44.3288C6.98033 44.0445 7.32159 43.7241 7.61759 43.3755L6.85534 42.7282C7.3753 42.1159 7.72318 41.4043 7.89896 40.6592L8.87224 40.8888C9.08742 39.9767 9.08742 39.0233 8.87225 38.1112L7.89896 38.3408C7.72318 37.5957 7.37531 36.8841 6.85534 36.2718L7.61759 35.6245C7.3216 35.2759 6.98034 34.9555 6.59488 34.6712L6.09454 34.3022L5.501 35.107L4.50033 34.369L4.77247 34H5V33.6915L5.09388 33.5642L5 33.495V33.1562H4V31.4688H5V30.625V29.5156H4V27.2969H5V25.0781H4V22.8594H5V21.75V20.6042H4V18.3125H5V16.0208H4V13.7292H5V11.4375H4V9.14583H5V8C5 7.79836 5.01975 7.60233 5.05712 7.41342L4.07614 7.21935C4.17995 6.69457 4.38642 6.2067 4.67374 5.77754L5.50471 6.33386C5.72402 6.00627 6.00627 5.72402 6.33386 5.50471L5.77754 4.67374C6.2067 4.38642 6.69457 4.17995 7.21935 4.07614L7.41342 5.05712C7.60233 5.01975 7.79836 5 8 5H8.98071V4H10.9423V5H12.9038V4H14.8653V5H16.8269V4H18.7884V5H20.75V4H22.7115V5H24.673V4H26.6346V5H28.5961V4H30.5577V5H32.5192V4H34.4807V5H36.4423V4H38.4038V5H40.3654V4H42.3269V5H44.2884V4H46.25V5H48.2115V4H50.1731V5H52.1346V4H54.0961V5H56.0577V4H58.0192V5H59.9808V4H61.9423V5H63.9038V4H65.8654V5H67.8269V4H69.7885V5H71.75V4H73.7115V5H75.6731V4H77.6346V5H79.5962V4H81.5577V5H83.5192V4H85.4808V5H87.4423V4H89.4038V5H91.3654V4H93.3269V5H95.2885V4H97.25V5H99.2115V4H101.173V5H103.135V4H105.096V5H107.058V4H109.019V5H110C110.202 5 110.398 5.01975 110.587 5.05712L110.781 4.07614C111.305 4.17995 111.793 4.38642 112.222 4.67374L111.666 5.50471C111.994 5.72402 112.276 6.00627 112.495 6.33386L113.326 5.77754C113.614 6.2067 113.82 6.69457 113.924 7.21935L112.943 7.41342C112.98 7.60233 113 7.79836 113 8V9.14583H114V11.4375H113V13.7292H114V16.0208H113V18.3125H114V20.6042H113V21.75V22.8594H114V25.0781H113V27.2969H114V29.5156H113V30.625V31.4688H114V33.1562H113V33.535L112.858 33.6546L113 33.8229V34H113.149L113.503 34.4192Z" stroke="white" stroke-width="2" stroke-dasharray="2 2"/>
</svg>
