<svg width="118" height="79" viewBox="0 0 118 79" fill="none" xmlns="http://www.w3.org/2000/svg">
<path d="M4 7.32812V5.10938H5V4H6.9464V5H8.91068V4H10.875V5H12.8393V4H14.8035V5H16.7678V4H18.7321V5H20.6964V4H22.6607V5H24.625V4H26.5893V5H28.5536V4H30.5178V5H32.4821V4H34.4464V5H36.4107V4H38.375V5H40.3393V4H42.3036V5H44.2678V4H46.2321V5H48.1964V4H50.1607V5H52.125V4H54.0893V5H56.0536V4H58.0178V5H59.9821V4H61.9464V5H63.9107V4H65.875V5H67.8393V4H69.8036V5H71.7679V4H73.7321V5H75.6964V4H77.6607V5H79.625V4H81.5893V5H83.5536V4H85.5179V5H87.4821V4H89.4464V5H91.4107V4H93.375V5H95.3393V4H97.3036V5H99.2679V4H101.232V5H103.196V4H105.161V5H107.125V4H109.089V5H111.054V4H113V5.10938H114V7.32812H113V9.54688H114V11.7656H113V13.9844H114V16.2031H113V18.4219H114V20.6406H113V21.75V22.8594H114V25.0781H113V27.2969H114V29.5156H113V30.625V31.4688H114V33.1562H113V33.535L112.858 33.6546L113 33.8229V34H113.149L113.503 34.4192L112.508 35.2576L111.863 34.493L111.366 34.9122C111.026 35.1986 110.726 35.5145 110.466 35.8531L111.259 36.4619C110.806 37.0526 110.503 37.7229 110.35 38.4201L109.373 38.2057C109.186 39.0576 109.186 39.9424 109.373 40.7943L110.35 40.5799C110.503 41.2771 110.806 41.9474 111.259 42.5381L110.466 43.1469C110.726 43.4855 111.026 43.8014 111.366 44.0878L111.863 44.507L112.508 43.7424L113.503 44.5808L113.149 45H113V45.1771L112.858 45.3454L113 45.465V45.8438H114V47.5312H113V48.375V49.4844H114V51.7031H113V53.9219H114V56.1406H113V57.25V58.3594H114V60.5781H113V62.7969H114V65.0156H113V67.2344H114V69.4531H113V71.6719H114V73.8906H113V75H111.054V74H109.089V75H107.125V74H105.161V75H103.196V74H101.232V75H99.2679V74H97.3036V75H95.3393V74H93.375V75H91.4107V74H89.4464V75H87.4822V74H85.5179V75H83.5536V74H81.5893V75H79.625V74H77.6607V75H75.6964V74H73.7322V75H71.7679V74H69.8036V75H67.8393V74H65.875V75H63.9107V74H61.9464V75H59.9822V74H58.0179V75H56.0536V74H54.0893V75H52.125V74H50.1607V75H48.1964V74H46.2321V75H44.2679V74H42.3036V75H40.3393V74H38.375V75H36.4107V74H34.4464V75H32.4821V74H30.5179V75H28.5536V74H26.5893V75H24.625V74H22.6607V75H20.6964V74H18.7321V75H16.7679V74H14.8036V75H12.8393V74H10.875V75H8.91071V74H6.94643V75H5V73.8906H4V71.6719H5V69.4531H4V67.2344H5V65.0156H4V62.7969H5V60.5781H4V58.3594H5V57.25V56.1406H4V53.9219H5V51.7031H4V49.4844H5V48.375V47.5312H4V45.8438H5V45.505L5.09388 45.4358L5 45.3085V45H4.77247L4.50033 44.631L5.501 43.893L6.09454 44.6978L6.59488 44.3288C6.98033 44.0445 7.32159 43.7241 7.61759 43.3755L6.85534 42.7282C7.3753 42.1159 7.72318 41.4043 7.89896 40.6592L8.87224 40.8888C9.08742 39.9767 9.08742 39.0233 8.87225 38.1112L7.89896 38.3408C7.72318 37.5957 7.37531 36.8841 6.85534 36.2718L7.61759 35.6245C7.3216 35.2759 6.98034 34.9555 6.59488 34.6712L6.09454 34.3022L5.501 35.107L4.50033 34.369L4.77247 34H5V33.6915L5.09388 33.5642L5 33.495V33.1562H4V31.4688H5V30.625V29.5156H4V27.2969H5V25.0781H4V22.8594H5V21.75V20.6406H4V18.4219H5V16.2031H4V13.9844H5V11.7656H4V9.54688H5V7.32812H4Z" stroke="white" stroke-width="2" stroke-dasharray="2 2"/>
</svg>
