<svg width="118" height="79" viewBox="0 0 118 79" fill="none" xmlns="http://www.w3.org/2000/svg">
<path d="M113 65.0156V66.1111L112.573 66.1052L112.587 65.1053L112.111 65.0987C111.755 65.0937 111.403 65.1122 111.057 65.1528L111.174 66.1459C110.55 66.2192 109.951 66.3748 109.388 66.6014L109.015 65.6738C108.355 65.9393 107.739 66.2899 107.181 66.7119L107.784 67.5097C107.291 67.8817 106.85 68.3173 106.471 68.8043L105.682 68.1904C105.252 68.7429 104.893 69.3538 104.618 70.0096L105.54 70.3959C105.306 70.9558 105.142 71.5527 105.06 72.1756L104.069 72.0451C104.023 72.39 104 72.7415 104 73.0979V73.5734H105V74H104.075V74.5245H104V75H102.225V74H100.375V75H98.525V74H96.675V75H94.825V74H92.975V75H91.125V74H89.275V75H87.425V74H86.5H85.5179V75H83.5536V74H81.5893V75H79.625V74H77.6607V75H75.6964V74H73.7321V75H71.7679V74H69.8036V75H67.8393V74H65.875V75H63.9107V74H61.9464V75H59.9821V74H59H58.0179V75H56.0536V74H54.0893V75H52.125V74H50.1607V75H48.1964V74H46.2321V75H44.2679V74H42.3036V75H40.3393V74H38.375V75H36.4107V74H34.4464V75H32.4821V74H31.5H30.575V75H28.725V74H26.875V75H25.025V74H23.175V75H21.325V74H19.475V75H17.625V74H15.775V75H14V74.5H13.925V74H13V73.5H14V73C14 72.6468 13.977 72.2984 13.9324 71.9564L12.9408 72.0857C12.8603 71.4684 12.6994 70.8764 12.4688 70.3205L13.3926 69.9374C13.1226 69.2865 12.7695 68.6794 12.3467 68.1292L11.5538 68.7385C11.1811 68.2536 10.7464 67.8189 10.2615 67.4462L10.8708 66.6533C10.3206 66.2305 9.71349 65.8774 9.06257 65.6074L8.67951 66.5312C8.12362 66.3006 7.53158 66.1397 6.91426 66.0592L7.04361 65.0676C6.70161 65.023 6.35323 65 6 65H5.5V66H5V64.9062H4V62.7188H5V60.5312H4V58.3438H5V57.25V56.1406H4V53.9219H5V51.7031H4V49.4844H5V48.375V47.5312H4V45.8438H5V45V44.25H4V42.75H5V41.25H4V39.75H5V39V37.75H4V35.25H5V34V33.1562H4V31.4688H5V30.625V29.5156H4V27.2969H5V25.0781H4V22.8594H5V21.75V20.6562H4V18.4688H5V16.2812H4V14.0938H5V13H5.5V14H6C6.35323 14 6.70161 13.977 7.04361 13.9324L6.91426 12.9408C7.53158 12.8603 8.12362 12.6994 8.67951 12.4688L9.06257 13.3926C9.71349 13.1226 10.3206 12.7695 10.8708 12.3467L10.2615 11.5538C10.7464 11.1811 11.1811 10.7464 11.5538 10.2615L12.3467 10.8708C12.7695 10.3206 13.1226 9.71349 13.3926 9.06257L12.4688 8.67951C12.6994 8.12362 12.8603 7.53158 12.9408 6.91426L13.9324 7.04361C13.977 6.70161 14 6.35323 14 6V5.5H13V5H13.925V4.5H14V4H15.775V5H17.625V4H19.475V5H21.325V4H23.175V5H25.025V4H26.875V5H28.725V4H30.575V5H31.5H32.4821V4H34.4464V5H36.4107V4H38.375V5H40.3393V4H42.3036V5H44.2679V4H46.2321V5H48.1964V4H50.1607V5H52.125V4H54.0893V5H56.0536V4H58.0179V5H59H59.9821V4H61.9464V5H63.9107V4H65.875V5H67.8393V4H69.8036V5H71.7679V4H73.7321V5H75.6964V4H77.6607V5H79.625V4H81.5893V5H83.5536V4H85.5179V5H86.5H87.425V4H89.275V5H91.125V4H92.975V5H94.825V4H96.675V5H98.525V4H100.375V5H102.225V4H104V4.5H104.075V5H105V5.5H104V6C104 6.35323 104.023 6.70161 104.068 7.04361L105.059 6.91426C105.14 7.53158 105.301 8.12362 105.531 8.67951L104.607 9.06257C104.877 9.71349 105.23 10.3206 105.653 10.8708L106.446 10.2615C106.819 10.7464 107.254 11.1811 107.739 11.5538L107.129 12.3467C107.679 12.7695 108.287 13.1226 108.937 13.3926L109.32 12.4688C109.876 12.6994 110.468 12.8603 111.086 12.9408L110.956 13.9324C111.298 13.977 111.647 14 112 14H112.5V13H113V14.0938H114V16.2812H113V18.4688H114V20.6562H113V21.75V22.8594H114V25.0781H113V27.2969H114V29.5156H113V30.625V31.4688H114V33.1562H113V34V35.25H114V37.75H113V39V39.75H114V41.25H113V42.75H114V44.25H113V45V45.8438H114V47.5312H113V48.375V49.4844H114V51.7031H113V53.9219H114V56.1406H113V57.25V58.3594H114V60.5781H113V62.7969H114V65.0156H113Z" stroke="white" stroke-width="2" stroke-dasharray="2 2"/>
</svg>

