<svg width="118" height="79" viewBox="0 0 118 79" fill="none" xmlns="http://www.w3.org/2000/svg">
<path d="M3.92501 9.92406C7.26778 9.96585 10 7.26757 10 3.92453V0H7.375H14.75H29.5H59H88.5H103.25H108V4C108 7.31371 110.686 10 114 10H118V19.75V29.625V34.5625V39.5V44.4375V49.375C118 49.375 118 55.3936 118 59.25V69.125H114C110.686 69.125 108 71.8113 108 75.125V79H88.5H59H29.5H10V75C10 71.6863 7.31371 69 4 69H0V49.375V44.4375V39.5V34.5625V29.625V19.75V9.875L3.92501 9.92406Z" fill="#E48227"/>
</svg>

