<svg width="20" height="20" viewBox="0 0 20 20" fill="none" xmlns="http://www.w3.org/2000/svg">
<g clip-path="url(#clip0_1788_3393)">
<path d="M18 9C17.4477 9 17 9.44771 17 10V17H3V3H10C10.5523 3 11 2.55228 11 2C11 1.44772 10.5523 1 10 1H2.5C1.67157 1 1 1.67157 1 2.5L1 17.5C1 18.3284 1.67157 19 2.5 19H17.5C18.3284 19 19 18.3284 19 17.5V10C19 9.44772 18.5523 9 18 9Z" fill="#5C5F62"/>
<path d="M15.53 2.02887L17.9686 4.46806L10.2303 12.2068L7.00004 12.9986L7.79163 9.76762L15.53 2.02887Z" fill="#5C5F62"/>
<path d="M19.0884 3.3507L16.6497 0.911514L17.0559 0.505252C17.7294 -0.168417 18.8215 -0.168418 19.4951 0.505251C20.1684 1.17871 20.1684 2.27045 19.4951 2.9439L19.0884 3.3507Z" fill="#5C5F62"/>
</g>
<defs>
<clipPath id="clip0_1788_3393">
<rect width="20" height="20" fill="white"/>
</clipPath>
</defs>
</svg>
