<svg width="223" height="181" viewBox="0 0 223 181" fill="none" xmlns="http://www.w3.org/2000/svg">
<path d="M173.149 163.625C134.402 186.074 71.5748 186.074 32.8187 163.625C3.79504 146.806 -3.50216 122.157 10.9725 101.409H194.996C209.47 122.157 202.173 146.806 173.149 163.625Z" fill="#FAFAFA"/>
<path d="M12.9117 87.0477C14.1309 89.5089 14.6173 92.2859 14.3101 95.0305C14.0227 97.3726 13.2326 99.6407 13.5199 102.027C13.9701 105.794 16.5368 108.797 18.6103 111.76C19.8152 113.349 20.7836 115.114 21.4836 116.997C22.2402 119.314 22.0582 121.725 21.6368 124.092C20.8419 128.589 19.7213 132.815 22.1684 136.991C23.5188 139.289 25.3433 141.236 26.6123 143.588C27.9805 146.184 28.8366 149.033 29.1312 151.97C29.1599 152.237 29.658 152.325 29.634 152.025C29.4654 149.559 28.8736 147.143 27.8861 144.89C26.8853 142.612 25.4295 140.699 23.9929 138.707C22.5563 136.715 21.3064 134.516 21.1771 131.917C21.0574 129.491 21.656 127.1 22.1349 124.743C22.5467 122.578 22.8532 120.345 22.4078 118.16C21.9828 116.335 21.2291 114.607 20.1858 113.067C18.0884 109.803 15.1241 106.82 14.2526 102.905C13.6157 100.035 14.7315 97.3184 14.9134 94.4783C15.1074 91.847 14.4961 89.2192 13.1655 86.9639C13.065 86.7962 12.816 86.8357 12.9165 87.0477H12.9117Z" fill="#37474F"/>
<path d="M12.2795 91.2585C12.1598 90.4745 13.4192 88.0585 13.7161 88.0141C14.013 87.9697 15.7609 89.8483 15.8902 90.6866C15.899 90.8531 15.8652 91.0191 15.7921 91.168C15.7189 91.3168 15.6091 91.4433 15.4736 91.5346C15.1096 91.8053 14.6884 91.9831 14.2447 92.0534C13.8009 92.1237 13.3473 92.0845 12.9212 91.939C12.764 91.8958 12.621 91.8099 12.5072 91.6901C12.3934 91.5704 12.3131 91.4213 12.2747 91.2585H12.2795Z" fill="#F7CA00"/>
<path opacity="0.1" d="M12.2795 91.2585C12.1598 90.4745 13.4192 88.0585 13.7161 88.0141C14.013 87.9697 15.7609 89.8483 15.8902 90.6866C15.899 90.8531 15.8652 91.0191 15.7921 91.168C15.7189 91.3168 15.6091 91.4433 15.4736 91.5346C15.1096 91.8053 14.6884 91.9831 14.2447 92.0534C13.8009 92.1237 13.3473 92.0845 12.9212 91.939C12.764 91.8958 12.621 91.8099 12.5072 91.6901C12.3934 91.5704 12.3131 91.4213 12.2747 91.2585H12.2795Z" fill="black"/>
<path d="M1.01643 75.5444C1.89756 81.5697 7.64404 88.453 13.8694 88.9411C19.6494 86.2489 23.1165 78.2168 22.2162 72.1767C21.3159 66.1366 16.7091 61.1221 9.88518 62.2019C3.06122 63.2817 0.116143 69.5191 1.01643 75.5444Z" fill="#F7CA00"/>
<path opacity="0.05" d="M22.2208 75.4162C22.2208 75.4162 21.5313 81.4464 14.6259 83.0045C7.99828 84.5133 1.41855 77.8026 0.877425 72.7585C0.830713 73.6896 0.877249 74.6231 1.0163 75.5444C1.89743 81.5697 7.64391 88.453 13.8693 88.9411C18.658 86.7124 21.8569 80.8153 22.3022 75.431L22.2208 75.4162Z" fill="black"/>
<path d="M186.428 103.673C185.347 105.226 184.615 107.008 184.287 108.889C183.971 110.758 184.287 112.622 184.378 114.495C184.522 116.961 184.005 119.027 182.415 120.905C181.155 122.385 179.632 123.617 178.493 125.215C176.204 128.425 175.687 132.014 176.156 135.895C176.687 140.288 177.679 144.42 175.624 148.591C174.523 150.83 173.067 152.871 172.296 155.277C171.607 157.62 171.312 160.066 171.425 162.511C171.425 162.782 171.927 162.866 171.932 162.565C171.893 160.233 172.185 157.907 172.799 155.662C173.426 153.601 174.556 151.791 175.581 149.922C176.62 148.164 177.274 146.194 177.497 144.149C177.591 142.31 177.47 140.465 177.138 138.656C176.821 136.55 176.438 134.415 176.539 132.28C176.664 130.161 177.315 128.11 178.431 126.324C180.394 123.114 184.206 121.142 184.862 117.153C185.178 115.22 184.776 113.258 184.685 111.325C184.56 108.643 185.417 106.197 186.677 103.889C186.758 103.746 186.523 103.515 186.418 103.668L186.428 103.673Z" fill="#37474F"/>
<path d="M208.014 115.325C208.177 114.546 207.057 112.056 206.774 111.987C206.492 111.918 204.619 113.688 204.442 114.517C204.422 114.682 204.445 114.849 204.508 115.003C204.571 115.156 204.672 115.289 204.801 115.389C205.149 115.681 205.559 115.885 205.997 115.984C206.435 116.083 206.89 116.076 207.325 115.961C207.484 115.927 207.631 115.85 207.752 115.738C207.873 115.626 207.964 115.484 208.014 115.325Z" fill="#F7CA00"/>
<path opacity="0.1" d="M208.014 115.325C208.177 114.546 207.057 112.056 206.774 111.987C206.492 111.918 204.619 113.688 204.442 114.517C204.422 114.682 204.445 114.849 204.508 115.003C204.571 115.156 204.672 115.289 204.801 115.389C205.149 115.681 205.559 115.885 205.997 115.984C206.435 116.083 206.89 116.076 207.325 115.961C207.484 115.927 207.631 115.85 207.752 115.738C207.873 115.626 207.964 115.484 208.014 115.325Z" fill="black"/>
<path d="M199.267 93.1652C197.998 99.1166 191.854 105.61 185.619 105.689C180.016 102.617 177.056 94.3782 178.33 88.4317C179.604 82.4853 184.513 77.7617 191.26 79.2902C198.007 80.8187 200.54 87.1843 199.267 93.1652Z" fill="#008060" fill-opacity="0.66"/>
<path opacity="0.05" d="M178.116 91.612C178.116 91.612 178.456 97.6768 185.223 99.6885C191.745 101.626 198.727 95.3643 199.589 90.3646C199.574 91.2984 199.468 92.2284 199.273 93.1405C198.004 99.0919 191.86 105.586 185.625 105.665C180.98 103.12 178.159 97.0259 178.049 91.6219L178.116 91.612Z" fill="black"/>
<path d="M140.145 25.2611C137.842 25.0343 134.721 28.8802 136.98 30.7292C138.232 31.7548 140.959 31.311 140.924 29.393C140.919 29.3398 140.896 29.2899 140.859 29.2507C140.823 29.2116 140.775 29.1854 140.722 29.176C138.912 28.7619 137.118 29.5409 137.423 31.6414C137.587 32.5469 138.054 33.37 138.746 33.9763C139.438 34.5826 140.316 34.9362 141.235 34.9795C141.343 34.9795 141.304 34.7921 141.235 34.7724C139.657 34.442 138.168 33.4608 137.857 31.7745C137.787 31.4761 137.781 31.1661 137.84 30.8652C137.898 30.5643 138.02 30.2793 138.197 30.0291C138.408 29.7756 138.687 29.5874 139.001 29.4867C139.272 29.4029 140.244 29.25 140.48 29.4867C140.904 29.9255 139.751 30.67 139.405 30.7884C139.065 30.9107 138.701 30.9564 138.341 30.9223C137.98 30.8882 137.632 30.7752 137.32 30.5912C136.363 29.9206 136.6 28.6583 137.063 27.7659C137.69 26.5578 138.784 25.5766 140.194 25.5273C140.323 25.5273 140.254 25.2857 140.155 25.2759L140.145 25.2611Z" fill="#F7CA00"/>
<path d="M140.91 101.016C141.634 99.3843 141.555 97.6931 143.666 97.1556C144.593 96.9189 146.787 96.702 147.482 97.5254C147.609 97.7243 147.66 97.9619 147.627 98.1953C147.593 98.4287 147.477 98.6423 147.3 98.7975C146.752 99.2906 146.343 98.6989 146.2 98.1763C146.09 97.6937 146.133 97.1889 146.321 96.7314C146.51 96.2739 146.837 95.8863 147.255 95.6222C148.141 95.039 149.213 94.8087 150.259 94.9766C151.306 95.1445 152.252 95.6985 152.911 96.5294C152.99 96.628 153.074 96.5294 153.039 96.4209C151.422 92.6983 143.671 95.2869 146.136 98.8567C146.89 99.9365 148.222 98.9849 147.97 97.841C147.694 96.5738 145.535 96.6379 144.578 96.702C143.609 96.7026 142.674 97.0627 141.955 97.7128C141.112 98.5411 140.998 99.8527 140.821 100.967C140.821 101.016 140.865 101.09 140.9 101.016H140.91Z" fill="#F7CA00"/>
<path d="M196.197 20.9664C197.711 20.5227 199.792 20.6459 201.059 21.6666C202.045 22.4555 202.597 24.1664 201.153 24.7532C200.586 24.98 198.717 24.98 198.495 24.2108C198.337 23.6734 198.914 23.3529 199.378 23.2838C200.734 23.0718 202.006 24.5017 201.971 25.7788C201.927 27.6968 199.693 28.3329 198.115 28.3477C198.012 28.3477 198.037 28.5449 198.115 28.5498C200.803 28.8112 203.801 26.3212 201.409 23.8262C200.768 23.1556 199.762 22.6774 198.835 23.0472C198.313 23.2592 197.898 23.7325 198.16 24.2996C198.579 25.2118 200.265 25.3695 201.084 25.1378C201.301 25.0801 201.504 24.9784 201.68 24.8392C201.856 24.7 202.002 24.5261 202.108 24.3283C202.214 24.1305 202.279 23.913 202.298 23.6893C202.317 23.4655 202.289 23.2403 202.218 23.0275C201.557 20.6015 198.16 20.069 196.148 20.8234C196.089 20.8234 196.114 20.9861 196.183 20.9664H196.197Z" fill="#F7CA00"/>
<path d="M216.034 122.751C217.547 122.307 219.628 122.43 220.895 123.451C221.882 124.24 222.434 125.951 220.989 126.538C220.422 126.765 218.553 126.765 218.331 125.99C218.174 125.458 218.751 125.137 219.209 125.063C220.57 124.856 221.837 126.286 221.808 127.563C221.763 129.481 219.53 130.117 217.952 130.132C217.848 130.132 217.873 130.329 217.952 130.334C220.639 130.596 223.637 128.106 221.245 125.611C220.604 124.94 219.599 124.462 218.672 124.832C218.149 125.039 217.735 125.517 217.996 126.084C218.415 126.996 220.102 127.154 220.92 126.917C221.137 126.861 221.34 126.76 221.517 126.622C221.694 126.483 221.84 126.309 221.946 126.112C222.052 125.914 222.117 125.697 222.136 125.473C222.154 125.25 222.126 125.024 222.054 124.812C221.393 122.381 217.996 121.854 215.984 122.608C215.925 122.608 215.945 122.771 216.019 122.751H216.034Z" fill="#F7CA00"/>
<path d="M204.94 49.027C203.135 49.5645 201.459 52.7399 203.135 54.1846C204.56 55.4123 207.44 55.1362 206.961 52.7941C206.957 52.7674 206.945 52.7424 206.928 52.7216C206.911 52.7008 206.888 52.685 206.863 52.6758C204.969 52.2221 204.343 54.4311 204.742 55.8906C205.359 58.1587 207.647 58.1291 209.298 56.9458C209.353 56.9063 209.328 56.7485 209.249 56.788C207.898 57.4635 206.005 58.065 205.181 56.3393C204.742 55.4172 204.728 53.8739 205.576 53.1787C205.796 52.9728 206.088 52.8598 206.389 52.8631C207.02 52.9371 206.912 53.6175 206.557 54.0514C205.99 54.7417 204.851 54.6678 204.092 54.4015C201.493 53.4795 203.278 50.1118 204.974 49.1651C205.024 49.1355 205.014 49.0073 204.94 49.027Z" fill="#F7CA00"/>
<path d="M164.809 41.0935C162.679 40.8224 158.098 42.6171 159.291 45.5312C159.927 47.0843 162.767 48.0804 163.699 46.3004C163.719 46.2519 163.72 46.1975 163.7 46.1488C163.681 46.1 163.644 46.0607 163.596 46.039C159.158 43.5244 154.484 50.7873 159.193 53.4351C159.341 53.5189 159.336 53.2675 159.252 53.2034C158.845 52.9252 158.499 52.5688 158.232 52.155C157.965 51.7412 157.783 51.2784 157.697 50.7936C157.612 50.3087 157.623 49.8116 157.732 49.3314C157.84 48.8511 158.044 48.3973 158.33 47.9965C158.809 47.2306 159.492 46.6128 160.302 46.2116C160.908 45.9256 162.432 45.5213 162.999 46.113C163.256 46.3891 163.251 46.044 163.117 46.3645C162.991 46.5548 162.797 46.6904 162.575 46.7441C162.091 46.8979 161.569 46.8805 161.096 46.6948C160.11 46.3497 159.336 45.4424 159.617 44.3527C160.134 42.1684 162.915 41.3943 164.863 41.3598C164.996 41.3598 164.912 41.1083 164.809 41.0935Z" fill="#F7CA00"/>
<path d="M174.503 21.4348C174.503 21.4348 174.374 23.8213 176.144 25.1476L177.998 24.5806C177.998 24.5806 176.761 23.9889 176.144 21.4348H174.503Z" fill="#455A64"/>
<path d="M143.271 79.2079C143.271 79.2079 143.138 81.5943 144.908 82.9207L146.767 82.3537C146.767 82.3537 145.525 81.762 144.908 79.2079H143.271Z" fill="#455A64"/>
<path d="M158.429 106.1C158.429 106.1 158.295 108.481 160.07 109.808L161.924 109.246C161.924 109.246 160.687 108.649 160.07 106.1H158.429Z" fill="#37474F"/>
<path d="M216.542 33.3918C216.542 33.3918 215.457 35.5219 213.263 35.7832L211.937 34.3631C211.937 34.3631 213.307 34.4716 215.122 32.5733L216.542 33.3918Z" fill="#455A64"/>
<path d="M203.825 109.551C203.825 109.551 202.746 111.681 200.547 111.938L199.22 110.523C199.22 110.523 200.596 110.626 202.405 108.728L203.825 109.551Z" fill="#455A64"/>
<path d="M173.477 64.8152C173.477 64.8152 172.397 66.9452 170.198 67.2016L168.872 65.7865C168.872 65.7865 170.247 65.8901 172.057 63.9917L173.477 64.8152Z" fill="#F7CA00"/>
<path d="M153.749 38.5296C153.749 38.5296 152.669 40.6597 150.475 40.921L149.149 39.5009C149.149 39.5009 150.52 39.6094 152.334 37.7111L153.749 38.5296Z" fill="#455A64"/>
<path d="M194.718 41.7345C194.718 41.7345 192.347 42.0304 190.902 40.349L191.341 38.4605C191.341 38.4605 192.016 39.6587 194.605 40.0975L194.718 41.7345Z" fill="#F7CA00"/>
<path d="M160.331 30.0931C160.331 30.0931 157.965 30.389 156.52 28.7125L156.954 26.8241C156.954 26.8241 157.634 28.0173 160.223 28.4611L160.331 30.0931Z" fill="#F7CA00"/>
<path d="M120.457 24.9159C120.457 24.9159 118.09 25.2118 116.646 23.5353L117.079 21.6469C117.079 21.6469 117.76 22.8401 120.344 23.2839L120.457 24.9159Z" fill="#F7CA00"/>
<path d="M148.829 56.7288C148.829 56.7288 146.462 57.0197 145.017 55.3433L145.451 53.4548C145.451 53.4548 146.131 54.653 148.72 55.0918L148.829 56.7288Z" fill="#F7CA00"/>
<path d="M219.776 74.3857C219.776 74.3857 217.405 74.6766 215.965 73.0001L216.399 71.1117C216.399 71.1117 217.079 72.3098 219.663 72.7487L219.776 74.3857Z" fill="#F7CA00"/>
<path d="M178.482 50.4865C178.482 50.4865 177.402 52.6166 175.203 52.8779L173.876 51.4579C173.876 51.4579 175.499 51.7094 177.328 49.811L178.482 50.4865Z" fill="#455A64"/>
<path d="M180.868 53.6323C180.868 53.6323 180.444 55.9843 178.403 56.8619L176.726 55.8758C177.912 55.3406 178.898 54.4429 179.542 53.3118L180.868 53.6323Z" fill="#37474F"/>
<path d="M97.5293 23.417C99.8369 23.1902 102.953 27.0312 100.695 28.8802C99.4474 29.9107 96.7157 29.462 96.7503 27.544C96.7569 27.4917 96.78 27.4428 96.8164 27.4047C96.8528 27.3665 96.9005 27.341 96.9524 27.332C98.7669 26.9178 100.557 27.6919 100.251 29.7973C100.088 30.7019 99.6224 31.5242 98.9309 32.1298C98.2394 32.7353 97.3627 33.0881 96.4446 33.1305C96.3312 33.1305 96.3706 32.9431 96.4446 32.9283C98.0224 32.593 99.5115 31.6118 99.8172 29.9255C99.8885 29.628 99.895 29.3185 99.8363 29.0182C99.7776 28.7179 99.6551 28.4338 99.4769 28.185C99.2638 27.9228 98.977 27.7304 98.6535 27.6327C98.3873 27.5489 97.411 27.3961 97.199 27.6327C96.77 28.0765 97.9287 28.8161 98.2738 28.9344C98.6135 29.0584 98.9766 29.105 99.3365 29.0709C99.6965 29.0368 100.044 28.9228 100.355 28.7372C101.311 28.0716 101.074 26.8093 100.611 25.9119C99.9897 24.7088 98.8902 23.7227 97.48 23.6783C97.3567 23.6783 97.4208 23.4367 97.5194 23.4268L97.5293 23.417Z" fill="#F7CA00"/>
<path d="M93.8311 104.241C93.1063 102.609 93.1802 100.918 91.0748 100.375C90.1479 100.139 87.9537 99.9218 87.2535 100.75C87.1282 100.948 87.0777 101.185 87.1112 101.417C87.1446 101.65 87.2598 101.862 87.436 102.017C87.9882 102.51 88.4221 101.919 88.5404 101.401C88.6509 100.918 88.6087 100.412 88.4197 99.9537C88.2307 99.4954 87.9043 99.1069 87.4853 98.8419C86.5972 98.2521 85.5195 98.0184 84.4668 98.1874C83.4142 98.3565 82.4638 98.9158 81.8051 99.7541C81.7311 99.8478 81.6473 99.7541 81.6818 99.6456C83.2991 95.923 91.0502 98.5116 88.5848 102.081C87.8304 103.161 86.4942 102.205 86.7457 101.066C87.0267 99.7985 89.211 99.8626 90.138 99.9218C91.1085 99.9239 92.0442 100.284 92.7661 100.933C93.6092 101.766 93.7226 103.077 93.9001 104.187C93.9001 104.241 93.8557 104.31 93.8212 104.241H93.8311Z" fill="#F7CA00"/>
<path d="M33.238 20.9664C31.7242 20.5227 29.6435 20.6459 28.3713 21.6666C27.3852 22.4555 26.8379 24.1664 28.2826 24.7532C28.8496 24.98 30.7184 24.98 30.9402 24.2108C31.098 23.6734 30.5211 23.3529 30.0576 23.2838C28.7017 23.0718 27.4296 24.5017 27.4592 25.7788C27.5085 27.6968 29.7421 28.3329 31.3199 28.3477C31.4235 28.3477 31.3988 28.5449 31.3199 28.5498C28.6327 28.8112 25.6348 26.3212 28.0213 23.8262C28.6672 23.1556 29.6731 22.6774 30.6 23.0472C31.1227 23.2592 31.5369 23.7325 31.2755 24.2996C30.8564 25.2118 29.1701 25.3695 28.3516 25.1378C28.1346 25.0801 27.9318 24.9784 27.7556 24.8392C27.5795 24.7 27.4337 24.5261 27.3274 24.3283C27.2212 24.1305 27.1566 23.913 27.1377 23.6893C27.1188 23.4655 27.146 23.2403 27.2176 23.0275C27.8783 20.6015 31.2706 20.069 33.2873 20.8234C33.3464 20.8234 33.3218 20.9861 33.2527 20.9664H33.238Z" fill="#F7CA00"/>
<path d="M15.63 120.927C14.1162 120.483 12.0355 120.606 10.7634 121.627C9.77723 122.416 9.22499 124.127 10.6746 124.713C11.2416 124.94 13.1055 124.94 13.3323 124.171C13.4851 123.634 12.9082 123.313 12.4497 123.244C11.0888 123.032 9.82161 124.462 9.85119 125.739C9.89557 127.657 12.1292 128.293 13.707 128.308C13.8155 128.308 13.7859 128.505 13.707 128.515C11.0198 128.771 8.0219 126.281 10.4084 123.786C11.0543 123.116 12.0552 122.638 12.9822 123.007C13.5098 123.219 13.924 123.693 13.6626 124.26C13.2435 125.172 11.5523 125.33 10.7338 125.098C10.5168 125.04 10.3141 124.939 10.1381 124.799C9.96207 124.66 9.8166 124.486 9.71071 124.288C9.60481 124.09 9.54075 123.873 9.52251 123.649C9.50426 123.425 9.53222 123.2 9.60465 122.988C10.2604 120.562 13.6577 120.054 15.6744 120.784C15.7335 120.784 15.7089 120.946 15.6398 120.927H15.63Z" fill="#F7CA00"/>
<path d="M19.5108 49.9392C21.3155 50.4767 22.9919 53.652 21.3155 55.0967C19.8905 56.3294 17.011 56.0484 17.4893 53.7063C17.4946 53.6799 17.5065 53.6553 17.5237 53.6347C17.5409 53.614 17.5629 53.598 17.5879 53.5879C19.4813 53.1392 20.1075 55.3482 19.7081 56.8077C19.0917 59.0709 16.8039 59.0462 15.1521 57.8579C15.0979 57.8185 15.1225 57.6656 15.2014 57.7051C16.5524 58.3806 18.4458 58.9772 19.2692 57.2515C19.7081 56.3294 19.7229 54.7861 18.8748 54.0958C18.6547 53.8886 18.3635 53.7738 18.0612 53.7753C17.4301 53.8493 17.5386 54.5346 17.8936 54.9636C18.4606 55.6539 19.5996 55.5799 20.3589 55.3137C22.9574 54.3966 21.1725 51.024 19.4763 50.0773C19.427 50.0477 19.4369 49.9195 19.5108 49.9392Z" fill="#F7CA00"/>
<path d="M25.2452 90.3217C22.1734 90.5682 22.7256 96.4012 25.2057 97.1902C25.3582 97.2447 25.5199 97.2684 25.6816 97.2599C25.8432 97.2515 26.0016 97.211 26.1475 97.1408C26.3295 97.007 26.4755 96.8303 26.5727 96.6265C26.6699 96.4226 26.7153 96.1979 26.7047 95.9723C26.4088 94.9861 24.7324 96.2385 24.5401 96.6281C24.2209 97.1413 24.0719 97.7423 24.1144 98.3453C24.1569 98.9483 24.3887 99.5224 24.7768 99.9859C26.039 101.352 28.4551 101.396 30.0329 100.607C30.1118 100.563 30.1266 100.716 30.0723 100.755C28.3712 101.845 25.5213 101.687 24.259 99.9612C23.2729 98.5806 23.9484 94.9171 26.1475 95.2425C28.1987 95.5433 26.7786 97.8805 25.2255 97.5698C23.6723 97.2592 23.1102 95.1981 22.9623 93.9211C22.7749 92.3137 23.2532 90.1442 25.2452 90.1787C25.3093 90.1787 25.3043 90.3167 25.2452 90.3217Z" fill="#F7CA00"/>
<path d="M63.8231 41.0935C65.9532 40.8224 70.5338 42.6171 69.3406 45.5312C68.7045 47.0843 65.8644 48.0804 64.9325 46.3004C64.9125 46.2519 64.9121 46.1975 64.9314 46.1488C64.9507 46.1 64.9883 46.0607 65.0361 46.039C69.4737 43.5244 74.148 50.7873 69.4392 53.4351C69.2912 53.5189 69.2962 53.2675 69.38 53.2034C69.787 52.9252 70.1343 52.5685 70.4017 52.1544C70.669 51.7402 70.851 51.2768 70.9368 50.7913C71.0227 50.3059 71.0108 49.8082 70.9018 49.3275C70.7928 48.8467 70.5889 48.3925 70.302 47.9916C69.8223 47.2257 69.1396 46.6078 68.3298 46.2067C67.7233 45.9207 66.1997 45.5164 65.6327 46.1081C65.3763 46.3842 65.3812 46.039 65.5143 46.3595C65.6408 46.5499 65.8345 46.6855 66.0567 46.7392C66.5408 46.8929 67.0631 46.8755 67.5359 46.6899C68.5221 46.3447 69.2962 45.4375 69.0151 44.3478C68.4974 42.1635 65.7165 41.3894 63.7689 41.3549C63.6357 41.3549 63.7196 41.1034 63.8231 41.0886V41.0935Z" fill="#F7CA00"/>
<path d="M55.1795 25.7739C55.1795 25.7739 55.3126 28.1603 53.5375 29.4867L51.6836 28.9147C51.6836 28.9147 52.9212 28.323 53.5375 25.7689L55.1795 25.7739Z" fill="#455A64"/>
<path d="M93.4959 84.8338C93.4959 84.8338 93.629 87.2203 91.8539 88.5467L90 87.9846C90 87.9846 91.2376 87.3879 91.8539 84.8338H93.4959Z" fill="#455A64"/>
<path d="M86.1687 113.358C86.1687 113.358 86.2969 115.744 84.5268 117.071L82.6729 116.504C82.6729 116.504 83.9105 115.912 84.5268 113.358H86.1687Z" fill="#37474F"/>
<path d="M12.0898 33.3918C12.0898 33.3918 13.1746 35.5219 15.3688 35.7832L16.7198 34.3631C16.7198 34.3631 15.349 34.4716 13.5345 32.5733L12.0898 33.3918Z" fill="#455A64"/>
<path d="M35.0273 106.953C35.0273 106.953 36.1072 109.083 38.3063 109.344L39.6326 107.924C39.6326 107.924 38.257 108.033 36.4474 106.134L35.0273 106.953Z" fill="#455A64"/>
<path d="M58.3794 67.5764C58.3794 67.5764 59.4592 69.7064 61.6583 69.9678L62.9797 68.5477C62.9797 68.5477 61.609 68.6562 59.7994 66.7579L58.3794 67.5764Z" fill="#F7CA00"/>
<path d="M79.833 39.6982C79.833 39.6982 80.9128 41.8282 83.1119 42.0896L84.4334 40.6695C84.4334 40.6695 83.0626 40.778 81.2531 38.8797L79.833 39.6982Z" fill="#455A64"/>
<path d="M33.9087 41.7345C33.9087 41.7345 36.2804 42.0304 37.7251 40.349L37.2862 38.4605C37.2862 38.4605 36.6107 39.6587 34.0221 40.0975L33.9087 41.7345Z" fill="#F7CA00"/>
<path d="M74.4092 23.2691C74.4092 23.2691 76.7809 23.5649 78.2255 21.8885L77.7916 20C77.7916 20 77.1112 21.1932 74.5226 21.637L74.4092 23.2691Z" fill="#F7CA00"/>
<path d="M79.7886 54.7368C79.7886 54.7368 82.1553 55.0277 83.6 53.3513L83.1661 51.4628C83.1661 51.4628 82.4857 52.661 79.8971 53.0998L79.7886 54.7368Z" fill="#F7CA00"/>
<path d="M2.91406 101.623C2.91406 101.623 5.28573 101.919 6.73043 100.242L6.29653 98.3489C6.29653 98.3489 5.61609 99.547 3.02747 99.9859L2.91406 101.623Z" fill="#F7CA00"/>
<path d="M50.1504 50.4865C50.1504 50.4865 51.2302 52.6166 53.4293 52.8779L54.7557 51.4579C54.7557 51.4579 53.1335 51.7094 51.3042 49.811L50.1504 50.4865Z" fill="#455A64"/>
<path d="M47.7837 53.6323C47.7837 53.6323 48.2077 55.9843 50.249 56.8619L51.9255 55.8758C50.7393 55.3406 49.7536 54.4429 49.1101 53.3118L47.7837 53.6323Z" fill="#37474F"/>
<path d="M125.629 41.3598C125.629 41.3598 124.549 43.4899 122.35 43.7512L121.024 42.3361C121.024 42.3361 122.646 42.5826 124.475 40.6843L125.629 41.3598Z" fill="#455A64"/>
<path d="M114.999 38.8057C114.999 38.8057 114.575 41.1577 112.533 42.0403L110.857 41.0541C112.044 40.5182 113.03 39.6185 113.672 38.4852L114.999 38.8057Z" fill="#37474F"/>
<path d="M102.984 176.89C124.34 176.89 141.653 166.86 141.653 154.487C141.653 142.114 124.34 132.083 102.984 132.083C81.6273 132.083 64.3145 142.114 64.3145 154.487C64.3145 166.86 81.6273 176.89 102.984 176.89Z" fill="#E6E6E6"/>
<path d="M73.0482 131.295C72.9757 131.308 72.9011 131.293 72.8391 131.253C72.7772 131.213 72.7325 131.152 72.7139 131.08L72.6478 130.808C72.5623 130.465 72.3564 130.165 72.0676 129.962C71.7788 129.759 71.4266 129.667 71.0753 129.702L70.7946 129.731C70.7191 129.744 70.6415 129.726 70.5788 129.682C70.5161 129.638 70.4735 129.571 70.4603 129.496C70.4472 129.42 70.4646 129.342 70.5087 129.28C70.5528 129.217 70.6201 129.174 70.6956 129.161L70.968 129.091C71.3105 129.006 71.6108 128.8 71.814 128.511C72.0171 128.222 72.1094 127.87 72.0741 127.518L72.0452 127.238C72.0321 127.162 72.0495 127.085 72.0936 127.022C72.1378 126.959 72.205 126.917 72.2805 126.904C72.356 126.89 72.4337 126.908 72.4964 126.952C72.5591 126.996 72.6017 127.063 72.6148 127.139L72.685 127.411C72.7697 127.754 72.9755 128.055 73.2645 128.258C73.5534 128.461 73.9061 128.553 74.2575 128.517L74.5341 128.488C74.6068 128.482 74.6792 128.503 74.7372 128.547C74.7952 128.592 74.8346 128.656 74.8477 128.728C74.8614 128.8 74.8467 128.874 74.8067 128.936C74.7667 128.997 74.7045 129.041 74.6331 129.058L74.3607 129.128C74.0189 129.215 73.7196 129.421 73.5173 129.71C73.315 129.998 73.2232 130.35 73.2587 130.701L73.2835 130.981C73.2909 131.054 73.2708 131.126 73.2272 131.184C73.1836 131.242 73.1197 131.282 73.0482 131.295ZM71.9255 129.231C72.2627 129.356 72.5615 129.567 72.7923 129.842C72.9163 129.504 73.1269 129.203 73.4031 128.971C73.066 128.847 72.7672 128.636 72.5364 128.36C72.4124 128.699 72.2018 128.999 71.9255 129.231Z" fill="#E0E0E0"/>
<path d="M64.5994 122.434C64.5274 122.446 64.4533 122.431 64.3921 122.391C64.3308 122.351 64.2869 122.29 64.2692 122.219L64.199 121.947C64.1135 121.604 63.9076 121.304 63.6188 121.101C63.33 120.897 62.9778 120.805 62.6265 120.84L62.3458 120.869C62.2731 120.876 62.2007 120.855 62.1427 120.81C62.0847 120.766 62.0453 120.702 62.0322 120.63C62.0196 120.558 62.0347 120.484 62.0745 120.423C62.1143 120.361 62.1759 120.317 62.2468 120.3L62.5192 120.23C62.8617 120.144 63.162 119.938 63.3652 119.649C63.5683 119.361 63.6606 119.008 63.6253 118.657L63.5964 118.376C63.5911 118.304 63.6124 118.232 63.6566 118.174C63.7007 118.116 63.7645 118.077 63.8358 118.063C63.9077 118.051 63.9813 118.067 64.0424 118.106C64.1034 118.146 64.1475 118.207 64.166 118.277L64.2362 118.55C64.3209 118.893 64.5267 119.193 64.8157 119.397C65.1046 119.6 65.4573 119.692 65.8087 119.656L66.0894 119.627C66.1619 119.622 66.2339 119.643 66.2917 119.687C66.3495 119.731 66.3891 119.795 66.4031 119.866C66.4147 119.938 66.3992 120.012 66.3595 120.073C66.3198 120.134 66.2588 120.178 66.1884 120.197L65.916 120.267C65.5731 120.351 65.2722 120.557 65.069 120.846C64.8657 121.135 64.7737 121.488 64.8099 121.839L64.8388 122.12C64.8451 122.193 64.8241 122.265 64.7798 122.323C64.7355 122.381 64.6712 122.42 64.5994 122.434ZM63.4768 120.37C63.8154 120.494 64.1157 120.705 64.3476 120.981C64.4716 120.642 64.6823 120.342 64.9585 120.11C64.6198 119.986 64.3195 119.775 64.0876 119.499C63.9649 119.841 63.7542 120.144 63.4768 120.378V120.37Z" fill="#E0E0E0"/>
<path d="M132.701 111.347C132.629 111.358 132.555 111.34 132.495 111.299C132.434 111.258 132.392 111.196 132.375 111.125L132.313 110.848C132.236 110.504 132.038 110.199 131.754 109.99C131.471 109.78 131.121 109.681 130.769 109.709L130.489 109.73C130.416 109.734 130.344 109.711 130.287 109.665C130.229 109.619 130.191 109.554 130.179 109.482C130.169 109.41 130.186 109.336 130.227 109.276C130.269 109.215 130.331 109.173 130.402 109.156L130.679 109.094C131.023 109.016 131.328 108.816 131.538 108.532C131.748 108.248 131.848 107.898 131.822 107.546L131.801 107.27C131.796 107.197 131.818 107.125 131.863 107.068C131.909 107.011 131.974 106.973 132.046 106.963C132.118 106.952 132.191 106.968 132.251 107.009C132.312 107.05 132.354 107.112 132.371 107.183L132.433 107.455C132.509 107.801 132.708 108.107 132.993 108.317C133.277 108.527 133.628 108.627 133.98 108.599L134.261 108.578C134.334 108.574 134.405 108.597 134.462 108.643C134.518 108.689 134.555 108.754 134.567 108.826C134.578 108.898 134.561 108.972 134.519 109.033C134.478 109.093 134.415 109.136 134.344 109.152L134.071 109.214C133.727 109.291 133.422 109.489 133.212 109.773C133.003 110.056 132.902 110.406 132.928 110.757L132.949 111.038C132.955 111.111 132.932 111.184 132.886 111.242C132.84 111.299 132.774 111.337 132.701 111.347ZM131.632 109.263C131.966 109.396 132.261 109.614 132.486 109.895C132.619 109.56 132.836 109.265 133.118 109.04C132.781 108.912 132.485 108.694 132.263 108.409C132.13 108.745 131.909 109.04 131.624 109.263H131.632Z" fill="#E0E0E0"/>
<path d="M139.491 121.431C139.423 121.404 139.368 121.352 139.336 121.286C139.305 121.221 139.3 121.145 139.321 121.076L139.408 120.807C139.514 120.47 139.495 120.107 139.354 119.782C139.214 119.458 138.962 119.195 138.644 119.041L138.393 118.917C138.327 118.885 138.276 118.829 138.249 118.761C138.223 118.693 138.222 118.618 138.248 118.55C138.275 118.482 138.327 118.427 138.392 118.395C138.458 118.364 138.534 118.359 138.603 118.38L138.876 118.463C139.212 118.57 139.575 118.551 139.898 118.412C140.222 118.273 140.485 118.021 140.638 117.704L140.762 117.452C140.794 117.386 140.85 117.335 140.917 117.308C140.985 117.282 141.061 117.281 141.129 117.307C141.197 117.334 141.252 117.386 141.283 117.452C141.315 117.517 141.32 117.593 141.298 117.662L141.216 117.931C141.109 118.267 141.127 118.631 141.266 118.955C141.406 119.28 141.658 119.543 141.975 119.697L142.231 119.821C142.266 119.835 142.298 119.856 142.326 119.882C142.353 119.909 142.374 119.941 142.389 119.975C142.404 120.01 142.412 120.048 142.413 120.086C142.413 120.124 142.406 120.161 142.392 120.197C142.378 120.232 142.357 120.264 142.331 120.291C142.304 120.318 142.273 120.34 142.238 120.355C142.203 120.37 142.165 120.378 142.127 120.378C142.089 120.379 142.052 120.372 142.017 120.358L141.748 120.275C141.412 120.167 141.048 120.185 140.723 120.324C140.398 120.464 140.135 120.716 139.982 121.034L139.858 121.286C139.826 121.352 139.771 121.404 139.703 121.431C139.635 121.458 139.559 121.458 139.491 121.431ZM139.614 119.09C139.835 119.375 139.977 119.712 140.027 120.069C140.308 119.845 140.645 119.702 141.001 119.656C140.78 119.372 140.637 119.034 140.588 118.678C140.307 118.9 139.97 119.043 139.614 119.09Z" fill="#E0E0E0"/>
<path d="M73.0605 114.146C72.95 114.164 72.8367 114.14 72.7428 114.079C72.6489 114.018 72.5812 113.924 72.5529 113.816L72.4497 113.403C72.3178 112.878 72.0019 112.418 71.5595 112.107C71.1171 111.796 70.5776 111.654 70.0393 111.707L69.6265 111.752C69.5147 111.762 69.4032 111.73 69.3139 111.662C69.2245 111.594 69.1638 111.495 69.1436 111.385C69.1246 111.274 69.1481 111.16 69.2093 111.066C69.2705 110.972 69.365 110.904 69.4738 110.877L69.8866 110.77C70.4117 110.639 70.8722 110.324 71.1831 109.881C71.494 109.438 71.6345 108.897 71.5788 108.359L71.5375 107.946C71.5278 107.835 71.5602 107.725 71.6282 107.636C71.6963 107.548 71.795 107.488 71.905 107.469C72.0149 107.449 72.128 107.472 72.222 107.532C72.316 107.593 72.384 107.686 72.4125 107.794L72.5157 108.207C72.6478 108.732 72.9644 109.192 73.4078 109.502C73.8512 109.813 74.3916 109.954 74.9302 109.899L75.343 109.857C75.4543 109.848 75.5653 109.88 75.654 109.948C75.7426 110.016 75.8025 110.115 75.8217 110.225C75.8416 110.335 75.8185 110.449 75.757 110.542C75.6956 110.636 75.6006 110.703 75.4915 110.728L75.0788 110.836C74.5536 110.966 74.0932 111.282 73.7823 111.725C73.4714 112.168 73.3308 112.708 73.3866 113.246L73.4279 113.659C73.439 113.771 73.4074 113.884 73.3393 113.974C73.2713 114.064 73.1717 114.126 73.0605 114.146ZM71.3435 110.992C71.8628 111.182 72.3227 111.505 72.6767 111.929C72.8644 111.41 73.1863 110.95 73.6095 110.596C73.0914 110.407 72.6329 110.084 72.2805 109.659C72.0923 110.179 71.7688 110.639 71.3435 110.992Z" fill="#E0E0E0"/>
<path d="M130.844 131.328C130.733 131.31 130.634 131.25 130.566 131.161C130.497 131.072 130.466 130.961 130.477 130.849L130.518 130.416C130.569 129.877 130.424 129.338 130.111 128.897C129.797 128.456 129.335 128.142 128.809 128.014L128.396 127.911C128.289 127.882 128.197 127.814 128.137 127.721C128.077 127.627 128.054 127.515 128.073 127.406C128.091 127.296 128.15 127.198 128.237 127.129C128.325 127.061 128.434 127.027 128.545 127.036L128.958 127.077C129.496 127.129 130.035 126.985 130.477 126.672C130.918 126.359 131.231 125.898 131.36 125.372L131.467 124.96C131.487 124.844 131.552 124.741 131.647 124.673C131.743 124.606 131.861 124.579 131.977 124.598C132.092 124.618 132.195 124.683 132.263 124.778C132.331 124.874 132.358 124.993 132.338 125.108L132.301 125.521C132.249 126.059 132.392 126.599 132.705 127.04C133.018 127.481 133.48 127.794 134.005 127.923L134.418 128.026C134.525 128.055 134.618 128.123 134.678 128.216C134.738 128.31 134.76 128.422 134.742 128.531C134.723 128.641 134.665 128.739 134.577 128.808C134.49 128.876 134.38 128.909 134.27 128.901L133.857 128.86C133.319 128.809 132.78 128.952 132.339 129.265C131.898 129.578 131.584 130.039 131.455 130.564L131.347 130.977C131.324 131.089 131.259 131.188 131.166 131.253C131.072 131.318 130.957 131.345 130.844 131.328ZM130.278 127.783C130.705 128.134 131.03 128.593 131.219 129.112C131.571 128.684 132.029 128.358 132.549 128.166C132.123 127.816 131.798 127.359 131.607 126.842C131.256 127.268 130.797 127.593 130.278 127.783Z" fill="#E0E0E0"/>
<path d="M130.08 54.0801L131.26 55.4999L133.039 55.0253C134.364 54.6745 137.873 53.7417 138.793 50.8567C139.014 50.1583 138.962 49.402 138.647 48.7406C138.332 48.0792 137.778 47.5622 137.096 47.2942C136.414 47.0262 135.656 47.0272 134.975 47.297C134.294 47.5669 133.741 48.0853 133.427 48.7476C133.612 48.0032 133.494 47.2158 133.099 46.5587C132.703 45.9015 132.063 45.4284 131.318 45.2434C130.574 45.0584 129.787 45.1767 129.129 45.5722C128.472 45.9678 127.999 46.6081 127.814 47.3525C126.881 50.2375 129.205 53.0318 130.08 54.0801Z" fill="#008060"/>
<path opacity="0.25" d="M130.08 54.0801L131.26 55.4999L133.039 55.0253C134.364 54.6745 137.873 53.7417 138.793 50.8567C139.014 50.1583 138.962 49.402 138.647 48.7406C138.332 48.0792 137.778 47.5622 137.096 47.2942C136.414 47.0262 135.656 47.0272 134.975 47.297C134.294 47.5669 133.741 48.0853 133.427 48.7476C133.612 48.0032 133.494 47.2158 133.099 46.5587C132.703 45.9015 132.063 45.4284 131.318 45.2434C130.574 45.0584 129.787 45.1767 129.129 45.5722C128.472 45.9678 127.999 46.6081 127.814 47.3525C126.881 50.2375 129.205 53.0318 130.08 54.0801Z" fill="white"/>
<path d="M79.148 19.5464L81.1498 20.0458L82.4417 18.4444C83.4034 17.2516 85.95 14.09 84.8727 10.8789C84.6133 10.0974 84.0656 9.44417 83.3414 9.05234C82.6171 8.66051 81.7707 8.55954 80.9746 8.77002C80.1785 8.98049 79.4925 9.48656 79.0565 10.1851C78.6206 10.8837 78.4673 11.7222 78.628 12.5299C78.2653 11.7929 77.6363 11.2212 76.8681 10.9304C76.1 10.6395 75.25 10.6513 74.4902 10.9633C73.7304 11.2753 73.1175 11.8642 72.7754 12.611C72.4333 13.3577 72.3875 14.2065 72.6474 14.9857C73.7247 18.205 77.6663 19.1791 79.148 19.5464Z" fill="#F7CA00"/>
<path opacity="0.35" d="M79.148 19.5464L81.1498 20.0458L82.4417 18.4444C83.4034 17.2516 85.95 14.09 84.8727 10.8789C84.6133 10.0974 84.0656 9.44417 83.3414 9.05234C82.6171 8.66051 81.7707 8.55954 80.9746 8.77002C80.1785 8.98049 79.4925 9.48656 79.0565 10.1851C78.6206 10.8837 78.4673 11.7222 78.628 12.5299C78.2653 11.7929 77.6363 11.2212 76.8681 10.9304C76.1 10.6395 75.25 10.6513 74.4902 10.9633C73.7304 11.2753 73.1175 11.8642 72.7754 12.611C72.4333 13.3577 72.3875 14.2065 72.6474 14.9857C73.7247 18.205 77.6663 19.1791 79.148 19.5464Z" fill="white"/>
<path d="M73.4979 30.6614L74.6907 30.5582L75.1034 29.4356C75.4047 28.6101 76.2096 26.3896 75.0168 24.8336C74.7224 24.4724 74.3042 24.2335 73.8436 24.1634C73.3829 24.0933 72.9126 24.197 72.5242 24.4543C72.1357 24.7116 71.8567 25.1041 71.7414 25.5556C71.6262 26.0071 71.6829 26.4853 71.9006 26.8973C71.5695 26.5327 71.1085 26.3127 70.6168 26.2848C70.1251 26.2568 69.6421 26.4232 69.2719 26.7479C68.9017 27.0727 68.6738 27.5299 68.6375 28.021C68.6011 28.5122 68.7591 28.9979 69.0775 29.3737C70.2703 30.938 72.6146 30.7357 73.4979 30.6614Z" fill="#F7CA00"/>
<path d="M66.468 50.2632C62.9514 48.2656 58.1142 48.571 52.7733 51.6541C42.0422 57.8452 33.3169 72.9472 33.3169 85.3583C33.3169 91.5493 35.492 95.9078 39.0085 97.9426L45.6577 101.769C49.1743 103.795 54.0363 103.498 59.4019 100.403C70.1331 94.2115 78.8625 79.1094 78.8625 66.6984C78.8625 60.5073 76.6956 56.1654 73.1914 54.1264C71.718 53.2721 67.9538 51.1052 66.468 50.2632Z" fill="#008060"/>
<path opacity="0.15" d="M34.0309 78.9072C33.5705 81.0271 33.3312 83.189 33.3169 85.3583C33.3169 91.5493 35.492 95.9078 39.0085 97.9426L45.6577 101.769C49.1743 103.795 54.0363 103.498 59.4019 100.403C61.2697 99.308 63.0181 98.0215 64.6189 96.5641L34.0309 78.9072Z" fill="black"/>
<path d="M73.1668 85.8618C76.6833 79.7657 78.8584 72.8977 78.8584 66.6984C78.8584 54.2915 70.1455 49.2603 59.3978 55.4678C48.6502 61.6754 39.9414 76.7609 39.9414 89.1678C39.9414 101.575 48.6708 106.606 59.402 100.403C62.2235 98.7309 64.7838 96.6532 67.0005 94.2362L74.9415 95.6891C75.1712 95.7306 75.4078 95.7099 75.6268 95.6292C75.8458 95.5485 76.0392 95.4107 76.187 95.2301C76.3348 95.0495 76.4315 94.8326 76.4673 94.602C76.503 94.3713 76.4764 94.1353 76.3902 93.9184L73.1668 85.8618Z" fill="#008060"/>
<path opacity="0.35" d="M73.1668 85.8618C76.6833 79.7657 78.8584 72.8977 78.8584 66.6984C78.8584 54.2915 70.1455 49.2603 59.3978 55.4678C48.6502 61.6754 39.9414 76.7609 39.9414 89.1678C39.9414 101.575 48.6708 106.606 59.402 100.403C62.2235 98.7309 64.7838 96.6532 67.0005 94.2362L74.9415 95.6891C75.1712 95.7306 75.4078 95.7099 75.6268 95.6292C75.8458 95.5485 76.0392 95.4107 76.187 95.2301C76.3348 95.0495 76.4315 94.8326 76.4673 94.602C76.503 94.3713 76.4764 94.1353 76.3902 93.9184L73.1668 85.8618Z" fill="white"/>
<path d="M68.829 74.7179C69.5533 73.8136 69.9698 72.7016 70.0177 71.5439C70.0177 70.4419 69.6049 69.9838 69.1922 69.8352C69.5723 69.0949 69.7784 68.2775 69.7948 67.4455C69.7948 66.3228 69.1592 65.0227 67.8013 65.7945L62.7287 68.7167C63.0589 66.4219 62.9144 64.6554 62.2582 62.9136C61.6556 61.3163 60.1367 61.8116 59.3195 62.5009C59.1127 62.6453 58.9405 62.8339 58.8156 63.053C58.6907 63.2722 58.6161 63.5164 58.5972 63.768C58.5972 63.9248 58.5972 64.2426 58.6302 64.6512C58.6715 65.6294 58.7706 67.916 58.6302 68.5144C58.4899 69.1129 56.9256 73.1908 55.9227 75.7291C55.8848 75.8238 55.8638 75.9244 55.8608 76.0263V89.7952C55.8608 90.0304 55.9887 90.1501 56.1538 90.0924L56.2116 90.0635L65.329 84.8093C66.0207 84.3548 66.5966 83.7449 67.0108 83.0283C67.425 82.3117 67.666 81.5082 67.7146 80.6819C67.7158 80.2656 67.6716 79.8504 67.5825 79.4437C68.3922 78.503 68.8973 77.3387 69.0312 76.1047C69.0495 75.6339 68.9809 75.1638 68.829 74.7179ZM67.1244 78.8453C66.9871 78.9375 66.8841 79.0724 66.8313 79.2291C66.7655 79.3745 66.7552 79.5389 66.8024 79.6914C66.947 80.1306 67.0168 80.591 67.0088 81.0534C66.9643 81.6191 66.7895 82.1669 66.4981 82.6538C66.2067 83.1407 65.8065 83.5535 65.329 83.86L56.5542 88.9367V75.7828C56.9999 74.6519 59.0306 69.4225 59.2782 68.5144C59.4763 67.755 59.4186 66.038 59.3401 64.222C59.3401 63.9248 59.3154 63.6813 59.3113 63.5162C59.5752 63.235 59.9126 63.0334 60.2853 62.9342C60.421 62.8901 60.5642 62.8741 60.7063 62.887C60.8484 62.9 60.9864 62.9417 61.1118 63.0097C61.2373 63.0776 61.3476 63.1704 61.4362 63.2823C61.5247 63.3942 61.5895 63.5229 61.6267 63.6607C62.2788 65.3942 62.382 67.1524 61.9652 69.5339C61.946 69.5957 61.9416 69.6611 61.9523 69.725C61.9631 69.7888 61.9887 69.8492 62.0271 69.9012C62.0619 69.9393 62.1098 69.9626 62.1612 69.9664C62.2126 69.9703 62.2636 69.9543 62.3036 69.9219L67.8219 66.7479C68.7918 66.1907 69.1096 67.2432 69.1096 67.8458C69.0895 68.6232 68.8364 69.3766 68.3832 70.0086C68.2595 70.1714 68.2007 70.3744 68.2181 70.5781C68.2181 70.7515 68.3419 70.8464 68.4823 70.8093C68.5153 70.8093 69.3078 70.6153 69.3078 71.9443C69.2768 72.8466 68.8947 73.7011 68.2429 74.3258C68.114 74.4464 68.0247 74.6032 67.987 74.7757C67.9655 74.8445 67.9595 74.9172 67.9695 74.9885C67.9795 75.0599 68.0052 75.1282 68.0448 75.1884C68.0448 75.1884 68.3213 75.5021 68.3213 76.4803C68.3254 77.0622 67.6774 78.5481 67.1244 78.8618V78.8453ZM54.4864 75.9561L50.5076 78.2427C50.4019 78.313 50.3165 78.4097 50.2599 78.5233C50.1956 78.6443 50.1603 78.7785 50.1567 78.9154V94.942C50.1567 95.1731 50.2847 95.297 50.4498 95.2351L50.5076 95.2103L54.4864 92.9196C54.5929 92.8504 54.6786 92.7533 54.734 92.6389C54.7988 92.5182 54.8341 92.3838 54.8372 92.2468V76.2203C54.8372 75.9602 54.6845 75.8323 54.4864 75.952V75.9561ZM52.4887 91.6112C52.076 91.8506 51.7375 91.6112 51.7375 91.0458C51.7423 90.7644 51.8127 90.4881 51.9431 90.2387C52.0735 89.9894 52.2603 89.7739 52.4887 89.6095C52.9014 89.3701 53.2399 89.6095 53.2399 90.179C53.2345 90.4591 53.1637 90.7341 53.0333 90.982C52.9029 91.2299 52.7164 91.444 52.4887 91.6071V91.6112Z" fill="#FAFAFA"/>
<path d="M159.711 19.2632C163.228 17.2656 168.065 17.571 173.406 20.6541C184.137 26.8452 192.862 41.9472 192.862 54.3583C192.862 60.5493 190.687 64.9078 187.171 66.9426L180.522 70.7687C177.005 72.7952 172.143 72.4981 166.777 69.4025C156.046 63.2115 147.317 48.1094 147.317 35.6984C147.317 29.5073 149.484 25.1654 152.988 23.1264C154.461 22.2721 158.226 20.1052 159.711 19.2632Z" fill="#F7CA00"/>
<path opacity="0.15" d="M192.149 47.9072C192.609 50.0271 192.848 52.189 192.863 54.3583C192.863 60.5493 190.687 64.9078 187.171 66.9426L180.522 70.7687C177.005 72.7952 172.143 72.4981 166.778 69.4025C164.91 68.308 163.161 67.0215 161.561 65.5641L192.149 47.9072Z" fill="black"/>
<path d="M153.012 54.8618C149.496 48.7657 147.321 41.8977 147.321 35.6984C147.321 23.2915 156.034 18.2603 166.781 24.4678C177.529 30.6754 186.238 45.7609 186.238 58.1678C186.238 70.5747 177.508 75.606 166.777 69.4025C163.956 67.7309 161.395 65.6532 159.179 63.2362L151.238 64.6891C151.008 64.7306 150.771 64.7099 150.552 64.6292C150.333 64.5485 150.14 64.4107 149.992 64.2301C149.844 64.0495 149.748 63.8326 149.712 63.602C149.676 63.3713 149.703 63.1353 149.789 62.9184L153.012 54.8618Z" fill="#F7CA00"/>
<path opacity="0.35" d="M153.012 54.8618C149.496 48.7657 147.321 41.8977 147.321 35.6984C147.321 23.2915 156.034 18.2603 166.781 24.4678C177.529 30.6754 186.238 45.7609 186.238 58.1678C186.238 70.5747 177.508 75.606 166.777 69.4025C163.956 67.7309 161.395 65.6532 159.179 63.2362L151.238 64.6891C151.008 64.7306 150.771 64.7099 150.552 64.6292C150.333 64.5485 150.14 64.4107 149.992 64.2301C149.844 64.0495 149.748 63.8326 149.712 63.602C149.676 63.3713 149.703 63.1353 149.789 62.9184L153.012 54.8618Z" fill="white"/>
<path d="M173.241 63.682C173.039 63.6646 172.844 63.6017 172.671 63.498C172.497 63.3944 172.349 63.2526 172.238 63.0835L166.559 55.8193L160.95 56.5127C160.77 56.5235 160.591 56.4917 160.426 56.42C160.261 56.3483 160.115 56.2386 160 56.1C159.764 55.8514 159.584 55.5552 159.472 55.2314C159.359 54.9075 159.317 54.5634 159.348 54.2221L160.438 46.3553L155.774 37.63C155.386 36.8995 155.361 36.0988 155.749 35.6778C155.865 35.5523 156.017 35.4659 156.184 35.4304C156.351 35.3949 156.525 35.4121 156.682 35.4796L162.873 37.8529L165.634 31.9796C165.701 31.8253 165.814 31.6952 165.957 31.6066C166.1 31.5181 166.267 31.4755 166.435 31.4844C167.004 31.5256 167.57 32.1117 167.813 32.9083L170.682 42.3187L177.084 47.2716C177.352 47.5009 177.568 47.7849 177.717 48.1045C177.867 48.4241 177.946 48.7719 177.95 49.1247C177.957 49.2984 177.924 49.4714 177.852 49.6298C177.78 49.7882 177.673 49.9276 177.538 50.0369L172.997 53.3058L174.079 62.3612C174.157 62.9886 173.951 63.4674 173.534 63.6366C173.44 63.6699 173.341 63.6853 173.241 63.682ZM166.711 55.0971C166.765 55.0969 166.818 55.1091 166.866 55.1327C166.914 55.1564 166.955 55.1908 166.988 55.2333L172.791 62.6625C173.018 62.9473 173.204 63.0092 173.282 62.9803C173.361 62.9514 173.443 62.7822 173.402 62.4355L172.292 53.1778C172.284 53.1155 172.293 53.0522 172.319 52.9948C172.344 52.9374 172.385 52.8879 172.436 52.8518L177.129 49.4591C177.172 49.4112 177.204 49.3549 177.224 49.2938C177.244 49.2326 177.251 49.1681 177.244 49.1041C177.239 48.8601 177.184 48.6197 177.082 48.3981C176.98 48.1765 176.833 47.9785 176.65 47.8164L170.162 42.8057C170.103 42.7607 170.06 42.6987 170.038 42.6283L167.149 33.1105C166.971 32.5286 166.596 32.2025 166.394 32.186C166.361 32.186 166.323 32.186 166.278 32.2809L163.389 38.4472C163.351 38.5269 163.285 38.5894 163.203 38.6223C163.121 38.6552 163.03 38.6561 162.947 38.6247L156.455 36.1483C156.343 36.107 156.315 36.1483 156.298 36.1483C156.221 36.3366 156.192 36.5409 156.213 36.7432C156.234 36.9454 156.304 37.1394 156.418 37.3081L161.115 46.1241C161.151 46.1896 161.165 46.2647 161.156 46.3388L160.046 54.317C160.03 54.5564 160.065 54.7964 160.147 55.0217C160.23 55.2469 160.358 55.4525 160.524 55.6254C160.569 55.6815 160.623 55.7284 160.686 55.7631C160.748 55.7978 160.817 55.8198 160.888 55.8276L166.691 55.1094L166.711 55.0971Z" fill="#FAFAFA"/>
<path d="M91.8359 160.649C92.2253 161.683 92.8066 162.713 93.9692 163.097C96.3585 163.891 99.4624 161.838 100.748 160.307C102.305 158.451 102.54 156.473 103.681 154.931C104.822 153.39 106.433 152.414 107.212 151.081C107.532 150.583 107.721 150.011 107.761 149.42C107.802 148.829 107.691 148.237 107.441 147.7C107.074 147.032 106.517 146.488 105.841 146.137C105.665 146.03 105.356 146.02 105.164 145.913L91.8359 160.649Z" fill="#263238"/>
<path d="M96.8014 150.926C96.6353 151.885 96.2602 152.795 95.7027 153.593C94.7108 154.915 93.4361 155.891 92.2682 157.038C91.8476 157.377 91.5056 157.802 91.2655 158.286C90.7749 159.566 91.3509 160.601 92.2522 161.598C92.6457 161.957 93.1193 162.216 93.6335 162.355C94.391 162.563 95.1906 162.563 95.9481 162.355C97.4081 161.855 98.7142 160.986 99.74 159.833C101.761 157.571 101.633 154.601 104.044 152.617C106.454 150.633 108.076 148.516 105.617 145.956C104.423 144.708 103.089 144.174 102.732 143.726C102.092 142.932 100.599 144.324 100.124 144.729C99.6493 145.134 99.1906 145.614 98.7053 146.041C98.2585 146.544 97.8485 147.079 97.4787 147.641C97.3253 147.798 97.1976 147.978 97.1 148.174C97.0162 148.436 96.9836 148.711 97.004 148.985C97.0016 149.637 96.9337 150.288 96.8014 150.926Z" fill="#37474F"/>
<path d="M99.7773 159.817C100.058 159.52 100.312 159.199 100.535 158.857C100.155 157.714 99.4038 156.73 98.4013 156.062C97.7797 155.64 97.0754 155.355 96.3351 155.226C95.5949 155.097 94.8357 155.128 94.1081 155.315C93.3692 155.769 92.6715 156.287 92.0228 156.862C91.5986 157.229 91.2769 157.699 91.0895 158.227C90.9224 158.85 90.947 159.508 91.1601 160.116C91.3733 160.724 91.7651 161.254 92.2841 161.635C92.6584 161.981 93.116 162.223 93.6121 162.339C94.3714 162.547 95.1727 162.547 95.932 162.339C97.3972 161.818 98.7158 160.953 99.7773 159.817Z" fill="#FAFAFA"/>
<path d="M101.041 139.684L102.481 144.094C102.481 144.094 103.585 145.54 101.846 147.214C100.108 148.889 98.161 148.814 97.3237 147.796L94.8438 143.113L101.041 139.684Z" fill="#B16668"/>
<path d="M137.302 130.767C137.936 131.065 139.611 131.177 140.533 130.548C142.459 129.236 142.869 125.37 142.267 123.231C141.531 120.639 140.091 119.327 139.6 117.77C139.109 116.213 139.243 113.983 138.592 112.623C138.328 112.096 137.953 111.633 137.492 111.265C137.032 110.896 136.498 110.632 135.926 110.49C135.563 110.391 135.182 110.376 134.813 110.445C134.443 110.514 134.094 110.666 133.792 110.89L133.211 111.317L137.302 130.767Z" fill="#263238"/>
<path d="M132.406 120.975C133.089 121.681 133.592 122.541 133.872 123.482C134.363 125.028 134.406 126.682 134.614 128.282C134.658 128.817 134.797 129.341 135.024 129.828C135.611 130.953 136.95 131.161 138.283 130.991C138.814 130.876 139.312 130.64 139.739 130.303C140.355 129.817 140.826 129.172 141.099 128.436C141.556 126.95 141.626 125.371 141.301 123.85C140.816 120.959 137.91 119.05 137.947 116.202C137.984 113.354 136.315 109.669 132.731 111.557C130.95 112.549 129.332 113.808 127.931 115.29C128.784 116.57 129.659 117.844 130.496 119.135C130.659 119.462 130.865 119.765 131.11 120.036C131.478 120.362 131.958 120.538 132.326 120.89L132.406 120.975Z" fill="#37474F"/>
<path d="M141.301 123.898C141.231 123.499 141.118 123.11 140.965 122.735C139.836 122.339 138.604 122.351 137.483 122.767C136.755 122.994 136.091 123.388 135.545 123.919C134.998 124.45 134.584 125.102 134.336 125.823C134.262 126.687 134.262 127.556 134.336 128.42C134.391 128.977 134.574 129.513 134.87 129.988C135.654 131.124 136.918 131.209 138.251 131.055C138.782 130.939 139.28 130.703 139.707 130.367C140.322 129.88 140.792 129.235 141.067 128.5C141.538 127.011 141.619 125.427 141.301 123.898Z" fill="#FAFAFA"/>
<path d="M128.742 113.541L130.998 113.445C131.581 113.706 132.094 114.101 132.495 114.599C132.895 115.097 133.172 115.683 133.302 116.309C133.405 116.952 133.375 117.609 133.211 118.24C133.048 118.871 132.755 119.461 132.352 119.972L128.619 120.463L128.731 113.69" fill="#B16668"/>
<path d="M128.912 113.253L113.334 113.407C113.334 113.407 116.161 92.5065 115.227 80.2722L90.2254 77.3976L90.1508 77.5522C86.0495 88.4693 81.719 102.709 79.3617 113.439C78.6364 116.746 79.0097 117.647 81.5803 122.506C85.1909 129.321 91.3347 138.441 95.7346 145.364C99.2118 145.054 101.068 143.998 101.868 141.124C99.1372 134.761 96.8279 121.034 90.6681 115.21C94.108 109.077 97.3346 102.032 100.62 95.2638C100.721 99.573 101.153 113.701 102.652 119.519C103.58 123.172 105.606 125.354 109.649 124.708C115.281 123.807 130.16 120.474 130.16 120.474C133.147 120.047 132.4 114.463 128.912 113.253Z" fill="#008060"/>
<path opacity="0.2" d="M128.912 113.253L113.334 113.407C113.334 113.407 116.161 92.5065 115.227 80.2722L90.2254 77.3976L90.1508 77.5522C86.0495 88.4693 81.719 102.709 79.3617 113.439C78.6364 116.746 79.0097 117.647 81.5803 122.506C85.1909 129.321 91.3347 138.441 95.7346 145.364C99.2118 145.054 101.068 143.998 101.868 141.124C99.1372 134.761 96.8279 121.034 90.6681 115.21C94.108 109.077 97.3346 102.032 100.62 95.2638C100.721 99.573 101.153 113.701 102.652 119.519C103.58 123.172 105.606 125.354 109.649 124.708C115.281 123.807 130.16 120.474 130.16 120.474C133.147 120.047 132.4 114.463 128.912 113.253Z" fill="black"/>
<path opacity="0.2" d="M113.35 113.407C113.35 113.407 113.564 116.229 112.358 118.335C113.212 117.535 113.874 116.552 114.294 115.461C114.934 113.722 119.926 114.133 123.659 113.327L113.35 113.407Z" fill="black"/>
<path opacity="0.2" d="M100.615 95.2744L100.369 91.3385C98.2372 90.1172 96.3436 88.5199 94.7803 86.624C95.9867 88.5429 97.4877 90.2599 99.2282 91.7119L99.6015 94.4958L94.1616 108.65L100.615 95.2744Z" fill="black"/>
<path opacity="0.2" d="M90.6732 115.194C90.3374 115.683 89.9122 116.105 89.4199 116.437C90.8759 117.234 92.1593 118.313 93.1958 119.61C94.3224 121.142 95.3486 122.745 96.2677 124.41C94.7798 120.772 93.0145 117.423 90.6732 115.194Z" fill="black"/>
<path d="M81.2552 35.6707C82.0232 37.6493 91.5056 51.6703 93.7829 55.0248C100.257 52.2622 95.9482 44.6518 95.9482 44.6518C95.9482 44.6518 89.143 33.6388 88.0391 31.7828C87.779 31.3096 87.6158 30.7892 87.5591 30.2522C87.4204 29.2709 86.9404 17.2285 87.5271 13.5913C87.6368 12.9455 87.9804 12.3627 88.4924 11.954C89.8523 10.85 90.327 9.82074 91.2923 8.5301C92.0443 7.51147 92.7589 7.19147 92.6043 6.93015C92.3975 6.63241 92.0856 6.42401 91.7314 6.34683C91.3772 6.26966 91.0069 6.32944 90.695 6.51416C89.9913 6.89893 89.3361 7.36621 88.743 7.90612C89.0864 6.50856 89.6537 5.1758 90.423 3.95956C92.1723 1.16497 92.0709 -0.397654 87.8951 0.0876659C85.2765 0.391658 82.7272 2.41827 81.4952 8.42877C81.1379 10.1567 81.0579 12.7647 80.9246 15.0046C80.6366 20.0925 80.4446 28.1456 80.5406 31.6708C80.5726 33.4414 80.4926 33.6974 81.2552 35.6707Z" fill="#B16668"/>
<path d="M100.049 43.1958C97.8038 42.8652 90.4493 34.8174 90.4493 34.8174C88.396 34.7001 83.3615 39.9639 84.3588 42.1079C87.3507 47.0891 91.1533 51.7076 92.1879 54.9075C93.0466 56.7101 95.3452 55.1795 96.3371 51.3876C97.7291 46.1451 101.873 43.4838 100.049 43.1958Z" fill="#008060"/>
<path opacity="0.3" d="M100.049 43.1958C97.8038 42.8652 90.4493 34.8174 90.4493 34.8174C88.396 34.7001 83.3615 39.9639 84.3588 42.1079C87.3507 47.0891 91.1533 51.7076 92.1879 54.9075C93.0466 56.7101 95.3452 55.1795 96.3371 51.3876C97.7291 46.1451 101.873 43.4838 100.049 43.1958Z" fill="black"/>
<path d="M116.694 52.7049L116.161 62.262L115.579 82.5868C108.203 86.0373 97.3131 83.9574 89.9053 77.9896C89.9053 77.9896 90.3266 54.5982 91.8519 49.1903C93.3772 43.7825 96.1184 42.7105 99.9317 42.8278C103.958 42.9558 109.131 43.5212 109.131 43.5212L113.537 44.6945C113.537 44.6945 116.785 50.7903 116.694 52.7049Z" fill="#F7CA00"/>
<path d="M119.814 36.9667C120.315 36.7107 122.625 37.8626 124.033 39.8519C125.441 41.8412 125.537 44.6518 125.099 45.1851C124.662 45.7184 118.993 43.1958 118.993 43.1958L119.814 36.9667Z" fill="#008060"/>
<path opacity="0.6" d="M119.814 36.9667C120.315 36.7107 122.625 37.8626 124.033 39.8519C125.441 41.8412 125.537 44.6518 125.099 45.1851C124.662 45.7184 118.993 43.1958 118.993 43.1958L119.814 36.9667Z" fill="black"/>
<path d="M129.115 38.4653C128.171 40.3639 117.409 53.4249 114.822 56.5555C108.641 53.1956 113.649 46.0278 113.649 46.0278C113.649 46.0278 121.446 35.7294 122.726 33.9587C123.03 33.5123 123.244 33.0103 123.355 32.4815C123.579 31.5108 125.195 19.5698 124.955 15.8952C124.906 15.2435 124.62 14.6323 124.15 14.1779C122.902 12.946 122.523 11.8847 121.686 10.4981C121.03 9.43141 120.353 9.03142 120.529 8.7701C120.763 8.49383 121.093 8.31623 121.453 8.27273C121.813 8.22923 122.176 8.32304 122.47 8.53544C123.136 8.98486 123.744 9.51312 124.283 10.1087C124.07 8.68382 123.629 7.30256 122.977 6.01817C121.499 3.07425 121.75 1.52229 125.862 2.39694C128.438 2.93026 130.79 5.21286 131.467 11.3087C131.659 13.0633 131.494 15.6659 131.414 17.9059C131.222 23.0044 130.656 31.0362 130.23 34.5401C130.006 36.3107 130.064 36.572 129.115 38.4653Z" fill="#B16668"/>
<path d="M112.065 44.4065L119.814 36.94C119.814 36.94 119.115 43.3398 125.089 45.1691L116.187 56.4275C115.158 58.1448 112.337 55.8942 111.708 52.0436C110.828 46.6784 112.065 44.4065 112.065 44.4065Z" fill="#008060"/>
<path opacity="0.3" d="M112.065 44.4065L119.814 36.94C119.814 36.94 119.115 43.3398 125.089 45.1691L116.187 56.4275C115.158 58.1448 112.337 55.8942 111.708 52.0436C110.828 46.6784 112.065 44.4065 112.065 44.4065Z" fill="black"/>
<path d="M107.948 26.4016C107.885 27.7643 107.42 29.0778 106.61 30.1759C105.801 31.274 104.684 32.1074 103.401 32.5707C102.118 33.034 100.726 33.1063 99.4023 32.7785C98.0782 32.4507 96.881 31.7375 95.9622 30.7291C95.0434 29.7208 94.4444 28.4626 94.2408 27.1138C94.0372 25.7649 94.2383 24.386 94.8186 23.1514C95.3988 21.9168 96.3322 20.8821 97.5007 20.1781C98.6691 19.4741 100.02 19.1325 101.383 19.1965C103.208 19.2836 104.924 20.091 106.155 21.4417C107.386 22.7925 108.03 24.5762 107.948 26.4016Z" fill="#263238"/>
<path d="M112.737 31.5375C112.737 31.5375 111.372 36.7267 110.886 37.5693C110.565 38.096 110.053 38.4782 109.457 38.6359L109.713 34.9454L112.737 31.5375Z" fill="#263238"/>
<path d="M111.691 23.9537C112.084 23.9266 112.477 23.9893 112.841 24.1372C113.205 24.2851 113.531 24.5142 113.793 24.807C114.667 25.7936 114.017 28.7109 112.726 31.5375L110.593 31.6761L111.691 23.9537Z" fill="#263238"/>
<path d="M109.99 31.6495C110.401 31.9215 111.057 31.1428 111.59 30.6202C112.124 30.0975 113.873 29.4362 114.635 31.2601C115.398 33.0841 113.686 35.4467 112.332 35.804C109.99 36.4173 109.718 34.9241 109.718 34.9241L109.142 43.4572C106.108 46.9931 98.1719 46.3051 101.676 42.6252L101.798 40.0972C100.765 40.2077 99.7227 40.2077 98.6892 40.0972C97.0039 39.7559 96.0226 38.364 95.5747 36.508C94.8867 33.5268 94.6893 31.1322 95.66 25.3723C96.7266 19.0578 104.118 19.3405 107.985 22.0391C111.852 24.7377 109.99 31.6495 109.99 31.6495Z" fill="#B16668"/>
<path d="M109.958 32.3588C110.172 32.3588 111.025 31.0735 111.585 30.6202C112.348 29.9909 111.692 23.9537 111.692 23.9537C111.966 23.4378 112.079 22.8513 112.016 22.2703C111.954 21.6893 111.718 21.1405 111.34 20.6951C110.396 19.5538 109.068 18.1458 104.524 18.4658C101.281 18.6952 97.724 19.5325 94.956 18.0125C94.6473 18.9237 94.6195 19.9067 94.8762 20.8339C95.133 21.7611 95.6625 22.5898 96.396 23.2124C96.396 23.2124 97.388 23.927 100.071 24.3803C102.548 24.6808 105.047 24.7523 107.537 24.5937C108.321 24.519 108.454 25.287 108.78 27.3776C109.084 29.2175 109.244 32.3108 109.958 32.3588Z" fill="#263238"/>
<path d="M111.665 24.423L114.278 23.1697C114.205 22.9943 114.097 22.8356 113.96 22.7033C113.824 22.571 113.662 22.4677 113.485 22.3999C113.307 22.3321 113.117 22.301 112.928 22.3087C112.738 22.3163 112.551 22.3625 112.38 22.4444C112.027 22.6174 111.756 22.9203 111.623 23.2894C111.489 23.6585 111.505 24.0649 111.665 24.423Z" fill="#263238"/>
<path d="M101.782 40.1239C101.782 40.1239 105.601 39.5426 106.956 38.9026C107.751 38.5322 108.418 37.9323 108.87 37.18C108.634 37.945 108.246 38.6543 107.729 39.2653C106.705 40.4546 101.74 41.1319 101.74 41.1319L101.782 40.1239Z" fill="#9A4A4D"/>
<path d="M103.153 30.3962C103.151 30.5461 103.193 30.6932 103.274 30.8192C103.356 30.9452 103.472 31.0445 103.609 31.1047C103.747 31.1648 103.899 31.1832 104.046 31.1575C104.194 31.1318 104.331 31.0631 104.44 30.9601C104.549 30.8571 104.625 30.7242 104.658 30.5782C104.692 30.4322 104.682 30.2794 104.63 30.139C104.577 29.9986 104.485 29.8768 104.363 29.7888C104.242 29.7008 104.097 29.6505 103.948 29.6442C103.846 29.6414 103.745 29.6586 103.65 29.6948C103.555 29.7311 103.468 29.7857 103.394 29.8555C103.321 29.9254 103.261 30.009 103.22 30.1018C103.178 30.1946 103.156 30.2946 103.153 30.3962Z" fill="#263238"/>
<path d="M104.092 27.5589L105.692 28.5296C105.818 28.3124 105.856 28.0548 105.798 27.8105C105.739 27.5661 105.588 27.3537 105.377 27.2176C105.272 27.1509 105.153 27.1067 105.03 27.0878C104.907 27.0689 104.781 27.0756 104.66 27.1077C104.539 27.1397 104.427 27.1963 104.329 27.274C104.231 27.3516 104.15 27.4486 104.092 27.5589Z" fill="#263238"/>
<path d="M102.342 35.5907L100.583 36.156C100.613 36.2732 100.667 36.3829 100.741 36.4789C100.815 36.5748 100.907 36.655 101.013 36.7146C101.118 36.7743 101.234 36.8122 101.355 36.8262C101.475 36.8402 101.597 36.8299 101.713 36.796C101.956 36.7188 102.158 36.5487 102.276 36.323C102.394 36.0972 102.418 35.834 102.342 35.5907Z" fill="#9A4A4D"/>
<path d="M96.5028 27.8309L98.0334 26.7643C97.9691 26.6608 97.8845 26.5716 97.7846 26.502C97.6846 26.4324 97.5716 26.3839 97.4523 26.3594C97.333 26.3349 97.21 26.3351 97.0908 26.3597C96.9715 26.3844 96.8586 26.4331 96.7588 26.5029C96.555 26.6501 96.415 26.8694 96.3674 27.1162C96.3199 27.363 96.3683 27.6186 96.5028 27.8309Z" fill="#263238"/>
<path d="M96.86 29.8629C96.848 29.967 96.8576 30.0724 96.8882 30.1727C96.9188 30.2729 96.9698 30.3657 97.0379 30.4454C97.1059 30.5251 97.1897 30.5898 97.2839 30.6357C97.3782 30.6815 97.4808 30.7075 97.5855 30.7119C97.6902 30.7163 97.7947 30.6991 97.8925 30.6613C97.9902 30.6235 98.0792 30.566 98.1537 30.4924C98.2282 30.4187 98.2868 30.3305 98.3257 30.2332C98.3646 30.1359 98.3831 30.0316 98.3799 29.9269C98.3919 29.8227 98.3823 29.7173 98.3517 29.6171C98.321 29.5168 98.2701 29.424 98.202 29.3443C98.134 29.2647 98.0502 29.1999 97.956 29.154C97.8617 29.1082 97.7591 29.0822 97.6544 29.0778C97.5497 29.0734 97.4452 29.0906 97.3474 29.1284C97.2497 29.1662 97.1607 29.2237 97.0862 29.2973C97.0117 29.371 96.9531 29.4592 96.9142 29.5565C96.8753 29.6538 96.8568 29.7581 96.86 29.8629Z" fill="#263238"/>
<path d="M100.758 29.3295L100.294 33.8788L97.9531 32.9508L100.758 29.3295Z" fill="#9A4A4D"/>
</svg>
