<svg width="51" height="51" viewBox="0 0 51 51" fill="none" xmlns="http://www.w3.org/2000/svg">
<g filter="url(#filter0_d_1829_2816)">
<circle cx="25.5" cy="25.5" r="22.5" fill="#EBF9FC"/>
</g>
<g clip-path="url(#clip0_1829_2816)">
<path fill-rule="evenodd" clip-rule="evenodd" d="M25.3254 15.3254C25.5338 15.1171 25.8164 15 26.1111 15H33.8889C34.5025 15 35 15.4975 35 16.1111V23.8889C35 24.1836 34.8829 24.4662 34.6746 24.6746L24.6746 34.6746C24.2406 35.1085 23.5371 35.1085 23.1032 34.6746L15.3254 26.8968C14.8915 26.4629 14.8915 25.7594 15.3254 25.3254L25.3254 15.3254ZM31.1111 20.5556C32.0316 20.5556 32.7778 19.8094 32.7778 18.8889C32.7778 17.9684 32.0316 17.2222 31.1111 17.2222C30.1906 17.2222 29.4444 17.9684 29.4444 18.8889C29.4444 19.8094 30.1906 20.5556 31.1111 20.5556Z" fill="#008060"/>
<path d="M22.1323 24.8804C22.7124 24.8804 23.1636 24.7139 23.4858 24.3809C23.8081 24.0479 23.9746 23.5859 23.9746 22.9844C23.9746 22.5977 23.8994 22.2593 23.749 21.98C23.5986 21.7007 23.3892 21.4805 23.1152 21.3301C22.8359 21.1797 22.5083 21.0991 22.1323 21.0991C21.751 21.0991 21.4233 21.1797 21.1494 21.3301C20.8701 21.4805 20.6606 21.7007 20.5103 21.98C20.3599 22.2646 20.29 22.5977 20.29 22.9844C20.29 23.3818 20.3599 23.7256 20.5049 24.0049C20.6499 24.2896 20.8594 24.5044 21.1387 24.6548C21.4126 24.8052 21.7456 24.8804 22.1323 24.8804ZM22.1323 23.9189C21.9336 23.9189 21.7832 23.8384 21.6758 23.6772C21.5684 23.5161 21.5146 23.2905 21.5146 22.9897C21.5146 22.7051 21.5684 22.4795 21.6758 22.313C21.7832 22.1519 21.939 22.0659 22.1323 22.0659C22.3203 22.0659 22.4707 22.1519 22.5781 22.313C22.6855 22.4795 22.7446 22.7051 22.7446 22.9897C22.7446 23.2852 22.6909 23.5161 22.5835 23.6772C22.4761 23.8384 22.3257 23.9189 22.1323 23.9189ZM22.9272 29L28.0781 21.2495H26.8374L21.6865 29H22.9272ZM27.6323 29.0913C28.2124 29.0913 28.6636 28.9248 28.9858 28.5918C29.3081 28.2588 29.4746 27.7969 29.4746 27.1953C29.4746 26.8086 29.3994 26.4702 29.249 26.1909C29.0986 25.9116 28.8892 25.6914 28.6152 25.541C28.3359 25.3906 28.0083 25.3154 27.6323 25.3154C27.251 25.3154 26.9233 25.396 26.6494 25.5464C26.3701 25.6968 26.1606 25.917 26.0103 26.1963C25.8599 26.4756 25.79 26.8086 25.79 27.1953C25.79 27.5928 25.8599 27.9365 26.0103 28.2158C26.1553 28.5005 26.3647 28.7153 26.6387 28.8657C26.9126 29.0161 27.2456 29.0913 27.6323 29.0913ZM27.6323 28.1299C27.4336 28.1299 27.2832 28.0493 27.1758 27.8882C27.0684 27.7271 27.02 27.5015 27.02 27.2007C27.02 26.916 27.0737 26.6904 27.1812 26.5239C27.2886 26.3628 27.439 26.2769 27.6323 26.2769C27.8257 26.2769 27.9761 26.3628 28.0835 26.5239C28.1909 26.6904 28.25 26.916 28.25 27.2007C28.25 27.4961 28.1963 27.7271 28.0889 27.8882C27.9814 28.0493 27.8257 28.1299 27.6323 28.1299Z" fill="white"/>
</g>
<defs>
<filter id="filter0_d_1829_2816" x="0" y="0" width="51" height="51" filterUnits="userSpaceOnUse" color-interpolation-filters="sRGB">
<feFlood flood-opacity="0" result="BackgroundImageFix"/>
<feColorMatrix in="SourceAlpha" type="matrix" values="0 0 0 0 0 0 0 0 0 0 0 0 0 0 0 0 0 0 127 0" result="hardAlpha"/>
<feMorphology radius="1" operator="dilate" in="SourceAlpha" result="effect1_dropShadow_1829_2816"/>
<feOffset/>
<feGaussianBlur stdDeviation="1"/>
<feComposite in2="hardAlpha" operator="out"/>
<feColorMatrix type="matrix" values="0 0 0 0 0 0 0 0 0 0 0 0 0 0 0 0 0 0 0.25 0"/>
<feBlend mode="normal" in2="BackgroundImageFix" result="effect1_dropShadow_1829_2816"/>
<feBlend mode="normal" in="SourceGraphic" in2="effect1_dropShadow_1829_2816" result="shape"/>
</filter>
<clipPath id="clip0_1829_2816">
<rect width="20" height="20" fill="white" transform="translate(15 15)"/>
</clipPath>
</defs>
</svg>
