<svg width="79" height="71" viewBox="0 0 79 71" fill="none" xmlns="http://www.w3.org/2000/svg">
<path d="M54.9224 57.7255L55.7256 57.562L55.723 56.7423C55.7151 54.305 55.8468 51.8693 56.1174 49.4471C56.2632 48.7147 56.7778 47.8762 57.6504 46.6821C57.8275 46.4398 58.0169 46.1858 58.2153 45.9197C58.9615 44.9188 59.8354 43.7466 60.6621 42.3823C62.7912 38.869 64.6489 34.0322 64.0287 26.7157C63.6118 21.7855 60.844 15.9868 56.2159 11.8164C51.5559 7.61733 44.9757 5.04197 36.9855 6.67851C28.9961 8.31489 23.9585 13.2601 21.3186 18.9429C18.6968 24.5867 18.42 30.9945 19.9496 35.6865L19.9501 35.688C22.2372 42.6649 25.8384 46.3892 29.1721 48.7898C30.4645 49.7205 31.7256 50.4568 32.8027 51.0857C33.0912 51.2541 33.3664 51.4148 33.6255 51.5694C34.896 52.3278 35.6972 52.899 36.117 53.5171C37.3157 55.6402 38.3911 57.8305 39.3381 60.0772L39.6563 60.8321L40.459 60.6687L54.9224 57.7255Z" fill="#008060" stroke="white" stroke-width="2"/>
<path d="M35.9275 37.4639L34.5244 38.033L43.4924 60.1401L44.8956 59.5709L35.9275 37.4639Z" fill="white"/>
<path d="M51.2126 34.5852L49.8721 34.6072L50.2635 58.4607L51.604 58.4387L51.2126 34.5852Z" fill="white"/>
<path d="M44.1282 43.859C42.9494 43.859 41.6911 42.9623 40.6569 41.7329C40.5521 41.9573 40.4003 42.1567 40.212 42.3176C40.0236 42.4785 39.803 42.5972 39.565 42.6658C37.3955 43.0997 35.6309 38.8331 35.5586 38.6451L35.8913 38.5077C35.8913 38.5511 37.6269 42.7019 39.5071 42.3114C39.7154 42.2405 39.9056 42.1248 40.0643 41.9723C40.223 41.8199 40.3463 41.6345 40.4255 41.4292C39.521 40.2949 38.8744 38.9771 38.5308 37.5676C38.2777 36.3238 38.5959 35.5138 39.4131 35.3475C40.3677 35.1595 41.0619 35.8031 41.3295 37.1265C41.5739 38.5629 41.4084 40.0391 40.8522 41.3858C41.9514 42.7309 43.311 43.7071 44.5187 43.4612C45.6034 43.2371 46.3628 42.0149 46.775 40.5687C45.6621 39.6529 44.9111 38.3713 44.6561 36.9529C44.3307 35.3547 44.7284 34.2339 45.6974 34.0603C46.4712 33.9012 47.0787 34.5882 47.3607 35.9477C47.6083 37.4361 47.5492 38.9593 47.1872 40.424C47.4171 40.5757 47.6747 40.6806 47.9452 40.7327C48.2157 40.7848 48.4938 40.7831 48.7637 40.7277C50.0943 40.4602 50.6222 37.0614 50.709 35.7669H51.0706C51.0706 35.9694 50.709 40.6771 48.836 41.0532C48.2375 41.1731 47.6158 41.0647 47.0932 40.7494C46.652 42.2608 45.8421 43.5263 44.5838 43.7794C44.4351 43.8217 44.2824 43.8483 44.1282 43.859ZM39.7096 35.6729C39.6303 35.6632 39.5502 35.6632 39.4709 35.6729C38.661 35.8393 38.7478 36.8661 38.8707 37.4663C39.1896 38.7603 39.7732 39.9742 40.5846 41.0315C41.0483 39.7999 41.178 38.4677 40.9607 37.1698C40.8377 36.6058 40.5195 35.6729 39.7096 35.6729ZM45.8927 34.4074H45.7553C44.8586 34.5882 44.7863 35.8537 44.996 36.8951C45.246 38.1671 45.8975 39.3254 46.8545 40.1998C47.1896 38.8287 47.2364 37.403 46.9919 36.0128C46.8907 35.5572 46.5797 34.4074 45.8927 34.4074Z" fill="white"/>
<path d="M39.6699 62.28L39.1582 59.7731L56.0095 56.3342L56.5211 58.8411L39.6699 62.28Z" fill="#455A64" stroke="white"/>
<path d="M40.3892 66.3608L39.8788 63.8543L56.728 60.4233L57.2384 62.9298L40.3892 66.3608Z" fill="#455A64" stroke="white"/>
<path d="M41.2173 70.4103L40.7069 67.9038L57.5561 64.4729L58.0665 66.9793L41.2173 70.4103Z" fill="#455A64" stroke="white"/>
<path d="M36.4632 5.22837C35.6062 3.62411 35.2036 1.81629 35.2989 0C35.7353 0.794523 36.0498 1.65018 36.2318 2.53825C36.4405 3.41874 36.5185 4.32517 36.4632 5.22837Z" fill="#263238"/>
<path d="M25.1686 10.9702C24.3963 10.5011 23.697 9.9212 23.0931 9.24906C22.4702 8.59129 21.9508 7.84274 21.5527 7.02899C23.0907 7.99346 24.3399 9.35504 25.1686 10.9702Z" fill="#263238"/>
<path d="M18.2755 21.6511C16.4596 21.5883 14.695 21.0334 13.1699 20.0457C14.9858 20.1086 16.7505 20.6634 18.2755 21.6511Z" fill="#263238"/>
<path d="M17.6314 34.3207C16.838 34.754 15.9852 35.0683 15.1004 35.2536C14.22 35.4632 13.3131 35.5388 12.4102 35.4778C14.0137 34.6263 15.8183 34.2264 17.6314 34.3207Z" fill="#263238"/>
<path d="M23.41 45.609C22.9425 46.3845 22.3598 47.0843 21.6817 47.6845C21.0248 48.3072 20.279 48.8287 19.4688 49.232C20.4313 47.6925 21.7934 46.4429 23.41 45.6162V45.609Z" fill="#263238"/>
<path d="M64.9121 36.7215C65.8169 36.74 66.7139 36.8936 67.5734 37.1771C68.4421 37.4333 69.2664 37.821 70.0177 38.3269C68.2034 38.2552 66.441 37.701 64.9121 36.7215Z" fill="#263238"/>
<path d="M65.5566 24.0519C66.3481 23.6144 67.2016 23.2999 68.0877 23.1191C68.9672 22.9035 69.8746 22.8255 70.7779 22.8876C69.1734 23.7368 67.37 24.1389 65.5566 24.0519Z" fill="#263238"/>
<path d="M59.7773 12.7636C60.2447 11.9859 60.8275 11.2836 61.5057 10.6809C62.1596 10.0565 62.906 9.53696 63.7186 9.14062C63.253 9.91745 62.67 10.6175 61.9902 11.2161C61.3321 11.8371 60.5866 12.3585 59.7773 12.7636Z" fill="#263238"/>
<path d="M49.125 5.90811C49.1447 5.00283 49.3007 4.10569 49.5878 3.24692C49.8389 2.37759 50.2245 1.55287 50.7304 0.802673C50.7154 1.7078 50.5618 2.60528 50.2748 3.46386C50.0156 4.3314 49.6281 5.15528 49.125 5.90811Z" fill="#263238"/>
<path d="M54.5742 26.4206L49.2667 27.3951L48.071 32.9174L46.8875 27.3951L41.5801 26.4206L46.8631 25.1452L48.071 19.9237L49.2911 25.1452L54.5742 26.4206Z" fill="white"/>
<path d="M71.8053 30.7587L68.6595 31.3444L67.9508 34.6637L67.2493 31.3444L64.1035 30.7587L67.2348 29.9921L67.9508 26.8536L68.674 29.9921L71.8053 30.7587Z" fill="#008060"/>
<path d="M36.2969 17.765L33.1511 18.3435L32.4424 21.67L31.7409 18.3435L28.5879 17.765L31.7265 16.9985L32.4424 13.86L33.1656 16.9985L36.2969 17.765Z" fill="white"/>
<path d="M16.4596 27.7142L12.9131 28.2313L12.1282 31.1849L11.3434 28.2313L7.79688 27.7142L11.3288 27.0361L12.1282 24.2549L12.9422 27.0361L16.4596 27.7142Z" fill="#008060"/>
<path d="M44.6129 8.66245C44.0386 8.66245 43.4877 8.89061 43.0816 9.29674C42.6754 9.70287 42.4473 10.2537 42.4473 10.8281C42.4473 11.4024 42.6754 11.9533 43.0816 12.3594C43.4877 12.7655 44.0386 12.9937 44.6129 12.9937C45.1873 12.9937 45.7382 12.7655 46.1443 12.3594C46.5505 11.9533 46.7786 11.4024 46.7786 10.8281C46.7786 10.2537 46.5505 9.70287 46.1443 9.29674C45.7382 8.89061 45.1873 8.66245 44.6129 8.66245Z" fill="white"/>
<path d="M27.5194 3.26381C26.945 3.26381 26.3941 3.49196 25.988 3.89809C25.5818 4.30423 25.3537 4.85505 25.3537 5.42941C25.3537 6.00377 25.5818 6.55462 25.988 6.96075C26.3941 7.36689 26.945 7.59504 27.5194 7.59504C28.0937 7.59504 28.6446 7.36689 29.0507 6.96075C29.4569 6.55462 29.685 6.00377 29.685 5.42941C29.685 4.85505 29.4569 4.30423 29.0507 3.89809C28.6446 3.49196 28.0937 3.26381 27.5194 3.26381Z" fill="#008060"/>
</svg>
