<svg width="20" height="20" viewBox="0 0 20 20" fill="none" xmlns="http://www.w3.org/2000/svg">
<g clip-path="url(#clip0_803_268)">
<path d="M0 4.5C0 3.67157 0.671573 3 1.5 3H2V18H17V18.5C17 19.3284 16.3284 20 15.5 20H1.5C0.671573 20 0 19.3284 0 18.5V4.5Z" fill="#5C5F62"/>
<path d="M19.3 2.27484C19.3 1.57074 18.7291 1 18.025 1.00001L5.27504 1C4.57081 1 3.99996 1.57094 4.00003 2.27517C4.00046 6.52509 4.00025 10.775 4 15.0249C3.99996 15.7291 4.57081 16.3 5.275 16.3H10.8C11.0254 16.3 11.2416 16.2105 11.401 16.051C11.5604 15.8916 11.65 15.6754 11.65 15.45C11.65 15.2246 11.5604 15.0084 11.401 14.849C11.2416 14.6896 11.0254 14.6 10.8 14.6H5.69996V2.7H17.6V9.5C17.6 9.72544 17.6895 9.94164 17.8489 10.101C18.0083 10.2605 18.2245 10.35 18.45 10.35C18.6754 10.35 18.8916 10.2605 19.051 10.101C19.2104 9.94164 19.3 9.72544 19.3 9.5L19.3 6.91248C19.3001 5.3666 19.3001 3.82072 19.3 2.27484Z" fill="#5C5F62"/>
<path d="M18.6991 12.2991L15.9 15.0981L14.801 13.9991C14.7221 13.9201 14.6284 13.8575 14.5253 13.8148C14.4222 13.7721 14.3116 13.7501 14.2 13.7501C14.0884 13.7501 13.9779 13.7721 13.8748 13.8148C13.7717 13.8575 13.678 13.9201 13.5991 13.9991C13.5202 14.078 13.4576 14.1717 13.4149 14.2748C13.3722 14.3779 13.3502 14.4884 13.3502 14.6C13.3502 14.7116 13.3722 14.8221 13.4149 14.9252C13.4576 15.0283 13.5202 15.122 13.5991 15.201L15.2991 16.901C15.3778 16.9802 15.4715 17.043 15.5746 17.0859C15.6777 17.1288 15.7883 17.1509 15.9 17.1509C16.0117 17.1509 16.1223 17.1288 16.2255 17.0859C16.3286 17.043 16.4222 16.9802 16.501 16.901L19.901 13.501C19.9799 13.422 20.0425 13.3283 20.0852 13.2252C20.1279 13.1221 20.1499 13.0116 20.1499 12.9C20.1499 12.7884 20.1279 12.6779 20.0852 12.5748C20.0425 12.4717 19.9799 12.378 19.901 12.2991C19.8221 12.2201 19.7284 12.1575 19.6253 12.1148C19.5222 12.0721 19.4116 12.0501 19.3 12.0501C19.1884 12.0501 19.0779 12.0721 18.9748 12.1148C18.8717 12.1575 18.778 12.2201 18.6991 12.2991Z" fill="#5C5F62"/>
<path fill-rule="evenodd" clip-rule="evenodd" d="M12 13C9.7944 13 8 11.2056 8 9C8 6.7944 9.7944 5 12 5C14.2056 5 16 6.7944 16 9C16 11.2056 14.2056 13 12 13ZM12.4 7C12.4 6.77909 12.2209 6.6 12 6.6C11.7791 6.6 11.6 6.77909 11.6 7V7.06824C11.1338 7.23292 10.8 7.67735 10.8 8.2C10.8 8.60538 10.9439 8.90794 11.21 9.1075C11.4261 9.26958 11.6959 9.3366 11.8765 9.38147L11.903 9.38806C12.123 9.44307 12.2369 9.47769 12.31 9.5325C12.3439 9.55794 12.4 9.60538 12.4 9.8C12.4 10.0189 12.2246 10.1965 12.0065 10.1999C12.0031 10.1997 11.9968 10.199 11.9878 10.1978C11.9651 10.1945 11.9262 10.1871 11.8765 10.1705C11.7784 10.1378 11.634 10.0683 11.4828 9.91716C11.3266 9.76095 11.0734 9.76095 10.9172 9.91716C10.7609 10.0734 10.7609 10.3266 10.9172 10.4828C11.1565 10.7221 11.402 10.852 11.6 10.9214V11C11.6 11.2209 11.7791 11.4 12 11.4C12.2209 11.4 12.4 11.2209 12.4 11V10.9318C12.8662 10.7671 13.2 10.3226 13.2 9.8C13.2 9.39462 13.0561 9.09206 12.79 8.8925C12.5739 8.73042 12.3041 8.6634 12.1235 8.61853L12.097 8.61194C11.877 8.55693 11.7631 8.52231 11.69 8.4675C11.6561 8.44206 11.6 8.39462 11.6 8.2C11.6 7.9811 11.7754 7.80354 11.9935 7.80005C11.9969 7.80033 12.0032 7.80095 12.0122 7.80223C12.0349 7.80548 12.0738 7.81289 12.1235 7.82947C12.2216 7.86218 12.366 7.93171 12.5172 8.08284C12.6734 8.23905 12.9266 8.23905 13.0828 8.08284C13.2391 7.92663 13.2391 7.67337 13.0828 7.51716C12.8435 7.27786 12.598 7.14802 12.4 7.07857V7Z" fill="#5C5F62"/>
</g>
<defs>
<clipPath id="clip0_803_268">
<rect width="20" height="20" fill="white"/>
</clipPath>
</defs>
</svg>
