<svg width="20" height="20" viewBox="0 0 20 20" fill="none" xmlns="http://www.w3.org/2000/svg">
<path d="M7.99999 3H2.99999L2.99997 13H0.999969L0.999993 2.5C0.999993 1.67157 1.67157 1 2.49999 1H7.99999V3Z" fill="#5C5F62"/>
<path d="M13 3H7.99999V1H13V3Z" fill="#5C5F62"/>
<path d="M16 3L13 3V1H16V3Z" fill="#5C5F62"/>
<path d="M0.999969 16V13H2.99997L2.99997 16H0.999969Z" fill="#5C5F62"/>
<path d="M0.999993 11V14H2.99999L2.99999 11H0.999993Z" fill="#5C5F62"/>
<path d="M17 6H19V9H17V6Z" fill="#5C5F62"/>
<path d="M19 4H17L17 16H19L19 4Z" fill="#5C5F62"/>
<path d="M16 19V17H3.99999V19H16Z" fill="#5C5F62"/>
<path d="M14 17V19H11V17H14Z" fill="#5C5F62"/>
<path d="M8.99999 7.5C8.99999 8.32843 8.32842 9 7.49999 9C6.67157 9 5.99999 8.32843 5.99999 7.5C5.99999 6.67157 6.67157 6 7.49999 6C8.32842 6 8.99999 6.67157 8.99999 7.5Z" fill="#5C5F62"/>
<path d="M12.5 14C13.3284 14 14 13.3284 14 12.5C14 11.6716 13.3284 11 12.5 11C11.6716 11 11 11.6716 11 12.5C11 13.3284 11.6716 14 12.5 14Z" fill="#5C5F62"/>
<path d="M13.7071 6.29289C14.0976 6.68342 14.0976 7.31658 13.7071 7.70711L7.7071 13.7071C7.31658 14.0976 6.68341 14.0976 6.29289 13.7071C5.90236 13.3166 5.90236 12.6834 6.29289 12.2929L12.2929 6.29289C12.6834 5.90237 13.3166 5.90237 13.7071 6.29289Z" fill="#5C5F62"/>
<path d="M18 19C18.5523 19 19 18.5523 19 18V16H17V17H16V19H18Z" fill="#5C5F62"/>
<path d="M1.99999 19C1.44771 19 0.999993 18.5523 0.999993 18L0.999969 16H2.99997L2.99999 17H3.99999V19H1.99999Z" fill="#5C5F62"/>
<path d="M17 4L17 3L16 3V1H17.5C18.3284 1 19 1.67157 19 2.5L19 4H17Z" fill="#5C5F62"/>
</svg>
