<svg width="18" height="20" viewBox="0 0 18 20" fill="none" xmlns="http://www.w3.org/2000/svg">
<path fill-rule="evenodd" clip-rule="evenodd" d="M1 5.96046e-08C0.447715 5.96046e-08 0 0.447715 0 1C0 1.55228 0.447715 2 1 2H2V14.1707C0.834808 14.5825 0 15.6938 0 17C0 18.6569 1.34315 20 3 20C4.65685 20 6 18.6569 6 17C6 16.6494 5.93985 16.3128 5.82929 16H11.1707C11.0602 16.3128 11 16.6494 11 17C11 18.6569 12.3431 20 14 20C15.6569 20 17 18.6569 17 17C17 15.3431 15.6569 14 14 14H4V12H15.5664C16.3128 12 16.9457 11.4511 17.0513 10.7121L17.99 4.14142C18.0681 3.59469 17.6882 3.08816 17.1414 3.01005C16.5947 2.93195 16.0882 3.31184 16.0101 3.85858L15.1327 10H4V1.5C4 0.671572 3.32843 5.96046e-08 2.5 5.96046e-08H1ZM14 16C13.4477 16 13 16.4477 13 17C13 17.5523 13.4477 18 14 18C14.5523 18 15 17.5523 15 17C15 16.4477 14.5523 16 14 16ZM3 16C2.44772 16 2 16.4477 2 17C2 17.5523 2.44772 18 3 18C3.55228 18 4 17.5523 4 17C4 16.4477 3.55228 16 3 16Z" fill="#5C5F62"/>
<path fill-rule="evenodd" clip-rule="evenodd" d="M10.2983 0.33068C9.85742 -0.110227 9.14257 -0.110226 8.70167 0.33068L5.33068 3.70167C4.88977 4.14257 4.88977 4.85743 5.33068 5.29833L8.70167 8.66932C9.14257 9.11023 9.85743 9.11023 10.2983 8.66932L13.6693 5.29833C14.1102 4.85742 14.1102 4.14257 13.6693 3.70167L10.2983 0.33068ZM9.04837 2.69358C9.04837 2.44417 9.25056 2.24198 9.49997 2.24198C9.74939 2.24198 9.95158 2.44417 9.95158 2.69358V4.5C9.95158 4.74941 9.74939 4.9516 9.49997 4.9516C9.25056 4.9516 9.04837 4.74941 9.04837 4.5V2.69358ZM9.95158 6.30642C9.95158 6.55583 9.74939 6.75802 9.49997 6.75802C9.25056 6.75802 9.04837 6.55583 9.04837 6.30642C9.04837 6.057 9.25056 5.85481 9.49997 5.85481C9.74939 5.85481 9.95158 6.057 9.95158 6.30642Z" fill="#5C5F62"/>
</svg>
