<svg width="20" height="20" viewBox="0 0 20 20" fill="none" xmlns="http://www.w3.org/2000/svg">
<path d="M12.2945 8.88269L13.5875 7.58969H4.00146L4 7.58984C4 7.58984 3.50146 7.58969 3.00146 7.58969C2.44889 7.58969 2.00033 7.1416 2.00073 6.58903C2.00113 6.03704 2.44947 5.58989 3.00146 5.58989L4.00146 5.58974L13.5875 5.58969L12.2945 4.29669C12.1069 4.10918 12.0016 3.85487 12.0016 3.58969C12.0016 3.45839 12.0275 3.32837 12.0777 3.20707C12.128 3.08576 12.2016 2.97554 12.2945 2.88269C12.3873 2.78985 12.4975 2.7162 12.6188 2.66595C12.7401 2.61571 12.8702 2.58984 13.0015 2.58984C13.2666 2.58984 13.5209 2.69518 13.7085 2.88269L16.7075 5.88169C16.8006 5.97458 16.8745 6.08494 16.9249 6.20643C16.9753 6.32792 17.0012 6.45816 17.0012 6.58969C17.0012 6.72123 16.9753 6.85147 16.9249 6.97296C16.8745 7.09445 16.8006 7.2048 16.7075 7.29769L13.7085 10.2967C13.6158 10.3899 13.5056 10.4638 13.3843 10.5143C13.263 10.5647 13.1329 10.5907 13.0015 10.5907C12.87 10.5907 12.7399 10.5647 12.6186 10.5143C12.4973 10.4638 12.3871 10.3899 12.2945 10.2967C12.2015 10.2039 12.1278 10.0937 12.0775 9.97239C12.0271 9.85107 12.0013 9.72103 12.0013 9.58969C12.0013 9.45836 12.0271 9.32831 12.0775 9.207C12.1278 9.08568 12.2015 8.97548 12.2945 8.88269Z" fill="#5C5F62"/>
<path d="M18.0006 13.6176C18.5527 13.6176 19.0006 14.0653 19.0006 14.6175C19.0006 15.1696 18.5528 15.6172 18.0006 15.6172C17.7354 15.6172 17.0006 15.6176 17.0006 15.6176L17.0016 15.6172H7.41556L8.70856 16.9102C8.8014 17.003 8.87504 17.1132 8.92529 17.2346C8.97554 17.3559 9.0014 17.4859 9.0014 17.6172C9.0014 17.7485 8.97554 17.8785 8.92529 17.9998C8.87504 18.1211 8.8014 18.2313 8.70856 18.3242C8.61571 18.417 8.50549 18.4907 8.38418 18.5409C8.26288 18.5912 8.13286 18.617 8.00156 18.617C7.87025 18.617 7.74024 18.5912 7.61893 18.5409C7.49762 18.4907 7.3874 18.417 7.29456 18.3242L4.29555 15.3252C4.20243 15.2323 4.12854 15.1219 4.07813 15.0004C4.02772 14.879 4.00177 14.7487 4.00177 14.6172C4.00177 14.4856 4.02772 14.3554 4.07813 14.2339C4.12854 14.1124 4.20243 14.0021 4.29555 13.9092L7.29456 10.9102C7.3874 10.8173 7.49762 10.7437 7.61893 10.6934C7.74024 10.6432 7.87025 10.6173 8.00156 10.6173C8.13286 10.6173 8.26288 10.6432 8.38418 10.6934C8.50549 10.7437 8.61571 10.8173 8.70856 10.9102C8.8014 11.003 8.87504 11.1132 8.92529 11.2346C8.97554 11.3559 9.0014 11.4859 9.0014 11.6172C9.0014 11.7485 8.97554 11.8785 8.92529 11.9998C8.87504 12.1211 8.8014 12.2313 8.70856 12.3242L7.41556 13.6172H17.0016C17.0016 13.6172 17.5006 13.6176 18.0006 13.6176Z" fill="#5C5F62"/>
</svg>
