<svg width="84" height="80" viewBox="0 0 84 80" fill="none" xmlns="http://www.w3.org/2000/svg">
<g filter="url(#filter0_d_99_3698)">
<path d="M12.9092 2.5H75.1331C78.4687 2.5 81.1253 5.05338 81.1253 8.1463V67.0543C81.1253 70.1472 78.4687 72.7006 75.1331 72.7006H12.9092C9.57366 72.7006 6.91699 70.1472 6.91699 67.0543V8.1463C6.91699 5.05338 9.57366 2.5 12.9092 2.5Z" fill="white" stroke="url(#paint0_linear_99_3698)"/>
<path d="M45.2332 38.819L54.1425 15.1087C54.4046 15.1902 54.773 15.3083 55.2195 15.4604C56.1527 15.7782 57.4243 16.2436 58.7796 16.8342C60.1365 17.4255 61.5678 18.1382 62.8247 18.9487C64.088 19.7633 65.1408 20.6551 65.7763 21.5928C66.4329 22.5616 67.3748 24.5975 68.4298 27.1595C69.4779 29.7043 70.6187 32.7204 71.675 35.6136C72.7309 38.506 73.7008 41.2718 74.4069 43.3147C74.7599 44.3361 75.0468 45.1765 75.2455 45.7615C75.3046 45.9356 75.3559 46.087 75.3988 46.2138L60.7111 51.5609L60.2986 51.7111L60.3941 52.1396L62.1912 60.1981L25.2213 59.7385L27.3355 52.9419L27.4697 52.5104L27.054 52.3333L12.6562 46.2008C12.7239 46.027 12.8103 45.8059 12.9136 45.5423C13.1909 44.8349 13.5898 43.8224 14.0762 42.6025C15.0491 40.1625 16.3716 36.894 17.7705 33.5785C19.17 30.2615 20.6433 26.9037 21.9183 24.2824C22.5563 22.9709 23.1405 21.8523 23.6379 21.0183C23.8868 20.6009 24.1092 20.2629 24.3014 20.0107C24.5025 19.7469 24.6402 19.618 24.7128 19.5727C25.2771 19.2211 26.3313 18.7778 27.6392 18.3043C28.9334 17.8357 30.4346 17.3518 31.8641 16.9143C33.2928 16.477 34.6455 16.0872 35.6413 15.8067C36.1289 15.6693 36.5307 15.5582 36.8136 15.4806L44.289 38.7958L44.7277 40.1642L45.2332 38.819Z" fill="#DADADA" stroke="url(#paint1_linear_99_3698)"/>
<g opacity="0.3">
<path opacity="0.3" d="M29.998 32.1005L29.9893 32.0851L29.9795 32.0704C27.3743 28.1463 25.8708 23.6624 25.6058 19.0427L28.4159 18.0235C28.4843 22.6387 29.8521 27.1563 32.3821 31.107C32.6493 31.542 32.901 31.9913 33.0185 32.4128C33.13 32.8129 33.1011 33.1089 32.9275 33.3426C32.7379 33.5216 32.4881 33.6412 32.2138 33.6778C31.9316 33.7155 31.6456 33.6623 31.4023 33.5296C30.8092 33.1734 30.3265 32.6804 29.998 32.1005Z" fill="black" stroke="url(#paint2_linear_99_3698)"/>
</g>
<g opacity="0.3">
<path opacity="0.3" d="M36.1708 44.5273L36.2 44.5319L36.2296 44.533C36.4331 44.5407 36.6291 44.5995 36.7972 44.7014C36.9591 44.7995 37.0884 44.9333 37.1756 45.0875C37.3693 45.5445 37.4074 46.0459 37.2854 46.5232L37.2772 46.5556L37.2733 46.5888C37.239 46.8804 37.1264 47.1611 36.9433 47.4039C36.7435 47.6244 36.46 47.7728 36.1438 47.8131L36.1438 47.813L36.1381 47.8138C35.8792 47.8499 35.6152 47.8323 35.3647 47.7627C35.1142 47.6931 34.8845 47.5735 34.6909 47.4137C34.4973 47.2539 34.3445 47.058 34.2414 46.8407C34.1383 46.6235 34.0867 46.3891 34.0889 46.1532C34.0912 45.9173 34.1474 45.6837 34.2547 45.4682C34.3621 45.2525 34.5188 45.0592 34.7156 44.9026C34.9125 44.746 35.1446 44.6303 35.3965 44.565C35.6484 44.4998 35.9127 44.4868 36.1708 44.5273Z" fill="black" stroke="url(#paint3_linear_99_3698)"/>
</g>
<g opacity="0.3">
<path opacity="0.3" d="M60.342 49.5592L60.9425 48.9033L60.3771 51.872L60.3582 51.9713L60.3793 52.0701L60.6824 53.4882C59.3315 54.893 57.7001 56.0349 55.8797 56.847L55.8797 56.847L55.8739 56.8496C54.9538 57.2742 53.9423 57.4954 52.9164 57.4954C51.8951 57.4954 50.8881 57.2761 49.9712 56.8553C49.7864 56.7571 49.6016 56.6469 49.4034 56.5288C49.3826 56.5164 49.3618 56.504 49.3407 56.4914C49.1194 56.3596 48.8819 56.2198 48.6369 56.0977C48.1485 55.8541 47.5793 55.6541 46.9415 55.7246C46.6073 55.7606 46.2589 55.8789 45.9831 55.9725C45.9044 55.9992 45.8316 56.024 45.7668 56.0442C45.4348 56.1477 45.2188 56.1751 45.0338 56.117C44.9175 56.0682 44.8188 55.9938 44.7452 55.903C44.6706 55.811 44.624 55.7051 44.6067 55.5957C44.5754 55.3109 44.6352 55.0222 44.781 54.7666C44.9276 54.5095 45.1558 54.296 45.4392 54.1582C46.1077 53.8531 46.8623 53.7529 47.5962 53.8733L47.6075 53.8752L47.6189 53.8765C48.0129 53.9227 48.4044 53.9987 48.8145 54.0811C48.8484 54.088 48.8825 54.0948 48.9167 54.1017C49.2904 54.177 49.6813 54.2557 50.0791 54.3117L50.0791 54.3117L50.0818 54.3121C51.9085 54.5592 53.8706 54.0028 55.6528 53.091C57.4416 52.1758 59.0995 50.8771 60.337 49.5645L60.3371 49.5646L60.342 49.5592Z" fill="black" stroke="url(#paint4_linear_99_3698)"/>
</g>
<mask id="path-6-inside-1_99_3698" fill="white">
<path d="M63.567 39.7251C63.2941 41.8057 62.9011 43.8706 62.3897 45.9105C61.9972 47.9746 61.4893 50.0176 60.8682 52.0308C61.1408 49.9484 61.5315 47.8815 62.0386 45.8388C62.4336 43.7768 62.9438 41.736 63.567 39.7251Z"/>
</mask>
<path d="M63.567 39.7251C63.2941 41.8057 62.9011 43.8706 62.3897 45.9105C61.9972 47.9746 61.4893 50.0176 60.8682 52.0308C61.1408 49.9484 61.5315 47.8815 62.0386 45.8388C62.4336 43.7768 62.9438 41.736 63.567 39.7251Z" fill="#263238"/>
<path d="M62.3897 45.9105L61.4197 45.6674L61.4127 45.6954L61.4073 45.7237L62.3897 45.9105ZM60.8682 52.0308L59.8766 51.9009L61.8237 52.3256L60.8682 52.0308ZM62.0386 45.8388L63.0091 46.0798L63.0156 46.0535L63.0207 46.027L62.0386 45.8388ZM62.5754 39.5951C62.3076 41.6375 61.9218 43.6646 61.4197 45.6674L63.3597 46.1537C63.8804 44.0766 64.2806 41.9739 64.5585 39.8552L62.5754 39.5951ZM61.4073 45.7237C61.0217 47.7513 60.5228 49.7582 59.9126 51.736L61.8237 52.3256C62.4557 50.277 62.9726 48.198 63.3721 46.0974L61.4073 45.7237ZM61.8597 52.1606C62.1274 50.1157 62.5111 48.0859 63.0091 46.0798L61.068 45.5979C60.5519 47.6771 60.1542 49.7811 59.8766 51.9009L61.8597 52.1606ZM63.0207 46.027C63.4087 44.0015 63.9099 41.9967 64.5221 40.0211L62.6118 39.4291C61.9776 41.4754 61.4584 43.5521 61.0564 45.6507L63.0207 46.027Z" fill="url(#paint5_linear_99_3698)" mask="url(#path-6-inside-1_99_3698)"/>
<mask id="path-8-inside-2_99_3698" fill="white">
<path d="M63.0506 18.7703C63.0416 18.9825 62.9951 19.1919 62.9129 19.3895C62.741 19.9445 62.5103 20.4817 62.2244 20.9929C61.2663 22.6971 59.7886 24.0889 57.9837 24.9875C56.1788 25.886 54.1301 26.2497 52.1039 26.0311C51.4982 25.9694 50.9007 25.8493 50.3208 25.6727C50.1015 25.6222 49.8923 25.5385 49.7012 25.425C49.7012 25.3598 50.6168 25.6857 52.1315 25.79C54.1006 25.9405 56.0743 25.5577 57.8224 24.6864C59.5705 23.8151 61.0208 22.4912 62.0041 20.869C62.7614 19.6307 62.9817 18.7508 63.0506 18.7703Z"/>
</mask>
<path d="M63.0506 18.7703C63.0416 18.9825 62.9951 19.1919 62.9129 19.3895C62.741 19.9445 62.5103 20.4817 62.2244 20.9929C61.2663 22.6971 59.7886 24.0889 57.9837 24.9875C56.1788 25.886 54.1301 26.2497 52.1039 26.0311C51.4982 25.9694 50.9007 25.8493 50.3208 25.6727C50.1015 25.6222 49.8923 25.5385 49.7012 25.425C49.7012 25.3598 50.6168 25.6857 52.1315 25.79C54.1006 25.9405 56.0743 25.5577 57.8224 24.6864C59.5705 23.8151 61.0208 22.4912 62.0041 20.869C62.7614 19.6307 62.9817 18.7508 63.0506 18.7703Z" fill="white"/>
<path d="M63.0506 18.7703L64.0497 18.8124L64.0829 18.024L63.3238 17.8084L63.0506 18.7703ZM62.9129 19.3895L61.9896 19.0055L61.9715 19.0488L61.9577 19.0936L62.9129 19.3895ZM62.2244 20.9929L63.0961 21.483L63.0972 21.481L62.2244 20.9929ZM52.1039 26.0311L52.2112 25.0369L52.2053 25.0363L52.1039 26.0311ZM50.3208 25.6727L50.6121 24.716L50.579 24.706L50.5453 24.6982L50.3208 25.6727ZM49.7012 25.425H48.7012V25.9941L49.1905 26.2848L49.7012 25.425ZM52.1315 25.79L52.2077 24.7929L52.2002 24.7924L52.1315 25.79ZM62.0041 20.869L61.151 20.3473L61.149 20.3507L62.0041 20.869ZM62.0515 18.7282C62.0475 18.822 62.0269 18.9157 61.9896 19.0055L63.8362 19.7735C63.9633 19.4681 64.0357 19.1431 64.0497 18.8124L62.0515 18.7282ZM61.9577 19.0936C61.8066 19.5813 61.6037 20.0541 61.3516 20.5048L63.0972 21.481C63.4169 20.9093 63.6753 20.3077 63.8681 19.6854L61.9577 19.0936ZM61.3527 20.5028C60.496 22.0266 59.1696 23.2801 57.5381 24.0923L58.4294 25.8827C60.4077 24.8978 62.0365 23.3676 63.0961 21.483L61.3527 20.5028ZM57.5381 24.0923C55.9061 24.9047 54.0495 25.2352 52.2112 25.0369L51.9967 27.0254C54.2106 27.2642 56.4515 26.8673 58.4294 25.8827L57.5381 24.0923ZM52.2053 25.0363C51.6637 24.9811 51.1299 24.8737 50.6121 24.716L50.0294 26.6293C50.6716 26.8249 51.3327 26.9577 52.0025 27.026L52.2053 25.0363ZM50.5453 24.6982C50.4255 24.6706 50.313 24.6253 50.2119 24.5652L49.1905 26.2848C49.4716 26.4518 49.7776 26.5737 50.0963 26.6471L50.5453 24.6982ZM50.7012 25.425C50.7012 25.775 50.5219 26.0618 50.2914 26.2292C50.1105 26.3605 49.9357 26.3938 49.8747 26.4039C49.7428 26.4256 49.6418 26.4125 49.6412 26.4125C49.6102 26.4093 49.6037 26.4062 49.6622 26.4185C49.7024 26.4269 49.9746 26.4879 50.1461 26.5233C50.5934 26.6156 51.2475 26.7315 52.0628 26.7876L52.2002 24.7924C51.5008 24.7442 50.9398 24.645 50.5505 24.5646C50.3038 24.5137 50.2525 24.4988 50.0736 24.4612C50.0226 24.4505 49.9328 24.4319 49.8457 24.4229C49.8172 24.42 49.695 24.4065 49.549 24.4306C49.4808 24.4418 49.3007 24.4769 49.1162 24.6109C48.8823 24.7808 48.7012 25.071 48.7012 25.425H50.7012ZM52.0553 26.7871C54.2024 26.9512 56.3569 26.5343 58.2685 25.5814L57.3763 23.7915C55.7918 24.5812 53.9988 24.9298 52.2077 24.7929L52.0553 26.7871ZM58.2685 25.5814C60.1805 24.6284 61.7749 23.1762 62.8592 21.3874L61.149 20.3507C60.2667 21.8061 58.9605 23.0018 57.3763 23.7915L58.2685 25.5814ZM62.8572 21.3908C63.2689 20.7176 63.5348 20.1412 63.7057 19.7393C63.7481 19.6397 63.7844 19.5512 63.8145 19.4776C63.8461 19.4003 63.8672 19.3484 63.8847 19.3074C63.9063 19.2565 63.9032 19.2686 63.8847 19.301C63.8797 19.3097 63.835 19.3906 63.7487 19.4783C63.7111 19.5166 63.3428 19.8929 62.7774 19.7323L63.3238 17.8084C62.7497 17.6453 62.3717 18.0262 62.3229 18.0758C62.2254 18.1749 62.1681 18.2739 62.1491 18.3071C62.1024 18.3887 62.0649 18.4761 62.0444 18.5243C62.0196 18.5823 61.9908 18.6534 61.9632 18.7209C61.9342 18.792 61.9021 18.8701 61.8653 18.9566C61.7195 19.2994 61.4966 19.7821 61.151 20.3473L62.8572 21.3908Z" fill="url(#paint6_linear_99_3698)" mask="url(#path-8-inside-2_99_3698)"/>
<mask id="path-10-inside-3_99_3698" fill="white">
<path d="M65.9841 21.221C65.9083 21.4625 65.8019 21.6945 65.6674 21.9119C65.3292 22.5186 64.9328 23.0946 64.4833 23.6326C62.9935 25.429 61.012 26.8041 58.7542 27.6086C56.4964 28.413 54.0488 28.6159 51.6777 28.1951C50.9723 28.0725 50.2808 27.887 49.6123 27.6411C49.3689 27.564 49.1373 27.4566 48.9238 27.3217C48.9238 27.2565 49.9841 27.6997 51.7741 27.9735C54.0984 28.3235 56.4789 28.0941 58.681 27.3077C60.8831 26.5214 62.8307 25.2053 64.3318 23.4892C65.4471 22.1335 65.9222 21.1559 65.9841 21.221Z"/>
</mask>
<path d="M65.9841 21.221C65.9083 21.4625 65.8019 21.6945 65.6674 21.9119C65.3292 22.5186 64.9328 23.0946 64.4833 23.6326C62.9935 25.429 61.012 26.8041 58.7542 27.6086C56.4964 28.413 54.0488 28.6159 51.6777 28.1951C50.9723 28.0725 50.2808 27.887 49.6123 27.6411C49.3689 27.564 49.1373 27.4566 48.9238 27.3217C48.9238 27.2565 49.9841 27.6997 51.7741 27.9735C54.0984 28.3235 56.4789 28.0941 58.681 27.3077C60.8831 26.5214 62.8307 25.2053 64.3318 23.4892C65.4471 22.1335 65.9222 21.1559 65.9841 21.221Z" fill="white"/>
<path d="M65.9841 21.221L66.9382 21.5207L67.1146 20.9588L66.7089 20.532L65.9841 21.221ZM65.6674 21.9119L64.817 21.3858L64.8051 21.4051L64.794 21.425L65.6674 21.9119ZM64.4833 23.6326L63.7159 22.9914L63.7135 22.9943L64.4833 23.6326ZM51.6777 28.1951L51.8524 27.2105L51.849 27.2099L51.6777 28.1951ZM49.6123 27.6411L49.9575 26.7026L49.936 26.6946L49.9141 26.6877L49.6123 27.6411ZM48.9238 27.3217H47.9238V27.8727L48.3896 28.1671L48.9238 27.3217ZM51.7741 27.9735L51.6229 28.962L51.6252 28.9623L51.7741 27.9735ZM64.3318 23.4892L65.0845 24.1476L65.0944 24.1362L65.1041 24.1246L64.3318 23.4892ZM65.0301 20.9214C64.9794 21.0826 64.9081 21.2386 64.817 21.3858L66.5178 22.438C66.6958 22.1505 66.8371 21.8425 66.9382 21.5207L65.0301 20.9214ZM64.794 21.425C64.4865 21.9766 64.1257 22.501 63.7159 22.9914L65.2506 24.2738C65.7399 23.6883 66.1719 23.0607 66.5409 22.3988L64.794 21.425ZM63.7135 22.9943C62.3418 24.6483 60.5118 25.9208 58.4186 26.6666L59.0898 28.5506C61.5122 27.6875 63.6453 26.2096 65.253 24.271L63.7135 22.9943ZM58.4186 26.6666C56.3251 27.4124 54.0534 27.6011 51.8524 27.2105L51.503 29.1797C54.0442 29.6307 56.6677 29.4135 59.0898 28.5506L58.4186 26.6666ZM51.849 27.2099C51.2026 27.0975 50.5693 26.9276 49.9575 26.7026L49.2671 28.5796C49.9923 28.8464 50.7421 29.0475 51.5065 29.1803L51.849 27.2099ZM49.9141 26.6877C49.7515 26.6363 49.5982 26.5649 49.458 26.4763L48.3896 28.1671C48.6764 28.3483 48.9862 28.4918 49.3105 28.5945L49.9141 26.6877ZM49.9238 27.3217C49.9238 27.4995 49.8755 27.6959 49.756 27.8747C49.6415 28.046 49.4976 28.1478 49.3859 28.2055C49.1888 28.3073 49.0128 28.3133 48.9687 28.3147C48.9012 28.3169 48.8499 28.3113 48.829 28.3087C48.804 28.3056 48.7862 28.3022 48.7791 28.3008C48.7638 28.2978 48.7731 28.299 48.8408 28.3185C48.9395 28.3469 49.1665 28.4158 49.4081 28.4835C49.9234 28.6278 50.6769 28.8173 51.6229 28.962L51.9253 26.985C51.0812 26.8559 50.4096 26.687 49.9473 26.5575C49.7001 26.4883 49.5502 26.4415 49.3941 26.3966C49.3345 26.3794 49.247 26.3546 49.1666 26.3387C49.1407 26.3336 49.0334 26.3116 48.9036 26.3158C48.8514 26.3175 48.6691 26.3247 48.4679 26.4286C48.3542 26.4874 48.2087 26.5905 48.0932 26.7634C47.9727 26.9437 47.9238 27.1419 47.9238 27.3217H49.9238ZM51.6252 28.9623C54.1117 29.3368 56.659 29.0916 59.0173 28.2495L58.3447 26.366C56.2989 27.0965 54.0851 27.3103 51.923 26.9846L51.6252 28.9623ZM59.0173 28.2495C61.3758 27.4073 63.4681 25.9955 65.0845 24.1476L63.5791 22.8309C62.1933 24.4151 60.3904 25.6355 58.3447 26.366L59.0173 28.2495ZM65.1041 24.1246C65.6928 23.4089 66.1122 22.7933 66.3894 22.3705C66.5383 22.1433 66.6178 22.0161 66.6829 21.9206C66.7188 21.868 66.7117 21.8832 66.6801 21.9179C66.6756 21.9228 66.5925 22.0189 66.4473 22.0983C66.3707 22.1402 66.2015 22.2196 65.9697 22.2179C65.6966 22.2159 65.4414 22.1015 65.2594 21.91L66.7089 20.532C66.523 20.3365 66.2631 20.22 65.9845 20.218C65.7472 20.2162 65.5717 20.2976 65.488 20.3434C65.3284 20.4306 65.2277 20.5424 65.2021 20.5705C65.1283 20.6514 65.0652 20.7429 65.0304 20.794C64.9541 20.9059 64.8336 21.0956 64.7166 21.2741C64.4619 21.6628 64.0861 22.2139 63.5596 22.8539L65.1041 24.1246Z" fill="url(#paint7_linear_99_3698)" mask="url(#path-10-inside-3_99_3698)"/>
<mask id="path-12-inside-4_99_3698" fill="white">
<path d="M43.3252 35.9709C43.0757 36.1068 42.8099 36.214 42.5335 36.2902C42.0171 36.4662 41.2736 36.7465 40.3717 37.1115C35.6497 39.0252 31.3853 41.8231 27.8347 45.337C27.1462 45.9887 26.6161 46.5623 26.2581 46.9599C26.0827 47.1743 25.8843 47.3709 25.666 47.5465C25.8003 47.3128 25.962 47.0942 26.1479 46.8947C26.4784 46.4711 26.9879 45.8844 27.6488 45.187C29.3886 43.3821 31.3378 41.7685 33.4595 40.3769C35.584 38.9853 37.871 37.8305 40.2753 36.9355C41.1979 36.5966 41.9552 36.3489 42.4922 36.212C42.7612 36.1069 43.0401 36.0261 43.3252 35.9709Z"/>
</mask>
<path d="M43.3252 35.9709C43.0757 36.1068 42.8099 36.214 42.5335 36.2902C42.0171 36.4662 41.2736 36.7465 40.3717 37.1115C35.6497 39.0252 31.3853 41.8231 27.8347 45.337C27.1462 45.9887 26.6161 46.5623 26.2581 46.9599C26.0827 47.1743 25.8843 47.3709 25.666 47.5465C25.8003 47.3128 25.962 47.0942 26.1479 46.8947C26.4784 46.4711 26.9879 45.8844 27.6488 45.187C29.3886 43.3821 31.3378 41.7685 33.4595 40.3769C35.584 38.9853 37.871 37.8305 40.2753 36.9355C41.1979 36.5966 41.9552 36.3489 42.4922 36.212C42.7612 36.1069 43.0401 36.0261 43.3252 35.9709Z" fill="white"/>
<path d="M42.5335 36.2902L42.2676 35.3262L42.239 35.3341L42.2109 35.3437L42.5335 36.2902ZM40.3717 37.1115L39.9965 36.1845L39.9961 36.1847L40.3717 37.1115ZM27.8347 45.337L28.5222 46.0631L28.5302 46.0555L28.5381 46.0477L27.8347 45.337ZM26.2581 46.9599L25.515 46.2907L25.499 46.3084L25.4839 46.3269L26.2581 46.9599ZM25.666 47.5465L24.799 47.0482L26.2927 48.3258L25.666 47.5465ZM26.1479 46.8947L26.8793 47.5767L26.9094 47.5445L26.9364 47.5098L26.1479 46.8947ZM27.6488 45.187L26.9288 44.493L26.923 44.4992L27.6488 45.187ZM33.4595 40.3769L32.9115 39.5404L32.911 39.5407L33.4595 40.3769ZM40.2753 36.9355L39.9305 35.9968L39.9265 35.9983L40.2753 36.9355ZM42.4922 36.212L42.7392 37.181L42.7988 37.1658L42.8562 37.1434L42.4922 36.212ZM42.8469 35.0927C42.6653 35.1916 42.4708 35.2702 42.2676 35.3262L42.7993 37.2542C43.149 37.1578 43.4861 37.022 43.8036 36.849L42.8469 35.0927ZM42.2109 35.3437C41.6702 35.528 40.9077 35.8157 39.9965 36.1845L40.7468 38.0384C41.6394 37.6772 42.3641 37.4044 42.8561 37.2368L42.2109 35.3437ZM39.9961 36.1847C35.1542 38.1471 30.7777 41.0175 27.1313 44.6262L28.5381 46.0477C31.9929 42.6287 36.1453 39.9034 40.7473 38.0383L39.9961 36.1847ZM27.1472 44.6108C26.4322 45.2877 25.8825 45.8826 25.515 46.2907L27.0012 47.629C27.3497 47.242 27.8603 46.6898 28.5222 46.0631L27.1472 44.6108ZM25.4839 46.3269C25.353 46.487 25.2041 46.6347 25.0393 46.7672L26.2927 48.3258C26.5645 48.1072 26.8125 47.8616 27.0322 47.5929L25.4839 46.3269ZM26.533 48.0448C26.6289 47.8781 26.7448 47.7209 26.8793 47.5767L25.4165 46.2128C25.1791 46.4674 24.9718 46.7476 24.799 47.0482L26.533 48.0448ZM26.9364 47.5098C27.2405 47.12 27.7267 46.5586 28.3746 45.8749L26.923 44.4992C26.2491 45.2103 25.7163 45.8221 25.3594 46.2797L26.9364 47.5098ZM28.3688 45.881C30.0563 44.1303 31.9478 42.5643 34.0079 41.2131L32.911 39.5407C30.7279 40.9727 28.721 42.6338 26.9288 44.493L28.3688 45.881ZM34.0074 41.2134C36.0689 39.863 38.2891 38.7419 40.6242 37.8727L39.9265 35.9983C37.453 36.919 35.099 38.1075 32.9115 39.5404L34.0074 41.2134ZM40.6202 37.8741C41.5318 37.5392 42.2517 37.3053 42.7392 37.181L42.2452 35.243C41.6587 35.3925 40.8639 35.6539 39.9305 35.9968L40.6202 37.8741ZM42.8562 37.1434C43.0686 37.0604 43.2894 36.9964 43.5156 36.9526L43.1348 34.9891C42.7908 35.0559 42.4538 35.1534 42.1282 35.2806L42.8562 37.1434Z" fill="url(#paint8_linear_99_3698)" mask="url(#path-12-inside-4_99_3698)"/>
<mask id="path-14-inside-5_99_3698" fill="white">
<path d="M42.9194 33.292C42.67 33.4105 42.4065 33.5003 42.1345 33.5593C41.6181 33.7092 40.8815 33.9308 39.9727 34.211C37.6116 34.9616 35.301 35.8475 33.0536 36.8638C30.8141 37.8915 28.6416 39.045 26.5476 40.3182C25.7421 40.8136 25.1018 41.2177 24.6543 41.5045C24.4412 41.6645 24.2103 41.8022 23.9658 41.9151C24.141 41.7344 24.3347 41.5706 24.5441 41.4263C24.9641 41.1004 25.5906 40.6637 26.3755 40.1227C30.5103 37.4283 35.0628 35.3591 39.8694 33.9894C40.792 33.7287 41.5424 33.5397 42.0657 33.4354C42.3444 33.3606 42.6304 33.3125 42.9194 33.292Z"/>
</mask>
<path d="M42.9194 33.292C42.67 33.4105 42.4065 33.5003 42.1345 33.5593C41.6181 33.7092 40.8815 33.9308 39.9727 34.211C37.6116 34.9616 35.301 35.8475 33.0536 36.8638C30.8141 37.8915 28.6416 39.045 26.5476 40.3182C25.7421 40.8136 25.1018 41.2177 24.6543 41.5045C24.4412 41.6645 24.2103 41.8022 23.9658 41.9151C24.141 41.7344 24.3347 41.5706 24.5441 41.4263C24.9641 41.1004 25.5906 40.6637 26.3755 40.1227C30.5103 37.4283 35.0628 35.3591 39.8694 33.9894C40.792 33.7287 41.5424 33.5397 42.0657 33.4354C42.3444 33.3606 42.6304 33.3125 42.9194 33.292Z" fill="white"/>
<path d="M42.9194 33.292L43.3486 34.1952L42.8486 32.2945L42.9194 33.292ZM42.1345 33.5593L41.9225 32.582L41.8888 32.5893L41.8557 32.5989L42.1345 33.5593ZM39.9727 34.211L39.678 33.2554L39.6698 33.258L39.9727 34.211ZM33.0536 36.8638L32.6415 35.9526L32.6365 35.9549L33.0536 36.8638ZM26.5476 40.3182L26.0281 39.4638L26.0237 39.4664L26.5476 40.3182ZM24.6543 41.5045L24.1147 40.6625L24.0835 40.6826L24.0538 40.7049L24.6543 41.5045ZM23.9658 41.9151L23.2478 41.2191L24.385 42.823L23.9658 41.9151ZM24.5441 41.4263L25.1117 42.2496L25.1349 42.2336L25.1572 42.2163L24.5441 41.4263ZM26.3755 40.1227L25.8295 39.2849L25.8186 39.292L25.8079 39.2993L26.3755 40.1227ZM39.8694 33.9894L39.5975 33.0271L39.5954 33.0277L39.8694 33.9894ZM42.0657 33.4354L42.2611 34.4161L42.2933 34.4097L42.325 34.4012L42.0657 33.4354ZM42.4901 32.3888C42.3106 32.4741 42.1201 32.5391 41.9225 32.582L42.3465 34.5365C42.6929 34.4614 43.0293 34.3469 43.3486 34.1952L42.4901 32.3888ZM41.8557 32.5989C41.3319 32.751 40.5895 32.9743 39.678 33.2554L40.2674 35.1666C41.1735 34.8872 41.9043 34.6674 42.4133 34.5196L41.8557 32.5989ZM39.6698 33.258C37.2717 34.0203 34.9246 34.9202 32.6415 35.9526L33.4656 37.775C35.6774 36.7748 37.9516 35.9028 40.2757 35.164L39.6698 33.258ZM32.6365 35.9549C30.3621 36.9987 28.1553 38.1704 26.0281 39.4638L27.0671 41.1727C29.1279 39.9197 31.2662 38.7843 33.4707 37.7727L32.6365 35.9549ZM26.0237 39.4664C25.2131 39.9649 24.5675 40.3723 24.1147 40.6625L25.1939 42.3464C25.6361 42.063 26.2711 41.6622 27.0714 41.17L26.0237 39.4664ZM24.0538 40.7049C23.8977 40.8221 23.7277 40.9236 23.5466 41.0072L24.385 42.823C24.6929 42.6808 24.9846 42.507 25.2548 42.3041L24.0538 40.7049ZM24.6839 42.6111C24.8127 42.4782 24.9559 42.357 25.1117 42.2496L23.9766 40.6029C23.7135 40.7843 23.4693 40.9906 23.2478 41.2191L24.6839 42.6111ZM25.1572 42.2163C25.5504 41.9112 26.1517 41.4914 26.943 40.9461L25.8079 39.2993C25.0295 39.8359 24.3778 40.2896 23.9311 40.6362L25.1572 42.2163ZM26.9214 40.9605C30.9713 38.3215 35.4319 36.2937 40.1435 34.9512L39.5954 33.0277C34.6936 34.4245 30.0494 36.5351 25.8295 39.2849L26.9214 40.9605ZM40.1414 34.9517C41.0547 34.6936 41.7759 34.5128 42.2611 34.4161L41.8702 32.4547C41.3089 32.5666 40.5293 32.7638 39.5975 33.0271L40.1414 34.9517ZM42.325 34.4012C42.5418 34.343 42.7647 34.3055 42.9902 34.2895L42.8486 32.2945C42.4961 32.3195 42.147 32.3782 41.8064 32.4696L42.325 34.4012Z" fill="url(#paint9_linear_99_3698)" mask="url(#path-14-inside-5_99_3698)"/>
<mask id="path-16-inside-6_99_3698" fill="white">
<path d="M70.2315 48.1331C69.1367 47.19 67.9751 46.3189 66.7547 45.526C65.4722 44.8391 64.1428 44.2337 62.7754 43.714C63.2168 43.7275 63.6525 43.8135 64.0628 43.9682C65.0764 44.2767 66.0455 44.7037 66.9475 45.2392C67.8501 45.7709 68.6802 46.4057 69.4191 47.1293C69.7482 47.4178 70.0229 47.7572 70.2315 48.1331Z"/>
</mask>
<path d="M70.2315 48.1331C69.1367 47.19 67.9751 46.3189 66.7547 45.526C65.4722 44.8391 64.1428 44.2337 62.7754 43.714C63.2168 43.7275 63.6525 43.8135 64.0628 43.9682C65.0764 44.2767 66.0455 44.7037 66.9475 45.2392C67.8501 45.7709 68.6802 46.4057 69.4191 47.1293C69.7482 47.4178 70.0229 47.7572 70.2315 48.1331Z" fill="white"/>
<path d="M66.7547 45.526L67.2996 44.6874L67.2641 44.6644L67.2269 44.6444L66.7547 45.526ZM62.7754 43.714L62.806 42.7145L62.4201 44.6488L62.7754 43.714ZM64.0628 43.9682L63.7101 44.9039L63.7405 44.9154L63.7716 44.9249L64.0628 43.9682ZM66.9475 45.2392L66.437 46.0991L66.4399 46.1008L66.9475 45.2392ZM69.4191 47.1293L68.7194 47.8438L68.7392 47.8631L68.76 47.8814L69.4191 47.1293ZM70.8842 47.3755C69.7551 46.4028 68.5574 45.5047 67.2996 44.6874L66.2099 46.3645C67.3928 47.1331 68.5184 47.9772 69.5788 48.8907L70.8842 47.3755ZM67.2269 44.6444C65.9064 43.9372 64.5379 43.3141 63.1307 42.7793L62.4201 44.6488C63.7477 45.1534 65.0381 45.7409 66.2826 46.4075L67.2269 44.6444ZM62.7448 44.7136C63.0769 44.7237 63.4036 44.7884 63.7101 44.9039L64.4155 43.0325C63.9013 42.8386 63.3568 42.7314 62.806 42.7145L62.7448 44.7136ZM63.7716 44.9249C64.7093 45.2103 65.6046 45.6049 66.437 46.0991L67.458 44.3793C66.4863 43.8025 65.4436 43.3432 64.354 43.0115L63.7716 44.9249ZM66.4399 46.1008C67.2737 46.592 68.0391 47.1776 68.7194 47.8438L70.1188 46.4149C69.3213 45.6339 68.4265 44.9499 67.4551 44.3776L66.4399 46.1008ZM68.76 47.8814C69.0041 48.0953 69.2054 48.3449 69.3571 48.6183L71.1059 47.6479C70.8404 47.1695 70.4923 46.7402 70.0782 46.3773L68.76 47.8814Z" fill="url(#paint10_linear_99_3698)" mask="url(#path-16-inside-6_99_3698)"/>
<mask id="path-18-inside-7_99_3698" fill="white">
<path d="M17.5356 48.1722C16.7325 46.9801 16.1027 45.691 15.6629 44.3397C15.1129 43.0244 14.7494 41.6458 14.582 40.24C14.6853 40.24 15.181 42.0389 16.0003 44.2224C16.8196 46.4059 17.6595 48.1331 17.5356 48.1722Z"/>
</mask>
<path d="M17.5356 48.1722C16.7325 46.9801 16.1027 45.691 15.6629 44.3397C15.1129 43.0244 14.7494 41.6458 14.582 40.24C14.6853 40.24 15.181 42.0389 16.0003 44.2224C16.8196 46.4059 17.6595 48.1331 17.5356 48.1722Z" fill="white"/>
<path d="M17.5356 48.1722L16.7062 48.7309L17.1238 49.3508L17.8365 49.1259L17.5356 48.1722ZM15.6629 44.3397L16.6139 44.0303L16.6012 43.9915L16.5855 43.9539L15.6629 44.3397ZM14.582 40.24L14.582 39.24H13.4559L13.589 40.3582L14.582 40.24ZM18.365 47.6135C17.6132 46.4975 17.0245 45.2922 16.6139 44.0303L14.712 44.6492C15.1808 46.0898 15.8519 47.4626 16.7062 48.7309L18.365 47.6135ZM16.5855 43.9539C16.0709 42.7235 15.7313 41.4349 15.575 40.1218L13.589 40.3582C13.7674 41.8567 14.1548 43.3253 14.7404 44.7255L16.5855 43.9539ZM14.582 41.24C14.2287 41.24 14.003 41.0575 13.9367 40.9999C13.8521 40.9263 13.802 40.8562 13.7841 40.8305C13.7617 40.7981 13.7478 40.7731 13.7424 40.7631C13.7391 40.7571 13.7368 40.7526 13.7355 40.7499C13.7341 40.7473 13.7335 40.7458 13.7334 40.7458C13.7334 40.7457 13.7338 40.7466 13.7348 40.7487C13.7357 40.7508 13.7369 40.7537 13.7386 40.7575C13.7419 40.7653 13.7462 40.7758 13.7516 40.7893C13.7625 40.8168 13.776 40.8524 13.7923 40.8972C13.8599 41.0829 13.9518 41.3595 14.0733 41.7267C14.3123 42.4484 14.6466 43.4613 15.064 44.5737L16.9365 43.8711C16.5347 42.8001 16.2115 41.8218 15.972 41.0981C15.8543 40.7427 15.7517 40.4331 15.6717 40.2132C15.6331 40.1071 15.5896 39.9934 15.5446 39.8974C15.5246 39.8547 15.4855 39.7743 15.4278 39.691C15.4005 39.6516 15.3417 39.5712 15.249 39.4906C15.1747 39.426 14.9418 39.24 14.582 39.24L14.582 41.24ZM15.064 44.5737C15.4816 45.6865 15.9044 46.683 16.1991 47.3874C16.3498 47.7477 16.4596 48.0139 16.5246 48.1908C16.5596 48.2859 16.5666 48.3152 16.5643 48.305C16.5629 48.2991 16.559 48.2817 16.5554 48.256C16.5523 48.2333 16.5462 48.1829 16.5482 48.1157C16.5499 48.0599 16.5583 47.9178 16.6327 47.7527C16.719 47.5613 16.9068 47.322 17.2346 47.2186L17.8365 49.1259C18.1721 49.0199 18.3657 48.775 18.4561 48.5746C18.5345 48.4005 18.5452 48.2462 18.5473 48.1751C18.5517 48.0285 18.5247 47.906 18.5133 47.8566C18.4856 47.736 18.4409 47.6069 18.4017 47.5004C18.3185 47.2742 18.1903 46.9649 18.0441 46.6155C17.7451 45.9007 17.3383 44.9418 16.9365 43.8711L15.064 44.5737Z" fill="url(#paint11_linear_99_3698)" mask="url(#path-18-inside-7_99_3698)"/>
<mask id="path-20-inside-8_99_3698" fill="white">
<path d="M33.495 60.38C32.1086 59.9523 30.7818 59.3681 29.5432 58.6398C28.2428 58.0089 27.029 57.2297 25.9287 56.3195C25.9838 56.2412 27.6292 57.2254 29.7153 58.34C31.8014 59.4545 33.5294 60.3279 33.495 60.38Z"/>
</mask>
<path d="M33.495 60.38C32.1086 59.9523 30.7818 59.3681 29.5432 58.6398C28.2428 58.0089 27.029 57.2297 25.9287 56.3195C25.9838 56.2412 27.6292 57.2254 29.7153 58.34C31.8014 59.4545 33.5294 60.3279 33.495 60.38Z" fill="white"/>
<path d="M33.495 60.38L33.2002 61.3356L33.9165 61.5566L34.3295 60.931L33.495 60.38ZM29.5432 58.6398L30.05 57.7778L30.0156 57.7575L29.9797 57.7401L29.5432 58.6398ZM25.9287 56.3195L25.1111 55.7437L24.5784 56.5002L25.2913 57.09L25.9287 56.3195ZM33.7898 59.4245C32.4768 59.0194 31.2212 58.4664 30.05 57.7778L29.0363 59.5018C30.3424 60.2698 31.7405 60.8853 33.2002 61.3356L33.7898 59.4245ZM29.9797 57.7401C28.7504 57.1437 27.6041 56.4076 26.5661 55.5489L25.2913 57.09C26.4539 58.0517 27.7353 58.8742 29.1067 59.5395L29.9797 57.7401ZM26.7463 56.8952C26.4945 57.2528 26.129 57.3028 26.0212 57.3118C25.8889 57.3228 25.7886 57.3032 25.7572 57.2968C25.7146 57.2881 25.6844 57.2785 25.6729 57.2747C25.6658 57.2724 25.6605 57.2705 25.6574 57.2693C25.6543 57.2682 25.6525 57.2675 25.6522 57.2674C25.652 57.2673 25.6554 57.2686 25.6632 57.2721C25.6708 57.2754 25.681 57.2801 25.6942 57.2863C25.7209 57.2988 25.7552 57.3156 25.798 57.3373C25.9741 57.4266 26.235 57.5687 26.5763 57.7575C27.248 58.129 28.1925 58.6602 29.2441 59.222L30.1865 57.458C29.152 56.9053 28.2308 56.387 27.5444 56.0074C27.2068 55.8206 26.9156 55.6616 26.7025 55.5536C26.6003 55.5017 26.4898 55.4481 26.3911 55.4089C26.3488 55.392 26.2615 55.3585 26.1576 55.3373C26.1106 55.3277 25.9977 55.3069 25.8558 55.3186C25.7384 55.3284 25.3664 55.3812 25.1111 55.7437L26.7463 56.8952ZM29.2441 59.222C30.2884 59.78 31.2525 60.2826 31.9327 60.6424C32.2775 60.8247 32.5451 60.9682 32.7224 61.0678C32.8142 61.1194 32.8645 61.1496 32.8851 61.1629C32.9013 61.1734 32.875 61.1578 32.8355 61.1244C32.8235 61.1143 32.7528 61.0556 32.6826 60.9585C32.6491 60.9121 32.5718 60.7981 32.5278 60.63C32.4787 60.442 32.4617 60.1301 32.6604 59.8291L34.3295 60.931C34.5293 60.6283 34.5126 60.3144 34.4628 60.124C34.4182 59.9535 34.3394 59.8366 34.3036 59.7871C34.2288 59.6835 34.15 59.6168 34.1268 59.5971C34.0647 59.5447 34.0027 59.5039 33.9709 59.4833C33.8955 59.4346 33.8001 59.3793 33.7021 59.3242C33.4999 59.2106 33.2116 59.0563 32.8679 58.8745C32.1712 58.5059 31.2283 58.0145 30.1865 57.458L29.2441 59.222Z" fill="url(#paint12_linear_99_3698)" mask="url(#path-20-inside-8_99_3698)"/>
<mask id="path-22-inside-9_99_3698" fill="white">
<path d="M43.3744 43.5185C43.1919 43.1792 43.0399 42.826 42.92 42.4626C42.6515 41.7717 42.2728 40.768 41.8184 39.5296C40.9096 37.0528 39.6979 33.6114 38.4105 29.7985C37.1231 25.9856 36.0215 22.505 35.2504 19.9826C34.8649 18.7247 34.562 17.7014 34.3623 16.991C34.2418 16.6286 34.1497 16.2582 34.0869 15.8829C34.257 16.2295 34.3952 16.5893 34.5 16.9584C34.7547 17.7079 35.0852 18.7051 35.4983 19.9175C36.3451 22.4659 37.488 25.9008 38.7547 29.6942C40.0215 33.4876 41.1988 36.9029 42.0594 39.4709C42.4656 40.6767 42.8029 41.6805 43.0508 42.43C43.1839 42.7857 43.292 43.1493 43.3744 43.5185Z"/>
</mask>
<path d="M43.3744 43.5185C43.1919 43.1792 43.0399 42.826 42.92 42.4626C42.6515 41.7717 42.2728 40.768 41.8184 39.5296C40.9096 37.0528 39.6979 33.6114 38.4105 29.7985C37.1231 25.9856 36.0215 22.505 35.2504 19.9826C34.8649 18.7247 34.562 17.7014 34.3623 16.991C34.2418 16.6286 34.1497 16.2582 34.0869 15.8829C34.257 16.2295 34.3952 16.5893 34.5 16.9584C34.7547 17.7079 35.0852 18.7051 35.4983 19.9175C36.3451 22.4659 37.488 25.9008 38.7547 29.6942C40.0215 33.4876 41.1988 36.9029 42.0594 39.4709C42.4656 40.6767 42.8029 41.6805 43.0508 42.43C43.1839 42.7857 43.292 43.1493 43.3744 43.5185Z" fill="#263238"/>
<path d="M42.92 42.4626L43.8696 42.1493L43.8615 42.1246L43.8521 42.1003L42.92 42.4626ZM35.2504 19.9826L36.2067 19.6903L36.2065 19.6896L35.2504 19.9826ZM34.3623 16.991L35.325 16.7204L35.3186 16.6977L35.3112 16.6754L34.3623 16.991ZM34.0869 15.8829L34.9847 15.4424L33.1006 16.048L34.0869 15.8829ZM34.5 16.9584L33.538 17.2316L33.545 17.2561L33.5532 17.2801L34.5 16.9584ZM35.4983 19.9175L36.4473 19.6021L36.4448 19.5949L35.4983 19.9175ZM42.0594 39.4709L41.1112 39.7887L41.1117 39.7901L42.0594 39.4709ZM43.0508 42.43L42.1013 42.7439L42.1074 42.7624L42.1142 42.7806L43.0508 42.43ZM44.255 43.0448C44.1 42.7565 43.9711 42.4569 43.8696 42.1493L41.9703 42.7759C42.1086 43.1951 42.2838 43.6019 42.4937 43.9922L44.255 43.0448ZM43.8521 42.1003C43.5865 41.4171 43.2102 40.4196 42.7572 39.1851L40.8796 39.874C41.3354 41.1163 41.7164 42.1263 41.9879 42.8248L43.8521 42.1003ZM42.7572 39.1851C41.852 36.7181 40.6432 33.2851 39.358 29.4786L37.4631 30.1184C38.7527 33.9377 39.9673 37.3875 40.8796 39.874L42.7572 39.1851ZM39.358 29.4786C38.074 25.676 36.9754 22.2048 36.2067 19.6903L34.2941 20.275C35.0676 22.8053 36.1721 26.2951 37.4631 30.1184L39.358 29.4786ZM36.2065 19.6896C35.8221 18.4353 35.5217 17.4203 35.325 16.7204L33.3996 17.2615C33.6022 17.9825 33.9077 19.0141 34.2943 20.2757L36.2065 19.6896ZM35.3112 16.6754C35.207 16.3619 35.1274 16.0418 35.0732 15.7179L33.1006 16.048C33.172 16.4746 33.2766 16.8952 33.4134 17.3066L35.3112 16.6754ZM33.1892 16.3234C33.333 16.6166 33.4497 16.9205 33.538 17.2316L35.4619 16.6851C35.3407 16.2582 35.1809 15.8424 34.9847 15.4424L33.1892 16.3234ZM33.5532 17.2801C33.7978 17.9998 34.1454 19.0475 34.5517 20.24L36.4448 19.5949C36.025 18.3628 35.7117 17.416 35.4468 16.6366L33.5532 17.2801ZM34.5493 20.2328C35.3962 22.7816 36.5393 26.217 37.8062 30.0109L39.7033 29.3774C38.4367 25.5847 37.294 22.1503 36.4473 19.6021L34.5493 20.2328ZM37.8062 30.0109C39.0663 33.7842 40.2613 37.2525 41.1112 39.7887L43.0076 39.1532C42.1363 36.5532 40.9767 33.1909 39.7033 29.3774L37.8062 30.0109ZM41.1117 39.7901C41.518 40.9964 41.8545 41.9975 42.1013 42.7439L44.0002 42.1161C43.7514 41.3634 43.4131 40.357 43.0071 39.1517L41.1117 39.7901ZM42.1142 42.7806C42.2312 43.0931 42.3261 43.4123 42.3983 43.7362L44.3504 43.3007C44.2579 42.8862 44.1366 42.4782 43.9873 42.0794L42.1142 42.7806Z" fill="url(#paint13_linear_99_3698)" mask="url(#path-22-inside-9_99_3698)"/>
<mask id="path-24-inside-10_99_3698" fill="white">
<path d="M46.5757 43.6293C46.054 43.7987 45.4996 43.8587 44.951 43.8053C44.4038 43.8624 43.85 43.8091 43.3262 43.6489C44.3957 43.4185 45.5062 43.4185 46.5757 43.6489V43.6293Z"/>
</mask>
<path d="M46.5757 43.6293C46.054 43.7987 45.4996 43.8587 44.951 43.8053C44.4038 43.8624 43.85 43.8091 43.3262 43.6489C44.3957 43.4185 45.5062 43.4185 46.5757 43.6489V43.6293Z" fill="#263238"/>
<path d="M46.5757 43.6293H47.5757V42.2532L46.2669 42.6782L46.5757 43.6293ZM44.951 43.8053L45.0479 42.81L44.9475 42.8002L44.8472 42.8107L44.951 43.8053ZM43.3262 43.6489L43.1156 42.6713L39.3571 43.4807L43.0337 44.6051L43.3262 43.6489ZM46.5757 43.6489L46.3652 44.6264L47.5757 44.8871V43.6489H46.5757ZM46.2669 42.6782C45.8767 42.8049 45.4605 42.8502 45.0479 42.81L44.854 44.8006C45.5388 44.8673 46.2314 44.7925 46.8846 44.5804L46.2669 42.6782ZM44.8472 42.8107C44.4327 42.8539 44.0137 42.8134 43.6186 42.6926L43.0337 44.6051C43.6863 44.8047 44.3748 44.8708 45.0548 44.7999L44.8472 42.8107ZM43.5367 44.6264C44.4675 44.426 45.4344 44.426 46.3652 44.6264L46.7863 42.6713C45.578 42.4111 44.3239 42.4111 43.1156 42.6713L43.5367 44.6264ZM47.5757 43.6489V43.6293H45.5757V43.6489H47.5757Z" fill="url(#paint14_linear_99_3698)" mask="url(#path-24-inside-10_99_3698)"/>
<mask id="path-26-inside-11_99_3698" fill="white">
<path d="M56.3108 14.7489C56.4071 14.7489 54.3211 21.2667 51.6636 29.238C49.0061 37.2092 46.7617 43.6619 46.6653 43.6293C46.5689 43.5967 48.655 37.1115 51.3194 29.1337C53.9837 21.1559 56.2144 14.7032 56.3108 14.7489Z"/>
</mask>
<path d="M56.3108 14.7489C56.4071 14.7489 54.3211 21.2667 51.6636 29.238C49.0061 37.2092 46.7617 43.6619 46.6653 43.6293C46.5689 43.5967 48.655 37.1115 51.3194 29.1337C53.9837 21.1559 56.2144 14.7032 56.3108 14.7489Z" fill="#263238"/>
<path d="M56.3108 14.7489L55.8829 15.6527L56.086 15.7489H56.3108V14.7489ZM56.3108 15.7489C55.8775 15.7489 55.5916 15.4868 55.4606 15.2736C55.3551 15.1018 55.3306 14.9437 55.3235 14.8934C55.3068 14.7754 55.3169 14.6837 55.318 14.6727C55.3225 14.6252 55.3295 14.5975 55.3258 14.6147C55.3213 14.6358 55.3086 14.6876 55.2832 14.7807C55.234 14.9605 55.1533 15.2354 55.0422 15.6011C54.8209 16.3294 54.4879 17.3876 54.0676 18.699C53.2274 21.3202 52.0428 24.9387 50.7149 28.9217L52.6123 29.5542C53.9419 25.566 55.129 21.9399 55.9722 19.3094C56.3935 17.9949 56.7301 16.9254 56.9558 16.1826C57.0682 15.8127 57.1555 15.5161 57.2123 15.3083C57.2399 15.2076 57.2648 15.1115 57.2815 15.0333C57.2884 15.0009 57.302 14.9356 57.3089 14.8629C57.3112 14.8393 57.3214 14.7382 57.3039 14.6138C57.2963 14.5604 57.2711 14.3999 57.1646 14.2266C57.0326 14.0117 56.7455 13.7489 56.3108 13.7489V15.7489ZM50.7149 28.9217C49.3871 32.9045 48.163 36.5064 47.2594 39.1069C46.8074 40.4079 46.4369 41.4544 46.1742 42.1715C46.0424 42.5316 45.9406 42.8005 45.8707 42.9749C45.8345 43.065 45.8131 43.1141 45.8038 43.1338C45.7967 43.1489 45.8073 43.1242 45.8316 43.0852C45.8394 43.0726 45.8805 43.0055 45.9521 42.9314C45.9857 42.8966 46.0696 42.8139 46.2017 42.7442C46.3337 42.6747 46.629 42.5614 46.9856 42.682L46.345 44.5766C46.7031 44.6977 47.0002 44.5842 47.1343 44.5135C47.2684 44.4428 47.3546 44.3582 47.3907 44.3208C47.4674 44.2414 47.5147 44.1659 47.5296 44.1419C47.5682 44.0798 47.5972 44.0198 47.6125 43.9875C47.648 43.9123 47.6872 43.8183 47.7269 43.7196C47.8085 43.5162 47.9187 43.2241 48.0523 42.8593C48.3206 42.1266 48.6954 41.0678 49.1486 39.7633C50.0557 37.1528 51.2826 33.5427 52.6123 29.5542L50.7149 28.9217ZM46.9856 42.682C47.3403 42.8019 47.5062 43.069 47.5689 43.203C47.632 43.3375 47.6491 43.4534 47.655 43.5014C47.6675 43.6034 47.66 43.6816 47.6587 43.6964C47.6546 43.7422 47.6482 43.7683 47.6516 43.752C47.6559 43.7309 47.6684 43.679 47.6937 43.5854C47.7426 43.4045 47.823 43.1291 47.9341 42.7628C48.1554 42.0334 48.4884 40.9765 48.9091 39.6668C49.7501 37.049 50.9364 33.4371 52.2679 29.4505L50.3709 28.8169C49.0379 32.8081 47.849 36.4277 47.005 39.0551C46.5832 40.368 46.2463 41.4371 46.0202 42.1822C45.9077 42.5532 45.8201 42.8521 45.763 43.0632C45.7353 43.1657 45.7102 43.2642 45.6933 43.3456C45.6861 43.3805 45.6731 43.4459 45.6666 43.5186C45.6641 43.5469 45.6564 43.6354 45.6698 43.7448C45.6762 43.7964 45.694 43.9152 45.758 44.0517C45.8217 44.1878 45.9888 44.4562 46.345 44.5766L46.9856 42.682ZM52.2679 29.4505C53.5993 25.4637 54.8218 21.8599 55.7229 19.26C56.1738 17.9592 56.5427 16.9138 56.8041 16.1986C56.9354 15.8394 57.0364 15.572 57.1058 15.3996C57.1417 15.3101 57.1624 15.2631 57.1706 15.2459C57.1776 15.2312 57.1651 15.26 57.1373 15.3034C57.1287 15.3167 57.0812 15.3922 56.9974 15.4727C56.9579 15.5107 56.8583 15.6011 56.7023 15.668C56.5307 15.7416 56.219 15.8118 55.8829 15.6527L56.7386 13.845C56.401 13.6852 56.0875 13.7555 55.9139 13.83C55.7559 13.8978 55.6541 13.9898 55.612 14.0302C55.5231 14.1156 55.4695 14.1991 55.4538 14.2236C55.4117 14.2892 55.3808 14.3526 55.3656 14.3846C55.3292 14.4608 55.2895 14.5555 55.25 14.6537C55.1685 14.8566 55.0586 15.1482 54.9256 15.5121C54.6584 16.2432 54.2851 17.3011 53.8332 18.605C52.9288 21.2145 51.7038 24.8259 50.3709 28.8169L52.2679 29.4505Z" fill="url(#paint15_linear_99_3698)" mask="url(#path-26-inside-11_99_3698)"/>
<mask id="path-28-inside-12_99_3698" fill="white">
<path d="M26.8098 52.7868C26.7134 52.7868 25.8666 49.7039 24.9096 45.8519C23.9526 41.9998 23.2642 38.8648 23.3606 38.8452C23.4569 38.8257 24.3107 41.9281 25.2608 45.7802C26.2108 49.6322 26.9062 52.7673 26.8098 52.7868Z"/>
</mask>
<path d="M26.8098 52.7868C26.7134 52.7868 25.8666 49.7039 24.9096 45.8519C23.9526 41.9998 23.2642 38.8648 23.3606 38.8452C23.4569 38.8257 24.3107 41.9281 25.2608 45.7802C26.2108 49.6322 26.9062 52.7673 26.8098 52.7868Z" fill="#263238"/>
<path d="M26.8098 52.7868V53.7868H26.9102L27.0086 53.7668L26.8098 52.7868ZM26.8098 51.7868C27.1363 51.7868 27.3533 51.9428 27.4296 52.0038C27.5196 52.0759 27.5754 52.1469 27.5989 52.1783C27.6481 52.2439 27.6744 52.2977 27.678 52.3049C27.6902 52.3295 27.6904 52.334 27.6767 52.2973C27.6527 52.233 27.6147 52.1194 27.5623 51.9497C27.4591 51.6158 27.3176 51.1221 27.1468 50.4994C26.8062 49.257 26.3573 47.5314 25.8801 45.6108L23.9391 46.093C24.4189 48.0243 24.872 49.7662 25.218 51.0283C25.3907 51.6579 25.5388 52.1756 25.6514 52.5401C25.7068 52.7196 25.7583 52.877 25.8028 52.9963C25.8234 53.0514 25.8525 53.1259 25.8882 53.1976C25.9035 53.2283 25.9402 53.2999 25.9983 53.3774C26.0262 53.4147 26.0861 53.4903 26.1799 53.5653C26.2599 53.6293 26.4803 53.7868 26.8098 53.7868V51.7868ZM25.8801 45.6108C25.4031 43.6908 24.9939 41.9528 24.7166 40.6959C24.5776 40.0658 24.4735 39.5648 24.4107 39.2248C24.3787 39.0516 24.3606 38.9373 24.353 38.8742C24.3485 38.8365 24.3516 38.8484 24.3516 38.8855C24.3516 38.8954 24.3524 38.9738 24.3293 39.0763C24.3184 39.1246 24.2885 39.2429 24.207 39.3746C24.1223 39.5115 23.9221 39.7517 23.5594 39.8253L23.1617 37.8652C22.796 37.9394 22.5932 38.1817 22.5063 38.3222C22.4225 38.4576 22.3907 38.581 22.3784 38.6359C22.3522 38.7517 22.3516 38.8493 22.3516 38.8841C22.3515 38.9712 22.3605 39.0562 22.3674 39.1136C22.3827 39.2407 22.4101 39.4047 22.444 39.5883C22.5131 39.962 22.6229 40.4892 22.7636 41.1268C23.0456 42.4053 23.4591 44.1609 23.9391 46.093L25.8801 45.6108ZM23.5594 39.8253C23.2079 39.8966 22.9402 39.7622 22.8231 39.6866C22.7037 39.6095 22.6304 39.5251 22.6007 39.4892C22.5381 39.4134 22.5051 39.3484 22.5007 39.3399C22.4847 39.3092 22.4826 39.2993 22.4963 39.3352C22.5194 39.3961 22.5571 39.507 22.6097 39.6761C22.7131 40.0082 22.855 40.5018 23.0262 41.1254C23.3675 42.3696 23.8163 44.0995 24.2898 46.0196L26.2317 45.5407C25.7552 43.6088 25.302 41.8615 24.9549 40.5963C24.7818 39.9653 24.6328 39.4461 24.5193 39.0816C24.4635 38.9024 24.4112 38.7441 24.3656 38.624C24.3448 38.5694 24.3136 38.491 24.274 38.4152C24.2578 38.3841 24.2144 38.3023 24.1429 38.2157C24.1087 38.1744 24.0313 38.0861 23.9082 38.0065C23.7873 37.9285 23.5163 37.7933 23.1617 37.8652L23.5594 39.8253ZM24.2898 46.0196C24.7637 47.9406 25.173 49.6792 25.4513 50.9367C25.5909 51.5672 25.6956 52.0684 25.759 52.4086C25.7913 52.582 25.8096 52.6964 25.8173 52.7596C25.8219 52.7974 25.8188 52.7856 25.8187 52.7484C25.8187 52.7386 25.8177 52.6602 25.8407 52.5575C25.8515 52.5092 25.8812 52.3906 25.9627 52.2585C26.0475 52.1211 26.2478 51.8804 26.611 51.8068L27.0086 53.7668C27.3748 53.6926 27.5778 53.4497 27.6648 53.3087C27.7485 53.173 27.7801 53.0493 27.7924 52.9943C27.8183 52.8784 27.8188 52.7808 27.8187 52.746C27.8186 52.6589 27.8095 52.5739 27.8025 52.5166C27.7869 52.3896 27.7593 52.2257 27.7251 52.0423C27.6556 51.6688 27.5451 51.1419 27.4041 50.5046C27.1213 49.2267 26.7079 47.4717 26.2317 45.5407L24.2898 46.0196Z" fill="url(#paint16_linear_99_3698)" mask="url(#path-28-inside-12_99_3698)"/>
</g>
<defs>
<filter id="filter0_d_99_3698" x="0.416992" y="0" width="83.208" height="79.2006" filterUnits="userSpaceOnUse" color-interpolation-filters="sRGB">
<feFlood flood-opacity="0" result="BackgroundImageFix"/>
<feColorMatrix in="SourceAlpha" type="matrix" values="0 0 0 0 0 0 0 0 0 0 0 0 0 0 0 0 0 0 127 0" result="hardAlpha"/>
<feOffset dx="-2" dy="2"/>
<feGaussianBlur stdDeviation="2"/>
<feComposite in2="hardAlpha" operator="out"/>
<feColorMatrix type="matrix" values="0 0 0 0 0 0 0 0 0 0 0 0 0 0 0 0 0 0 0.25 0"/>
<feBlend mode="normal" in2="BackgroundImageFix" result="effect1_dropShadow_99_3698"/>
<feBlend mode="normal" in="SourceGraphic" in2="effect1_dropShadow_99_3698" result="shape"/>
</filter>
<linearGradient id="paint0_linear_99_3698" x1="44.0212" y1="2" x2="44.0212" y2="73.2006" gradientUnits="userSpaceOnUse">
<stop offset="0.864583" stop-color="#BABFC3"/>
<stop offset="1" stop-color="#BBBFC3"/>
</linearGradient>
<linearGradient id="paint1_linear_99_3698" x1="44.0216" y1="14.4947" x2="44.0216" y2="60.706" gradientUnits="userSpaceOnUse">
<stop offset="0.864583" stop-color="#BABFC3"/>
<stop offset="1" stop-color="#BBBFC3"/>
</linearGradient>
<linearGradient id="paint2_linear_99_3698" x1="29.3361" y1="17.3103" x2="29.3361" y2="34.1896" gradientUnits="userSpaceOnUse">
<stop offset="0.864583" stop-color="#BABFC3"/>
<stop offset="1" stop-color="#BBBFC3"/>
</linearGradient>
<linearGradient id="paint3_linear_99_3698" x1="35.7221" y1="44.0042" x2="35.7221" y2="48.3321" gradientUnits="userSpaceOnUse">
<stop offset="0.864583" stop-color="#BABFC3"/>
<stop offset="1" stop-color="#BBBFC3"/>
</linearGradient>
<linearGradient id="paint4_linear_99_3698" x1="52.9309" y1="47.2662" x2="52.9309" y2="57.9954" gradientUnits="userSpaceOnUse">
<stop offset="0.864583" stop-color="#BABFC3"/>
<stop offset="1" stop-color="#BBBFC3"/>
</linearGradient>
<linearGradient id="paint5_linear_99_3698" x1="62.2176" y1="39.7251" x2="62.2176" y2="52.0308" gradientUnits="userSpaceOnUse">
<stop offset="0.864583" stop-color="#BABFC3"/>
<stop offset="1" stop-color="#BBBFC3"/>
</linearGradient>
<linearGradient id="paint6_linear_99_3698" x1="56.3759" y1="18.77" x2="56.3759" y2="26.093" gradientUnits="userSpaceOnUse">
<stop offset="0.864583" stop-color="#BABFC3"/>
<stop offset="1" stop-color="#BBBFC3"/>
</linearGradient>
<linearGradient id="paint7_linear_99_3698" x1="57.454" y1="21.218" x2="57.454" y2="28.4089" gradientUnits="userSpaceOnUse">
<stop offset="0.864583" stop-color="#BABFC3"/>
<stop offset="1" stop-color="#BBBFC3"/>
</linearGradient>
<linearGradient id="paint8_linear_99_3698" x1="34.4956" y1="35.9709" x2="34.4956" y2="47.5465" gradientUnits="userSpaceOnUse">
<stop offset="0.864583" stop-color="#BABFC3"/>
<stop offset="1" stop-color="#BBBFC3"/>
</linearGradient>
<linearGradient id="paint9_linear_99_3698" x1="33.4426" y1="33.292" x2="33.4426" y2="41.9151" gradientUnits="userSpaceOnUse">
<stop offset="0.864583" stop-color="#BABFC3"/>
<stop offset="1" stop-color="#BBBFC3"/>
</linearGradient>
<linearGradient id="paint10_linear_99_3698" x1="66.5034" y1="43.714" x2="66.5034" y2="48.1331" gradientUnits="userSpaceOnUse">
<stop offset="0.864583" stop-color="#BABFC3"/>
<stop offset="1" stop-color="#BBBFC3"/>
</linearGradient>
<linearGradient id="paint11_linear_99_3698" x1="16.0649" y1="40.24" x2="16.0649" y2="48.1722" gradientUnits="userSpaceOnUse">
<stop offset="0.864583" stop-color="#BABFC3"/>
<stop offset="1" stop-color="#BBBFC3"/>
</linearGradient>
<linearGradient id="paint12_linear_99_3698" x1="29.7121" y1="56.3151" x2="29.7121" y2="60.38" gradientUnits="userSpaceOnUse">
<stop offset="0.864583" stop-color="#BABFC3"/>
<stop offset="1" stop-color="#BBBFC3"/>
</linearGradient>
<linearGradient id="paint13_linear_99_3698" x1="38.7306" y1="15.8829" x2="38.7306" y2="43.5185" gradientUnits="userSpaceOnUse">
<stop offset="0.864583" stop-color="#BABFC3"/>
<stop offset="1" stop-color="#BBBFC3"/>
</linearGradient>
<linearGradient id="paint14_linear_99_3698" x1="44.951" y1="43.4761" x2="44.951" y2="43.8275" gradientUnits="userSpaceOnUse">
<stop offset="0.864583" stop-color="#BABFC3"/>
<stop offset="1" stop-color="#BBBFC3"/>
</linearGradient>
<linearGradient id="paint15_linear_99_3698" x1="51.488" y1="14.7486" x2="51.488" y2="43.6294" gradientUnits="userSpaceOnUse">
<stop offset="0.864583" stop-color="#BABFC3"/>
<stop offset="1" stop-color="#BBBFC3"/>
</linearGradient>
<linearGradient id="paint16_linear_99_3698" x1="25.0852" y1="38.8451" x2="25.0852" y2="52.7868" gradientUnits="userSpaceOnUse">
<stop offset="0.864583" stop-color="#BABFC3"/>
<stop offset="1" stop-color="#BBBFC3"/>
</linearGradient>
</defs>
</svg>
