<svg width="84" height="80" viewBox="0 0 84 80" fill="none" xmlns="http://www.w3.org/2000/svg">
<g filter="url(#filter0_d_99_4270)">
<path d="M12.4923 2.5H74.716C78.0516 2.5 80.7083 5.05338 80.7083 8.1463V67.0543C80.7083 70.1472 78.0516 72.7006 74.716 72.7006H12.4923C9.15668 72.7006 6.5 70.1472 6.5 67.0543V8.1463C6.5 5.05338 9.15668 2.5 12.4923 2.5Z" fill="white" stroke="url(#paint0_linear_99_4270)"/>
<path d="M31.3928 47.1844C31.881 47.0763 31.881 47.0762 31.8809 47.0761L31.8809 47.0757L31.8805 47.0741L31.8791 47.0677L31.8734 47.0421L31.8512 46.9419L31.7662 46.557C31.6925 46.2231 31.5861 45.7407 31.4556 45.1468C31.1945 43.9591 30.8366 42.3258 30.4494 40.5433C29.6747 36.9764 28.7842 32.8182 28.3172 30.4352C28.2313 29.9959 28.1447 29.5569 28.0589 29.1217C27.6991 27.298 27.3525 25.5405 27.1268 24.1084C26.9869 23.2203 26.8967 22.4768 26.8769 21.9305C26.8669 21.6557 26.8756 21.4512 26.8977 21.3117C26.907 21.2526 26.9168 21.2177 26.9228 21.1999C27.6146 20.6185 28.6916 20.2677 29.6642 20.0671C30.1481 19.9672 30.5854 19.9085 30.9016 19.8748C31.0595 19.858 31.1864 19.8476 31.2729 19.8413C31.2791 19.8409 31.2851 19.8404 31.2908 19.84C34.3763 21.1493 38.2377 21.4611 42.0451 21.053C45.8369 20.6466 49.624 19.521 52.61 17.9003L60.1234 19.1673L59.5682 34.5341L59.5679 34.5413L58.9899 45.9468L58.9856 46.0314L59.0094 46.1127L59.4892 45.9721C59.0094 46.1127 59.0094 46.1127 59.0094 46.1128L59.0095 46.1131L59.01 46.1146L59.0117 46.1205L59.0184 46.1435L59.0447 46.2333L59.1449 46.5743C59.2312 46.8684 59.3549 47.2891 59.504 47.7954C59.8023 48.8079 60.2026 50.1633 60.6107 51.5343C61.0187 52.905 61.4348 54.2924 61.7646 55.3686C61.9294 55.9064 62.0732 56.3682 62.1838 56.712C62.2391 56.8836 62.2868 57.0281 62.3251 57.1388C62.3586 57.2356 62.3959 57.3392 62.4287 57.4052C63.1076 58.7713 62.8974 59.3272 62.7541 59.5259C62.6698 59.6427 62.5572 59.7146 62.4563 59.7577C62.4478 59.7613 62.4395 59.7647 62.4314 59.7679C60.0564 58.6057 56.6272 58.0397 52.8648 57.8247C48.9949 57.6037 44.7073 57.7513 40.7176 58.0446C36.726 58.3381 33.0222 58.7781 30.3169 59.1447C28.9639 59.328 27.86 59.493 27.0938 59.6122C26.9627 59.6326 26.8414 59.6517 26.7305 59.6693C27.3337 58.0228 28.4564 55.3109 29.5038 52.8389C30.1202 51.3841 30.707 50.0205 31.1398 49.0205C31.3561 48.5205 31.5339 48.1115 31.6576 47.8275L31.8007 47.4997L31.8381 47.4141L31.8476 47.3923L31.85 47.3868L31.8506 47.3854L31.8508 47.3851C31.8508 47.385 31.8508 47.385 31.3928 47.1844ZM31.3928 47.1844L31.881 47.0763L31.9162 47.2355L31.8508 47.385L31.3928 47.1844Z" fill="#008060" stroke="url(#paint1_linear_99_4270)"/>
<path d="M20.6535 34.9199C18.8026 33.0973 17.0276 30.4367 17.0635 26.944L26.3842 21.4977L28.9342 33.7553L24.1895 37.5743C24.1763 37.5671 24.1627 37.5595 24.1487 37.5517C23.9405 37.4357 23.6406 37.2602 23.2804 37.0257C22.5591 36.5561 21.6011 35.853 20.6535 34.9199Z" fill="#008060" stroke="url(#paint2_linear_99_4270)"/>
<path d="M59.8762 34.4124L59.5491 35.3813L59.4941 23.0826L60.921 19.4031L70.3639 23.277C70.3549 23.3084 70.3455 23.3413 70.3357 23.3757C70.2394 23.7122 70.0996 24.1949 69.9256 24.7788C69.5775 25.9469 69.0932 27.5178 68.5475 29.132C68.0012 30.7482 67.3966 32.3981 66.8085 33.728C66.5143 34.3935 66.2284 34.9689 65.9605 35.4162C65.7786 35.7201 65.6183 35.9416 65.4843 36.0904L60.5359 34.1082L60.0453 33.9117L59.8762 34.4124Z" fill="#008060" stroke="url(#paint3_linear_99_4270)"/>
<mask id="path-5-inside-1_99_4270" fill="white">
<path d="M25.1897 36.9449C25.0041 36.8944 24.8277 36.8174 24.6665 36.7168C24.2205 36.4755 23.7926 36.2055 23.3859 35.9086C22.0016 34.9291 20.8127 33.724 19.8747 32.3498C19.353 31.5811 18.9147 30.7644 18.5666 29.9122C18.3049 29.221 18.1158 28.5071 18.0021 27.7809C17.9199 27.2938 17.883 26.8009 17.8919 26.3078C17.8739 26.1258 17.8926 25.9422 17.947 25.7668C18.009 25.7668 18.0021 26.5359 18.2499 27.7222C18.3964 28.4265 18.606 29.1177 18.8764 29.7883C19.2194 30.6022 19.6387 31.3853 20.1295 32.1282C21.0496 33.4709 22.1855 34.6694 23.4961 35.6804C24.5288 36.4952 25.2241 36.8927 25.1897 36.9449Z"/>
</mask>
<path d="M25.1897 36.9449C25.0041 36.8944 24.8277 36.8174 24.6665 36.7168C24.2205 36.4755 23.7926 36.2055 23.3859 35.9086C22.0016 34.9291 20.8127 33.724 19.8747 32.3498C19.353 31.5811 18.9147 30.7644 18.5666 29.9122C18.3049 29.221 18.1158 28.5071 18.0021 27.7809C17.9199 27.2938 17.883 26.8009 17.8919 26.3078C17.8739 26.1258 17.8926 25.9422 17.947 25.7668C18.009 25.7668 18.0021 26.5359 18.2499 27.7222C18.3964 28.4265 18.606 29.1177 18.8764 29.7883C19.2194 30.6022 19.6387 31.3853 20.1295 32.1282C21.0496 33.4709 22.1855 34.6694 23.4961 35.6804C24.5288 36.4952 25.2241 36.8927 25.1897 36.9449Z" fill="#263238"/>
<path d="M25.1897 36.9449L24.9271 37.9098L25.6255 38.0999L26.0242 37.4958L25.1897 36.9449ZM24.6665 36.7168L25.1962 35.8686L25.1697 35.8521L25.1422 35.8372L24.6665 36.7168ZM23.3859 35.9086L23.9756 35.1009L23.9696 35.0965L23.9635 35.0922L23.3859 35.9086ZM19.8747 32.3498L19.0473 32.9114L19.0488 32.9136L19.8747 32.3498ZM18.5666 29.9122L17.6314 30.2663L17.636 30.2783L17.6409 30.2903L18.5666 29.9122ZM18.0021 27.7809L18.9901 27.6261L18.9881 27.6145L18.0021 27.7809ZM17.8919 26.3078L18.8918 26.3258L18.8928 26.2673L18.887 26.209L17.8919 26.3078ZM17.947 25.7668V24.7668H17.2104L16.992 25.4703L17.947 25.7668ZM18.2499 27.7222L19.229 27.5185L19.2288 27.5177L18.2499 27.7222ZM18.8764 29.7883L17.949 30.1623L17.9519 30.1695L17.9549 30.1766L18.8764 29.7883ZM20.1295 32.1282L19.2951 32.6794L19.2998 32.6865L19.3046 32.6935L20.1295 32.1282ZM23.4961 35.6804L24.1155 34.8953L24.1069 34.8887L23.4961 35.6804ZM25.4523 35.98C25.3598 35.9548 25.2735 35.9169 25.1962 35.8686L24.1367 37.5649C24.3818 37.718 24.6483 37.8339 24.9271 37.9098L25.4523 35.98ZM25.1422 35.8372C24.7355 35.6172 24.3457 35.3712 23.9756 35.1009L22.7962 36.7162C23.2395 37.0398 23.7055 37.3339 24.1907 37.5963L25.1422 35.8372ZM23.9635 35.0922C22.6745 34.1801 21.5702 33.0601 20.7007 31.7861L19.0488 32.9136C20.0551 34.388 21.3288 35.678 22.8083 36.7249L23.9635 35.0922ZM20.7021 31.7882C20.2191 31.0766 19.8139 30.3213 19.4924 29.5341L17.6409 30.2903C18.0155 31.2075 18.4868 32.0857 19.0473 32.9114L20.7021 31.7882ZM19.5018 29.5581C19.2644 28.931 19.0931 28.2839 18.99 27.6261L17.0141 27.9356C17.1386 28.7303 17.3454 29.511 17.6314 30.2663L19.5018 29.5581ZM18.9881 27.6145C18.9162 27.1883 18.884 26.7571 18.8918 26.3258L16.8921 26.2898C16.8821 26.8448 16.9236 27.3994 17.016 27.9472L18.9881 27.6145ZM18.887 26.209C18.8822 26.1607 18.8871 26.1115 18.902 26.0634L16.992 25.4703C16.898 25.7729 16.8655 26.0909 16.8968 26.4066L18.887 26.209ZM17.947 26.7668C17.3769 26.7668 17.1225 26.3289 17.0915 26.2751C17.0287 26.1662 17.0052 26.0741 17.0014 26.0599C16.9895 26.0152 16.9886 25.9936 16.9942 26.0362C17.0042 26.1122 17.0136 26.2146 17.0346 26.4077C17.0734 26.7645 17.1378 27.289 17.2711 27.9267L19.2288 27.5177C19.1142 26.9691 19.0581 26.5159 19.0229 26.1916C19.0069 26.0442 18.9909 25.8802 18.9771 25.7749C18.9707 25.7268 18.9583 25.636 18.9339 25.5445C18.9239 25.507 18.8939 25.3971 18.8243 25.2764C18.7865 25.2108 18.5249 24.7668 17.947 24.7668V26.7668ZM17.2709 27.9258C17.4296 28.6886 17.6565 29.4368 17.949 30.1623L19.8039 29.4144C19.5556 28.7986 19.3633 28.1643 19.229 27.5185L17.2709 27.9258ZM17.9549 30.1766C18.322 31.0478 18.7706 31.8854 19.2951 32.6794L20.9639 31.5771C20.5068 30.8852 20.1167 30.1566 19.798 29.4L17.9549 30.1766ZM19.3046 32.6935C20.2848 34.1239 21.4933 35.3984 22.8852 36.4722L24.1069 34.8887C22.8776 33.9404 21.8144 32.8179 20.9543 31.5629L19.3046 32.6935ZM22.8767 36.4655C23.4168 36.8916 23.8683 37.2082 24.172 37.4195C24.332 37.5309 24.4269 37.5965 24.485 37.64C24.5195 37.6659 24.5014 37.6549 24.4678 37.6218C24.4578 37.612 24.3869 37.5439 24.3219 37.4315C24.2918 37.3793 24.0195 36.9024 24.3552 36.3939L26.0242 37.4958C26.3642 36.9808 26.0905 36.4947 26.0534 36.4306C25.9816 36.3063 25.8983 36.2235 25.8706 36.1962C25.8014 36.1282 25.7266 36.0712 25.6846 36.0398C25.5898 35.9686 25.4527 35.8742 25.3141 35.7777C25.0206 35.5735 24.608 35.2839 24.1154 34.8953L22.8767 36.4655Z" fill="url(#paint4_linear_99_4270)" mask="url(#path-5-inside-1_99_4270)"/>
<mask id="path-7-inside-2_99_4270" fill="white">
<path d="M28.0885 32.1021C28.0885 32.1021 27.937 32.0565 27.6892 31.9131C27.3835 31.688 27.0959 31.4418 26.8286 31.1766C25.94 30.2804 25.1274 29.3193 24.3983 28.3022C23.6595 27.2945 22.9859 26.2454 22.3811 25.1606C22.0971 24.7243 21.8989 24.2429 21.7959 23.7397C21.8441 23.7397 22.0919 24.2481 22.6083 25.0433C23.1246 25.8385 23.8406 26.927 24.6737 28.1002C25.5067 29.2734 26.3536 30.3032 26.9938 31.0071C27.3174 31.3526 27.5928 31.6198 27.7856 31.8023C27.9783 31.9848 28.0954 32.076 28.0885 32.1021Z"/>
</mask>
<path d="M28.0885 32.1021C28.0885 32.1021 27.937 32.0565 27.6892 31.9131C27.3835 31.688 27.0959 31.4418 26.8286 31.1766C25.94 30.2804 25.1274 29.3193 24.3983 28.3022C23.6595 27.2945 22.9859 26.2454 22.3811 25.1606C22.0971 24.7243 21.8989 24.2429 21.7959 23.7397C21.8441 23.7397 22.0919 24.2481 22.6083 25.0433C23.1246 25.8385 23.8406 26.927 24.6737 28.1002C25.5067 29.2734 26.3536 30.3032 26.9938 31.0071C27.3174 31.3526 27.5928 31.6198 27.7856 31.8023C27.9783 31.9848 28.0954 32.076 28.0885 32.1021Z" fill="#263238"/>
<path d="M28.0885 32.1021L27.8001 33.0596L28.7911 33.3581L29.0553 32.3574L28.0885 32.1021ZM27.6892 31.9131L27.0962 32.7183L27.1407 32.751L27.1884 32.7787L27.6892 31.9131ZM26.8286 31.1766L26.1185 31.8807L26.1242 31.8864L26.8286 31.1766ZM24.3983 28.3022L25.2111 27.7196L25.2048 27.711L24.3983 28.3022ZM22.3811 25.1606L23.2545 24.6737L23.2379 24.6438L23.2192 24.6152L22.3811 25.1606ZM21.7959 23.7397L21.7959 22.7397H20.5705L20.8162 23.9402L21.7959 23.7397ZM26.9938 31.0071L26.2541 31.68L26.259 31.6854L26.264 31.6907L26.9938 31.0071ZM28.0885 32.1021C28.3769 31.1446 28.3771 31.1447 28.3773 31.1447C28.3774 31.1447 28.3776 31.1448 28.3777 31.1448C28.3779 31.1449 28.3782 31.145 28.3784 31.1451C28.3789 31.1452 28.3794 31.1454 28.3799 31.1455C28.3809 31.1458 28.3818 31.1461 28.3827 31.1464C28.3845 31.1469 28.3862 31.1474 28.3877 31.1479C28.3907 31.1489 28.3932 31.1497 28.3951 31.1503C28.3989 31.1516 28.4006 31.1522 28.4002 31.1521C28.3994 31.1518 28.3903 31.1485 28.3737 31.1414C28.3405 31.1272 28.2772 31.098 28.19 31.0475L27.1884 32.7787C27.349 32.8716 27.4853 32.9368 27.5898 32.9814C27.6421 33.0036 27.6863 33.0207 27.7217 33.0334C27.7394 33.0398 27.7548 33.0451 27.7679 33.0494C27.7745 33.0516 27.7804 33.0535 27.7858 33.0552C27.7885 33.0561 27.791 33.0568 27.7934 33.0576C27.7946 33.0579 27.7957 33.0583 27.7968 33.0586C27.7974 33.0588 27.7979 33.059 27.7985 33.0591C27.7987 33.0592 27.799 33.0593 27.7993 33.0594C27.7994 33.0594 27.7996 33.0595 27.7997 33.0595C27.7999 33.0596 27.8001 33.0596 28.0885 32.1021ZM28.2821 31.1078C28.0156 30.9116 27.7652 30.6973 27.533 30.4668L26.1242 31.8864C26.4265 32.1864 26.7514 32.4645 27.0962 32.7183L28.2821 31.1078ZM27.5387 30.4725C26.6872 29.6137 25.9089 28.6931 25.211 27.7196L23.5856 28.8848C24.3458 29.9454 25.1928 30.9471 26.1185 31.8807L27.5387 30.4725ZM25.2048 27.711C24.4903 26.7364 23.8391 25.7221 23.2545 24.6737L21.5077 25.6476C22.1327 26.7687 22.8287 27.8527 23.5918 28.8935L25.2048 27.711ZM23.2192 24.6152C23.0027 24.2825 22.8531 23.9179 22.7756 23.5393L20.8162 23.9402C20.9447 24.568 21.1915 25.1661 21.543 25.7061L23.2192 24.6152ZM21.7959 24.7397C21.5827 24.7397 21.4229 24.6717 21.3399 24.6286C21.2526 24.5832 21.1911 24.5344 21.158 24.5062C21.0932 24.4509 21.0533 24.4012 21.0434 24.3889C21.0194 24.359 21.0108 24.343 21.0259 24.3669C21.052 24.4081 21.0924 24.477 21.1634 24.5984C21.2974 24.8274 21.4981 25.1699 21.7696 25.5879L23.447 24.4987C23.2021 24.1216 23.0207 23.8123 22.8896 23.5883C22.8281 23.4832 22.7653 23.3753 22.7152 23.2963C22.6923 23.2601 22.6523 23.1982 22.6035 23.1374C22.5812 23.1096 22.5306 23.0483 22.4566 22.9851C22.4298 22.9622 22.1848 22.7397 21.7959 22.7397L21.7959 24.7397ZM21.7696 25.5879C22.2888 26.3874 23.0135 27.4893 23.8583 28.6791L25.4891 27.5212C24.6678 26.3646 23.9605 25.2895 23.447 24.4987L21.7696 25.5879ZM23.8583 28.6791C24.7144 29.8848 25.5864 30.946 26.2541 31.68L27.7336 30.3342C27.1207 29.6604 26.299 28.662 25.4891 27.5212L23.8583 28.6791ZM26.264 31.6907C26.6053 32.0552 26.8959 32.337 27.0981 32.5285L28.4731 31.0761C28.2897 30.9025 28.0295 30.65 27.7237 30.3235L26.264 31.6907ZM27.0981 32.5285C27.1527 32.5802 27.2013 32.6248 27.2414 32.6614C27.2852 32.7013 27.3093 32.723 27.3304 32.7427C27.3572 32.7677 27.3408 32.7542 27.3143 32.7235C27.3034 32.7108 27.2548 32.6548 27.2076 32.5683C27.183 32.5232 27.1437 32.4428 27.1171 32.3347C27.0904 32.2257 27.0677 32.051 27.1216 31.8468L29.0553 32.3574C29.1587 31.9661 28.994 31.6667 28.9631 31.6102C28.9101 31.513 28.852 31.4441 28.828 31.4163C28.7755 31.3556 28.719 31.3029 28.6934 31.279C28.6035 31.1953 28.5783 31.1757 28.4731 31.0761L27.0981 32.5285Z" fill="url(#paint5_linear_99_4270)" mask="url(#path-7-inside-2_99_4270)"/>
<mask id="path-9-inside-3_99_4270" fill="white">
<path d="M59.4479 19.6465C59.0403 19.7749 58.6239 19.8772 58.2018 19.9528C57.3963 20.1418 56.2397 20.4351 54.8283 20.8458L49.8507 22.3188C47.826 22.9268 45.7543 23.3844 43.6545 23.6875C39.7723 24.1901 35.8198 23.8217 32.1157 22.6121C31.0048 22.2533 29.9233 21.8176 28.8799 21.3085C28.5081 21.1326 28.2396 20.9631 28.0469 20.8588C27.9473 20.8092 27.8548 20.7479 27.7715 20.6763C28.1727 20.8219 28.5636 20.9917 28.9419 21.1847C29.9992 21.6554 31.0869 22.0625 32.1983 22.4035C35.8653 23.5276 39.7522 23.8572 43.5718 23.3682C45.669 23.082 47.7403 22.6463 49.7681 22.0646C51.6476 21.5432 53.3274 21.0348 54.7595 20.6567C56.1915 20.2787 57.3619 20.005 58.2018 19.8681C58.608 19.7899 58.8903 19.7508 59.145 19.7182C59.241 19.6783 59.3434 19.654 59.4479 19.6465V19.6465Z"/>
</mask>
<path d="M59.4479 19.6465C59.0403 19.7749 58.6239 19.8772 58.2018 19.9528C57.3963 20.1418 56.2397 20.4351 54.8283 20.8458L49.8507 22.3188C47.826 22.9268 45.7543 23.3844 43.6545 23.6875C39.7723 24.1901 35.8198 23.8217 32.1157 22.6121C31.0048 22.2533 29.9233 21.8176 28.8799 21.3085C28.5081 21.1326 28.2396 20.9631 28.0469 20.8588C27.9473 20.8092 27.8548 20.7479 27.7715 20.6763C28.1727 20.8219 28.5636 20.9917 28.9419 21.1847C29.9992 21.6554 31.0869 22.0625 32.1983 22.4035C35.8653 23.5276 39.7522 23.8572 43.5718 23.3682C45.669 23.082 47.7403 22.6463 49.7681 22.0646C51.6476 21.5432 53.3274 21.0348 54.7595 20.6567C56.1915 20.2787 57.3619 20.005 58.2018 19.8681C58.608 19.7899 58.8903 19.7508 59.145 19.7182C59.241 19.6783 59.3434 19.654 59.4479 19.6465V19.6465Z" fill="#263238"/>
<path d="M58.2018 19.9528L58.0255 18.9685L57.9993 18.9732L57.9733 18.9793L58.2018 19.9528ZM54.8283 20.8458L54.5489 19.8856L54.5445 19.8869L54.8283 20.8458ZM49.8507 22.3188L49.5669 21.3599L49.5631 21.361L49.8507 22.3188ZM43.6545 23.6875L43.7828 24.6793L43.7901 24.6783L43.7973 24.6773L43.6545 23.6875ZM32.1157 22.6121L32.4262 21.6615L32.4231 21.6605L32.1157 22.6121ZM28.8799 21.3085L29.3185 20.4097L29.3078 20.4047L28.8799 21.3085ZM28.0469 20.8588L28.5227 19.9793L28.5079 19.9713L28.4929 19.9638L28.0469 20.8588ZM27.7715 20.6763L28.1126 19.7363L27.1199 21.4348L27.7715 20.6763ZM28.9419 21.1847L28.4874 22.0754L28.511 22.0875L28.5352 22.0983L28.9419 21.1847ZM32.1983 22.4035L31.905 23.3595L31.9053 23.3596L32.1983 22.4035ZM43.5718 23.3682L43.6988 24.3601L43.707 24.359L43.5718 23.3682ZM49.7681 22.0646L49.5007 21.101L49.4923 21.1034L49.7681 22.0646ZM58.2018 19.8681L58.3626 20.8551L58.3768 20.8528L58.3909 20.8501L58.2018 19.8681ZM59.145 19.7182L59.2719 20.7101L59.405 20.6931L59.5289 20.6416L59.145 19.7182ZM59.1475 18.6927C58.7807 18.8082 58.4058 18.9004 58.0255 18.9685L58.3781 20.9372C58.8421 20.8541 59.2999 20.7416 59.7483 20.6003L59.1475 18.6927ZM57.9733 18.9793C57.1517 19.1721 55.978 19.4698 54.5489 19.8856L55.1077 21.8059C56.5013 21.4005 57.6409 21.1116 58.4302 20.9264L57.9733 18.9793ZM54.5445 19.8869L49.5669 21.3599L50.1344 23.2777L55.1121 21.8047L54.5445 19.8869ZM49.5631 21.361C47.5859 21.9548 45.5626 22.4017 43.5116 22.6978L43.7973 24.6773C45.946 24.3671 48.066 23.8988 50.1383 23.2765L49.5631 21.361ZM43.5261 22.6958C39.7908 23.1794 35.9882 22.8247 32.4262 21.6615L31.8053 23.5627C35.6514 24.8187 39.7539 25.2008 43.7828 24.6793L43.5261 22.6958ZM32.4231 21.6605C31.3568 21.3161 30.3191 20.8981 29.3184 20.4098L28.4414 22.2073C29.5274 22.7372 30.6528 23.1905 31.8084 23.5637L32.4231 21.6605ZM29.3078 20.4047C28.9625 20.2413 28.7907 20.1243 28.5227 19.9793L27.5711 21.7383C27.6886 21.8019 28.0538 22.0238 28.4521 22.2124L29.3078 20.4047ZM28.4929 19.9638C28.4663 19.9505 28.443 19.9348 28.4231 19.9178L27.1199 21.4348C27.2666 21.5609 27.4283 21.6678 27.6008 21.7538L28.4929 19.9638ZM27.4304 21.6163C27.793 21.7479 28.1461 21.9013 28.4874 22.0754L29.3964 20.2939C28.9812 20.0821 28.5524 19.8959 28.1126 19.7363L27.4304 21.6163ZM28.5352 22.0983C29.6296 22.5854 30.7551 23.0067 31.905 23.3595L32.4917 21.4475C31.4186 21.1183 30.3689 20.7253 29.3486 20.2711L28.5352 22.0983ZM31.9053 23.3596C35.7087 24.5255 39.7388 24.8671 43.6988 24.3601L43.4448 22.3763C39.7656 22.8474 36.0219 22.5297 32.4914 21.4474L31.9053 23.3596ZM43.707 24.359C45.8515 24.0664 47.9698 23.6208 50.0438 23.0258L49.4923 21.1034C47.5108 21.6718 45.4865 22.0977 43.4367 22.3773L43.707 24.359ZM50.0354 23.0282C51.9548 22.4957 53.5822 22.0018 55.0147 21.6236L54.5042 19.6899C53.0726 20.0678 51.3404 20.5906 49.5007 21.101L50.0354 23.0282ZM55.0147 21.6236C56.4406 21.2472 57.5725 20.9838 58.3626 20.8551L58.041 18.8811C57.1512 19.0261 55.9423 19.3102 54.5042 19.6899L55.0147 21.6236ZM58.3909 20.8501C58.7697 20.7771 59.0298 20.7411 59.2719 20.7101L59.0181 18.7263C58.7508 18.7605 58.4463 18.8026 58.0127 18.8861L58.3909 20.8501ZM59.5289 20.6416C59.5248 20.6433 59.5218 20.6438 59.52 20.6439L59.3758 18.6491C59.165 18.6643 58.9572 18.7133 58.7611 18.7948L59.5289 20.6416Z" fill="url(#paint6_linear_99_4270)" mask="url(#path-9-inside-3_99_4270)"/>
<mask id="path-11-inside-4_99_4270" fill="white">
<path d="M60.5635 28.6086C60.4559 28.642 60.3453 28.666 60.233 28.6803L59.2829 28.8237C58.4568 28.9541 57.2588 29.0975 55.7717 29.2408C52.7976 29.5342 48.6668 29.7623 44.0678 29.7688C39.4688 29.7753 35.3724 29.6124 32.3638 29.469L28.8939 29.2604L27.937 29.1887C27.8232 29.1843 27.7102 29.169 27.5996 29.1431C27.7114 29.1263 27.8252 29.1263 27.937 29.1431H28.8939L32.4327 29.2278C35.4137 29.3125 39.5377 29.4364 44.0953 29.4299C48.653 29.4233 52.7631 29.2343 55.7373 28.9997C57.2244 28.8889 58.4292 28.7781 59.2623 28.6933L60.2193 28.6086C60.3332 28.5907 60.4495 28.5907 60.5635 28.6086V28.6086Z"/>
</mask>
<path d="M60.5635 28.6086C60.4559 28.642 60.3453 28.666 60.233 28.6803L59.2829 28.8237C58.4568 28.9541 57.2588 29.0975 55.7717 29.2408C52.7976 29.5342 48.6668 29.7623 44.0678 29.7688C39.4688 29.7753 35.3724 29.6124 32.3638 29.469L28.8939 29.2604L27.937 29.1887C27.8232 29.1843 27.7102 29.169 27.5996 29.1431C27.7114 29.1263 27.8252 29.1263 27.937 29.1431H28.8939L32.4327 29.2278C35.4137 29.3125 39.5377 29.4364 44.0953 29.4299C48.653 29.4233 52.7631 29.2343 55.7373 28.9997C57.2244 28.8889 58.4292 28.7781 59.2623 28.6933L60.2193 28.6086C60.3332 28.5907 60.4495 28.5907 60.5635 28.6086V28.6086Z" fill="#263238"/>
<path d="M60.233 28.6803L60.1065 27.6884L60.0951 27.6898L60.0838 27.6915L60.233 28.6803ZM59.2829 28.8237L59.1337 27.8349L59.1271 27.8359L59.2829 28.8237ZM55.7717 29.2408L55.6758 28.2455L55.6736 28.2457L55.7717 29.2408ZM32.3638 29.469L32.3038 30.4672L32.3162 30.4678L32.3638 29.469ZM28.8939 29.2604L28.8192 30.2576L28.8266 30.2582L28.8339 30.2586L28.8939 29.2604ZM27.937 29.1887L28.0117 28.1915L27.9938 28.1902L27.9759 28.1895L27.937 29.1887ZM27.5996 29.1431L27.4507 28.1542L27.3714 30.1167L27.5996 29.1431ZM27.937 29.1431L27.7881 30.1319L27.8621 30.1431H27.937V29.1431ZM28.8939 29.1431L28.9179 28.1434L28.9059 28.1431H28.8939V29.1431ZM32.4327 29.2278L32.4611 28.2282L32.4566 28.2281L32.4327 29.2278ZM55.7373 28.9997L55.663 28.0024L55.6587 28.0028L55.7373 28.9997ZM59.2623 28.6933L59.1741 27.6972L59.1611 27.6985L59.2623 28.6933ZM60.2193 28.6086L60.3075 29.6047L60.3409 29.6018L60.3742 29.5965L60.2193 28.6086ZM60.2673 27.6535C60.2153 27.6696 60.1614 27.6813 60.1065 27.6884L60.3596 29.6723C60.5291 29.6506 60.6965 29.6144 60.8597 29.5637L60.2673 27.6535ZM60.0838 27.6915L59.1337 27.8349L59.4322 29.8125L60.3823 29.6691L60.0838 27.6915ZM59.1271 27.8359C58.3298 27.9617 57.1546 28.1029 55.6758 28.2455L55.8677 30.2362C57.3631 30.092 58.5838 29.9464 59.4388 29.8115L59.1271 27.8359ZM55.6736 28.2457C52.7344 28.5355 48.636 28.7623 44.0664 28.7688L44.0692 30.7688C48.6975 30.7622 52.8608 30.5328 55.8699 30.236L55.6736 28.2457ZM44.0664 28.7688C39.4909 28.7753 35.413 28.6132 32.4114 28.4701L32.3162 30.4678C35.3319 30.6116 39.4467 30.7753 44.0692 30.7688L44.0664 28.7688ZM32.4238 28.4708L28.9539 28.2622L28.8339 30.2586L32.3038 30.4672L32.4238 28.4708ZM28.9686 28.2632L28.0117 28.1915L27.8622 30.1859L28.8192 30.2576L28.9686 28.2632ZM27.9759 28.1895C27.9257 28.1875 27.876 28.1808 27.8278 28.1695L27.3714 30.1167C27.5443 30.1572 27.7207 30.181 27.898 30.1879L27.9759 28.1895ZM27.7485 30.1319C27.7615 30.13 27.775 30.13 27.7881 30.1319L28.0858 28.1542C27.8754 28.1225 27.6612 28.1225 27.4507 28.1542L27.7485 30.1319ZM27.937 30.1431H28.8939V28.1431H27.937V30.1431ZM28.87 30.1428L32.4087 30.2275L32.4566 28.2281L28.9179 28.1434L28.87 30.1428ZM32.4042 30.2274C35.3835 30.3121 39.5219 30.4364 44.0968 30.4299L44.0939 28.4299C39.5534 28.4364 35.444 28.313 32.4611 28.2282L32.4042 30.2274ZM44.0968 30.4299C48.6791 30.4233 52.8151 30.2333 55.816 29.9966L55.6587 28.0028C52.7112 28.2353 48.6269 28.4234 44.0939 28.4299L44.0968 30.4299ZM55.8116 29.9969C57.3078 29.8854 58.5216 29.7738 59.3635 29.6882L59.1611 27.6985C58.3369 27.7823 57.141 27.8923 55.663 28.0025L55.8116 29.9969ZM59.3505 29.6895L60.3075 29.6047L60.1311 27.6125L59.1741 27.6972L59.3505 29.6895ZM60.3742 29.5965C60.3855 29.5948 60.3973 29.5948 60.4086 29.5965L60.7184 27.6207C60.5018 27.5867 60.281 27.5867 60.0644 27.6207L60.3742 29.5965Z" fill="url(#paint7_linear_99_4270)" mask="url(#path-11-inside-4_99_4270)"/>
<mask id="path-13-inside-5_99_4270" fill="white">
<path d="M60.0677 34.5593C59.6897 34.7116 59.298 34.8316 58.8973 34.9178C58.5186 35.0286 58.0505 35.1264 57.5204 35.2437C56.9902 35.361 56.3431 35.4849 55.6408 35.5826C51.9964 36.1325 48.3153 36.4375 44.6254 36.4951C40.3087 36.6124 36.3982 36.4951 33.6099 36.2865C32.2329 36.1888 31.0556 36.0715 30.2708 35.9737C29.8627 35.9314 29.4579 35.8639 29.0591 35.7716C29.469 35.7618 29.879 35.7857 30.2846 35.8433C31.0763 35.8955 32.2123 35.9802 33.6236 36.0454C36.4395 36.1692 40.3431 36.2735 44.6391 36.1562C48.3247 36.0948 52.0031 35.825 55.6546 35.348C56.3431 35.2632 56.9834 35.159 57.5341 35.0547C58.0849 34.9504 58.56 34.8787 58.9111 34.7875C59.2915 34.6897 59.6777 34.6135 60.0677 34.5593Z"/>
</mask>
<path d="M60.0677 34.5593C59.6897 34.7116 59.298 34.8316 58.8973 34.9178C58.5186 35.0286 58.0505 35.1264 57.5204 35.2437C56.9902 35.361 56.3431 35.4849 55.6408 35.5826C51.9964 36.1325 48.3153 36.4375 44.6254 36.4951C40.3087 36.6124 36.3982 36.4951 33.6099 36.2865C32.2329 36.1888 31.0556 36.0715 30.2708 35.9737C29.8627 35.9314 29.4579 35.8639 29.0591 35.7716C29.469 35.7618 29.879 35.7857 30.2846 35.8433C31.0763 35.8955 32.2123 35.9802 33.6236 36.0454C36.4395 36.1692 40.3431 36.2735 44.6391 36.1562C48.3247 36.0948 52.0031 35.825 55.6546 35.348C56.3431 35.2632 56.9834 35.159 57.5341 35.0547C58.0849 34.9504 58.56 34.8787 58.9111 34.7875C59.2915 34.6897 59.6777 34.6135 60.0677 34.5593Z" fill="#263238"/>
<path d="M60.0677 34.5593L60.4414 35.4869L59.9302 33.5688L60.0677 34.5593ZM58.8973 34.9178L58.687 33.9402L58.6514 33.9478L58.6165 33.9581L58.8973 34.9178ZM55.6409 35.5826L55.5029 34.5921L55.4916 34.5938L55.6409 35.5826ZM44.6254 36.4951L44.6097 35.4952L44.5982 35.4955L44.6254 36.4951ZM33.6099 36.2865L33.6845 35.2893L33.6807 35.2891L33.6099 36.2865ZM30.2708 35.9737L30.3944 34.9814L30.3841 34.9801L30.3738 34.979L30.2708 35.9737ZM29.0591 35.7716L29.035 34.7719L28.8337 36.7459L29.0591 35.7716ZM30.2846 35.8433L30.1439 36.8334L30.1812 36.8387L30.2188 36.8412L30.2846 35.8433ZM33.6236 36.0454L33.5775 37.0443L33.5797 37.0444L33.6236 36.0454ZM44.6391 36.1562L44.6225 35.1563L44.6118 35.1566L44.6391 36.1562ZM55.6546 35.348L55.5325 34.3554L55.5251 34.3564L55.6546 35.348ZM58.9111 34.7875L58.6621 33.8189L58.6595 33.8196L58.9111 34.7875ZM59.694 33.6318C59.3692 33.7627 59.0322 33.8659 58.687 33.9402L59.1076 35.8954C59.5638 35.7973 60.0101 35.6606 60.4414 35.4869L59.694 33.6318ZM58.6165 33.9581C58.2794 34.0567 57.8586 34.1446 57.3043 34.2673L57.7365 36.2201C58.2424 36.1081 58.7579 36.0005 59.1782 35.8776L58.6165 33.9581ZM57.3043 34.2673C56.7959 34.3798 56.175 34.4986 55.503 34.5922L55.7787 36.5731C56.5111 36.4711 57.1846 36.3422 57.7365 36.2201L57.3043 34.2673ZM55.4916 34.5938C51.8915 35.137 48.255 35.4383 44.6097 35.4952L44.641 37.495C48.3756 37.4366 52.1013 37.128 55.7901 36.5714L55.4916 34.5938ZM44.5982 35.4955C40.3128 35.612 36.4364 35.4952 33.6845 35.2893L33.5353 37.2838C36.3599 37.495 40.3045 37.6129 44.6525 37.4947L44.5982 35.4955ZM33.6807 35.2891C32.318 35.1923 31.1586 35.0766 30.3944 34.9814L30.1472 36.966C30.9527 37.0664 32.1479 37.1853 33.539 37.284L33.6807 35.2891ZM30.3738 34.979C30.0068 34.941 29.6429 34.8803 29.2845 34.7974L28.8337 36.7459C29.2729 36.8475 29.7185 36.9218 30.1678 36.9684L30.3738 34.979ZM29.0832 36.7713C29.4381 36.7628 29.793 36.7836 30.1439 36.8334L30.4252 34.8533C29.965 34.7879 29.4999 34.7607 29.035 34.7719L29.0832 36.7713ZM30.2188 36.8412C31.002 36.8928 32.1533 36.9786 33.5775 37.0443L33.6698 35.0465C32.2713 34.9819 31.1506 34.8982 30.3503 34.8455L30.2188 36.8412ZM33.5797 37.0444C36.4104 37.1689 40.3392 37.274 44.6664 37.1558L44.6118 35.1566C40.347 35.273 36.4685 35.1695 33.6676 35.0464L33.5797 37.0444ZM44.6558 37.1561C48.379 37.0941 52.0951 36.8214 55.7841 36.3396L55.5251 34.3564C51.911 34.8285 48.2703 35.0956 44.6225 35.1563L44.6558 37.1561ZM55.7768 36.3405C56.4888 36.2529 57.1505 36.1451 57.7202 36.0372L57.3481 34.0721C56.8162 34.1728 56.1973 34.2736 55.5325 34.3555L55.7768 36.3405ZM57.7202 36.0372C58.2102 35.9444 58.7689 35.8576 59.1626 35.7553L58.6595 33.8196C58.351 33.8998 57.9596 33.9563 57.3481 34.0721L57.7202 36.0372ZM59.16 35.756C59.5037 35.6676 59.8527 35.5988 60.2053 35.5498L59.9302 33.5688C59.5027 33.6282 59.0793 33.7117 58.6621 33.8189L59.16 35.756Z" fill="url(#paint8_linear_99_4270)" mask="url(#path-13-inside-5_99_4270)"/>
<mask id="path-15-inside-6_99_4270" fill="white">
<path d="M59.1867 42.6999C58.8173 42.7787 58.4422 42.831 58.0645 42.8563C57.376 42.9346 56.2883 43.0258 54.987 43.1301C52.3846 43.3191 48.7908 43.5146 44.7977 43.5603C40.8046 43.6059 37.2245 43.469 34.6015 43.2474C33.3003 43.1301 32.2469 43.0193 31.524 42.8954C31.1477 42.8559 30.775 42.7905 30.4087 42.6999C30.7886 42.6894 31.1688 42.7112 31.5447 42.7651C32.2331 42.8433 33.3209 42.9215 34.6152 43.0063C37.2177 43.1692 40.8115 43.2735 44.7908 43.2213C48.7702 43.1692 52.364 43.0193 54.9664 42.8889L58.0507 42.726C58.4279 42.6858 58.808 42.6771 59.1867 42.6999V42.6999Z"/>
</mask>
<path d="M59.1867 42.6999C58.8173 42.7787 58.4422 42.831 58.0645 42.8563C57.376 42.9346 56.2883 43.0258 54.987 43.1301C52.3846 43.3191 48.7908 43.5146 44.7977 43.5603C40.8046 43.6059 37.2245 43.469 34.6015 43.2474C33.3003 43.1301 32.2469 43.0193 31.524 42.8954C31.1477 42.8559 30.775 42.7905 30.4087 42.6999C30.7886 42.6894 31.1688 42.7112 31.5447 42.7651C32.2331 42.8433 33.3209 42.9215 34.6152 43.0063C37.2177 43.1692 40.8115 43.2735 44.7908 43.2213C48.7702 43.1692 52.364 43.0193 54.9664 42.8889L58.0507 42.726C58.4279 42.6858 58.808 42.6771 59.1867 42.6999V42.6999Z" fill="#263238"/>
<path d="M58.0645 42.8563L57.9976 41.8586L57.9745 41.8601L57.9516 41.8627L58.0645 42.8563ZM54.987 43.1301L55.0595 44.1275L55.0669 44.1269L54.987 43.1301ZM34.6015 43.2474L34.5117 44.2434L34.5173 44.2439L34.6015 43.2474ZM31.524 42.8954L31.6929 41.9098L31.6609 41.9043L31.6286 41.9009L31.524 42.8954ZM30.4087 42.6999L30.3809 41.7003L30.1686 43.6707L30.4087 42.6999ZM31.5447 42.7651L31.4027 43.755L31.4172 43.757L31.4318 43.7587L31.5447 42.7651ZM34.6152 43.0062L34.5499 44.0041L34.5527 44.0043L34.6152 43.0062ZM54.9664 42.8889L55.0164 43.8877L55.0191 43.8875L54.9664 42.8889ZM58.0507 42.726L58.1035 43.7246L58.1302 43.7232L58.1567 43.7204L58.0507 42.726ZM58.9781 41.7219C58.6555 41.7907 58.3277 41.8364 57.9976 41.8586L58.1314 43.8541C58.5567 43.8256 58.9792 43.7667 59.3953 43.6779L58.9781 41.7219ZM57.9516 41.8627C57.2829 41.9387 56.2129 42.0286 54.9072 42.1333L55.0669 44.1269C56.3637 44.023 57.4692 43.9304 58.1774 43.8499L57.9516 41.8627ZM54.9146 42.1327C52.3277 42.3206 48.7548 42.515 44.7863 42.5603L44.8091 44.5602C48.8269 44.5143 52.4415 44.3176 55.0595 44.1275L54.9146 42.1327ZM44.7863 42.5603C40.8198 42.6057 37.2721 42.4695 34.6857 42.251L34.5173 44.2439C37.177 44.4686 40.7894 44.6061 44.8091 44.5602L44.7863 42.5603ZM34.6913 42.2515C33.3868 42.1338 32.3711 42.026 31.6929 41.9098L31.3552 43.8811C32.1228 44.0126 33.2137 44.1263 34.5117 44.2434L34.6913 42.2515ZM31.6286 41.9009C31.2979 41.8661 30.9704 41.8087 30.6488 41.7292L30.1686 43.6707C30.5796 43.7723 30.9976 43.8456 31.4194 43.89L31.6286 41.9009ZM30.4365 43.6995C30.7597 43.6905 31.0831 43.7091 31.4027 43.755L31.6867 41.7752C31.2546 41.7132 30.8176 41.6882 30.3809 41.7003L30.4365 43.6995ZM31.4318 43.7587C32.1484 43.8401 33.2609 43.9197 34.5499 44.0041L34.6806 42.0084C33.3809 41.9233 32.3179 41.8465 31.6575 41.7715L31.4318 43.7587ZM34.5527 44.0043C37.1823 44.1689 40.8014 44.2737 44.8039 44.2213L44.7777 42.2214C40.8215 42.2733 37.253 42.1695 34.6777 42.0082L34.5527 44.0043ZM44.8039 44.2213C48.7997 44.1689 52.4067 44.0184 55.0164 43.8877L54.9164 41.8902C52.3212 42.0202 48.7406 42.1695 44.7777 42.2214L44.8039 44.2213ZM55.0191 43.8875L58.1035 43.7246L57.998 41.7274L54.9136 41.8903L55.0191 43.8875ZM58.1567 43.7204C58.4786 43.686 58.8031 43.6786 59.1265 43.6981L59.247 41.7017C58.8128 41.6755 58.3771 41.6855 57.9447 41.7316L58.1567 43.7204Z" fill="url(#paint9_linear_99_4270)" mask="url(#path-15-inside-6_99_4270)"/>
<mask id="path-17-inside-7_99_4270" fill="white">
<path d="M60.8661 50.7168C60.457 50.7335 60.0471 50.7182 59.6407 50.6712L56.3016 50.4496C53.4858 50.2736 49.5821 50.0911 45.2861 50.0911C40.99 50.0911 37.0727 50.2736 34.2706 50.4496L30.9315 50.6712C30.5251 50.7182 30.1152 50.7335 29.7061 50.7168C30.1049 50.6306 30.5099 50.5718 30.9178 50.5409C31.7026 50.4431 32.8386 50.3323 34.2499 50.2084C37.0658 49.9738 40.9763 49.7522 45.2654 49.7522C49.5546 49.7522 53.4858 49.9738 56.2809 50.2084C57.6579 50.3258 58.8283 50.4431 59.6131 50.5409C60.0348 50.5699 60.4537 50.6287 60.8661 50.7168V50.7168Z"/>
</mask>
<path d="M60.8661 50.7168C60.457 50.7335 60.0471 50.7182 59.6407 50.6712L56.3016 50.4496C53.4858 50.2736 49.5821 50.0911 45.2861 50.0911C40.99 50.0911 37.0727 50.2736 34.2706 50.4496L30.9315 50.6712C30.5251 50.7182 30.1152 50.7335 29.7061 50.7168C30.1049 50.6306 30.5099 50.5718 30.9178 50.5409C31.7026 50.4431 32.8386 50.3323 34.2499 50.2084C37.0658 49.9738 40.9763 49.7522 45.2654 49.7522C49.5546 49.7522 53.4858 49.9738 56.2809 50.2084C57.6579 50.3258 58.8283 50.4431 59.6131 50.5409C60.0348 50.5699 60.4537 50.6287 60.8661 50.7168V50.7168Z" fill="#263238"/>
<path d="M59.6407 50.6712L59.7556 49.6778L59.7313 49.675L59.7069 49.6734L59.6407 50.6712ZM56.3016 50.4496L56.3678 49.4518L56.364 49.4516L56.3016 50.4496ZM34.2706 50.4496L34.2079 49.4516L34.2044 49.4518L34.2706 50.4496ZM30.9315 50.6712L30.8653 49.6734L30.8409 49.675L30.8166 49.6778L30.9315 50.6712ZM29.7061 50.7168L29.4947 49.7394L29.6654 51.716L29.7061 50.7168ZM30.9178 50.5409L30.9933 51.538L31.0174 51.5362L31.0414 51.5332L30.9178 50.5409ZM34.2499 50.2084L34.1669 49.2119L34.1625 49.2123L34.2499 50.2084ZM56.2809 50.2084L56.3658 49.2121L56.3646 49.212L56.2809 50.2084ZM59.6131 50.5409L59.4895 51.5332L59.5169 51.5366L59.5445 51.5385L59.6131 50.5409ZM60.8255 49.7177C60.4682 49.7322 60.1104 49.7189 59.7556 49.6778L59.5258 51.6646C59.9839 51.7176 60.4458 51.7348 60.9068 51.716L60.8255 49.7177ZM59.7069 49.6734L56.3678 49.4518L56.2354 51.4474L59.5744 51.669L59.7069 49.6734ZM56.364 49.4516C53.5346 49.2747 49.6091 49.0911 45.2861 49.0911V51.0911C49.5552 51.0911 53.4369 51.2725 56.2392 51.4477L56.364 49.4516ZM45.2861 49.0911C40.9632 49.0911 37.0239 49.2747 34.2079 49.4516L34.3333 51.4476C37.1214 51.2725 41.0169 51.0911 45.2861 51.0911V49.0911ZM34.2044 49.4518L30.8653 49.6734L30.9978 51.669L34.3368 51.4474L34.2044 49.4518ZM30.8166 49.6778C30.4618 49.7189 30.104 49.7322 29.7467 49.7177L29.6654 51.716C30.1264 51.7348 30.5883 51.7176 31.0464 51.6646L30.8166 49.6778ZM29.9174 51.6943C30.2714 51.6177 30.631 51.5655 30.9933 51.538L30.8422 49.5437C30.3888 49.5781 29.9384 49.6435 29.4947 49.7394L29.9174 51.6943ZM31.0414 51.5332C31.8068 51.4378 32.9273 51.3283 34.3374 51.2046L34.1625 49.2123C32.7499 49.3362 31.5984 49.4483 30.7941 49.5485L31.0414 51.5332ZM34.333 51.205C37.1265 50.9722 41.0089 50.7522 45.2654 50.7522V48.7522C40.9437 48.7522 37.0051 48.9754 34.1669 49.2119L34.333 51.205ZM45.2654 50.7522C49.5223 50.7522 53.4252 50.9722 56.1973 51.2049L56.3646 49.212C53.5464 48.9754 49.5869 48.7522 45.2654 48.7522V50.7522ZM56.196 51.2048C57.5674 51.3217 58.7232 51.4377 59.4895 51.5332L59.7367 49.5485C58.9333 49.4484 57.7483 49.3299 56.3658 49.2121L56.196 51.2048ZM59.5445 51.5385C59.9191 51.5643 60.291 51.6165 60.6571 51.6948L61.0751 49.7389C60.6163 49.6409 60.1506 49.5755 59.6818 49.5432L59.5445 51.5385Z" fill="url(#paint10_linear_99_4270)" mask="url(#path-17-inside-7_99_4270)"/>
<mask id="path-19-inside-8_99_4270" fill="white">
<path d="M64.1298 22.1362C63.8516 23.1349 63.3851 24.0777 62.7529 24.9193C62.2205 25.8212 61.5208 26.6248 60.6875 27.2918C60.6049 27.2332 61.493 26.1577 62.4224 24.7369C63.3518 23.316 64.0059 22.0906 64.1298 22.1362Z"/>
</mask>
<path d="M64.1298 22.1362C63.8516 23.1349 63.3851 24.0777 62.7529 24.9193C62.2205 25.8212 61.5208 26.6248 60.6875 27.2918C60.6049 27.2332 61.493 26.1577 62.4224 24.7369C63.3518 23.316 64.0059 22.0906 64.1298 22.1362Z" fill="#263238"/>
<path d="M64.1298 22.1362L65.0931 22.4047L65.3406 21.5164L64.4753 21.1978L64.1298 22.1362ZM62.7529 24.9193L61.9533 24.3188L61.92 24.3631L61.8918 24.411L62.7529 24.9193ZM60.6875 27.2918L60.1085 28.1072L60.7235 28.5439L61.3124 28.0726L60.6875 27.2918ZM63.1665 21.8678C62.9222 22.7446 62.5119 23.5751 61.9533 24.3188L63.5524 25.5199C64.2583 24.5803 64.7809 23.5251 65.0931 22.4047L63.1665 21.8678ZM61.8918 24.411C61.4221 25.2064 60.8032 25.9183 60.0626 26.5111L61.3124 28.0726C62.2384 27.3313 63.0188 26.4359 63.614 25.4277L61.8918 24.411ZM61.2664 26.4765C61.7939 26.851 61.6697 27.434 61.6653 27.4573C61.6427 27.5752 61.6031 27.6534 61.6012 27.6572C61.589 27.6826 61.5895 27.6765 61.629 27.6164C61.7002 27.5079 61.8178 27.3436 61.986 27.1108C62.3114 26.6604 62.7797 26.0175 63.2593 25.2843L61.5856 24.1894C61.1357 24.8771 60.6952 25.4823 60.3649 25.9395C60.2052 26.1605 60.0581 26.3649 59.957 26.519C59.9103 26.5901 59.8478 26.6888 59.7991 26.7898C59.7791 26.8314 59.728 26.9401 59.701 27.0809C59.6922 27.127 59.5707 27.7253 60.1085 28.1072L61.2664 26.4765ZM63.2593 25.2843C63.7336 24.5592 64.1426 23.876 64.4291 23.4118C64.5785 23.1698 64.6844 23.004 64.7554 22.9045C64.7949 22.8492 64.7967 22.8528 64.77 22.8798C64.7604 22.8895 64.7011 22.9503 64.5998 23.0087C64.5284 23.0499 64.2 23.2277 63.7843 23.0747L64.4753 21.1978C64.0441 21.0391 63.6962 21.2211 63.6011 21.2759C63.4761 21.348 63.3891 21.4318 63.3479 21.4735C63.2582 21.5642 63.1813 21.6672 63.1275 21.7426C63.012 21.9044 62.873 22.1251 62.7272 22.3614C62.4234 22.8537 62.0407 23.4937 61.5856 24.1894L63.2593 25.2843Z" fill="url(#paint11_linear_99_4270)" mask="url(#path-19-inside-8_99_4270)"/>
<mask id="path-21-inside-9_99_4270" fill="white">
<path d="M26.9317 25.7927C27.0381 26.0598 27.112 26.3375 27.152 26.6205L27.6683 28.9082C28.1089 30.9092 28.6941 33.5424 29.3413 36.4559C29.9885 39.3693 30.5392 42.0807 30.911 44.0231C31.09 44.9942 31.2277 45.7829 31.3103 46.3304C31.366 46.6141 31.3937 46.9021 31.3929 47.1907C31.2873 46.9211 31.2135 46.6413 31.1726 46.3564L30.6563 44.0687C30.2157 42.0742 29.6305 39.4345 28.9902 36.521C28.3499 33.6076 27.7854 30.9027 27.4205 28.9539C27.2346 27.9827 27.0969 27.1941 27.0143 26.6466C26.9587 26.365 26.931 26.0792 26.9317 25.7927V25.7927Z"/>
</mask>
<path d="M26.9317 25.7927C27.0381 26.0598 27.112 26.3375 27.152 26.6205L27.6683 28.9082C28.1089 30.9092 28.6941 33.5424 29.3413 36.4559C29.9885 39.3693 30.5392 42.0807 30.911 44.0231C31.09 44.9942 31.2277 45.7829 31.3103 46.3304C31.366 46.6141 31.3937 46.9021 31.3929 47.1907C31.2873 46.9211 31.2135 46.6413 31.1726 46.3564L30.6563 44.0687C30.2157 42.0742 29.6305 39.4345 28.9902 36.521C28.3499 33.6076 27.7854 30.9027 27.4205 28.9539C27.2346 27.9827 27.0969 27.1941 27.0143 26.6466C26.9587 26.365 26.931 26.0792 26.9317 25.7927V25.7927Z" fill="#263238"/>
<path d="M27.152 26.6205L26.1618 26.7603L26.1675 26.8008L26.1765 26.8406L27.152 26.6205ZM27.6683 28.9082L28.6449 28.6932L28.6438 28.6881L27.6683 28.9082ZM30.911 44.0231L31.8945 43.8418L31.8932 43.8351L30.911 44.0231ZM31.3103 46.3304L30.3215 46.4796L30.3248 46.5014L30.3291 46.523L31.3103 46.3304ZM31.3929 47.1907L30.4618 47.5555L32.3929 47.1933L31.3929 47.1907ZM31.1726 46.3564L32.1625 46.2146L32.1569 46.1751L32.1481 46.1363L31.1726 46.3564ZM30.6563 44.0687L29.6798 44.2844L29.6808 44.2888L30.6563 44.0687ZM27.4205 28.9539L28.4034 28.7698L28.4026 28.7659L27.4205 28.9539ZM27.0143 26.6466L28.0031 26.4973L27.9997 26.475L27.9953 26.4529L27.0143 26.6466ZM26.0027 26.1629C26.0798 26.3564 26.133 26.5568 26.1618 26.7603L28.1421 26.4807C28.091 26.1183 27.9964 25.7632 27.8606 25.4225L26.0027 26.1629ZM26.1765 26.8406L26.6929 29.1284L28.6438 28.6881L28.1274 26.4003L26.1765 26.8406ZM26.6917 29.1233C27.1326 31.1254 27.718 33.7597 28.3651 36.6727L30.3175 36.239C29.6702 33.3251 29.0853 30.693 28.6449 28.6932L26.6917 29.1233ZM28.3651 36.6727C29.01 39.5761 29.5588 42.2778 29.9288 44.211L31.8932 43.8351C31.5197 41.8836 30.9669 39.1626 30.3175 36.239L28.3651 36.6727ZM29.9276 44.2043C30.1062 45.1736 30.2415 45.949 30.3215 46.4796L32.2991 46.1811C32.214 45.6167 32.0738 44.8148 31.8945 43.8418L29.9276 44.2043ZM30.3291 46.523C30.3722 46.7425 30.3935 46.9652 30.3929 47.1881L32.3929 47.1933C32.3938 46.839 32.3599 46.4856 32.2916 46.1377L30.3291 46.523ZM32.324 46.8259C32.2464 46.6277 32.1923 46.4227 32.1625 46.2146L30.1827 46.4982C30.2346 46.8599 30.3283 47.2145 30.4618 47.5555L32.324 46.8259ZM32.1481 46.1363L31.6317 43.8485L29.6808 44.2888L30.1972 46.5766L32.1481 46.1363ZM31.6327 43.853C31.1919 41.8576 30.607 39.2192 29.9669 36.3064L28.0135 36.7357C28.6539 39.6499 29.2394 42.2908 29.6798 44.2844L31.6327 43.853ZM29.9669 36.3064C29.3275 33.397 28.7655 30.7037 28.4034 28.7698L26.4375 29.1379C26.8052 31.1017 27.3723 33.8182 28.0135 36.7357L29.9669 36.3064ZM28.4026 28.7659C28.218 27.8011 28.0829 27.0267 28.0031 26.4973L26.0255 26.7958C26.1108 27.3614 26.2512 28.1643 26.4383 29.1419L28.4026 28.7659ZM27.9953 26.4529C27.9525 26.2357 27.9312 26.0155 27.9316 25.7949L25.9317 25.7905C25.9309 26.1428 25.9649 26.4943 26.0332 26.8403L27.9953 26.4529Z" fill="url(#paint12_linear_99_4270)" mask="url(#path-21-inside-9_99_4270)"/>
<mask id="path-23-inside-10_99_4270" fill="white">
<path d="M60.7426 29.2993C60.7686 29.5159 60.7686 29.7345 60.7426 29.9511C60.7426 30.3748 60.7013 30.9874 60.6669 31.7435C60.5842 33.2491 60.4466 35.3348 60.2744 37.6095C60.1023 39.8843 59.9233 41.996 59.7787 43.4756C59.703 44.2316 59.6411 44.8443 59.586 45.2615C59.5734 45.4822 59.5341 45.7009 59.4689 45.9132C59.4342 45.6972 59.4342 45.4775 59.4689 45.2615C59.4689 44.8378 59.4689 44.2251 59.5447 43.4691C59.6273 41.9634 59.765 39.8777 59.9371 37.603C60.1092 35.3283 60.2882 33.2165 60.4328 31.737C60.5016 30.9809 60.5705 30.3748 60.6256 29.9511C60.6281 29.7294 60.6676 29.5094 60.7426 29.2993V29.2993Z"/>
</mask>
<path d="M60.7426 29.2993C60.7686 29.5159 60.7686 29.7345 60.7426 29.9511C60.7426 30.3748 60.7013 30.9874 60.6669 31.7435C60.5842 33.2491 60.4466 35.3348 60.2744 37.6095C60.1023 39.8843 59.9233 41.996 59.7787 43.4756C59.703 44.2316 59.6411 44.8443 59.586 45.2615C59.5734 45.4822 59.5341 45.7009 59.4689 45.9132C59.4342 45.6972 59.4342 45.4775 59.4689 45.2615C59.4689 44.8378 59.4689 44.2251 59.5447 43.4691C59.6273 41.9634 59.765 39.8777 59.9371 37.603C60.1092 35.3283 60.2882 33.2165 60.4328 31.737C60.5016 30.9809 60.5705 30.3748 60.6256 29.9511C60.6281 29.7294 60.6676 29.5094 60.7426 29.2993V29.2993Z" fill="#263238"/>
<path d="M60.7426 29.9511L59.7497 29.832L59.7426 29.8913V29.9511H60.7426ZM60.6669 31.7435L61.6654 31.7983L61.6658 31.789L60.6669 31.7435ZM59.7787 43.4756L60.7738 43.5752L60.774 43.5728L59.7787 43.4756ZM59.586 45.2615L58.5946 45.1306L58.5897 45.1674L58.5876 45.2045L59.586 45.2615ZM59.4689 45.9132L58.4816 46.0721L60.4249 46.2067L59.4689 45.9132ZM59.4689 45.2615L60.4562 45.4203L60.4689 45.3414V45.2615H59.4689ZM59.5447 43.4691L60.5397 43.5687L60.5419 43.5463L60.5432 43.5238L59.5447 43.4691ZM60.4328 31.737L61.4281 31.8342L61.4287 31.8277L60.4328 31.737ZM60.6256 29.9511L61.6172 30.08L61.6248 30.0215L61.6255 29.9624L60.6256 29.9511ZM59.7497 29.4184C59.7662 29.5559 59.7662 29.6945 59.7497 29.832L61.7355 30.0702C61.771 29.7745 61.771 29.4759 61.7355 29.1802L59.7497 29.4184ZM59.7426 29.9511C59.7426 30.3447 59.7041 30.903 59.6679 31.698L61.6658 31.789C61.6985 31.0718 61.7426 30.4048 61.7426 29.9511H59.7426ZM59.6684 31.6887C59.5862 33.1857 59.449 35.2643 59.2773 37.5341L61.2716 37.685C61.4441 35.4054 61.5823 33.3125 61.6654 31.7983L59.6684 31.6887ZM59.2773 37.5341C59.1055 39.8046 58.9271 41.9085 58.7835 43.3783L60.774 43.5728C60.9195 42.0835 61.0992 39.9639 61.2716 37.685L59.2773 37.5341ZM58.7837 43.3759C58.7073 44.1385 58.6471 44.7327 58.5946 45.1306L60.5774 45.3924C60.635 44.9559 60.6987 44.3248 60.7738 43.5752L58.7837 43.3759ZM58.5876 45.2045C58.5796 45.3447 58.5547 45.484 58.513 45.6197L60.4249 46.2067C60.5136 45.9179 60.5672 45.6198 60.5844 45.3184L58.5876 45.2045ZM60.4562 45.7544C60.4384 45.6436 60.4384 45.5311 60.4562 45.4203L58.4816 45.1026C58.4299 45.4238 58.4299 45.7509 58.4816 46.0721L60.4562 45.7544ZM60.4689 45.2615C60.4689 44.8419 60.4693 44.2717 60.5397 43.5687L58.5496 43.3694C58.4686 44.1786 58.4689 44.8337 58.4689 45.2615H60.4689ZM60.5432 43.5238C60.6253 42.0269 60.7625 39.9483 60.9342 37.6785L58.9399 37.5276C58.7675 39.8072 58.6293 41.9 58.5462 43.4143L60.5432 43.5238ZM60.9342 37.6785C61.106 35.408 61.2844 33.304 61.428 31.8342L59.4375 31.6397C59.292 33.129 59.1124 35.2486 58.9399 37.5276L60.9342 37.6785ZM61.4287 31.8277C61.4965 31.0829 61.564 30.4895 61.6172 30.08L59.6339 29.8222C59.577 30.26 59.5068 30.879 59.4369 31.6463L61.4287 31.8277ZM61.6255 29.9624C61.6267 29.8522 61.6464 29.742 61.6843 29.6357L59.8009 28.963C59.6888 29.2768 59.6294 29.6065 59.6256 29.9398L61.6255 29.9624Z" fill="url(#paint13_linear_99_4270)" mask="url(#path-23-inside-10_99_4270)"/>
<mask id="path-25-inside-11_99_4270" fill="white">
<path d="M68.1983 21.9995C67.959 22.6672 67.6762 23.3202 67.3515 23.9549C66.8145 25.1476 66.1261 26.8162 65.4858 28.6933C64.8455 30.5704 64.398 32.3172 64.1089 33.5882C63.9843 34.2792 63.8165 34.9626 63.6063 35.6348C63.5746 35.4469 63.5746 35.2555 63.6063 35.0677C63.6476 34.7027 63.7233 34.1813 63.8404 33.536C64.1483 31.863 64.5785 30.2122 65.1278 28.5955C65.6718 26.9754 66.332 25.3922 67.1037 23.8571C67.3997 23.2705 67.6545 22.8012 67.8472 22.4818C67.9406 22.3067 68.0587 22.1444 68.1983 21.9995V21.9995Z"/>
</mask>
<path d="M68.1983 21.9995C67.959 22.6672 67.6762 23.3202 67.3515 23.9549C66.8145 25.1476 66.1261 26.8162 65.4858 28.6933C64.8455 30.5704 64.398 32.3172 64.1089 33.5882C63.9843 34.2792 63.8165 34.9626 63.6063 35.6348C63.5746 35.4469 63.5746 35.2555 63.6063 35.0677C63.6476 34.7027 63.7233 34.1813 63.8404 33.536C64.1483 31.863 64.5785 30.2122 65.1278 28.5955C65.6718 26.9754 66.332 25.3922 67.1037 23.8571C67.3997 23.2705 67.6545 22.8012 67.8472 22.4818C67.9406 22.3067 68.0587 22.1444 68.1983 21.9995V21.9995Z" fill="#263238"/>
<path d="M67.3515 23.9549L66.4613 23.4994L66.4499 23.5216L66.4397 23.5443L67.3515 23.9549ZM64.1089 33.5882L63.1338 33.3663L63.1287 33.3885L63.1247 33.4108L64.1089 33.5882ZM63.6063 35.6348L62.6202 35.801L64.5607 35.9332L63.6063 35.6348ZM63.6063 35.0677L64.5924 35.234L64.5969 35.2072L64.5999 35.1802L63.6063 35.0677ZM63.8404 33.536L62.8569 33.355L62.8564 33.3576L63.8404 33.536ZM65.1278 28.5955L66.0746 28.9173L66.0758 28.9139L65.1278 28.5955ZM67.1037 23.8571L66.2109 23.4065L66.2102 23.408L67.1037 23.8571ZM67.8472 22.4818L68.7034 22.9986L68.7172 22.9757L68.7297 22.9521L67.8472 22.4818ZM67.257 21.6621C67.0322 22.2892 66.7665 22.9028 66.4613 23.4994L68.2418 24.4103C68.5859 23.7377 68.8858 23.0453 69.1397 22.337L67.257 21.6621ZM66.4397 23.5443C65.8917 24.7614 65.1912 26.4594 64.5393 28.3705L66.4322 29.0161C67.0609 27.173 67.7373 25.5339 68.2634 24.3654L66.4397 23.5443ZM64.5393 28.3705C63.8845 30.2902 63.4281 32.0726 63.1338 33.3663L65.0839 33.81C65.3679 32.5618 65.8065 30.8506 66.4322 29.0161L64.5393 28.3705ZM63.1247 33.4108C63.0076 34.0607 62.8497 34.7037 62.6518 35.3363L64.5607 35.9332C64.7833 35.2215 64.961 34.4977 65.093 33.7656L63.1247 33.4108ZM64.5924 35.4685C64.5792 35.3907 64.5792 35.3117 64.5924 35.234L62.6202 34.9015C62.57 35.1994 62.57 35.5031 62.6202 35.801L64.5924 35.4685ZM64.5999 35.1802C64.6382 34.8419 64.7103 34.343 64.8243 33.7145L62.8564 33.3576C62.7363 34.0196 62.6569 34.5635 62.6126 34.9553L64.5999 35.1802ZM64.8238 33.717C65.1229 32.0919 65.5409 30.4881 66.0746 28.9173L64.1809 28.2738C63.6161 29.9363 63.1736 31.6341 62.8569 33.355L64.8238 33.717ZM66.0758 28.9139C66.6047 27.3388 67.2466 25.7993 67.9972 24.3062L66.2102 23.408C65.4174 24.9851 64.739 26.612 64.1798 28.2772L66.0758 28.9139ZM67.9964 24.3076C68.2873 23.7313 68.5292 23.2872 68.7034 22.9986L66.9911 21.9651C66.7797 22.3152 66.5122 22.8096 66.2109 23.4065L67.9964 24.3076ZM68.7297 22.9521C68.7789 22.8598 68.8421 22.7726 68.9184 22.6934L67.4783 21.3056C67.2753 21.5162 67.1022 21.7535 66.9647 22.0115L68.7297 22.9521Z" fill="url(#paint14_linear_99_4270)" mask="url(#path-25-inside-11_99_4270)"/>
<mask id="path-27-inside-12_99_4270" fill="white">
<path d="M62.8424 57.5736C62.7144 57.5622 62.5878 57.5404 62.4638 57.5084L61.4035 57.2672C60.9422 57.1564 60.3777 57.0261 59.7168 56.9022C59.0558 56.7784 58.3398 56.6024 57.4724 56.4851C56.6049 56.3678 55.7236 56.1983 54.7185 56.1006C53.7133 56.0028 52.6531 55.8985 51.5515 55.8073C49.1303 55.6702 46.7025 55.6702 44.2813 55.8073C41.8587 55.9738 39.4491 56.2807 37.0661 56.7263C35.9715 56.9544 34.9319 57.1499 33.9749 57.4106C33.0179 57.6713 32.1229 57.8995 31.3105 58.1406C30.4981 58.3818 29.7821 58.6229 29.1487 58.8315C28.5154 59.0401 27.9715 59.2356 27.5308 59.4051L26.5119 59.7831C26.3942 59.8366 26.269 59.8739 26.1401 59.8939C26.2465 59.8273 26.3595 59.7705 26.4775 59.7245L27.4689 59.2943C27.9026 59.1053 28.4327 58.8837 29.073 58.6425C29.7133 58.4013 30.45 58.1341 31.2279 57.8995C32.0059 57.6648 32.9216 57.365 33.8923 57.1239C34.863 56.8827 35.8957 56.6415 36.9904 56.4069C41.7945 55.4488 46.7181 55.1416 51.6135 55.4944C52.7288 55.5922 53.7959 55.6704 54.7873 55.8203C55.7787 55.9702 56.7013 56.094 57.5412 56.2505C58.3811 56.4069 59.1247 56.5698 59.7856 56.7198C60.4465 56.8697 61.0042 57.0065 61.4586 57.1434L62.5051 57.4432C62.6239 57.4701 62.7376 57.5141 62.8424 57.5736V57.5736Z"/>
</mask>
<path d="M62.8424 57.5736C62.7144 57.5622 62.5878 57.5404 62.4638 57.5084L61.4035 57.2672C60.9422 57.1564 60.3777 57.0261 59.7168 56.9022C59.0558 56.7784 58.3398 56.6024 57.4724 56.4851C56.6049 56.3678 55.7236 56.1983 54.7185 56.1006C53.7133 56.0028 52.6531 55.8985 51.5515 55.8073C49.1303 55.6702 46.7025 55.6702 44.2813 55.8073C41.8587 55.9738 39.4491 56.2807 37.0661 56.7263C35.9715 56.9544 34.9319 57.1499 33.9749 57.4106C33.0179 57.6713 32.1229 57.8995 31.3105 58.1406C30.4981 58.3818 29.7821 58.6229 29.1487 58.8315C28.5154 59.0401 27.9715 59.2356 27.5308 59.4051L26.5119 59.7831C26.3942 59.8366 26.269 59.8739 26.1401 59.8939C26.2465 59.8273 26.3595 59.7705 26.4775 59.7245L27.4689 59.2943C27.9026 59.1053 28.4327 58.8837 29.073 58.6425C29.7133 58.4013 30.45 58.1341 31.2279 57.8995C32.0059 57.6648 32.9216 57.365 33.8923 57.1239C34.863 56.8827 35.8957 56.6415 36.9904 56.4069C41.7945 55.4488 46.7181 55.1416 51.6135 55.4944C52.7288 55.5922 53.7959 55.6704 54.7873 55.8203C55.7787 55.9702 56.7013 56.094 57.5412 56.2505C58.3811 56.4069 59.1247 56.5698 59.7856 56.7198C60.4465 56.8697 61.0042 57.0065 61.4586 57.1434L62.5051 57.4432C62.6239 57.4701 62.7376 57.5141 62.8424 57.5736V57.5736Z" fill="#263238"/>
<path d="M62.4638 57.5084L62.7132 56.54L62.6994 56.5365L62.6855 56.5333L62.4638 57.5084ZM61.4035 57.2672L61.1699 58.2397L61.1817 58.2423L61.4035 57.2672ZM51.5515 55.8073L51.6341 54.8107L51.6211 54.8096L51.608 54.8088L51.5515 55.8073ZM44.2813 55.8073L44.2248 54.8088L44.2127 54.8096L44.2813 55.8073ZM37.0661 56.7263L36.8823 55.7433L36.8722 55.7452L36.8621 55.7473L37.0661 56.7263ZM27.5308 59.4051L27.8787 60.3427L27.8898 60.3384L27.5308 59.4051ZM26.5119 59.7831L26.1641 58.8456L26.1309 58.8579L26.0987 58.8725L26.5119 59.7831ZM26.1401 59.8939L25.6092 59.0465L26.294 60.882L26.1401 59.8939ZM26.4775 59.7245L26.8411 60.656L26.8584 60.6492L26.8755 60.6418L26.4775 59.7245ZM27.4689 59.2943L27.8669 60.2116L27.8684 60.211L27.4689 59.2943ZM36.9904 56.4069L36.7948 55.4262L36.7878 55.4276L36.7808 55.4291L36.9904 56.4069ZM51.6135 55.4944L51.7008 54.4982L51.6931 54.4975L51.6854 54.497L51.6135 55.4944ZM61.4586 57.1434L61.1701 58.101L61.1832 58.1047L61.4586 57.1434ZM62.5051 57.4432L62.2296 58.4045L62.2567 58.4123L62.2841 58.4185L62.5051 57.4432ZM62.9313 56.5775C62.8574 56.5709 62.7844 56.5584 62.7132 56.54L62.2143 58.4768C62.3911 58.5223 62.5715 58.5534 62.7535 58.5696L62.9313 56.5775ZM62.6855 56.5333L61.6253 56.2921L61.1817 58.2423L62.242 58.4835L62.6855 56.5333ZM61.6371 56.2949C61.1683 56.1823 60.5854 56.0476 59.9009 55.9194L59.5326 57.8851C60.1699 58.0046 60.7162 58.1306 61.1699 58.2396L61.6371 56.2949ZM59.9009 55.9194C59.3101 55.8087 58.5033 55.6154 57.6064 55.4941L57.3383 57.4761C58.1763 57.5894 58.8015 57.7482 59.5326 57.8851L59.9009 55.9194ZM57.6064 55.4941C56.8181 55.3875 55.8353 55.2045 54.8153 55.1052L54.6217 57.0959C55.612 57.1922 56.3917 57.3481 57.3383 57.4761L57.6064 55.4941ZM54.8153 55.1052C53.8121 55.0077 52.7442 54.9026 51.6341 54.8107L51.469 56.8038C52.562 56.8944 53.6145 56.9979 54.6217 57.0959L54.8153 55.1052ZM51.608 54.8088C49.1491 54.6697 46.6837 54.6697 44.2248 54.8088L44.3378 56.8057C46.7214 56.6707 49.1114 56.6707 51.495 56.8057L51.608 54.8088ZM44.2127 54.8096C41.7515 54.9788 39.3035 55.2906 36.8823 55.7433L37.2499 57.7092C39.5947 57.2708 41.9658 56.9688 44.3499 56.8049L44.2127 54.8096ZM36.8621 55.7473C35.7959 55.9695 34.7076 56.1746 33.7121 56.4458L34.2378 58.3755C35.1562 58.1253 36.1471 57.9393 37.2702 57.7052L36.8621 55.7473ZM33.7121 56.4458C32.7779 56.7003 31.8523 56.9367 31.026 57.182L31.5951 59.0993C32.3936 58.8623 33.2579 58.6424 34.2378 58.3755L33.7121 56.4458ZM31.026 57.182C30.1957 57.4284 29.462 57.6755 28.836 57.8817L29.4615 59.7813C30.1022 59.5704 30.8006 59.3351 31.5951 59.0993L31.026 57.182ZM28.836 57.8817C28.1881 58.095 27.6288 58.296 27.1719 58.4717L27.8898 60.3384C28.3142 60.1752 28.8426 59.9851 29.4615 59.7813L28.836 57.8817ZM27.183 58.4675L26.1641 58.8456L26.8598 60.7207L27.8787 60.3426L27.183 58.4675ZM26.0987 58.8725C26.0642 58.8881 26.0263 58.8996 25.9863 58.9058L26.294 60.882C26.5116 60.8481 26.7241 60.785 26.9252 60.6937L26.0987 58.8725ZM26.6711 60.7413C26.724 60.7082 26.7809 60.6795 26.8411 60.656L26.1139 58.7929C25.9382 58.8615 25.7691 58.9463 25.6092 59.0465L26.6711 60.7413ZM26.8755 60.6418L27.8669 60.2116L27.0708 58.3769L26.0794 58.8071L26.8755 60.6418ZM27.8684 60.211C28.2903 60.0272 28.8044 59.8123 29.4255 59.5783L28.7205 57.7067C28.0611 57.9551 27.515 58.1834 27.0694 58.3776L27.8684 60.211ZM29.4255 59.5783C30.0584 59.3399 30.7707 59.0819 31.5167 58.8569L30.9392 56.9421C30.1292 57.1863 29.3682 57.4627 28.7205 57.7067L29.4255 59.5783ZM31.5167 58.8569C32.3234 58.6136 33.1946 58.3276 34.1334 58.0944L33.6512 56.1534C32.6485 56.4024 31.6884 56.7161 30.9392 56.9421L31.5167 58.8569ZM34.1334 58.0944C35.0945 57.8556 36.1166 57.6169 37.2 57.3847L36.7808 55.4291C35.6749 55.6662 34.6316 55.9098 33.6512 56.1534L34.1334 58.0944ZM37.186 57.3876C41.902 56.4471 46.7355 56.1454 51.5416 56.4918L51.6854 54.497C46.7006 54.1377 41.6871 54.4505 36.7948 55.4262L37.186 57.3876ZM51.5262 56.4906C52.6642 56.5903 53.6865 56.6652 54.6378 56.8091L54.9368 54.8315C53.9053 54.6756 52.7934 54.594 51.7008 54.4982L51.5262 56.4906ZM54.6378 56.8091C55.653 56.9626 56.5405 57.0813 57.3581 57.2336L57.7243 55.2674C56.862 55.1068 55.9044 54.9778 54.9368 54.8315L54.6378 56.8091ZM57.3581 57.2336C58.1796 57.3866 58.9089 57.5463 59.5644 57.695L60.0068 55.7445C59.3405 55.5934 58.5826 55.4272 57.7243 55.2674L57.3581 57.2336ZM59.5644 57.695C60.2204 57.8438 60.7503 57.9744 61.1702 58.1009L61.747 56.1859C61.2581 56.0386 60.6727 55.8956 60.0068 55.7445L59.5644 57.695ZM61.1832 58.1047L62.2296 58.4045L62.7805 56.4819L61.734 56.1821L61.1832 58.1047ZM62.2841 58.4185C62.3084 58.424 62.3301 58.4327 62.3487 58.4432L63.3361 56.704C63.1451 56.5955 62.9393 56.5163 62.726 56.4679L62.2841 58.4185Z" fill="url(#paint15_linear_99_4270)" mask="url(#path-27-inside-12_99_4270)"/>
</g>
<defs>
<filter id="filter0_d_99_4270" x="0" y="0" width="83.2085" height="79.2007" filterUnits="userSpaceOnUse" color-interpolation-filters="sRGB">
<feFlood flood-opacity="0" result="BackgroundImageFix"/>
<feColorMatrix in="SourceAlpha" type="matrix" values="0 0 0 0 0 0 0 0 0 0 0 0 0 0 0 0 0 0 127 0" result="hardAlpha"/>
<feOffset dx="-2" dy="2"/>
<feGaussianBlur stdDeviation="2"/>
<feComposite in2="hardAlpha" operator="out"/>
<feColorMatrix type="matrix" values="0 0 0 0 0 0 0 0 0 0 0 0 0 0 0 0 0 0 0.25 0"/>
<feBlend mode="normal" in2="BackgroundImageFix" result="effect1_dropShadow_99_4270"/>
<feBlend mode="normal" in="SourceGraphic" in2="effect1_dropShadow_99_4270" result="shape"/>
</filter>
<linearGradient id="paint0_linear_99_4270" x1="43.6042" y1="2" x2="43.6042" y2="73.2006" gradientUnits="userSpaceOnUse">
<stop offset="0.864583" stop-color="#BABFC3"/>
<stop offset="1" stop-color="#BBBFC3"/>
</linearGradient>
<linearGradient id="paint1_linear_99_4270" x1="44.6915" y1="17.3784" x2="44.6915" y2="60.2983" gradientUnits="userSpaceOnUse">
<stop offset="0.864583" stop-color="#BABFC3"/>
<stop offset="1" stop-color="#BBBFC3"/>
</linearGradient>
<linearGradient id="paint2_linear_99_4270" x1="23.0245" y1="20.7153" x2="23.0245" y2="38.17" gradientUnits="userSpaceOnUse">
<stop offset="0.864583" stop-color="#BABFC3"/>
<stop offset="1" stop-color="#BBBFC3"/>
</linearGradient>
<linearGradient id="paint3_linear_99_4270" x1="64.9799" y1="18.7471" x2="64.9799" y2="38.3853" gradientUnits="userSpaceOnUse">
<stop offset="0.864583" stop-color="#BABFC3"/>
<stop offset="1" stop-color="#BBBFC3"/>
</linearGradient>
<linearGradient id="paint4_linear_99_4270" x1="21.5381" y1="25.7668" x2="21.5381" y2="36.9449" gradientUnits="userSpaceOnUse">
<stop offset="0.864583" stop-color="#BABFC3"/>
<stop offset="1" stop-color="#BBBFC3"/>
</linearGradient>
<linearGradient id="paint5_linear_99_4270" x1="24.9423" y1="23.7397" x2="24.9423" y2="32.1021" gradientUnits="userSpaceOnUse">
<stop offset="0.864583" stop-color="#BABFC3"/>
<stop offset="1" stop-color="#BBBFC3"/>
</linearGradient>
<linearGradient id="paint6_linear_99_4270" x1="43.6097" y1="19.6465" x2="43.6097" y2="23.9058" gradientUnits="userSpaceOnUse">
<stop offset="0.864583" stop-color="#BABFC3"/>
<stop offset="1" stop-color="#BBBFC3"/>
</linearGradient>
<linearGradient id="paint7_linear_99_4270" x1="44.0816" y1="28.5952" x2="44.0816" y2="29.769" gradientUnits="userSpaceOnUse">
<stop offset="0.864583" stop-color="#BABFC3"/>
<stop offset="1" stop-color="#BBBFC3"/>
</linearGradient>
<linearGradient id="paint8_linear_99_4270" x1="44.5634" y1="34.5593" x2="44.5634" y2="36.5417" gradientUnits="userSpaceOnUse">
<stop offset="0.864583" stop-color="#BABFC3"/>
<stop offset="1" stop-color="#BBBFC3"/>
</linearGradient>
<linearGradient id="paint9_linear_99_4270" x1="44.7977" y1="42.6875" x2="44.7977" y2="43.569" gradientUnits="userSpaceOnUse">
<stop offset="0.864583" stop-color="#BABFC3"/>
<stop offset="1" stop-color="#BBBFC3"/>
</linearGradient>
<linearGradient id="paint10_linear_99_4270" x1="45.2861" y1="49.7522" x2="45.2861" y2="50.7234" gradientUnits="userSpaceOnUse">
<stop offset="0.864583" stop-color="#BABFC3"/>
<stop offset="1" stop-color="#BBBFC3"/>
</linearGradient>
<linearGradient id="paint11_linear_99_4270" x1="62.406" y1="22.135" x2="62.406" y2="27.2918" gradientUnits="userSpaceOnUse">
<stop offset="0.864583" stop-color="#BABFC3"/>
<stop offset="1" stop-color="#BBBFC3"/>
</linearGradient>
<linearGradient id="paint12_linear_99_4270" x1="29.1623" y1="25.7927" x2="29.1623" y2="47.1907" gradientUnits="userSpaceOnUse">
<stop offset="0.864583" stop-color="#BABFC3"/>
<stop offset="1" stop-color="#BBBFC3"/>
</linearGradient>
<linearGradient id="paint13_linear_99_4270" x1="60.1025" y1="29.2993" x2="60.1025" y2="45.9132" gradientUnits="userSpaceOnUse">
<stop offset="0.864583" stop-color="#BABFC3"/>
<stop offset="1" stop-color="#BBBFC3"/>
</linearGradient>
<linearGradient id="paint14_linear_99_4270" x1="65.8904" y1="21.9995" x2="65.8904" y2="35.6348" gradientUnits="userSpaceOnUse">
<stop offset="0.864583" stop-color="#BABFC3"/>
<stop offset="1" stop-color="#BBBFC3"/>
</linearGradient>
<linearGradient id="paint15_linear_99_4270" x1="44.4913" y1="55.3528" x2="44.4913" y2="59.8939" gradientUnits="userSpaceOnUse">
<stop offset="0.864583" stop-color="#BABFC3"/>
<stop offset="1" stop-color="#BBBFC3"/>
</linearGradient>
</defs>
</svg>
