<svg width="84" height="80" viewBox="0 0 84 80" fill="none" xmlns="http://www.w3.org/2000/svg">
<g filter="url(#filter0_d_34_4224)">
<path d="M12.7008 2.5H74.9245C78.2601 2.5 80.9168 5.05338 80.9168 8.1463V67.0543C80.9168 70.1472 78.2601 72.7006 74.9245 72.7006H12.7008C9.36517 72.7006 6.7085 70.1472 6.7085 67.0543V8.1463C6.7085 5.05338 9.36517 2.5 12.7008 2.5Z" fill="white" stroke="url(#paint0_linear_34_4224)"/>
<path d="M31.6013 47.1843C32.0895 47.0762 32.0895 47.0761 32.0894 47.076L32.0894 47.0756L32.089 47.074L32.0876 47.0676L32.0819 47.042L32.0597 46.9418L31.9747 46.5569C31.901 46.223 31.7946 45.7406 31.6641 45.1467C31.403 43.959 31.045 42.3258 30.6579 40.5432C29.8832 36.9764 28.9927 32.8181 28.5257 30.4351C28.4398 29.9958 28.3532 29.5568 28.2674 29.1216C27.9076 27.2979 27.561 25.5404 27.3353 24.1084C27.1954 23.2202 27.1052 22.4767 27.0854 21.9304C27.0754 21.6556 27.0841 21.4511 27.1062 21.3116C27.1155 21.2525 27.1253 21.2177 27.1313 21.1998C27.8231 20.6184 28.9001 20.2676 29.8727 20.067C30.3566 19.9671 30.7939 19.9084 31.1101 19.8748C31.268 19.858 31.3949 19.8475 31.4814 19.8412C31.4876 19.8408 31.4936 19.8404 31.4993 19.8399C34.5848 21.1492 38.4462 21.461 42.2536 21.0529C46.0454 20.6465 49.8325 19.5209 52.8185 17.9002L60.3319 19.1672L59.7767 34.534L59.7763 34.5412L59.1984 45.9467L59.1941 46.0313L59.2179 46.1126L59.6977 45.972C59.2179 46.1126 59.2179 46.1126 59.2179 46.1127L59.218 46.1131L59.2185 46.1145L59.2202 46.1204L59.2269 46.1434L59.2532 46.2332L59.3534 46.5743C59.4397 46.8683 59.5634 47.289 59.7125 47.7953C60.0108 48.8078 60.4111 50.1632 60.8192 51.5342C61.2272 52.9049 61.6433 54.2923 61.9731 55.3685C62.1379 55.9063 62.2817 56.3681 62.3923 56.7119C62.4476 56.8835 62.4953 57.028 62.5336 57.1387C62.5671 57.2355 62.6044 57.3391 62.6372 57.4051C63.3161 58.7712 63.1059 59.3271 62.9626 59.5258C62.8783 59.6426 62.7657 59.7145 62.6648 59.7576C62.6563 59.7612 62.648 59.7646 62.6399 59.7678C60.2649 58.6056 56.8357 58.0396 53.0733 57.8247C49.2034 57.6036 44.9158 57.7512 40.9261 58.0446C36.9345 58.338 33.2307 58.778 30.5254 59.1446C29.1724 59.3279 28.0685 59.4929 27.3023 59.6121C27.1712 59.6326 27.0499 59.6516 26.939 59.6692C27.5422 58.0227 28.6649 55.3108 29.7123 52.8388C30.3287 51.384 30.9155 50.0204 31.3483 49.0204C31.5646 48.5204 31.7424 48.1114 31.8661 47.8274L32.0092 47.4996L32.0466 47.414L32.0561 47.3922L32.0585 47.3867L32.0591 47.3853L32.0593 47.385C32.0593 47.3849 32.0593 47.3849 31.6013 47.1843ZM31.6013 47.1843L32.0895 47.0762L32.1247 47.2354L32.0593 47.3849L31.6013 47.1843Z" fill="#F7CA00" stroke="url(#paint1_linear_34_4224)"/>
<path d="M20.862 34.9199C19.0111 33.0974 17.2361 30.4368 17.272 26.9441L26.5927 21.4978L29.1427 33.7554L24.3979 37.5744C24.3848 37.5672 24.3712 37.5596 24.3572 37.5518C24.149 37.4358 23.8491 37.2603 23.4889 37.0258C22.7676 36.5562 21.8096 35.8531 20.862 34.9199Z" fill="#F7CA00" stroke="url(#paint2_linear_34_4224)"/>
<path d="M60.0847 34.4124L59.7576 35.3813L59.7026 23.0826L61.1294 19.4031L70.5724 23.277C70.5634 23.3084 70.554 23.3413 70.5442 23.3757C70.4479 23.7122 70.3081 24.1949 70.1341 24.7788C69.786 25.9469 69.3017 27.5178 68.756 29.132C68.2097 30.7482 67.6051 32.3981 67.017 33.728C66.7227 34.3935 66.4369 34.9689 66.169 35.4162C65.9871 35.7201 65.8268 35.9416 65.6928 36.0904L60.7444 34.1082L60.2538 33.9117L60.0847 34.4124Z" fill="#F7CA00" stroke="url(#paint3_linear_34_4224)"/>
<mask id="path-5-inside-1_34_4224" fill="white">
<path d="M25.3982 36.9448C25.2126 36.8943 25.0362 36.8174 24.875 36.7167C24.429 36.4755 24.0011 36.2054 23.5944 35.9085C22.2101 34.929 21.0212 33.7239 20.0832 32.3497C19.5614 31.581 19.1232 30.7643 18.7751 29.9121C18.5134 29.2209 18.3243 28.507 18.2106 27.7808C18.1284 27.2937 18.0915 26.8008 18.1004 26.3077C18.0824 26.1257 18.101 25.9421 18.1555 25.7668C18.2175 25.7668 18.2106 26.5359 18.4584 27.7221C18.6049 28.4264 18.8145 29.1176 19.0849 29.7882C19.4279 30.6021 19.8472 31.3852 20.3379 32.1281C21.2581 33.4708 22.394 34.6693 23.7046 35.6803C24.7373 36.4951 25.4326 36.8927 25.3982 36.9448Z"/>
</mask>
<path d="M25.3982 36.9448C25.2126 36.8943 25.0362 36.8174 24.875 36.7167C24.429 36.4755 24.0011 36.2054 23.5944 35.9085C22.2101 34.929 21.0212 33.7239 20.0832 32.3497C19.5614 31.581 19.1232 30.7643 18.7751 29.9121C18.5134 29.2209 18.3243 28.507 18.2106 27.7808C18.1284 27.2937 18.0915 26.8008 18.1004 26.3077C18.0824 26.1257 18.101 25.9421 18.1555 25.7668C18.2175 25.7668 18.2106 26.5359 18.4584 27.7221C18.6049 28.4264 18.8145 29.1176 19.0849 29.7882C19.4279 30.6021 19.8472 31.3852 20.3379 32.1281C21.2581 33.4708 22.394 34.6693 23.7046 35.6803C24.7373 36.4951 25.4326 36.8927 25.3982 36.9448Z" fill="#263238"/>
<path d="M25.3982 36.9448L25.1356 37.9097L25.834 38.0998L26.2327 37.4957L25.3982 36.9448ZM24.875 36.7167L25.4047 35.8685L25.3782 35.852L25.3507 35.8371L24.875 36.7167ZM23.5944 35.9085L24.1841 35.1008L24.1781 35.0964L24.172 35.0921L23.5944 35.9085ZM20.0832 32.3497L19.2558 32.9114L19.2573 32.9135L20.0832 32.3497ZM18.7751 29.9121L17.8399 30.2662L17.8445 30.2782L17.8494 30.2902L18.7751 29.9121ZM18.2106 27.7808L19.1986 27.626L19.1966 27.6144L18.2106 27.7808ZM18.1004 26.3077L19.1003 26.3257L19.1013 26.2672L19.0955 26.209L18.1004 26.3077ZM18.1555 25.7668V24.7668H17.4189L17.2005 25.4702L18.1555 25.7668ZM18.4584 27.7221L19.4375 27.5184L19.4373 27.5176L18.4584 27.7221ZM19.0849 29.7882L18.1575 30.1622L18.1604 30.1694L18.1634 30.1765L19.0849 29.7882ZM20.3379 32.1281L19.5035 32.6793L19.5082 32.6864L19.5131 32.6934L20.3379 32.1281ZM23.7046 35.6803L24.324 34.8952L24.3154 34.8886L23.7046 35.6803ZM25.6608 35.9799C25.5683 35.9547 25.482 35.9168 25.4047 35.8685L24.3452 37.5648C24.5903 37.7179 24.8568 37.8338 25.1356 37.9097L25.6608 35.9799ZM25.3507 35.8371C24.944 35.6171 24.5542 35.3711 24.1841 35.1008L23.0047 36.7161C23.448 37.0397 23.914 37.3338 24.3992 37.5962L25.3507 35.8371ZM24.172 35.0921C22.883 34.1801 21.7787 33.06 20.9092 31.786L19.2573 32.9135C20.2636 34.3879 21.5373 35.6779 23.0168 36.7248L24.172 35.0921ZM20.9106 31.7881C20.4276 31.0765 20.0224 30.3212 19.7009 29.534L17.8494 30.2902C18.224 31.2074 18.6953 32.0856 19.2558 32.9114L20.9106 31.7881ZM19.7103 29.558C19.4729 28.9309 19.3016 28.2838 19.1985 27.626L17.2226 27.9355C17.3471 28.7302 17.5539 29.5109 17.8399 30.2662L19.7103 29.558ZM19.1966 27.6144C19.1247 27.1882 19.0925 26.757 19.1003 26.3257L17.1006 26.2897C17.0906 26.8447 17.1321 27.3993 17.2245 27.9471L19.1966 27.6144ZM19.0955 26.209C19.0907 26.1606 19.0956 26.1114 19.1105 26.0633L17.2005 25.4702C17.1065 25.7729 17.074 26.0908 17.1053 26.4065L19.0955 26.209ZM18.1555 26.7668C17.5854 26.7668 17.331 26.3288 17.3 26.2751C17.2372 26.1662 17.2137 26.074 17.2099 26.0598C17.198 26.0151 17.1971 25.9935 17.2027 26.0361C17.2127 26.1121 17.2221 26.2145 17.2431 26.4076C17.2819 26.7644 17.3463 27.2889 17.4796 27.9266L19.4373 27.5176C19.3227 26.969 19.2666 26.5158 19.2314 26.1916C19.2154 26.0441 19.1994 25.8801 19.1856 25.7748C19.1792 25.7267 19.1668 25.6359 19.1424 25.5445C19.1324 25.5069 19.1024 25.3971 19.0328 25.2763C18.995 25.2107 18.7334 24.7668 18.1555 24.7668V26.7668ZM17.4794 27.9258C17.6381 28.6885 17.865 29.4367 18.1575 30.1622L20.0124 29.4143C19.7641 28.7985 19.5718 28.1643 19.4375 27.5184L17.4794 27.9258ZM18.1634 30.1765C18.5305 31.0477 18.9791 31.8853 19.5035 32.6793L21.1723 31.577C20.7153 30.8851 20.3252 30.1565 20.0065 29.3999L18.1634 30.1765ZM19.5131 32.6934C20.4933 34.1238 21.7018 35.3983 23.0937 36.4721L24.3154 34.8886C23.0861 33.9403 22.0229 32.8178 21.1628 31.5628L19.5131 32.6934ZM23.0852 36.4654C23.6253 36.8915 24.0767 37.2081 24.3804 37.4194C24.5405 37.5308 24.6354 37.5964 24.6935 37.6399C24.728 37.6658 24.7099 37.6548 24.6763 37.6217C24.6663 37.6119 24.5954 37.5438 24.5304 37.4314C24.5003 37.3792 24.228 36.9023 24.5637 36.3938L26.2327 37.4957C26.5727 36.9807 26.299 36.4946 26.2619 36.4305C26.1901 36.3062 26.1068 36.2234 26.0791 36.1961C26.0099 36.1281 25.9351 36.0711 25.8931 36.0397C25.7983 35.9686 25.6612 35.8741 25.5226 35.7777C25.2291 35.5734 24.8165 35.2839 24.3239 34.8952L23.0852 36.4654Z" fill="url(#paint4_linear_34_4224)" mask="url(#path-5-inside-1_34_4224)"/>
<mask id="path-7-inside-2_34_4224" fill="white">
<path d="M28.297 32.1021C28.297 32.1021 28.1455 32.0565 27.8977 31.9131C27.592 31.688 27.3044 31.4418 27.0371 31.1766C26.1485 30.2804 25.3359 29.3193 24.6068 28.3022C23.868 27.2945 23.1944 26.2454 22.5896 25.1606C22.3056 24.7243 22.1074 24.2429 22.0044 23.7397C22.0526 23.7397 22.3004 24.2481 22.8168 25.0433C23.3331 25.8385 24.0491 26.9269 24.8822 28.1001C25.7152 29.2733 26.562 30.3032 27.2023 31.0071C27.5259 31.3525 27.8013 31.6198 27.9941 31.8023C28.1868 31.9848 28.3039 32.076 28.297 32.1021Z"/>
</mask>
<path d="M28.297 32.1021C28.297 32.1021 28.1455 32.0565 27.8977 31.9131C27.592 31.688 27.3044 31.4418 27.0371 31.1766C26.1485 30.2804 25.3359 29.3193 24.6068 28.3022C23.868 27.2945 23.1944 26.2454 22.5896 25.1606C22.3056 24.7243 22.1074 24.2429 22.0044 23.7397C22.0526 23.7397 22.3004 24.2481 22.8168 25.0433C23.3331 25.8385 24.0491 26.9269 24.8822 28.1001C25.7152 29.2733 26.562 30.3032 27.2023 31.0071C27.5259 31.3525 27.8013 31.6198 27.9941 31.8023C28.1868 31.9848 28.3039 32.076 28.297 32.1021Z" fill="#263238"/>
<path d="M28.297 32.1021L28.0086 33.0596L28.9996 33.3581L29.2638 32.3574L28.297 32.1021ZM27.8977 31.9131L27.3047 32.7183L27.3492 32.751L27.3969 32.7786L27.8977 31.9131ZM27.0371 31.1766L26.3269 31.8807L26.3327 31.8863L27.0371 31.1766ZM24.6068 28.3022L25.4196 27.7195L25.4133 27.7109L24.6068 28.3022ZM22.5896 25.1606L23.463 24.6736L23.4464 24.6438L23.4277 24.6151L22.5896 25.1606ZM22.0044 23.7397L22.0044 22.7397H20.779L21.0247 23.9402L22.0044 23.7397ZM27.2023 31.0071L26.4626 31.68L26.4675 31.6854L26.4725 31.6907L27.2023 31.0071ZM28.297 32.1021C28.5854 31.1446 28.5856 31.1446 28.5858 31.1447C28.5859 31.1447 28.5861 31.1448 28.5862 31.1448C28.5864 31.1449 28.5867 31.145 28.5869 31.145C28.5874 31.1452 28.5879 31.1453 28.5884 31.1455C28.5894 31.1458 28.5903 31.1461 28.5912 31.1463C28.593 31.1469 28.5947 31.1474 28.5962 31.1479C28.5992 31.1488 28.6017 31.1496 28.6036 31.1503C28.6074 31.1516 28.6091 31.1522 28.6087 31.152C28.6079 31.1517 28.5988 31.1484 28.5822 31.1414C28.549 31.1272 28.4857 31.098 28.3984 31.0475L27.3969 32.7786C27.5575 32.8716 27.6938 32.9368 27.7983 32.9813C27.8506 33.0036 27.8948 33.0207 27.9302 33.0334C27.9479 33.0398 27.9633 33.0451 27.9764 33.0494C27.983 33.0516 27.9889 33.0535 27.9943 33.0552C27.997 33.056 27.9995 33.0568 28.0019 33.0575C28.0031 33.0579 28.0042 33.0583 28.0053 33.0586C28.0059 33.0588 28.0064 33.0589 28.007 33.0591C28.0072 33.0592 28.0075 33.0593 28.0078 33.0593C28.0079 33.0594 28.0081 33.0594 28.0082 33.0595C28.0084 33.0595 28.0086 33.0596 28.297 32.1021ZM28.4906 31.1078C28.2241 30.9116 27.9737 30.6973 27.7415 30.4668L26.3327 31.8863C26.635 32.1864 26.9599 32.4644 27.3047 32.7183L28.4906 31.1078ZM27.7472 30.4725C26.8957 29.6136 26.1174 28.6931 25.4195 27.7196L23.7941 28.8848C24.5543 29.9454 25.4013 30.9471 26.327 31.8806L27.7472 30.4725ZM25.4133 27.7109C24.6988 26.7364 24.0476 25.7221 23.463 24.6736L21.7162 25.6476C22.3412 26.7687 23.0372 27.8526 23.8003 28.8935L25.4133 27.7109ZM23.4277 24.6151C23.2112 24.2824 23.0616 23.9178 22.9841 23.5392L21.0247 23.9402C21.1532 24.5679 21.4 25.1661 21.7515 25.7061L23.4277 24.6151ZM22.0044 24.7397C21.7912 24.7397 21.6314 24.6717 21.5484 24.6286C21.4611 24.5832 21.3996 24.5344 21.3665 24.5061C21.3017 24.4508 21.2618 24.4012 21.2519 24.3889C21.2279 24.3589 21.2193 24.343 21.2344 24.3669C21.2605 24.4081 21.3009 24.477 21.3719 24.5983C21.5059 24.8273 21.7066 25.1698 21.9781 25.5879L23.6555 24.4987C23.4106 24.1215 23.2292 23.8123 23.0981 23.5883C23.0366 23.4831 22.9738 23.3752 22.9237 23.2963C22.9008 23.2601 22.8608 23.1982 22.812 23.1374C22.7897 23.1096 22.7391 23.0482 22.6651 22.9851C22.6383 22.9622 22.3933 22.7397 22.0044 22.7397L22.0044 24.7397ZM21.9781 25.5879C22.4973 26.3874 23.222 27.4892 24.0668 28.6791L25.6975 27.5212C24.8763 26.3646 24.169 25.2895 23.6555 24.4987L21.9781 25.5879ZM24.0668 28.6791C24.9229 29.8848 25.7949 30.946 26.4626 31.68L27.9421 30.3342C27.3292 29.6604 26.5075 28.6619 25.6975 27.5212L24.0668 28.6791ZM26.4725 31.6907C26.8138 32.0551 27.1044 32.337 27.3066 32.5285L28.6816 31.0761C28.4982 30.9025 28.238 30.6499 27.9321 30.3235L26.4725 31.6907ZM27.3066 32.5285C27.3612 32.5802 27.4098 32.6248 27.4499 32.6614C27.4937 32.7013 27.5178 32.723 27.5389 32.7427C27.5657 32.7677 27.5493 32.7541 27.5228 32.7235C27.5118 32.7108 27.4633 32.6547 27.4161 32.5683C27.3915 32.5232 27.3522 32.4428 27.3256 32.3346C27.2989 32.2257 27.2762 32.0509 27.3301 31.8468L29.2638 32.3574C29.3672 31.9661 29.2025 31.6666 29.1716 31.6101C29.1186 31.513 29.0605 31.4441 29.0365 31.4163C28.984 31.3555 28.9275 31.3029 28.9019 31.279C28.812 31.1953 28.7868 31.1757 28.6816 31.0761L27.3066 32.5285Z" fill="url(#paint5_linear_34_4224)" mask="url(#path-7-inside-2_34_4224)"/>
<mask id="path-9-inside-3_34_4224" fill="white">
<path d="M59.6569 19.6465C59.2492 19.7749 58.8329 19.8773 58.4108 19.9529C57.6053 20.1419 56.4486 20.4352 55.0373 20.8458L50.0597 22.3188C48.035 22.9268 45.9633 23.3845 43.8634 23.6876C39.9813 24.1901 36.0288 23.8218 32.3247 22.6121C31.2138 22.2533 30.1323 21.8176 29.0889 21.3086C28.7171 21.1326 28.4486 20.9631 28.2559 20.8588C28.1563 20.8092 28.0638 20.7479 27.9805 20.6763C28.3817 20.8219 28.7726 20.9917 29.1509 21.1847C30.2082 21.6554 31.2959 22.0625 32.4073 22.4036C36.0743 23.5276 39.9612 23.8573 43.7808 23.3682C45.878 23.0821 47.9493 22.6463 49.977 22.0646C51.8566 21.5432 53.5364 21.0348 54.9684 20.6568C56.4005 20.2787 57.5708 20.005 58.4108 19.8681C58.817 19.7899 59.0993 19.7508 59.354 19.7182C59.45 19.6783 59.5524 19.6541 59.6569 19.6465V19.6465Z"/>
</mask>
<path d="M59.6569 19.6465C59.2492 19.7749 58.8329 19.8773 58.4108 19.9529C57.6053 20.1419 56.4486 20.4352 55.0373 20.8458L50.0597 22.3188C48.035 22.9268 45.9633 23.3845 43.8634 23.6876C39.9813 24.1901 36.0288 23.8218 32.3247 22.6121C31.2138 22.2533 30.1323 21.8176 29.0889 21.3086C28.7171 21.1326 28.4486 20.9631 28.2559 20.8588C28.1563 20.8092 28.0638 20.7479 27.9805 20.6763C28.3817 20.8219 28.7726 20.9917 29.1509 21.1847C30.2082 21.6554 31.2959 22.0625 32.4073 22.4036C36.0743 23.5276 39.9612 23.8573 43.7808 23.3682C45.878 23.0821 47.9493 22.6463 49.977 22.0646C51.8566 21.5432 53.5364 21.0348 54.9684 20.6568C56.4005 20.2787 57.5708 20.005 58.4108 19.8681C58.817 19.7899 59.0993 19.7508 59.354 19.7182C59.45 19.6783 59.5524 19.6541 59.6569 19.6465V19.6465Z" fill="#263238"/>
<path d="M58.4108 19.9529L58.2345 18.9685L58.2083 18.9732L58.1823 18.9793L58.4108 19.9529ZM55.0373 20.8458L54.7579 19.8856L54.7535 19.8869L55.0373 20.8458ZM50.0597 22.3188L49.7759 21.3599L49.7721 21.3611L50.0597 22.3188ZM43.8634 23.6876L43.9918 24.6793L43.9991 24.6784L44.0063 24.6773L43.8634 23.6876ZM32.3247 22.6121L32.6351 21.6615L32.632 21.6605L32.3247 22.6121ZM29.0889 21.3086L29.5274 20.4098L29.5167 20.4047L29.0889 21.3086ZM28.2559 20.8588L28.7317 19.9793L28.7169 19.9713L28.7019 19.9638L28.2559 20.8588ZM27.9805 20.6763L28.3216 19.7363L27.3288 21.4349L27.9805 20.6763ZM29.1509 21.1847L28.6964 22.0755L28.72 22.0875L28.7442 22.0983L29.1509 21.1847ZM32.4073 22.4036L32.114 23.3596L32.1143 23.3596L32.4073 22.4036ZM43.7808 23.3682L43.9078 24.3601L43.916 24.359L43.7808 23.3682ZM49.977 22.0646L49.7097 21.101L49.7013 21.1034L49.977 22.0646ZM58.4108 19.8681L58.5716 20.8551L58.5858 20.8528L58.5999 20.8501L58.4108 19.8681ZM59.354 19.7182L59.4809 20.7101L59.614 20.6931L59.7378 20.6416L59.354 19.7182ZM59.3565 18.6927C58.9896 18.8083 58.6148 18.9004 58.2345 18.9685L58.587 20.9372C59.051 20.8541 59.5088 20.7416 59.9573 20.6003L59.3565 18.6927ZM58.1823 18.9793C57.3607 19.1721 56.187 19.4698 54.7579 19.8856L55.3166 21.806C56.7103 21.4005 57.8499 21.1116 58.6392 20.9264L58.1823 18.9793ZM54.7535 19.8869L49.7759 21.3599L50.3434 23.2777L55.321 21.8047L54.7535 19.8869ZM49.7721 21.3611C47.7949 21.9548 45.7716 22.4018 43.7206 22.6978L44.0063 24.6773C46.1549 24.3672 48.275 23.8989 50.3473 23.2766L49.7721 21.3611ZM43.7351 22.6958C39.9997 23.1794 36.1971 22.8248 32.6351 21.6615L32.0143 23.5627C35.8604 24.8188 39.9629 25.2009 43.9918 24.6793L43.7351 22.6958ZM32.632 21.6605C31.5658 21.3162 30.5281 20.8981 29.5274 20.4098L28.6504 22.2073C29.7364 22.7372 30.8618 23.1905 32.0174 23.5637L32.632 21.6605ZM29.5167 20.4047C29.1715 20.2413 28.9997 20.1243 28.7317 19.9793L27.78 21.7384C27.8975 21.8019 28.2628 22.0239 28.6611 22.2124L29.5167 20.4047ZM28.7019 19.9638C28.6753 19.9506 28.652 19.9349 28.6321 19.9178L27.3288 21.4349C27.4756 21.5609 27.6373 21.6679 27.8098 21.7538L28.7019 19.9638ZM27.6394 21.6164C28.002 21.748 28.3551 21.9013 28.6964 22.0755L29.6053 20.294C29.1902 20.0821 28.7614 19.8959 28.3216 19.7363L27.6394 21.6164ZM28.7442 22.0983C29.8386 22.5855 30.9641 23.0067 32.114 23.3596L32.7007 21.4476C31.6276 21.1183 30.5778 20.7254 29.5576 20.2712L28.7442 22.0983ZM32.1143 23.3596C35.9177 24.5255 39.9478 24.8671 43.9078 24.3601L43.6538 22.3763C39.9746 22.8474 36.2309 22.5297 32.7004 21.4475L32.1143 23.3596ZM43.916 24.359C46.0605 24.0664 48.1788 23.6208 50.2528 23.0259L49.7013 21.1034C47.7198 21.6718 45.6954 22.0977 43.6456 22.3774L43.916 24.359ZM50.2444 23.0282C52.1638 22.4957 53.7912 22.0018 55.2237 21.6237L54.7132 19.6899C53.2816 20.0678 51.5494 20.5907 49.7097 21.101L50.2444 23.0282ZM55.2237 21.6237C56.6496 21.2472 57.7815 20.9839 58.5716 20.8551L58.2499 18.8811C57.3602 19.0261 56.1513 19.3103 54.7132 19.6899L55.2237 21.6237ZM58.5999 20.8501C58.9786 20.7771 59.2387 20.7411 59.4809 20.7101L59.2271 18.7263C58.9598 18.7605 58.6553 18.8027 58.2217 18.8862L58.5999 20.8501ZM59.7378 20.6416C59.7337 20.6433 59.7308 20.6438 59.729 20.6439L59.5848 18.6491C59.374 18.6644 59.1662 18.7133 58.9701 18.7948L59.7378 20.6416Z" fill="url(#paint6_linear_34_4224)" mask="url(#path-9-inside-3_34_4224)"/>
<mask id="path-11-inside-4_34_4224" fill="white">
<path d="M60.7715 28.6085C60.6639 28.6419 60.5533 28.6659 60.441 28.6802L59.4909 28.8236C58.6648 28.954 57.4668 29.0974 55.9798 29.2408C53.0056 29.5341 48.8748 29.7622 44.2758 29.7687C39.6768 29.7752 35.5804 29.6123 32.5718 29.4689L29.1019 29.2603L28.145 29.1886C28.0312 29.1842 27.9182 29.1689 27.8076 29.143C27.9194 29.1262 28.0332 29.1262 28.145 29.143H29.1019L32.6407 29.2277C35.6217 29.3125 39.7457 29.4363 44.3033 29.4298C48.861 29.4233 52.9711 29.2342 55.9453 28.9996C57.4324 28.8888 58.6372 28.778 59.4703 28.6933L60.4273 28.6085C60.5412 28.5907 60.6575 28.5907 60.7715 28.6085V28.6085Z"/>
</mask>
<path d="M60.7715 28.6085C60.6639 28.6419 60.5533 28.6659 60.441 28.6802L59.4909 28.8236C58.6648 28.954 57.4668 29.0974 55.9798 29.2408C53.0056 29.5341 48.8748 29.7622 44.2758 29.7687C39.6768 29.7752 35.5804 29.6123 32.5718 29.4689L29.1019 29.2603L28.145 29.1886C28.0312 29.1842 27.9182 29.1689 27.8076 29.143C27.9194 29.1262 28.0332 29.1262 28.145 29.143H29.1019L32.6407 29.2277C35.6217 29.3125 39.7457 29.4363 44.3033 29.4298C48.861 29.4233 52.9711 29.2342 55.9453 28.9996C57.4324 28.8888 58.6372 28.778 59.4703 28.6933L60.4273 28.6085C60.5412 28.5907 60.6575 28.5907 60.7715 28.6085V28.6085Z" fill="#263238"/>
<path d="M60.441 28.6802L60.3145 27.6883L60.3031 27.6897L60.2918 27.6914L60.441 28.6802ZM59.4909 28.8236L59.3417 27.8348L59.3351 27.8358L59.4909 28.8236ZM55.9798 29.2408L55.8838 28.2454L55.8816 28.2456L55.9798 29.2408ZM32.5718 29.4689L32.5118 30.4672L32.5242 30.4677L32.5718 29.4689ZM29.1019 29.2603L29.0272 30.2575L29.0346 30.2581L29.0419 30.2585L29.1019 29.2603ZM28.145 29.1886L28.2197 28.1914L28.2018 28.1901L28.1839 28.1894L28.145 29.1886ZM27.8076 29.143L27.6587 28.1541L27.5794 30.1166L27.8076 29.143ZM28.145 29.143L27.9961 30.1318L28.0701 30.143H28.145V29.143ZM29.1019 29.143L29.1259 28.1433L29.1139 28.143H29.1019V29.143ZM32.6407 29.2277L32.6691 28.2281L32.6646 28.228L32.6407 29.2277ZM55.9453 28.9996L55.871 28.0024L55.8667 28.0027L55.9453 28.9996ZM59.4703 28.6933L59.3821 27.6971L59.3691 27.6984L59.4703 28.6933ZM60.4273 28.6085L60.5155 29.6046L60.549 29.6017L60.5822 29.5965L60.4273 28.6085ZM60.4753 27.6534C60.4233 27.6695 60.3694 27.6813 60.3145 27.6883L60.5676 29.6722C60.7371 29.6506 60.9045 29.6143 61.0677 29.5636L60.4753 27.6534ZM60.2918 27.6914L59.3417 27.8348L59.6402 29.8124L60.5903 29.669L60.2918 27.6914ZM59.3351 27.8358C58.5378 27.9616 57.3626 28.1028 55.8838 28.2454L56.0757 30.2361C57.5711 30.092 58.7918 29.9463 59.6468 29.8114L59.3351 27.8358ZM55.8816 28.2456C52.9424 28.5354 48.844 28.7622 44.2744 28.7687L44.2772 30.7687C48.9055 30.7621 53.0688 30.5327 56.0779 30.2359L55.8816 28.2456ZM44.2744 28.7687C39.6989 28.7752 35.621 28.6131 32.6194 28.47L32.5242 30.4677C35.5399 30.6115 39.6547 30.7753 44.2772 30.7687L44.2744 28.7687ZM32.6318 28.4707L29.1619 28.2621L29.0419 30.2585L32.5118 30.4671L32.6318 28.4707ZM29.1767 28.2631L28.2197 28.1914L28.0703 30.1858L29.0272 30.2575L29.1767 28.2631ZM28.1839 28.1894C28.1337 28.1874 28.084 28.1807 28.0358 28.1694L27.5794 30.1166C27.7523 30.1571 27.9287 30.1809 28.106 30.1879L28.1839 28.1894ZM27.9565 30.1318C27.9695 30.1299 27.983 30.1299 27.9961 30.1318L28.2938 28.1541C28.0834 28.1225 27.8692 28.1225 27.6587 28.1541L27.9565 30.1318ZM28.145 30.143H29.1019V28.143H28.145V30.143ZM29.078 30.1427L32.6167 30.2274L32.6646 28.228L29.1259 28.1433L29.078 30.1427ZM32.6123 30.2273C35.5915 30.312 39.7299 30.4363 44.3048 30.4298L44.3019 28.4298C39.7614 28.4363 35.652 28.3129 32.6691 28.2281L32.6123 30.2273ZM44.3048 30.4298C48.8871 30.4232 53.0231 30.2332 56.024 29.9965L55.8667 28.0027C52.9192 28.2352 48.8349 28.4233 44.3019 28.4298L44.3048 30.4298ZM56.0196 29.9968C57.5158 29.8853 58.7296 29.7738 59.5715 29.6881L59.3691 27.6984C58.5449 27.7822 57.349 27.8922 55.871 28.0024L56.0196 29.9968ZM59.5585 29.6894L60.5155 29.6046L60.3391 27.6124L59.3821 27.6972L59.5585 29.6894ZM60.5822 29.5965C60.5935 29.5947 60.6053 29.5947 60.6166 29.5965L60.9264 27.6206C60.7098 27.5866 60.489 27.5866 60.2724 27.6206L60.5822 29.5965Z" fill="url(#paint7_linear_34_4224)" mask="url(#path-11-inside-4_34_4224)"/>
<mask id="path-13-inside-5_34_4224" fill="white">
<path d="M60.2762 34.5593C59.8981 34.7116 59.5065 34.8316 59.1058 34.9177C58.7271 35.0285 58.259 35.1263 57.7289 35.2436C57.1987 35.361 56.5516 35.4848 55.8493 35.5826C52.2049 36.1325 48.5238 36.4374 44.8338 36.4951C40.5172 36.6124 36.6067 36.4951 33.8184 36.2865C32.4414 36.1887 31.2641 36.0714 30.4793 35.9736C30.0712 35.9314 29.6664 35.8639 29.2676 35.7716C29.6775 35.7617 30.0875 35.7857 30.493 35.8433C31.2848 35.8954 32.4208 35.9802 33.8321 36.0453C36.648 36.1692 40.5516 36.2735 44.8476 36.1561C48.5332 36.0948 52.2116 35.8249 55.8631 35.3479C56.5516 35.2632 57.1919 35.1589 57.7426 35.0546C58.2934 34.9503 58.7685 34.8786 59.1196 34.7874C59.5 34.6896 59.8862 34.6134 60.2762 34.5593Z"/>
</mask>
<path d="M60.2762 34.5593C59.8981 34.7116 59.5065 34.8316 59.1058 34.9177C58.7271 35.0285 58.259 35.1263 57.7289 35.2436C57.1987 35.361 56.5516 35.4848 55.8493 35.5826C52.2049 36.1325 48.5238 36.4374 44.8338 36.4951C40.5172 36.6124 36.6067 36.4951 33.8184 36.2865C32.4414 36.1887 31.2641 36.0714 30.4793 35.9736C30.0712 35.9314 29.6664 35.8639 29.2676 35.7716C29.6775 35.7617 30.0875 35.7857 30.493 35.8433C31.2848 35.8954 32.4208 35.9802 33.8321 36.0453C36.648 36.1692 40.5516 36.2735 44.8476 36.1561C48.5332 36.0948 52.2116 35.8249 55.8631 35.3479C56.5516 35.2632 57.1919 35.1589 57.7426 35.0546C58.2934 34.9503 58.7685 34.8786 59.1196 34.7874C59.5 34.6896 59.8862 34.6134 60.2762 34.5593Z" fill="#263238"/>
<path d="M60.2762 34.5593L60.6499 35.4868L60.1386 33.5688L60.2762 34.5593ZM59.1058 34.9177L58.8955 33.9401L58.8599 33.9478L58.825 33.958L59.1058 34.9177ZM55.8493 35.5826L55.7114 34.592L55.7001 34.5938L55.8493 35.5826ZM44.8338 36.4951L44.8182 35.4951L44.8067 35.4954L44.8338 36.4951ZM33.8184 36.2865L33.8929 35.2893L33.8892 35.289L33.8184 36.2865ZM30.4793 35.9736L30.6029 34.9813L30.5926 34.98L30.5823 34.979L30.4793 35.9736ZM29.2676 35.7716L29.2435 34.7719L29.0421 36.7458L29.2676 35.7716ZM30.493 35.8433L30.3524 36.8333L30.3897 36.8386L30.4273 36.8411L30.493 35.8433ZM33.8321 36.0453L33.786 37.0443L33.7882 37.0444L33.8321 36.0453ZM44.8476 36.1561L44.831 35.1562L44.8203 35.1565L44.8476 36.1561ZM55.8631 35.3479L55.741 34.3554L55.7336 34.3563L55.8631 35.3479ZM59.1196 34.7874L58.8706 33.8189L58.868 33.8195L59.1196 34.7874ZM59.9025 33.6317C59.5777 33.7626 59.2406 33.8659 58.8955 33.9401L59.3161 35.8954C59.7723 35.7973 60.2186 35.6606 60.6499 35.4868L59.9025 33.6317ZM58.825 33.958C58.4879 34.0566 58.0671 34.1446 57.5128 34.2673L57.9449 36.22C58.4509 36.108 58.9664 36.0005 59.3866 35.8775L58.825 33.958ZM57.5128 34.2673C57.0044 34.3798 56.3835 34.4985 55.7115 34.5921L55.9872 36.573C56.7196 36.471 57.3931 36.3421 57.9449 36.22L57.5128 34.2673ZM55.7001 34.5938C52.0999 35.137 48.4635 35.4382 44.8182 35.4952L44.8495 37.4949C48.5841 37.4366 52.3098 37.128 55.9985 36.5714L55.7001 34.5938ZM44.8067 35.4954C40.5213 35.6119 36.6449 35.4951 33.8929 35.2893L33.7438 37.2837C36.5684 37.495 40.513 37.6129 44.861 37.4947L44.8067 35.4954ZM33.8892 35.289C32.5265 35.1922 31.3671 35.0765 30.6029 34.9813L30.3557 36.966C31.1612 37.0663 32.3564 37.1852 33.7475 37.284L33.8892 35.289ZM30.5823 34.979C30.2153 34.9409 29.8514 34.8802 29.493 34.7973L29.0421 36.7458C29.4814 36.8475 29.927 36.9218 30.3762 36.9683L30.5823 34.979ZM29.2917 36.7713C29.6466 36.7627 30.0015 36.7835 30.3524 36.8333L30.6337 34.8532C30.1735 34.7879 29.7084 34.7607 29.2435 34.7719L29.2917 36.7713ZM30.4273 36.8411C31.2105 36.8927 32.3618 36.9785 33.786 37.0443L33.8783 35.0464C32.4797 34.9818 31.3591 34.8981 30.5588 34.8454L30.4273 36.8411ZM33.7882 37.0444C36.6189 37.1689 40.5477 37.2739 44.8749 37.1558L44.8203 35.1565C40.5555 35.273 36.677 35.1695 33.8761 35.0463L33.7882 37.0444ZM44.8643 37.156C48.5875 37.094 52.3036 36.8214 55.9926 36.3395L55.7336 34.3563C52.1195 34.8284 48.4788 35.0955 44.831 35.1563L44.8643 37.156ZM55.9853 36.3404C56.6973 36.2528 57.359 36.145 57.9287 36.0372L57.5566 34.0721C57.0247 34.1728 56.4058 34.2736 55.741 34.3554L55.9853 36.3404ZM57.9287 36.0372C58.4187 35.9444 58.9774 35.8576 59.3711 35.7552L58.868 33.8195C58.5595 33.8997 58.1681 33.9563 57.5566 34.0721L57.9287 36.0372ZM59.3685 35.7559C59.7122 35.6676 60.0612 35.5987 60.4137 35.5498L60.1386 33.5688C59.7112 33.6281 59.2878 33.7116 58.8706 33.8189L59.3685 35.7559Z" fill="url(#paint8_linear_34_4224)" mask="url(#path-13-inside-5_34_4224)"/>
<mask id="path-15-inside-6_34_4224" fill="white">
<path d="M59.3952 42.7C59.0258 42.7788 58.6507 42.8311 58.273 42.8565C57.5845 42.9347 56.4967 43.0259 55.1955 43.1302C52.5931 43.3192 48.9993 43.5148 45.0062 43.5604C41.0131 43.606 37.433 43.4691 34.81 43.2475C33.5088 43.1302 32.4554 43.0194 31.7325 42.8956C31.3562 42.856 30.9835 42.7906 30.6172 42.7C30.9971 42.6895 31.3773 42.7113 31.7532 42.7652C32.4416 42.8434 33.5294 42.9216 34.8237 43.0064C37.4261 43.1693 41.02 43.2736 44.9993 43.2215C48.9787 43.1693 52.5725 43.0194 55.1749 42.8891L58.2592 42.7261C58.6363 42.6859 59.0165 42.6772 59.3952 42.7V42.7Z"/>
</mask>
<path d="M59.3952 42.7C59.0258 42.7788 58.6507 42.8311 58.273 42.8565C57.5845 42.9347 56.4967 43.0259 55.1955 43.1302C52.5931 43.3192 48.9993 43.5148 45.0062 43.5604C41.0131 43.606 37.433 43.4691 34.81 43.2475C33.5088 43.1302 32.4554 43.0194 31.7325 42.8956C31.3562 42.856 30.9835 42.7906 30.6172 42.7C30.9971 42.6895 31.3773 42.7113 31.7532 42.7652C32.4416 42.8434 33.5294 42.9216 34.8237 43.0064C37.4261 43.1693 41.02 43.2736 44.9993 43.2215C48.9787 43.1693 52.5725 43.0194 55.1749 42.8891L58.2592 42.7261C58.6363 42.6859 59.0165 42.6772 59.3952 42.7V42.7Z" fill="#263238"/>
<path d="M58.273 42.8565L58.2061 41.8587L58.183 41.8603L58.1601 41.8629L58.273 42.8565ZM55.1955 43.1302L55.268 44.1276L55.2754 44.127L55.1955 43.1302ZM34.81 43.2475L34.7202 44.2435L34.7258 44.244L34.81 43.2475ZM31.7325 42.8956L31.9014 41.9099L31.8694 41.9045L31.8371 41.9011L31.7325 42.8956ZM30.6172 42.7L30.5894 41.7004L30.3771 43.6708L30.6172 42.7ZM31.7532 42.7652L31.6112 43.7551L31.6257 43.7572L31.6403 43.7588L31.7532 42.7652ZM34.8237 43.0064L34.7584 44.0042L34.7612 44.0044L34.8237 43.0064ZM55.1749 42.8891L55.2249 43.8878L55.2276 43.8877L55.1749 42.8891ZM58.2592 42.7261L58.312 43.7247L58.3387 43.7233L58.3652 43.7205L58.2592 42.7261ZM59.1866 41.722C58.864 41.7909 58.5362 41.8366 58.2061 41.8587L58.3399 43.8542C58.7652 43.8257 59.1877 43.7668 59.6038 43.678L59.1866 41.722ZM58.1601 41.8629C57.4914 41.9388 56.4213 42.0288 55.1157 42.1334L55.2754 44.127C56.5721 44.0231 57.6777 43.9305 58.3859 43.8501L58.1601 41.8629ZM55.1231 42.1328C52.5362 42.3207 48.9632 42.5151 44.9948 42.5605L45.0176 44.5603C49.0354 44.5144 52.65 44.3177 55.268 44.1276L55.1231 42.1328ZM44.9948 42.5605C41.0283 42.6058 37.4806 42.4696 34.8942 42.2511L34.7258 44.244C37.3855 44.4687 40.9979 44.6063 45.0176 44.5603L44.9948 42.5605ZM34.8998 42.2516C33.5953 42.134 32.5796 42.0261 31.9014 41.9099L31.5637 43.8812C32.3312 44.0127 33.4222 44.1265 34.7202 44.2435L34.8998 42.2516ZM31.8371 41.9011C31.5064 41.8663 31.1789 41.8088 30.8573 41.7293L30.3771 43.6708C30.7881 43.7724 31.2061 43.8457 31.6279 43.8901L31.8371 41.9011ZM30.645 43.6996C30.9682 43.6907 31.2916 43.7092 31.6112 43.7551L31.8952 41.7753C31.4631 41.7134 31.0261 41.6883 30.5894 41.7004L30.645 43.6996ZM31.6403 43.7588C32.3569 43.8402 33.4694 43.9199 34.7584 44.0042L34.8891 42.0085C33.5894 41.9234 32.5264 41.8466 31.866 41.7716L31.6403 43.7588ZM34.7612 44.0044C37.3908 44.1691 41.0099 44.2738 45.0124 44.2214L44.9862 42.2215C41.03 42.2734 37.4615 42.1696 34.8862 42.0083L34.7612 44.0044ZM45.0124 44.2214C49.0082 44.169 52.6152 44.0185 55.2249 43.8878L55.1249 41.8903C52.5297 42.0203 48.9491 42.1696 44.9862 42.2215L45.0124 44.2214ZM55.2276 43.8877L58.312 43.7247L58.2065 41.7275L55.1221 41.8904L55.2276 43.8877ZM58.3652 43.7205C58.6871 43.6862 59.0116 43.6787 59.335 43.6982L59.4555 41.7019C59.0213 41.6756 58.5856 41.6856 58.1532 41.7317L58.3652 43.7205Z" fill="url(#paint9_linear_34_4224)" mask="url(#path-15-inside-6_34_4224)"/>
<mask id="path-17-inside-7_34_4224" fill="white">
<path d="M61.0746 50.7169C60.6655 50.7336 60.2556 50.7183 59.8492 50.6713L56.5101 50.4497C53.6942 50.2737 49.7906 50.0912 45.4946 50.0912C41.1985 50.0912 37.2812 50.2737 34.4791 50.4497L31.14 50.6713C30.7335 50.7183 30.3237 50.7336 29.9146 50.7169C30.3134 50.6307 30.7184 50.5719 31.1263 50.5409C31.9111 50.4432 33.0471 50.3324 34.4584 50.2085C37.2743 49.9739 41.1848 49.7523 45.4739 49.7523C49.7631 49.7523 53.6942 49.9739 56.4894 50.2085C57.8664 50.3259 59.0368 50.4432 59.8216 50.5409C60.2433 50.57 60.6622 50.6288 61.0746 50.7169V50.7169Z"/>
</mask>
<path d="M61.0746 50.7169C60.6655 50.7336 60.2556 50.7183 59.8492 50.6713L56.5101 50.4497C53.6942 50.2737 49.7906 50.0912 45.4946 50.0912C41.1985 50.0912 37.2812 50.2737 34.4791 50.4497L31.14 50.6713C30.7335 50.7183 30.3237 50.7336 29.9146 50.7169C30.3134 50.6307 30.7184 50.5719 31.1263 50.5409C31.9111 50.4432 33.0471 50.3324 34.4584 50.2085C37.2743 49.9739 41.1848 49.7523 45.4739 49.7523C49.7631 49.7523 53.6942 49.9739 56.4894 50.2085C57.8664 50.3259 59.0368 50.4432 59.8216 50.5409C60.2433 50.57 60.6622 50.6288 61.0746 50.7169V50.7169Z" fill="#263238"/>
<path d="M59.8492 50.6713L59.9641 49.6779L59.9398 49.6751L59.9154 49.6735L59.8492 50.6713ZM56.5101 50.4497L56.5763 49.4519L56.5725 49.4516L56.5101 50.4497ZM34.4791 50.4497L34.4164 49.4517L34.4129 49.4519L34.4791 50.4497ZM31.14 50.6713L31.0738 49.6735L31.0494 49.6751L31.0251 49.6779L31.14 50.6713ZM29.9146 50.7169L29.7032 49.7395L29.8739 51.7161L29.9146 50.7169ZM31.1263 50.5409L31.2018 51.5381L31.2259 51.5363L31.2499 51.5333L31.1263 50.5409ZM34.4584 50.2085L34.3754 49.212L34.371 49.2124L34.4584 50.2085ZM56.4894 50.2085L56.5743 49.2121L56.5731 49.212L56.4894 50.2085ZM59.8216 50.5409L59.698 51.5333L59.7254 51.5367L59.753 51.5386L59.8216 50.5409ZM61.034 49.7178C60.6767 49.7323 60.3189 49.719 59.9641 49.6779L59.7343 51.6647C60.1924 51.7177 60.6543 51.7349 61.1153 51.7161L61.034 49.7178ZM59.9154 49.6735L56.5763 49.4519L56.4439 51.4475L59.7829 51.6691L59.9154 49.6735ZM56.5725 49.4516C53.7431 49.2748 49.8176 49.0912 45.4946 49.0912V51.0912C49.7636 51.0912 53.6454 51.2726 56.4477 51.4477L56.5725 49.4516ZM45.4946 49.0912C41.1717 49.0912 37.2324 49.2748 34.4164 49.4517L34.5418 51.4477C37.3299 51.2726 41.2254 51.0912 45.4946 51.0912V49.0912ZM34.4129 49.4519L31.0738 49.6735L31.2062 51.6691L34.5453 51.4475L34.4129 49.4519ZM31.0251 49.6779C30.6703 49.719 30.3125 49.7323 29.9552 49.7178L29.8739 51.7161C30.3349 51.7349 30.7968 51.7177 31.2549 51.6647L31.0251 49.6779ZM30.1259 51.6943C30.4799 51.6178 30.8395 51.5655 31.2018 51.5381L31.0507 49.5438C30.5973 49.5782 30.1469 49.6436 29.7032 49.7395L30.1259 51.6943ZM31.2499 51.5333C32.0153 51.4379 33.1358 51.3284 34.5459 51.2047L34.371 49.2124C32.9584 49.3363 31.8069 49.4484 31.0026 49.5486L31.2499 51.5333ZM34.5415 51.2051C37.335 50.9723 41.2174 50.7523 45.4739 50.7523V48.7523C41.1522 48.7523 37.2136 48.9755 34.3754 49.212L34.5415 51.2051ZM45.4739 50.7523C49.7308 50.7523 53.6336 50.9723 56.4058 51.205L56.5731 49.212C53.7548 48.9755 49.7954 48.7523 45.4739 48.7523V50.7523ZM56.4045 51.2049C57.7759 51.3218 58.9317 51.4378 59.698 51.5333L59.9452 49.5486C59.1418 49.4485 57.9568 49.3299 56.5743 49.2121L56.4045 51.2049ZM59.753 51.5386C60.1276 51.5644 60.4995 51.6166 60.8656 51.6948L61.2836 49.739C60.8248 49.641 60.3591 49.5756 59.8902 49.5433L59.753 51.5386Z" fill="url(#paint10_linear_34_4224)" mask="url(#path-17-inside-7_34_4224)"/>
<mask id="path-19-inside-8_34_4224" fill="white">
<path d="M64.3383 22.1363C64.0601 23.135 63.5936 24.0778 62.9614 24.9194C62.429 25.8213 61.7293 26.6249 60.896 27.2919C60.8134 27.2333 61.7015 26.1578 62.6309 24.7369C63.5603 23.3161 64.2144 22.0907 64.3383 22.1363Z"/>
</mask>
<path d="M64.3383 22.1363C64.0601 23.135 63.5936 24.0778 62.9614 24.9194C62.429 25.8213 61.7293 26.6249 60.896 27.2919C60.8134 27.2333 61.7015 26.1578 62.6309 24.7369C63.5603 23.3161 64.2144 22.0907 64.3383 22.1363Z" fill="#263238"/>
<path d="M64.3383 22.1363L65.3016 22.4048L65.5491 21.5165L64.6838 21.1979L64.3383 22.1363ZM62.9614 24.9194L62.1618 24.3188L62.1285 24.3632L62.1003 24.411L62.9614 24.9194ZM60.896 27.2919L60.317 28.1073L60.932 28.544L61.5209 28.0726L60.896 27.2919ZM63.375 21.8679C63.1307 22.7447 62.7204 23.5752 62.1618 24.3188L63.7609 25.52C64.4668 24.5804 64.9894 23.5252 65.3016 22.4048L63.375 21.8679ZM62.1003 24.411C61.6306 25.2065 61.0117 25.9184 60.2711 26.5112L61.5209 28.0726C62.4469 27.3314 63.2273 26.436 63.8225 25.4278L62.1003 24.411ZM61.4749 26.4766C62.0024 26.8511 61.8782 27.4341 61.8738 27.4574C61.8512 27.5753 61.8116 27.6535 61.8097 27.6573C61.7975 27.6827 61.798 27.6766 61.8375 27.6165C61.9087 27.508 62.0263 27.3437 62.1945 27.1109C62.5199 26.6605 62.9882 26.0176 63.4678 25.2844L61.794 24.1895C61.3442 24.8772 60.9037 25.4824 60.5734 25.9396C60.4137 26.1606 60.2666 26.365 60.1655 26.519C60.1188 26.5902 60.0563 26.6888 60.0076 26.7899C59.9876 26.8315 59.9365 26.9402 59.9095 27.081C59.9007 27.1271 59.7792 27.7254 60.317 28.1073L61.4749 26.4766ZM63.4678 25.2844C63.9421 24.5593 64.3511 23.8761 64.6376 23.4119C64.787 23.1699 64.8929 23.0041 64.9639 22.9046C65.0034 22.8493 65.0052 22.8529 64.9785 22.8798C64.9689 22.8896 64.9096 22.9504 64.8083 23.0088C64.7369 23.05 64.4085 23.2278 63.9928 23.0748L64.6838 21.1979C64.2526 21.0392 63.9047 21.2212 63.8096 21.276C63.6846 21.3481 63.5976 21.4319 63.5564 21.4736C63.4667 21.5643 63.3898 21.6673 63.336 21.7426C63.2205 21.9045 63.0815 22.1252 62.9357 22.3615C62.6319 22.8538 62.2492 23.4937 61.794 24.1895L63.4678 25.2844Z" fill="url(#paint11_linear_34_4224)" mask="url(#path-19-inside-8_34_4224)"/>
<mask id="path-21-inside-9_34_4224" fill="white">
<path d="M27.1401 25.7928C27.2466 26.0599 27.3205 26.3376 27.3605 26.6206L27.8768 28.9083C28.3174 30.9093 28.9026 33.5425 29.5498 36.456C30.197 39.3694 30.7477 42.0808 31.1195 44.0231C31.2985 44.9943 31.4362 45.783 31.5188 46.3304C31.5745 46.6142 31.6022 46.9022 31.6014 47.1908C31.4958 46.9212 31.4219 46.6414 31.3811 46.3565L30.8648 44.0688C30.4242 42.0743 29.839 39.4346 29.1987 36.5211C28.5584 33.6077 27.9939 30.9028 27.629 28.954C27.4431 27.9828 27.3054 27.1941 27.2228 26.6466C27.1672 26.3651 27.1395 26.0792 27.1401 25.7928V25.7928Z"/>
</mask>
<path d="M27.1401 25.7928C27.2466 26.0599 27.3205 26.3376 27.3605 26.6206L27.8768 28.9083C28.3174 30.9093 28.9026 33.5425 29.5498 36.456C30.197 39.3694 30.7477 42.0808 31.1195 44.0231C31.2985 44.9943 31.4362 45.783 31.5188 46.3304C31.5745 46.6142 31.6022 46.9022 31.6014 47.1908C31.4958 46.9212 31.4219 46.6414 31.3811 46.3565L30.8648 44.0688C30.4242 42.0743 29.839 39.4346 29.1987 36.5211C28.5584 33.6077 27.9939 30.9028 27.629 28.954C27.4431 27.9828 27.3054 27.1941 27.2228 26.6466C27.1672 26.3651 27.1395 26.0792 27.1401 25.7928V25.7928Z" fill="#263238"/>
<path d="M27.3605 26.6206L26.3703 26.7604L26.376 26.8009L26.385 26.8407L27.3605 26.6206ZM27.8768 28.9083L28.8534 28.6933L28.8523 28.6882L27.8768 28.9083ZM31.1195 44.0231L32.103 43.8419L32.1017 43.8351L31.1195 44.0231ZM31.5188 46.3304L30.53 46.4797L30.5333 46.5014L30.5376 46.5231L31.5188 46.3304ZM31.6014 47.1908L30.6703 47.5556L32.6014 47.1934L31.6014 47.1908ZM31.3811 46.3565L32.371 46.2147L32.3654 46.1752L32.3566 46.1364L31.3811 46.3565ZM30.8648 44.0688L29.8883 44.2845L29.8893 44.2889L30.8648 44.0688ZM27.629 28.954L28.6119 28.7699L28.6111 28.766L27.629 28.954ZM27.2228 26.6466L28.2116 26.4974L28.2082 26.4751L28.2038 26.453L27.2228 26.6466ZM26.2112 26.163C26.2883 26.3565 26.3415 26.5569 26.3703 26.7604L28.3506 26.4808C28.2995 26.1184 28.2049 25.7633 28.0691 25.4226L26.2112 26.163ZM26.385 26.8407L26.9013 29.1285L28.8523 28.6882L28.3359 26.4004L26.385 26.8407ZM26.9002 29.1234C27.3411 31.1255 27.9265 33.7598 28.5736 36.6728L30.526 36.2391C29.8787 33.3252 29.2938 30.6931 28.8534 28.6933L26.9002 29.1234ZM28.5736 36.6728C29.2185 39.5762 29.7673 42.2779 30.1373 44.2111L32.1017 43.8351C31.7282 41.8837 31.1754 39.1627 30.526 36.2391L28.5736 36.6728ZM30.1361 44.2044C30.3147 45.1737 30.45 45.9491 30.53 46.4797L32.5076 46.1812C32.4225 45.6168 32.2823 44.8149 32.1029 43.8419L30.1361 44.2044ZM30.5376 46.5231C30.5807 46.7426 30.602 46.9653 30.6014 47.1882L32.6014 47.1934C32.6023 46.8391 32.5684 46.4857 32.5001 46.1378L30.5376 46.5231ZM32.5325 46.826C32.4549 46.6278 32.4008 46.4228 32.371 46.2147L30.3912 46.4983C30.4431 46.86 30.5368 47.2146 30.6703 47.5556L32.5325 46.826ZM32.3566 46.1364L31.8402 43.8486L29.8893 44.2889L30.4057 46.5767L32.3566 46.1364ZM31.8412 43.853C31.4004 41.8577 30.8155 39.2192 30.1754 36.3065L28.222 36.7358C28.8624 39.65 29.4479 42.2909 29.8883 44.2845L31.8412 43.853ZM30.1754 36.3065C29.536 33.3971 28.974 30.7038 28.6119 28.7699L26.646 29.138C27.0137 31.1018 27.5808 33.8183 28.222 36.7358L30.1754 36.3065ZM28.6111 28.766C28.4265 27.8012 28.2914 27.0268 28.2116 26.4974L26.234 26.7959C26.3193 27.3615 26.4597 28.1644 26.6468 29.142L28.6111 28.766ZM28.2038 26.453C28.161 26.2358 28.1397 26.0156 28.1401 25.795L26.1401 25.7906C26.1394 26.1429 26.1734 26.4944 26.2417 26.8403L28.2038 26.453Z" fill="url(#paint12_linear_34_4224)" mask="url(#path-21-inside-9_34_4224)"/>
<mask id="path-23-inside-10_34_4224" fill="white">
<path d="M60.9511 29.2994C60.9771 29.516 60.9771 29.7346 60.9511 29.9512C60.9511 30.3748 60.9098 30.9875 60.8754 31.7436C60.7927 33.2492 60.6551 35.3349 60.4829 37.6096C60.3108 39.8843 60.1318 41.9961 59.9872 43.4757C59.9115 44.2317 59.8496 44.8444 59.7945 45.2615C59.7819 45.4823 59.7426 45.701 59.6774 45.9133C59.6427 45.6973 59.6427 45.4776 59.6774 45.2615C59.6774 44.8379 59.6774 44.2252 59.7532 43.4691C59.8358 41.9635 59.9735 39.8778 60.1456 37.6031C60.3177 35.3284 60.4967 33.2166 60.6413 31.7371C60.7101 30.981 60.779 30.3748 60.834 29.9512C60.8366 29.7294 60.8761 29.5095 60.9511 29.2994V29.2994Z"/>
</mask>
<path d="M60.9511 29.2994C60.9771 29.516 60.9771 29.7346 60.9511 29.9512C60.9511 30.3748 60.9098 30.9875 60.8754 31.7436C60.7927 33.2492 60.6551 35.3349 60.4829 37.6096C60.3108 39.8843 60.1318 41.9961 59.9872 43.4757C59.9115 44.2317 59.8496 44.8444 59.7945 45.2615C59.7819 45.4823 59.7426 45.701 59.6774 45.9133C59.6427 45.6973 59.6427 45.4776 59.6774 45.2615C59.6774 44.8379 59.6774 44.2252 59.7532 43.4691C59.8358 41.9635 59.9735 39.8778 60.1456 37.6031C60.3177 35.3284 60.4967 33.2166 60.6413 31.7371C60.7101 30.981 60.779 30.3748 60.834 29.9512C60.8366 29.7294 60.8761 29.5095 60.9511 29.2994V29.2994Z" fill="#263238"/>
<path d="M60.9511 29.9512L59.9582 29.8321L59.9511 29.8914V29.9512H60.9511ZM60.8754 31.7436L61.8739 31.7984L61.8743 31.7891L60.8754 31.7436ZM59.9872 43.4757L60.9823 43.5753L60.9825 43.5729L59.9872 43.4757ZM59.7945 45.2615L58.8031 45.1306L58.7982 45.1675L58.7961 45.2046L59.7945 45.2615ZM59.6774 45.9133L58.6901 46.0722L60.6334 46.2068L59.6774 45.9133ZM59.6774 45.2615L60.6647 45.4204L60.6774 45.3415V45.2615H59.6774ZM59.7532 43.4691L60.7482 43.5688L60.7504 43.5464L60.7517 43.5239L59.7532 43.4691ZM60.6413 31.7371L61.6366 31.8343L61.6372 31.8278L60.6413 31.7371ZM60.834 29.9512L61.8257 30.0801L61.8333 30.0216L61.834 29.9625L60.834 29.9512ZM59.9582 29.4185C59.9747 29.556 59.9747 29.6946 59.9582 29.8321L61.944 30.0703C61.9795 29.7746 61.9795 29.476 61.944 29.1803L59.9582 29.4185ZM59.9511 29.9512C59.9511 30.3448 59.9126 30.9031 59.8764 31.6981L61.8743 31.7891C61.907 31.0719 61.9511 30.4049 61.9511 29.9512H59.9511ZM59.8769 31.6888C59.7947 33.1858 59.6575 35.2644 59.4858 37.5342L61.4801 37.6851C61.6526 35.4055 61.7908 33.3126 61.8739 31.7984L59.8769 31.6888ZM59.4858 37.5342C59.314 39.8047 59.1356 41.9086 58.992 43.3784L60.9825 43.5729C61.128 42.0836 61.3077 39.964 61.4801 37.6851L59.4858 37.5342ZM58.9922 43.376C58.9158 44.1386 58.8556 44.7328 58.8031 45.1306L60.7859 45.3924C60.8435 44.956 60.9072 44.3249 60.9823 43.5753L58.9922 43.376ZM58.7961 45.2046C58.7881 45.3448 58.7632 45.4841 58.7215 45.6198L60.6334 46.2068C60.7221 45.918 60.7757 45.6199 60.7929 45.3185L58.7961 45.2046ZM60.6647 45.7545C60.6469 45.6437 60.6469 45.5312 60.6647 45.4204L58.6901 45.1027C58.6384 45.4239 58.6384 45.7509 58.6901 46.0722L60.6647 45.7545ZM60.6774 45.2615C60.6774 44.842 60.6778 44.2718 60.7482 43.5688L58.7581 43.3695C58.6771 44.1786 58.6774 44.8338 58.6774 45.2615H60.6774ZM60.7517 43.5239C60.8338 42.0269 60.971 39.9484 61.1427 37.6786L59.1484 37.5277C58.976 39.8073 58.8378 41.9001 58.7547 43.4144L60.7517 43.5239ZM61.1427 37.6786C61.3145 35.4081 61.4929 33.3041 61.6365 31.8343L59.646 31.6398C59.5005 33.1291 59.3209 35.2487 59.1484 37.5277L61.1427 37.6786ZM61.6372 31.8278C61.705 31.0829 61.7725 30.4896 61.8257 30.0801L59.8424 29.8223C59.7855 30.2601 59.7153 30.8791 59.6454 31.6464L61.6372 31.8278ZM61.834 29.9625C61.8352 29.8523 61.8548 29.7421 61.8928 29.6358L60.0094 28.9631C59.8973 29.2769 59.8379 29.6066 59.8341 29.9399L61.834 29.9625Z" fill="url(#paint13_linear_34_4224)" mask="url(#path-23-inside-10_34_4224)"/>
<mask id="path-25-inside-11_34_4224" fill="white">
<path d="M68.4068 21.9995C68.1675 22.6672 67.8847 23.3202 67.56 23.9548C67.023 25.1476 66.3346 26.8161 65.6943 28.6932C65.054 30.5704 64.6065 32.3171 64.3173 33.5881C64.1928 34.2791 64.025 34.9625 63.8148 35.6347C63.7831 35.4469 63.7831 35.2555 63.8148 35.0677C63.8561 34.7027 63.9318 34.1812 64.0488 33.536C64.3568 31.8629 64.787 30.2121 65.3363 28.5955C65.8803 26.9753 66.5405 25.3921 67.3122 23.857C67.6082 23.2704 67.863 22.8011 68.0557 22.4818C68.1491 22.3066 68.2672 22.1444 68.4068 21.9995V21.9995Z"/>
</mask>
<path d="M68.4068 21.9995C68.1675 22.6672 67.8847 23.3202 67.56 23.9548C67.023 25.1476 66.3346 26.8161 65.6943 28.6932C65.054 30.5704 64.6065 32.3171 64.3173 33.5881C64.1928 34.2791 64.025 34.9625 63.8148 35.6347C63.7831 35.4469 63.7831 35.2555 63.8148 35.0677C63.8561 34.7027 63.9318 34.1812 64.0488 33.536C64.3568 31.8629 64.787 30.2121 65.3363 28.5955C65.8803 26.9753 66.5405 25.3921 67.3122 23.857C67.6082 23.2704 67.863 22.8011 68.0557 22.4818C68.1491 22.3066 68.2672 22.1444 68.4068 21.9995V21.9995Z" fill="#263238"/>
<path d="M67.56 23.9548L66.6698 23.4994L66.6584 23.5215L66.6482 23.5443L67.56 23.9548ZM64.3173 33.5881L63.3423 33.3663L63.3372 33.3884L63.3332 33.4107L64.3173 33.5881ZM63.8148 35.6347L62.8287 35.8009L64.7692 35.9332L63.8148 35.6347ZM63.8148 35.0677L64.8008 35.2339L64.8054 35.2071L64.8084 35.1801L63.8148 35.0677ZM64.0488 33.536L63.0654 33.355L63.0649 33.3575L64.0488 33.536ZM65.3363 28.5955L66.2831 28.9172L66.2843 28.9138L65.3363 28.5955ZM67.3122 23.857L66.4194 23.4065L66.4187 23.4079L67.3122 23.857ZM68.0557 22.4818L68.9119 22.9985L68.9257 22.9756L68.9382 22.9521L68.0557 22.4818ZM67.4655 21.662C67.2407 22.2891 66.975 22.9028 66.6698 23.4994L68.4503 24.4102C68.7944 23.7376 69.0943 23.0452 69.3482 22.3369L67.4655 21.662ZM66.6482 23.5443C66.1002 24.7613 65.3997 26.4593 64.7478 28.3704L66.6407 29.0161C67.2694 27.1729 67.9458 25.5338 68.4719 24.3653L66.6482 23.5443ZM64.7478 28.3704C64.093 30.2901 63.6366 32.0726 63.3423 33.3663L65.2924 33.81C65.5764 32.5617 66.015 30.8506 66.6407 29.0161L64.7478 28.3704ZM63.3332 33.4107C63.2161 34.0607 63.0582 34.7036 62.8603 35.3362L64.7692 35.9332C64.9918 35.2214 65.1695 34.4976 65.3015 33.7655L63.3332 33.4107ZM64.8008 35.4685C64.7877 35.3907 64.7877 35.3117 64.8008 35.2339L62.8287 34.9014C62.7785 35.1993 62.7785 35.5031 62.8287 35.8009L64.8008 35.4685ZM64.8084 35.1801C64.8467 34.8419 64.9188 34.3429 65.0328 33.7144L63.0649 33.3575C62.9448 34.0195 62.8654 34.5635 62.8211 34.9552L64.8084 35.1801ZM65.0323 33.717C65.3314 32.0919 65.7493 30.4881 66.2831 28.9172L64.3894 28.2738C63.8246 29.9362 63.3821 31.634 63.0654 33.355L65.0323 33.717ZM66.2843 28.9138C66.8132 27.3387 67.4551 25.7992 68.2057 24.3062L66.4187 23.4079C65.6259 24.985 64.9475 26.6119 64.3883 28.2771L66.2843 28.9138ZM68.2049 24.3076C68.4958 23.7313 68.7377 23.2871 68.9119 22.9985L67.1996 21.965C66.9882 22.3152 66.7207 22.8096 66.4194 23.4065L68.2049 24.3076ZM68.9382 22.9521C68.9874 22.8598 69.0506 22.7726 69.1269 22.6934L67.6868 21.3055C67.4838 21.5162 67.3107 21.7535 67.1732 22.0115L68.9382 22.9521Z" fill="url(#paint14_linear_34_4224)" mask="url(#path-25-inside-11_34_4224)"/>
<mask id="path-27-inside-12_34_4224" fill="white">
<path d="M63.0509 57.5737C62.9229 57.5623 62.7963 57.5404 62.6722 57.5085L61.612 57.2673C61.1507 57.1565 60.5862 57.0262 59.9253 56.9023C59.2643 56.7785 58.5483 56.6025 57.6809 56.4852C56.8134 56.3679 55.9321 56.1984 54.927 56.1006C53.9218 56.0029 52.8616 55.8986 51.76 55.8073C49.3388 55.6703 46.911 55.6703 44.4898 55.8073C42.0672 55.9739 39.6576 56.2808 37.2746 56.7264C36.18 56.9545 35.1404 57.15 34.1834 57.4107C33.2264 57.6714 32.3314 57.8996 31.519 58.1407C30.7066 58.3819 29.9906 58.623 29.3572 58.8316C28.7238 59.0402 28.18 59.2357 27.7393 59.4052L26.7204 59.7832C26.6027 59.8366 26.4775 59.874 26.3486 59.894C26.455 59.8273 26.568 59.7706 26.686 59.7246L27.6774 59.2944C28.1111 59.1054 28.6412 58.8838 29.2815 58.6426C29.9218 58.4014 30.6584 58.1342 31.4364 57.8996C32.2144 57.6649 33.1301 57.3651 34.1008 57.1239C35.0715 56.8828 36.1042 56.6416 37.1989 56.407C42.003 55.4489 46.9266 55.1417 51.822 55.4945C52.9373 55.5923 54.0044 55.6705 54.9958 55.8204C55.9872 55.9703 56.9098 56.0941 57.7497 56.2506C58.5896 56.407 59.3332 56.5699 59.9941 56.7198C60.655 56.8698 61.2127 57.0066 61.6671 57.1435L62.7136 57.4433C62.8324 57.4702 62.9461 57.5142 63.0509 57.5737V57.5737Z"/>
</mask>
<path d="M63.0509 57.5737C62.9229 57.5623 62.7963 57.5404 62.6722 57.5085L61.612 57.2673C61.1507 57.1565 60.5862 57.0262 59.9253 56.9023C59.2643 56.7785 58.5483 56.6025 57.6809 56.4852C56.8134 56.3679 55.9321 56.1984 54.927 56.1006C53.9218 56.0029 52.8616 55.8986 51.76 55.8073C49.3388 55.6703 46.911 55.6703 44.4898 55.8073C42.0672 55.9739 39.6576 56.2808 37.2746 56.7264C36.18 56.9545 35.1404 57.15 34.1834 57.4107C33.2264 57.6714 32.3314 57.8996 31.519 58.1407C30.7066 58.3819 29.9906 58.623 29.3572 58.8316C28.7238 59.0402 28.18 59.2357 27.7393 59.4052L26.7204 59.7832C26.6027 59.8366 26.4775 59.874 26.3486 59.894C26.455 59.8273 26.568 59.7706 26.686 59.7246L27.6774 59.2944C28.1111 59.1054 28.6412 58.8838 29.2815 58.6426C29.9218 58.4014 30.6584 58.1342 31.4364 57.8996C32.2144 57.6649 33.1301 57.3651 34.1008 57.1239C35.0715 56.8828 36.1042 56.6416 37.1989 56.407C42.003 55.4489 46.9266 55.1417 51.822 55.4945C52.9373 55.5923 54.0044 55.6705 54.9958 55.8204C55.9872 55.9703 56.9098 56.0941 57.7497 56.2506C58.5896 56.407 59.3332 56.5699 59.9941 56.7198C60.655 56.8698 61.2127 57.0066 61.6671 57.1435L62.7136 57.4433C62.8324 57.4702 62.9461 57.5142 63.0509 57.5737V57.5737Z" fill="#263238"/>
<path d="M62.6722 57.5085L62.9217 56.5401L62.9079 56.5366L62.894 56.5334L62.6722 57.5085ZM61.612 57.2673L61.3784 58.2397L61.3902 58.2424L61.612 57.2673ZM51.76 55.8073L51.8426 54.8108L51.8296 54.8097L51.8165 54.8089L51.76 55.8073ZM44.4898 55.8073L44.4333 54.8089L44.4212 54.8097L44.4898 55.8073ZM37.2746 56.7264L37.0908 55.7434L37.0807 55.7453L37.0706 55.7474L37.2746 56.7264ZM27.7393 59.4052L28.0872 60.3428L28.0983 60.3385L27.7393 59.4052ZM26.7204 59.7832L26.3726 58.8457L26.3394 58.858L26.3072 58.8726L26.7204 59.7832ZM26.3486 59.894L25.8177 59.0466L26.5025 60.8821L26.3486 59.894ZM26.686 59.7246L27.0496 60.6561L27.0669 60.6493L27.084 60.6419L26.686 59.7246ZM27.6774 59.2944L28.0754 60.2117L28.0769 60.2111L27.6774 59.2944ZM37.1989 56.407L37.0033 55.4263L36.9963 55.4277L36.9893 55.4292L37.1989 56.407ZM51.822 55.4945L51.9093 54.4983L51.9016 54.4976L51.8939 54.4971L51.822 55.4945ZM61.6671 57.1435L61.3786 58.1011L61.3917 58.1048L61.6671 57.1435ZM62.7136 57.4433L62.4381 58.4046L62.4652 58.4124L62.4926 58.4186L62.7136 57.4433ZM63.1398 56.5776C63.0659 56.571 62.9929 56.5585 62.9217 56.5401L62.4228 58.4769C62.5996 58.5224 62.78 58.5535 62.962 58.5697L63.1398 56.5776ZM62.894 56.5334L61.8338 56.2922L61.3902 58.2424L62.4505 58.4836L62.894 56.5334ZM61.8456 56.295C61.3768 56.1824 60.7939 56.0477 60.1094 55.9194L59.7411 57.8852C60.3784 58.0047 60.9247 58.1307 61.3784 58.2397L61.8456 56.295ZM60.1094 55.9194C59.5186 55.8087 58.7118 55.6155 57.8149 55.4942L57.5468 57.4762C58.3848 57.5895 59.01 57.7483 59.7411 57.8852L60.1094 55.9194ZM57.8149 55.4942C57.0266 55.3876 56.0438 55.2046 55.0238 55.1053L54.8302 57.0959C55.8205 57.1923 56.6002 57.3482 57.5468 57.4762L57.8149 55.4942ZM55.0238 55.1053C54.0206 55.0078 52.9527 54.9027 51.8426 54.8108L51.6775 56.8039C52.7704 56.8945 53.823 56.998 54.8302 57.0959L55.0238 55.1053ZM51.8165 54.8089C49.3576 54.6698 46.8922 54.6698 44.4333 54.8089L44.5463 56.8057C46.9299 56.6708 49.3199 56.6708 51.7035 56.8057L51.8165 54.8089ZM44.4212 54.8097C41.96 54.9789 39.512 55.2907 37.0908 55.7434L37.4584 57.7093C39.8032 57.2709 42.1743 56.9689 44.5584 56.805L44.4212 54.8097ZM37.0706 55.7474C36.0044 55.9696 34.9161 56.1747 33.9206 56.4459L34.4463 58.3756C35.3647 58.1253 36.3556 57.9394 37.4786 57.7053L37.0706 55.7474ZM33.9206 56.4459C32.9864 56.7004 32.0608 56.9368 31.2345 57.1821L31.8036 59.0994C32.6021 58.8623 33.4664 58.6425 34.4463 58.3756L33.9206 56.4459ZM31.2345 57.1821C30.4042 57.4285 29.6705 57.6756 29.0445 57.8818L29.67 59.7814C30.3107 59.5704 31.0091 59.3352 31.8036 59.0994L31.2345 57.1821ZM29.0445 57.8818C28.3966 58.0951 27.8373 58.2961 27.3804 58.4718L28.0983 60.3385C28.5227 60.1753 29.0511 59.9852 29.67 59.7814L29.0445 57.8818ZM27.3915 58.4676L26.3726 58.8457L27.0682 60.7208L28.0872 60.3427L27.3915 58.4676ZM26.3072 58.8726C26.2727 58.8882 26.2348 58.8997 26.1948 58.9059L26.5025 60.8821C26.7201 60.8482 26.9326 60.7851 27.1337 60.6938L26.3072 58.8726ZM26.8796 60.7414C26.9325 60.7083 26.9894 60.6796 27.0496 60.6561L26.3224 58.793C26.1466 58.8616 25.9776 58.9464 25.8177 59.0466L26.8796 60.7414ZM27.084 60.6419L28.0754 60.2117L27.2793 58.377L26.2879 58.8072L27.084 60.6419ZM28.0769 60.2111C28.4988 60.0273 29.0129 59.8124 29.634 59.5784L28.929 57.7068C28.2696 57.9552 27.7235 58.1835 27.2779 58.3776L28.0769 60.2111ZM29.634 59.5784C30.2669 59.34 30.9791 59.082 31.7252 58.857L31.1477 56.9422C30.3377 57.1864 29.5767 57.4628 28.929 57.7068L29.634 59.5784ZM31.7252 58.857C32.5319 58.6137 33.4031 58.3277 34.3419 58.0944L33.8597 56.1534C32.857 56.4025 31.8969 56.7162 31.1477 56.9422L31.7252 58.857ZM34.3419 58.0944C35.3029 57.8557 36.3251 57.617 37.4085 57.3848L36.9893 55.4292C35.8834 55.6663 34.8401 55.9099 33.8597 56.1534L34.3419 58.0944ZM37.3945 57.3877C42.1104 56.4472 46.944 56.1455 51.7501 56.4919L51.8939 54.4971C46.9091 54.1378 41.8956 54.4506 37.0033 55.4263L37.3945 57.3877ZM51.7347 56.4907C52.8727 56.5904 53.895 56.6653 54.8463 56.8091L55.1453 54.8316C54.1138 54.6756 53.0019 54.5941 51.9093 54.4983L51.7347 56.4907ZM54.8463 56.8091C55.8615 56.9626 56.749 57.0814 57.5666 57.2337L57.9328 55.2675C57.0705 55.1069 56.1129 54.9779 55.1453 54.8316L54.8463 56.8091ZM57.5666 57.2337C58.3881 57.3867 59.1174 57.5464 59.7729 57.6951L60.2153 55.7446C59.549 55.5935 58.7911 55.4273 57.9328 55.2675L57.5666 57.2337ZM59.7729 57.6951C60.4289 57.8439 60.9588 57.9745 61.3787 58.101L61.9555 56.186C61.4666 56.0387 60.8812 55.8956 60.2153 55.7446L59.7729 57.6951ZM61.3917 58.1048L62.4381 58.4046L62.989 56.482L61.9425 56.1822L61.3917 58.1048ZM62.4926 58.4186C62.5169 58.4241 62.5386 58.4328 62.5572 58.4433L63.5446 56.7041C63.3536 56.5956 63.1478 56.5164 62.9345 56.468L62.4926 58.4186Z" fill="url(#paint15_linear_34_4224)" mask="url(#path-27-inside-12_34_4224)"/>
</g>
<defs>
<filter id="filter0_d_34_4224" x="0.208496" y="0" width="83.2085" height="79.2006" filterUnits="userSpaceOnUse" color-interpolation-filters="sRGB">
<feFlood flood-opacity="0" result="BackgroundImageFix"/>
<feColorMatrix in="SourceAlpha" type="matrix" values="0 0 0 0 0 0 0 0 0 0 0 0 0 0 0 0 0 0 127 0" result="hardAlpha"/>
<feOffset dx="-2" dy="2"/>
<feGaussianBlur stdDeviation="2"/>
<feComposite in2="hardAlpha" operator="out"/>
<feColorMatrix type="matrix" values="0 0 0 0 0 0 0 0 0 0 0 0 0 0 0 0 0 0 0.25 0"/>
<feBlend mode="normal" in2="BackgroundImageFix" result="effect1_dropShadow_34_4224"/>
<feBlend mode="normal" in="SourceGraphic" in2="effect1_dropShadow_34_4224" result="shape"/>
</filter>
<linearGradient id="paint0_linear_34_4224" x1="43.8127" y1="2" x2="43.8127" y2="73.2006" gradientUnits="userSpaceOnUse">
<stop offset="0.864583" stop-color="#BABFC3"/>
<stop offset="1" stop-color="#BBBFC3"/>
</linearGradient>
<linearGradient id="paint1_linear_34_4224" x1="44.9" y1="17.3783" x2="44.9" y2="60.2982" gradientUnits="userSpaceOnUse">
<stop offset="0.864583" stop-color="#BABFC3"/>
<stop offset="1" stop-color="#BBBFC3"/>
</linearGradient>
<linearGradient id="paint2_linear_34_4224" x1="23.233" y1="20.7154" x2="23.233" y2="38.1701" gradientUnits="userSpaceOnUse">
<stop offset="0.864583" stop-color="#BABFC3"/>
<stop offset="1" stop-color="#BBBFC3"/>
</linearGradient>
<linearGradient id="paint3_linear_34_4224" x1="65.1884" y1="18.7471" x2="65.1884" y2="38.3853" gradientUnits="userSpaceOnUse">
<stop offset="0.864583" stop-color="#BABFC3"/>
<stop offset="1" stop-color="#BBBFC3"/>
</linearGradient>
<linearGradient id="paint4_linear_34_4224" x1="21.7466" y1="25.7668" x2="21.7466" y2="36.9448" gradientUnits="userSpaceOnUse">
<stop offset="0.864583" stop-color="#BABFC3"/>
<stop offset="1" stop-color="#BBBFC3"/>
</linearGradient>
<linearGradient id="paint5_linear_34_4224" x1="25.1508" y1="23.7397" x2="25.1508" y2="32.1021" gradientUnits="userSpaceOnUse">
<stop offset="0.864583" stop-color="#BABFC3"/>
<stop offset="1" stop-color="#BBBFC3"/>
</linearGradient>
<linearGradient id="paint6_linear_34_4224" x1="43.8187" y1="19.6465" x2="43.8187" y2="23.9058" gradientUnits="userSpaceOnUse">
<stop offset="0.864583" stop-color="#BABFC3"/>
<stop offset="1" stop-color="#BBBFC3"/>
</linearGradient>
<linearGradient id="paint7_linear_34_4224" x1="44.2896" y1="28.5951" x2="44.2896" y2="29.7689" gradientUnits="userSpaceOnUse">
<stop offset="0.864583" stop-color="#BABFC3"/>
<stop offset="1" stop-color="#BBBFC3"/>
</linearGradient>
<linearGradient id="paint8_linear_34_4224" x1="44.7719" y1="34.5593" x2="44.7719" y2="36.5416" gradientUnits="userSpaceOnUse">
<stop offset="0.864583" stop-color="#BABFC3"/>
<stop offset="1" stop-color="#BBBFC3"/>
</linearGradient>
<linearGradient id="paint9_linear_34_4224" x1="45.0062" y1="42.6876" x2="45.0062" y2="43.5692" gradientUnits="userSpaceOnUse">
<stop offset="0.864583" stop-color="#BABFC3"/>
<stop offset="1" stop-color="#BBBFC3"/>
</linearGradient>
<linearGradient id="paint10_linear_34_4224" x1="45.4946" y1="49.7523" x2="45.4946" y2="50.7234" gradientUnits="userSpaceOnUse">
<stop offset="0.864583" stop-color="#BABFC3"/>
<stop offset="1" stop-color="#BBBFC3"/>
</linearGradient>
<linearGradient id="paint11_linear_34_4224" x1="62.6145" y1="22.1351" x2="62.6145" y2="27.2919" gradientUnits="userSpaceOnUse">
<stop offset="0.864583" stop-color="#BABFC3"/>
<stop offset="1" stop-color="#BBBFC3"/>
</linearGradient>
<linearGradient id="paint12_linear_34_4224" x1="29.3708" y1="25.7928" x2="29.3708" y2="47.1908" gradientUnits="userSpaceOnUse">
<stop offset="0.864583" stop-color="#BABFC3"/>
<stop offset="1" stop-color="#BBBFC3"/>
</linearGradient>
<linearGradient id="paint13_linear_34_4224" x1="60.311" y1="29.2994" x2="60.311" y2="45.9133" gradientUnits="userSpaceOnUse">
<stop offset="0.864583" stop-color="#BABFC3"/>
<stop offset="1" stop-color="#BBBFC3"/>
</linearGradient>
<linearGradient id="paint14_linear_34_4224" x1="66.0989" y1="21.9995" x2="66.0989" y2="35.6347" gradientUnits="userSpaceOnUse">
<stop offset="0.864583" stop-color="#BABFC3"/>
<stop offset="1" stop-color="#BBBFC3"/>
</linearGradient>
<linearGradient id="paint15_linear_34_4224" x1="44.6998" y1="55.3529" x2="44.6998" y2="59.894" gradientUnits="userSpaceOnUse">
<stop offset="0.864583" stop-color="#BABFC3"/>
<stop offset="1" stop-color="#BBBFC3"/>
</linearGradient>
</defs>
</svg>
