<svg width="84" height="80" viewBox="0 0 84 80" fill="none" xmlns="http://www.w3.org/2000/svg">
<g filter="url(#filter0_d_99_4304)">
<path d="M12.9088 2.5H75.1326C78.4681 2.5 81.1248 5.05338 81.1248 8.1463V67.0543C81.1248 70.1472 78.4681 72.7006 75.1326 72.7006H12.9088C9.57318 72.7006 6.9165 70.1472 6.9165 67.0543V8.1463C6.9165 5.05338 9.57318 2.5 12.9088 2.5Z" fill="white" stroke="url(#paint0_linear_99_4304)"/>
<path d="M31.8093 47.1844C32.2975 47.0763 32.2975 47.0762 32.2975 47.0761L32.2974 47.0757L32.297 47.0741L32.2956 47.0677L32.2899 47.0421L32.2678 46.9419L32.1827 46.557C32.109 46.2231 32.0026 45.7407 31.8721 45.1468C31.611 43.9591 31.2531 42.3258 30.8659 40.5433C30.0912 36.9764 29.2007 32.8182 28.7337 30.4352C28.6478 29.9959 28.5612 29.5569 28.4754 29.1217C28.1157 27.298 27.769 25.5405 27.5433 24.1084C27.4034 23.2203 27.3132 22.4768 27.2934 21.9305C27.2834 21.6557 27.2921 21.4512 27.3142 21.3117C27.3235 21.2526 27.3334 21.2177 27.3393 21.1999C28.0311 20.6185 29.1081 20.2677 30.0807 20.0671C30.5646 19.9672 31.0019 19.9085 31.3181 19.8748C31.476 19.858 31.6029 19.8476 31.6894 19.8413C31.6956 19.8409 31.7016 19.8404 31.7073 19.84C34.7928 21.1493 38.6542 21.4611 42.4616 21.053C46.2534 20.6466 50.0405 19.521 53.0265 17.9003L60.54 19.1673L59.9847 34.5341L59.9844 34.5413L59.4064 45.9468L59.4021 46.0314L59.4259 46.1127L59.9057 45.9721C59.4259 46.1127 59.4259 46.1127 59.4259 46.1128L59.426 46.1131L59.4265 46.1146L59.4282 46.1205L59.4349 46.1435L59.4612 46.2333L59.5614 46.5743C59.6477 46.8684 59.7714 47.2891 59.9205 47.7954C60.2188 48.8079 60.6191 50.1633 61.0272 51.5343C61.4352 52.905 61.8513 54.2924 62.1811 55.3686C62.3459 55.9064 62.4897 56.3682 62.6003 56.712C62.6556 56.8836 62.7033 57.0281 62.7416 57.1388C62.7751 57.2356 62.8124 57.3392 62.8452 57.4052C63.5241 58.7713 63.3139 59.3272 63.1706 59.5259C63.0863 59.6427 62.9737 59.7146 62.8728 59.7577C62.8643 59.7613 62.856 59.7647 62.8479 59.7679C60.4729 58.6057 57.0438 58.0397 53.2813 57.8247C49.4114 57.6037 45.1238 57.7513 41.1341 58.0446C37.1425 58.3381 33.4387 58.7781 30.7334 59.1447C29.3804 59.328 28.2765 59.493 27.5103 59.6122C27.3792 59.6326 27.2579 59.6517 27.147 59.6693C27.7502 58.0228 28.8729 55.3109 29.9203 52.8389C30.5367 51.3841 31.1235 50.0205 31.5563 49.0205C31.7726 48.5205 31.9504 48.1115 32.0741 47.8275L32.2172 47.4997L32.2546 47.4141L32.2641 47.3923L32.2665 47.3868L32.2671 47.3854L32.2673 47.3851C32.2673 47.385 32.2673 47.385 31.8093 47.1844ZM31.8093 47.1844L32.2975 47.0763L32.3328 47.2355L32.2673 47.385L31.8093 47.1844Z" fill="#DADADA" stroke="url(#paint1_linear_99_4304)"/>
<path d="M21.07 34.9199C19.2191 33.0973 17.4441 30.4367 17.48 26.944L26.8007 21.4977L29.3507 33.7553L24.606 37.5743C24.5928 37.5671 24.5792 37.5595 24.5652 37.5517C24.357 37.4357 24.0571 37.2602 23.6969 37.0257C22.9756 36.5561 22.0176 35.853 21.07 34.9199Z" fill="#DADADA" stroke="url(#paint2_linear_99_4304)"/>
<path d="M60.2927 34.4124L59.9656 35.3813L59.9106 23.0826L61.3375 19.4031L70.7804 23.277C70.7714 23.3084 70.762 23.3413 70.7522 23.3757C70.6559 23.7122 70.5161 24.1949 70.3421 24.7788C69.994 25.9469 69.5097 27.5178 68.964 29.132C68.4177 30.7482 67.8131 32.3981 67.225 33.728C66.9308 34.3935 66.6449 34.9689 66.377 35.4162C66.1951 35.7201 66.0348 35.9416 65.9008 36.0904L60.9524 34.1082L60.4618 33.9117L60.2927 34.4124Z" fill="#DADADA" stroke="url(#paint3_linear_99_4304)"/>
<mask id="path-5-inside-1_99_4304" fill="white">
<path d="M25.6062 36.9449C25.4206 36.8944 25.2442 36.8174 25.083 36.7168C24.637 36.4755 24.2091 36.2055 23.8024 35.9086C22.4181 34.9291 21.2292 33.724 20.2912 32.3498C19.7695 31.5811 19.3312 30.7644 18.9831 29.9122C18.7214 29.221 18.5323 28.5071 18.4186 27.7809C18.3364 27.2938 18.2996 26.8009 18.3084 26.3078C18.2904 26.1258 18.3091 25.9422 18.3635 25.7668C18.4255 25.7668 18.4186 26.5359 18.6664 27.7222C18.8129 28.4265 19.0225 29.1177 19.2929 29.7883C19.6359 30.6022 20.0552 31.3853 20.546 32.1282C21.4661 33.4709 22.602 34.6694 23.9126 35.6804C24.9453 36.4952 25.6406 36.8927 25.6062 36.9449Z"/>
</mask>
<path d="M25.6062 36.9449C25.4206 36.8944 25.2442 36.8174 25.083 36.7168C24.637 36.4755 24.2091 36.2055 23.8024 35.9086C22.4181 34.9291 21.2292 33.724 20.2912 32.3498C19.7695 31.5811 19.3312 30.7644 18.9831 29.9122C18.7214 29.221 18.5323 28.5071 18.4186 27.7809C18.3364 27.2938 18.2996 26.8009 18.3084 26.3078C18.2904 26.1258 18.3091 25.9422 18.3635 25.7668C18.4255 25.7668 18.4186 26.5359 18.6664 27.7222C18.8129 28.4265 19.0225 29.1177 19.2929 29.7883C19.6359 30.6022 20.0552 31.3853 20.546 32.1282C21.4661 33.4709 22.602 34.6694 23.9126 35.6804C24.9453 36.4952 25.6406 36.8927 25.6062 36.9449Z" fill="#263238"/>
<path d="M25.6062 36.9449L25.3436 37.9098L26.042 38.0999L26.4407 37.4958L25.6062 36.9449ZM25.083 36.7168L25.6127 35.8686L25.5862 35.8521L25.5587 35.8372L25.083 36.7168ZM23.8024 35.9086L24.3921 35.1009L24.3861 35.0965L24.38 35.0922L23.8024 35.9086ZM20.2912 32.3498L19.4638 32.9114L19.4653 32.9136L20.2912 32.3498ZM18.9831 29.9122L18.0479 30.2663L18.0525 30.2783L18.0574 30.2903L18.9831 29.9122ZM18.4186 27.7809L19.4066 27.6261L19.4046 27.6145L18.4186 27.7809ZM18.3084 26.3078L19.3083 26.3258L19.3093 26.2673L19.3035 26.209L18.3084 26.3078ZM18.3635 25.7668V24.7668H17.6269L17.4085 25.4703L18.3635 25.7668ZM18.6664 27.7222L19.6455 27.5185L19.6453 27.5177L18.6664 27.7222ZM19.2929 29.7883L18.3655 30.1623L18.3684 30.1695L18.3714 30.1766L19.2929 29.7883ZM20.546 32.1282L19.7116 32.6794L19.7163 32.6865L19.7211 32.6935L20.546 32.1282ZM23.9126 35.6804L24.532 34.8953L24.5234 34.8887L23.9126 35.6804ZM25.8688 35.98C25.7763 35.9548 25.69 35.9169 25.6127 35.8686L24.5532 37.5649C24.7983 37.718 25.0649 37.8339 25.3436 37.9098L25.8688 35.98ZM25.5587 35.8372C25.152 35.6172 24.7622 35.3712 24.3921 35.1009L23.2128 36.7162C23.656 37.0398 24.122 37.3339 24.6072 37.5963L25.5587 35.8372ZM24.38 35.0922C23.091 34.1801 21.9867 33.0601 21.1172 31.7861L19.4653 32.9136C20.4716 34.388 21.7453 35.678 23.2248 36.7249L24.38 35.0922ZM21.1186 31.7882C20.6356 31.0766 20.2304 30.3213 19.9089 29.5341L18.0574 30.2903C18.432 31.2075 18.9033 32.0857 19.4638 32.9114L21.1186 31.7882ZM19.9183 29.5581C19.6809 28.931 19.5096 28.2839 19.4065 27.6261L17.4306 27.9356C17.5551 28.7303 17.7619 29.511 18.0479 30.2663L19.9183 29.5581ZM19.4046 27.6145C19.3327 27.1883 19.3005 26.7571 19.3083 26.3258L17.3086 26.2898C17.2986 26.8448 17.3401 27.3994 17.4325 27.9472L19.4046 27.6145ZM19.3035 26.209C19.2987 26.1607 19.3036 26.1115 19.3185 26.0634L17.4085 25.4703C17.3145 25.7729 17.282 26.0909 17.3133 26.4066L19.3035 26.209ZM18.3635 26.7668C17.7934 26.7668 17.539 26.3289 17.508 26.2751C17.4452 26.1662 17.4217 26.0741 17.4179 26.0599C17.406 26.0152 17.4051 25.9936 17.4107 26.0362C17.4207 26.1122 17.4301 26.2146 17.4511 26.4077C17.4899 26.7645 17.5543 27.289 17.6876 27.9267L19.6453 27.5177C19.5307 26.9691 19.4746 26.5159 19.4394 26.1916C19.4234 26.0442 19.4074 25.8802 19.3936 25.7749C19.3872 25.7268 19.3748 25.636 19.3504 25.5445C19.3404 25.507 19.3104 25.3971 19.2408 25.2764C19.203 25.2108 18.9414 24.7668 18.3635 24.7668V26.7668ZM17.6874 27.9258C17.8461 28.6886 18.073 29.4368 18.3655 30.1623L20.2204 29.4144C19.9721 28.7986 19.7798 28.1643 19.6455 27.5185L17.6874 27.9258ZM18.3714 30.1766C18.7385 31.0478 19.1871 31.8854 19.7116 32.6794L21.3804 31.5771C20.9234 30.8852 20.5333 30.1566 20.2145 29.4L18.3714 30.1766ZM19.7211 32.6935C20.7013 34.1239 21.9098 35.3984 23.3018 36.4722L24.5234 34.8887C23.2941 33.9404 22.2309 32.8179 21.3708 31.5629L19.7211 32.6935ZM23.2932 36.4655C23.8333 36.8916 24.2848 37.2082 24.5885 37.4195C24.7485 37.5309 24.8434 37.5965 24.9015 37.64C24.936 37.6659 24.9179 37.6549 24.8843 37.6218C24.8743 37.612 24.8034 37.5439 24.7384 37.4315C24.7083 37.3793 24.436 36.9024 24.7717 36.3939L26.4407 37.4958C26.7807 36.9808 26.507 36.4947 26.47 36.4306C26.3981 36.3063 26.3148 36.2235 26.2871 36.1962C26.2179 36.1282 26.1431 36.0712 26.1011 36.0398C26.0063 35.9686 25.8692 35.8742 25.7307 35.7777C25.4371 35.5735 25.0245 35.2839 24.5319 34.8953L23.2932 36.4655Z" fill="url(#paint4_linear_99_4304)" mask="url(#path-5-inside-1_99_4304)"/>
<mask id="path-7-inside-2_99_4304" fill="white">
<path d="M28.505 32.1021C28.505 32.1021 28.3535 32.0565 28.1057 31.9131C27.8 31.688 27.5124 31.4418 27.2451 31.1766C26.3565 30.2804 25.5439 29.3193 24.8148 28.3022C24.076 27.2945 23.4024 26.2454 22.7976 25.1606C22.5136 24.7243 22.3154 24.2429 22.2124 23.7397C22.2606 23.7397 22.5084 24.2481 23.0248 25.0433C23.5411 25.8385 24.2571 26.927 25.0902 28.1002C25.9232 29.2734 26.7701 30.3032 27.4103 31.0071C27.7339 31.3526 28.0093 31.6198 28.2021 31.8023C28.3948 31.9848 28.5119 32.076 28.505 32.1021Z"/>
</mask>
<path d="M28.505 32.1021C28.505 32.1021 28.3535 32.0565 28.1057 31.9131C27.8 31.688 27.5124 31.4418 27.2451 31.1766C26.3565 30.2804 25.5439 29.3193 24.8148 28.3022C24.076 27.2945 23.4024 26.2454 22.7976 25.1606C22.5136 24.7243 22.3154 24.2429 22.2124 23.7397C22.2606 23.7397 22.5084 24.2481 23.0248 25.0433C23.5411 25.8385 24.2571 26.927 25.0902 28.1002C25.9232 29.2734 26.7701 30.3032 27.4103 31.0071C27.7339 31.3526 28.0093 31.6198 28.2021 31.8023C28.3948 31.9848 28.5119 32.076 28.505 32.1021Z" fill="#263238"/>
<path d="M28.505 32.1021L28.2166 33.0596L29.2076 33.3581L29.4718 32.3574L28.505 32.1021ZM28.1057 31.9131L27.5127 32.7183L27.5572 32.751L27.6049 32.7787L28.1057 31.9131ZM27.2451 31.1766L26.535 31.8807L26.5407 31.8864L27.2451 31.1766ZM24.8148 28.3022L25.6276 27.7196L25.6213 27.711L24.8148 28.3022ZM22.7976 25.1606L23.671 24.6737L23.6544 24.6438L23.6357 24.6152L22.7976 25.1606ZM22.2124 23.7397L22.2124 22.7397H20.987L21.2327 23.9402L22.2124 23.7397ZM27.4103 31.0071L26.6706 31.68L26.6755 31.6854L26.6805 31.6907L27.4103 31.0071ZM28.505 32.1021C28.7934 31.1446 28.7936 31.1447 28.7938 31.1447C28.7939 31.1447 28.7941 31.1448 28.7942 31.1448C28.7944 31.1449 28.7947 31.145 28.7949 31.1451C28.7954 31.1452 28.7959 31.1454 28.7964 31.1455C28.7974 31.1458 28.7983 31.1461 28.7992 31.1464C28.801 31.1469 28.8027 31.1474 28.8042 31.1479C28.8072 31.1489 28.8097 31.1497 28.8116 31.1503C28.8154 31.1516 28.8171 31.1522 28.8167 31.1521C28.8159 31.1518 28.8068 31.1485 28.7902 31.1414C28.757 31.1272 28.6937 31.098 28.6065 31.0475L27.6049 32.7787C27.7655 32.8716 27.9018 32.9368 28.0063 32.9814C28.0586 33.0036 28.1028 33.0207 28.1382 33.0334C28.1559 33.0398 28.1713 33.0451 28.1844 33.0494C28.191 33.0516 28.1969 33.0535 28.2023 33.0552C28.205 33.0561 28.2075 33.0568 28.2099 33.0576C28.2111 33.0579 28.2122 33.0583 28.2133 33.0586C28.2139 33.0588 28.2144 33.059 28.215 33.0591C28.2152 33.0592 28.2155 33.0593 28.2158 33.0594C28.2159 33.0594 28.2161 33.0595 28.2162 33.0595C28.2164 33.0596 28.2166 33.0596 28.505 32.1021ZM28.6986 31.1078C28.4321 30.9116 28.1818 30.6973 27.9495 30.4668L26.5407 31.8864C26.843 32.1864 27.1679 32.4645 27.5127 32.7183L28.6986 31.1078ZM27.9552 30.4725C27.1037 29.6137 26.3255 28.6931 25.6276 27.7196L24.0021 28.8848C24.7624 29.9454 25.6093 30.9471 26.535 31.8807L27.9552 30.4725ZM25.6213 27.711C24.9068 26.7364 24.2556 25.7221 23.671 24.6737L21.9242 25.6476C22.5492 26.7687 23.2452 27.8527 24.0083 28.8935L25.6213 27.711ZM23.6357 24.6152C23.4192 24.2825 23.2696 23.9179 23.1921 23.5393L21.2327 23.9402C21.3612 24.568 21.608 25.1661 21.9595 25.7061L23.6357 24.6152ZM22.2124 24.7397C21.9992 24.7397 21.8394 24.6717 21.7565 24.6286C21.6692 24.5832 21.6076 24.5344 21.5745 24.5062C21.5097 24.4509 21.4698 24.4012 21.4599 24.3889C21.4359 24.359 21.4273 24.343 21.4424 24.3669C21.4685 24.4081 21.5089 24.477 21.5799 24.5984C21.7139 24.8274 21.9146 25.1699 22.1861 25.5879L23.8635 24.4987C23.6186 24.1216 23.4372 23.8123 23.3061 23.5883C23.2446 23.4832 23.1818 23.3753 23.1317 23.2963C23.1088 23.2601 23.0688 23.1982 23.02 23.1374C22.9977 23.1096 22.9471 23.0483 22.8731 22.9851C22.8463 22.9622 22.6014 22.7397 22.2124 22.7397L22.2124 24.7397ZM22.1861 25.5879C22.7053 26.3874 23.43 27.4893 24.2748 28.6791L25.9056 27.5212C25.0843 26.3646 24.377 25.2895 23.8635 24.4987L22.1861 25.5879ZM24.2748 28.6791C25.1309 29.8848 26.0029 30.946 26.6706 31.68L28.1501 30.3342C27.5372 29.6604 26.7156 28.662 25.9056 27.5212L24.2748 28.6791ZM26.6805 31.6907C27.0218 32.0552 27.3124 32.337 27.5146 32.5285L28.8896 31.0761C28.7062 30.9025 28.446 30.65 28.1402 30.3235L26.6805 31.6907ZM27.5146 32.5285C27.5692 32.5802 27.6178 32.6248 27.6579 32.6614C27.7017 32.7013 27.7258 32.723 27.7469 32.7427C27.7738 32.7677 27.7573 32.7542 27.7308 32.7235C27.7199 32.7108 27.6713 32.6548 27.6241 32.5683C27.5995 32.5232 27.5602 32.4428 27.5336 32.3347C27.5069 32.2257 27.4842 32.051 27.5381 31.8468L29.4718 32.3574C29.5752 31.9661 29.4105 31.6667 29.3796 31.6102C29.3266 31.513 29.2685 31.4441 29.2445 31.4163C29.192 31.3556 29.1355 31.3029 29.1099 31.279C29.02 31.1953 28.9948 31.1757 28.8896 31.0761L27.5146 32.5285Z" fill="url(#paint5_linear_99_4304)" mask="url(#path-7-inside-2_99_4304)"/>
<mask id="path-9-inside-3_99_4304" fill="white">
<path d="M59.8644 19.6465C59.4568 19.7749 59.0405 19.8772 58.6183 19.9528C57.8128 20.1418 56.6562 20.4351 55.2448 20.8458L50.2672 22.3188C48.2425 22.9268 46.1708 23.3844 44.071 23.6875C40.1888 24.1901 36.2363 23.8217 32.5322 22.6121C31.4213 22.2533 30.3398 21.8176 29.2964 21.3085C28.9247 21.1326 28.6561 20.9631 28.4634 20.8588C28.3638 20.8092 28.2713 20.7479 28.188 20.6763C28.5892 20.8219 28.9801 20.9917 29.3584 21.1847C30.4157 21.6554 31.5034 22.0625 32.6148 22.4035C36.2818 23.5276 40.1687 23.8572 43.9883 23.3682C46.0855 23.082 48.1568 22.6463 50.1846 22.0646C52.0641 21.5432 53.7439 21.0348 55.176 20.6567C56.608 20.2787 57.7784 20.005 58.6183 19.8681C59.0245 19.7899 59.3068 19.7508 59.5615 19.7182C59.6575 19.6783 59.7599 19.654 59.8644 19.6465V19.6465Z"/>
</mask>
<path d="M59.8644 19.6465C59.4568 19.7749 59.0405 19.8772 58.6183 19.9528C57.8128 20.1418 56.6562 20.4351 55.2448 20.8458L50.2672 22.3188C48.2425 22.9268 46.1708 23.3844 44.071 23.6875C40.1888 24.1901 36.2363 23.8217 32.5322 22.6121C31.4213 22.2533 30.3398 21.8176 29.2964 21.3085C28.9247 21.1326 28.6561 20.9631 28.4634 20.8588C28.3638 20.8092 28.2713 20.7479 28.188 20.6763C28.5892 20.8219 28.9801 20.9917 29.3584 21.1847C30.4157 21.6554 31.5034 22.0625 32.6148 22.4035C36.2818 23.5276 40.1687 23.8572 43.9883 23.3682C46.0855 23.082 48.1568 22.6463 50.1846 22.0646C52.0641 21.5432 53.7439 21.0348 55.176 20.6567C56.608 20.2787 57.7784 20.005 58.6183 19.8681C59.0245 19.7899 59.3068 19.7508 59.5615 19.7182C59.6575 19.6783 59.7599 19.654 59.8644 19.6465V19.6465Z" fill="#263238"/>
<path d="M58.6183 19.9528L58.442 18.9685L58.4158 18.9732L58.3898 18.9793L58.6183 19.9528ZM55.2448 20.8458L54.9654 19.8856L54.961 19.8869L55.2448 20.8458ZM50.2672 22.3188L49.9834 21.3599L49.9796 21.361L50.2672 22.3188ZM44.071 23.6875L44.1994 24.6793L44.2066 24.6783L44.2138 24.6773L44.071 23.6875ZM32.5322 22.6121L32.8427 21.6615L32.8396 21.6605L32.5322 22.6121ZM29.2964 21.3085L29.735 20.4097L29.7243 20.4047L29.2964 21.3085ZM28.4634 20.8588L28.9392 19.9793L28.9244 19.9713L28.9094 19.9638L28.4634 20.8588ZM28.188 20.6763L28.5291 19.7363L27.5364 21.4348L28.188 20.6763ZM29.3584 21.1847L28.9039 22.0754L28.9275 22.0875L28.9517 22.0983L29.3584 21.1847ZM32.6148 22.4035L32.3215 23.3595L32.3218 23.3596L32.6148 22.4035ZM43.9883 23.3682L44.1154 24.3601L44.1235 24.359L43.9883 23.3682ZM50.1846 22.0646L49.9172 21.101L49.9088 21.1034L50.1846 22.0646ZM58.6183 19.8681L58.7791 20.8551L58.7933 20.8528L58.8074 20.8501L58.6183 19.8681ZM59.5615 19.7182L59.6884 20.7101L59.8215 20.6931L59.9454 20.6416L59.5615 19.7182ZM59.564 18.6927C59.1972 18.8082 58.8223 18.9004 58.442 18.9685L58.7946 20.9372C59.2586 20.8541 59.7164 20.7416 60.1649 20.6003L59.564 18.6927ZM58.3898 18.9793C57.5682 19.1721 56.3945 19.4698 54.9654 19.8856L55.5242 21.8059C56.9178 21.4005 58.0574 21.1116 58.8468 20.9264L58.3898 18.9793ZM54.961 19.8869L49.9834 21.3599L50.5509 23.2777L55.5286 21.8047L54.961 19.8869ZM49.9796 21.361C48.0024 21.9548 45.9791 22.4017 43.9281 22.6978L44.2138 24.6773C46.3625 24.3671 48.4825 23.8988 50.5548 23.2765L49.9796 21.361ZM43.9426 22.6958C40.2073 23.1794 36.4047 22.8247 32.8427 21.6615L32.2218 23.5627C36.0679 24.8187 40.1704 25.2008 44.1994 24.6793L43.9426 22.6958ZM32.8396 21.6605C31.7733 21.3161 30.7356 20.8981 29.7349 20.4098L28.8579 22.2073C29.9439 22.7372 31.0693 23.1905 32.2249 23.5637L32.8396 21.6605ZM29.7243 20.4047C29.379 20.2413 29.2072 20.1243 28.9392 19.9793L27.9876 21.7383C28.1051 21.8019 28.4703 22.0238 28.8686 22.2124L29.7243 20.4047ZM28.9094 19.9638C28.8828 19.9505 28.8595 19.9348 28.8396 19.9178L27.5364 21.4348C27.6831 21.5609 27.8448 21.6678 28.0173 21.7538L28.9094 19.9638ZM27.8469 21.6163C28.2095 21.7479 28.5626 21.9013 28.9039 22.0754L29.8129 20.2939C29.3977 20.0821 28.9689 19.8959 28.5291 19.7363L27.8469 21.6163ZM28.9517 22.0983C30.0461 22.5854 31.1716 23.0067 32.3215 23.3595L32.9082 21.4475C31.8351 21.1183 30.7854 20.7253 29.7651 20.2711L28.9517 22.0983ZM32.3218 23.3596C36.1252 24.5255 40.1553 24.8671 44.1153 24.3601L43.8613 22.3763C40.1821 22.8474 36.4384 22.5297 32.9079 21.4474L32.3218 23.3596ZM44.1235 24.359C46.268 24.0664 48.3863 23.6208 50.4603 23.0258L49.9088 21.1034C47.9273 21.6718 45.903 22.0977 43.8532 22.3773L44.1235 24.359ZM50.4519 23.0282C52.3713 22.4957 53.9988 22.0018 55.4312 21.6236L54.9207 19.6899C53.4891 20.0678 51.7569 20.5906 49.9172 21.101L50.4519 23.0282ZM55.4312 21.6236C56.8571 21.2472 57.9891 20.9838 58.7791 20.8551L58.4575 18.8811C57.5677 19.0261 56.3588 19.3102 54.9207 19.6899L55.4312 21.6236ZM58.8074 20.8501C59.1862 20.7771 59.4463 20.7411 59.6884 20.7101L59.4346 18.7263C59.1673 18.7605 58.8628 18.8026 58.4292 18.8861L58.8074 20.8501ZM59.9454 20.6416C59.9413 20.6433 59.9383 20.6438 59.9365 20.6439L59.7923 18.6491C59.5815 18.6643 59.3737 18.7133 59.1776 18.7948L59.9454 20.6416Z" fill="url(#paint6_linear_99_4304)" mask="url(#path-9-inside-3_99_4304)"/>
<mask id="path-11-inside-4_99_4304" fill="white">
<path d="M60.98 28.6086C60.8724 28.642 60.7618 28.666 60.6495 28.6803L59.6994 28.8237C58.8733 28.9541 57.6753 29.0975 56.1883 29.2408C53.2141 29.5342 49.0833 29.7623 44.4843 29.7688C39.8853 29.7753 35.7889 29.6124 32.7803 29.469L29.3104 29.2604L28.3535 29.1887C28.2397 29.1843 28.1267 29.169 28.0161 29.1431C28.1279 29.1263 28.2417 29.1263 28.3535 29.1431H29.3104L32.8492 29.2278C35.8302 29.3125 39.9542 29.4364 44.5118 29.4299C49.0695 29.4233 53.1796 29.2343 56.1538 28.9997C57.6409 28.8889 58.8457 28.7781 59.6788 28.6933L60.6358 28.6086C60.7497 28.5907 60.866 28.5907 60.98 28.6086V28.6086Z"/>
</mask>
<path d="M60.98 28.6086C60.8724 28.642 60.7618 28.666 60.6495 28.6803L59.6994 28.8237C58.8733 28.9541 57.6753 29.0975 56.1883 29.2408C53.2141 29.5342 49.0833 29.7623 44.4843 29.7688C39.8853 29.7753 35.7889 29.6124 32.7803 29.469L29.3104 29.2604L28.3535 29.1887C28.2397 29.1843 28.1267 29.169 28.0161 29.1431C28.1279 29.1263 28.2417 29.1263 28.3535 29.1431H29.3104L32.8492 29.2278C35.8302 29.3125 39.9542 29.4364 44.5118 29.4299C49.0695 29.4233 53.1796 29.2343 56.1538 28.9997C57.6409 28.8889 58.8457 28.7781 59.6788 28.6933L60.6358 28.6086C60.7497 28.5907 60.866 28.5907 60.98 28.6086V28.6086Z" fill="#263238"/>
<path d="M60.6495 28.6803L60.523 27.6884L60.5116 27.6898L60.5003 27.6915L60.6495 28.6803ZM59.6994 28.8237L59.5502 27.8349L59.5436 27.8359L59.6994 28.8237ZM56.1883 29.2408L56.0923 28.2455L56.0901 28.2457L56.1883 29.2408ZM32.7803 29.469L32.7203 30.4672L32.7327 30.4678L32.7803 29.469ZM29.3104 29.2604L29.2357 30.2576L29.2431 30.2582L29.2504 30.2586L29.3104 29.2604ZM28.3535 29.1887L28.4282 28.1915L28.4103 28.1902L28.3924 28.1895L28.3535 29.1887ZM28.0161 29.1431L27.8672 28.1542L27.7879 30.1167L28.0161 29.1431ZM28.3535 29.1431L28.2046 30.1319L28.2786 30.1431H28.3535V29.1431ZM29.3104 29.1431L29.3344 28.1434L29.3224 28.1431H29.3104V29.1431ZM32.8492 29.2278L32.8776 28.2282L32.8731 28.2281L32.8492 29.2278ZM56.1538 28.9997L56.0795 28.0024L56.0752 28.0028L56.1538 28.9997ZM59.6788 28.6933L59.5906 27.6972L59.5776 27.6985L59.6788 28.6933ZM60.6358 28.6086L60.724 29.6047L60.7575 29.6018L60.7907 29.5965L60.6358 28.6086ZM60.6838 27.6535C60.6318 27.6696 60.5779 27.6813 60.523 27.6884L60.7761 29.6723C60.9456 29.6506 61.113 29.6144 61.2762 29.5637L60.6838 27.6535ZM60.5003 27.6915L59.5502 27.8349L59.8487 29.8125L60.7988 29.6691L60.5003 27.6915ZM59.5436 27.8359C58.7463 27.9617 57.5711 28.1029 56.0923 28.2455L56.2842 30.2362C57.7796 30.092 59.0003 29.9464 59.8553 29.8115L59.5436 27.8359ZM56.0901 28.2457C53.1509 28.5355 49.0525 28.7623 44.4829 28.7688L44.4857 30.7688C49.114 30.7622 53.2773 30.5328 56.2864 30.236L56.0901 28.2457ZM44.4829 28.7688C39.9074 28.7753 35.8295 28.6132 32.8279 28.4701L32.7327 30.4678C35.7484 30.6116 39.8632 30.7753 44.4857 30.7688L44.4829 28.7688ZM32.8403 28.4708L29.3704 28.2622L29.2504 30.2586L32.7203 30.4672L32.8403 28.4708ZM29.3851 28.2632L28.4282 28.1915L28.2788 30.1859L29.2357 30.2576L29.3851 28.2632ZM28.3924 28.1895C28.3422 28.1875 28.2925 28.1808 28.2443 28.1695L27.7879 30.1167C27.9608 30.1572 28.1372 30.181 28.3145 30.1879L28.3924 28.1895ZM28.165 30.1319C28.178 30.13 28.1915 30.13 28.2046 30.1319L28.5023 28.1542C28.2919 28.1225 28.0777 28.1225 27.8672 28.1542L28.165 30.1319ZM28.3535 30.1431H29.3104V28.1431H28.3535V30.1431ZM29.2865 30.1428L32.8252 30.2275L32.8731 28.2281L29.3344 28.1434L29.2865 30.1428ZM32.8208 30.2274C35.8 30.3121 39.9384 30.4364 44.5133 30.4299L44.5104 28.4299C39.9699 28.4364 35.8605 28.313 32.8776 28.2282L32.8208 30.2274ZM44.5133 30.4299C49.0956 30.4233 53.2316 30.2333 56.2325 29.9966L56.0752 28.0028C53.1277 28.2353 49.0434 28.4234 44.5104 28.4299L44.5133 30.4299ZM56.2281 29.9969C57.7243 29.8854 58.9381 29.7738 59.78 29.6882L59.5776 27.6985C58.7534 27.7823 57.5575 27.8923 56.0795 28.0025L56.2281 29.9969ZM59.767 29.6895L60.724 29.6047L60.5476 27.6125L59.5906 27.6972L59.767 29.6895ZM60.7907 29.5965C60.802 29.5948 60.8138 29.5948 60.8251 29.5965L61.1349 27.6207C60.9183 27.5867 60.6975 27.5867 60.4809 27.6207L60.7907 29.5965Z" fill="url(#paint7_linear_99_4304)" mask="url(#path-11-inside-4_99_4304)"/>
<mask id="path-13-inside-5_99_4304" fill="white">
<path d="M60.4842 34.5593C60.1062 34.7116 59.7145 34.8316 59.3138 34.9178C58.9352 35.0286 58.467 35.1264 57.9369 35.2437C57.4068 35.361 56.7596 35.4849 56.0574 35.5826C52.4129 36.1325 48.7318 36.4375 45.0419 36.4951C40.7252 36.6124 36.8147 36.4951 34.0264 36.2865C32.6494 36.1888 31.4721 36.0715 30.6873 35.9737C30.2792 35.9314 29.8744 35.8639 29.4756 35.7716C29.8855 35.7618 30.2955 35.7857 30.7011 35.8433C31.4928 35.8955 32.6288 35.9802 34.0401 36.0454C36.856 36.1692 40.7596 36.2735 45.0556 36.1562C48.7412 36.0948 52.4196 35.825 56.0711 35.348C56.7596 35.2632 57.3999 35.159 57.9506 35.0547C58.5014 34.9504 58.9765 34.8787 59.3276 34.7875C59.708 34.6897 60.0942 34.6135 60.4842 34.5593Z"/>
</mask>
<path d="M60.4842 34.5593C60.1062 34.7116 59.7145 34.8316 59.3138 34.9178C58.9352 35.0286 58.467 35.1264 57.9369 35.2437C57.4068 35.361 56.7596 35.4849 56.0574 35.5826C52.4129 36.1325 48.7318 36.4375 45.0419 36.4951C40.7252 36.6124 36.8147 36.4951 34.0264 36.2865C32.6494 36.1888 31.4721 36.0715 30.6873 35.9737C30.2792 35.9314 29.8744 35.8639 29.4756 35.7716C29.8855 35.7618 30.2955 35.7857 30.7011 35.8433C31.4928 35.8955 32.6288 35.9802 34.0401 36.0454C36.856 36.1692 40.7596 36.2735 45.0556 36.1562C48.7412 36.0948 52.4196 35.825 56.0711 35.348C56.7596 35.2632 57.3999 35.159 57.9506 35.0547C58.5014 34.9504 58.9765 34.8787 59.3276 34.7875C59.708 34.6897 60.0942 34.6135 60.4842 34.5593Z" fill="#263238"/>
<path d="M60.4842 34.5593L60.8579 35.4869L60.3467 33.5688L60.4842 34.5593ZM59.3138 34.9178L59.1035 33.9402L59.0679 33.9478L59.033 33.9581L59.3138 34.9178ZM56.0574 35.5826L55.9195 34.5921L55.9082 34.5938L56.0574 35.5826ZM45.0419 36.4951L45.0262 35.4952L45.0147 35.4955L45.0419 36.4951ZM34.0264 36.2865L34.101 35.2893L34.0972 35.2891L34.0264 36.2865ZM30.6873 35.9737L30.8109 34.9814L30.8006 34.9801L30.7903 34.979L30.6873 35.9737ZM29.4756 35.7716L29.4515 34.7719L29.2502 36.7459L29.4756 35.7716ZM30.7011 35.8433L30.5604 36.8334L30.5977 36.8387L30.6353 36.8412L30.7011 35.8433ZM34.0401 36.0454L33.994 37.0443L33.9962 37.0444L34.0401 36.0454ZM45.0556 36.1562L45.039 35.1563L45.0283 35.1566L45.0556 36.1562ZM56.0711 35.348L55.949 34.3554L55.9416 34.3564L56.0711 35.348ZM59.3276 34.7875L59.0786 33.8189L59.0761 33.8196L59.3276 34.7875ZM60.1105 33.6318C59.7857 33.7627 59.4487 33.8659 59.1035 33.9402L59.5241 35.8954C59.9803 35.7973 60.4266 35.6606 60.8579 35.4869L60.1105 33.6318ZM59.033 33.9581C58.6959 34.0567 58.2751 34.1446 57.7208 34.2673L58.153 36.2201C58.6589 36.1081 59.1744 36.0005 59.5947 35.8776L59.033 33.9581ZM57.7208 34.2673C57.2124 34.3798 56.5916 34.4986 55.9195 34.5922L56.1952 36.5731C56.9276 36.4711 57.6011 36.3422 58.153 36.2201L57.7208 34.2673ZM55.9082 34.5938C52.308 35.137 48.6715 35.4383 45.0262 35.4952L45.0575 37.495C48.7921 37.4366 52.5178 37.128 56.2066 36.5714L55.9082 34.5938ZM45.0147 35.4955C40.7293 35.612 36.8529 35.4952 34.101 35.2893L33.9518 37.2838C36.7764 37.495 40.721 37.6129 45.069 37.4947L45.0147 35.4955ZM34.0972 35.2891C32.7345 35.1923 31.5751 35.0766 30.8109 34.9814L30.5637 36.966C31.3692 37.0664 32.5644 37.1853 33.9555 37.284L34.0972 35.2891ZM30.7903 34.979C30.4233 34.941 30.0594 34.8803 29.701 34.7974L29.2502 36.7459C29.6894 36.8475 30.135 36.9218 30.5843 36.9684L30.7903 34.979ZM29.4997 36.7713C29.8546 36.7628 30.2095 36.7836 30.5604 36.8334L30.8417 34.8533C30.3816 34.7879 29.9164 34.7607 29.4515 34.7719L29.4997 36.7713ZM30.6353 36.8412C31.4185 36.8928 32.5698 36.9786 33.994 37.0443L34.0863 35.0465C32.6878 34.9819 31.5671 34.8982 30.7668 34.8455L30.6353 36.8412ZM33.9962 37.0444C36.827 37.1689 40.7557 37.274 45.0829 37.1558L45.0283 35.1566C40.7635 35.273 36.885 35.1695 34.0841 35.0464L33.9962 37.0444ZM45.0723 37.1561C48.7956 37.0941 52.5116 36.8214 56.2006 36.3396L55.9416 34.3564C52.3275 34.8285 48.6868 35.0956 45.039 35.1563L45.0723 37.1561ZM56.1933 36.3405C56.9053 36.2529 57.567 36.1451 58.1367 36.0372L57.7646 34.0721C57.2327 34.1728 56.6139 34.2736 55.949 34.3555L56.1933 36.3405ZM58.1367 36.0372C58.6267 35.9444 59.1854 35.8576 59.5791 35.7553L59.0761 33.8196C58.7675 33.8998 58.3761 33.9563 57.7646 34.0721L58.1367 36.0372ZM59.5765 35.756C59.9202 35.6676 60.2692 35.5988 60.6218 35.5498L60.3467 33.5688C59.9192 33.6282 59.4958 33.7117 59.0786 33.8189L59.5765 35.756Z" fill="url(#paint8_linear_99_4304)" mask="url(#path-13-inside-5_99_4304)"/>
<mask id="path-15-inside-6_99_4304" fill="white">
<path d="M59.6032 42.6999C59.2338 42.7787 58.8587 42.831 58.481 42.8563C57.7925 42.9346 56.7048 43.0258 55.4036 43.1301C52.8011 43.3191 49.2073 43.5146 45.2142 43.5603C41.2211 43.6059 37.641 43.469 35.018 43.2474C33.7168 43.1301 32.6634 43.0193 31.9405 42.8954C31.5642 42.8559 31.1915 42.7905 30.8252 42.6999C31.2052 42.6894 31.5853 42.7112 31.9612 42.7651C32.6496 42.8433 33.7374 42.9215 35.0317 43.0063C37.6342 43.1692 41.228 43.2735 45.2073 43.2213C49.1867 43.1692 52.7805 43.0193 55.3829 42.8889L58.4672 42.726C58.8444 42.6858 59.2245 42.6771 59.6032 42.6999V42.6999Z"/>
</mask>
<path d="M59.6032 42.6999C59.2338 42.7787 58.8587 42.831 58.481 42.8563C57.7925 42.9346 56.7048 43.0258 55.4036 43.1301C52.8011 43.3191 49.2073 43.5146 45.2142 43.5603C41.2211 43.6059 37.641 43.469 35.018 43.2474C33.7168 43.1301 32.6634 43.0193 31.9405 42.8954C31.5642 42.8559 31.1915 42.7905 30.8252 42.6999C31.2052 42.6894 31.5853 42.7112 31.9612 42.7651C32.6496 42.8433 33.7374 42.9215 35.0317 43.0063C37.6342 43.1692 41.228 43.2735 45.2073 43.2213C49.1867 43.1692 52.7805 43.0193 55.3829 42.8889L58.4672 42.726C58.8444 42.6858 59.2245 42.6771 59.6032 42.6999V42.6999Z" fill="#263238"/>
<path d="M58.481 42.8563L58.4141 41.8586L58.3911 41.8601L58.3681 41.8627L58.481 42.8563ZM55.4035 43.1301L55.476 44.1275L55.4834 44.1269L55.4035 43.1301ZM35.018 43.2474L34.9282 44.2434L34.9338 44.2439L35.018 43.2474ZM31.9405 42.8954L32.1094 41.9098L32.0774 41.9043L32.0451 41.9009L31.9405 42.8954ZM30.8252 42.6999L30.7974 41.7003L30.5851 43.6707L30.8252 42.6999ZM31.9612 42.7651L31.8192 43.755L31.8337 43.757L31.8483 43.7587L31.9612 42.7651ZM35.0317 43.0062L34.9664 44.0041L34.9693 44.0043L35.0317 43.0062ZM55.3829 42.8889L55.4329 43.8877L55.4357 43.8875L55.3829 42.8889ZM58.4672 42.726L58.52 43.7246L58.5467 43.7232L58.5732 43.7204L58.4672 42.726ZM59.3946 41.7219C59.072 41.7907 58.7442 41.8364 58.4141 41.8586L58.5479 43.8541C58.9732 43.8256 59.3957 43.7667 59.8118 43.6779L59.3946 41.7219ZM58.3681 41.8627C57.6994 41.9387 56.6294 42.0286 55.3237 42.1333L55.4834 44.1269C56.7802 44.023 57.8857 43.9304 58.5939 43.8499L58.3681 41.8627ZM55.3311 42.1327C52.7442 42.3206 49.1713 42.515 45.2028 42.5603L45.2256 44.5602C49.2434 44.5143 52.858 44.3176 55.476 44.1275L55.3311 42.1327ZM45.2028 42.5603C41.2363 42.6057 37.6886 42.4695 35.1022 42.251L34.9338 44.2439C37.5935 44.4686 41.2059 44.6061 45.2256 44.5602L45.2028 42.5603ZM35.1078 42.2515C33.8033 42.1338 32.7876 42.026 32.1094 41.9098L31.7717 43.8811C32.5393 44.0126 33.6303 44.1263 34.9282 44.2434L35.1078 42.2515ZM32.0451 41.9009C31.7144 41.8661 31.3869 41.8087 31.0653 41.7292L30.5851 43.6707C30.9961 43.7723 31.4141 43.8456 31.8359 43.89L32.0451 41.9009ZM30.853 43.6995C31.1762 43.6905 31.4996 43.7091 31.8192 43.755L32.1032 41.7752C31.6711 41.7132 31.2341 41.6882 30.7974 41.7003L30.853 43.6995ZM31.8483 43.7587C32.5649 43.8401 33.6774 43.9197 34.9664 44.0041L35.0971 42.0084C33.7974 41.9233 32.7344 41.8465 32.0741 41.7715L31.8483 43.7587ZM34.9693 44.0043C37.5988 44.1689 41.2179 44.2737 45.2204 44.2213L45.1942 42.2214C41.238 42.2733 37.6695 42.1695 35.0942 42.0082L34.9693 44.0043ZM45.2204 44.2213C49.2162 44.1689 52.8232 44.0184 55.4329 43.8877L55.3329 41.8902C52.7378 42.0202 49.1571 42.1695 45.1942 42.2214L45.2204 44.2213ZM55.4357 43.8875L58.52 43.7246L58.4145 41.7274L55.3301 41.8903L55.4357 43.8875ZM58.5732 43.7204C58.8951 43.686 59.2196 43.6786 59.543 43.6981L59.6635 41.7017C59.2293 41.6755 58.7936 41.6855 58.3612 41.7316L58.5732 43.7204Z" fill="url(#paint9_linear_99_4304)" mask="url(#path-15-inside-6_99_4304)"/>
<mask id="path-17-inside-7_99_4304" fill="white">
<path d="M61.2826 50.7168C60.8735 50.7335 60.4636 50.7182 60.0572 50.6712L56.7181 50.4496C53.9023 50.2736 49.9986 50.0911 45.7026 50.0911C41.4066 50.0911 37.4892 50.2736 34.6871 50.4496L31.348 50.6712C30.9416 50.7182 30.5317 50.7335 30.1226 50.7168C30.5214 50.6306 30.9264 50.5718 31.3343 50.5409C32.1191 50.4431 33.2551 50.3323 34.6664 50.2084C37.4823 49.9738 41.3928 49.7522 45.6819 49.7522C49.9711 49.7522 53.9023 49.9738 56.6974 50.2084C58.0744 50.3258 59.2448 50.4431 60.0296 50.5409C60.4513 50.5699 60.8702 50.6287 61.2826 50.7168V50.7168Z"/>
</mask>
<path d="M61.2826 50.7168C60.8735 50.7335 60.4636 50.7182 60.0572 50.6712L56.7181 50.4496C53.9023 50.2736 49.9986 50.0911 45.7026 50.0911C41.4066 50.0911 37.4892 50.2736 34.6871 50.4496L31.348 50.6712C30.9416 50.7182 30.5317 50.7335 30.1226 50.7168C30.5214 50.6306 30.9264 50.5718 31.3343 50.5409C32.1191 50.4431 33.2551 50.3323 34.6664 50.2084C37.4823 49.9738 41.3928 49.7522 45.6819 49.7522C49.9711 49.7522 53.9023 49.9738 56.6974 50.2084C58.0744 50.3258 59.2448 50.4431 60.0296 50.5409C60.4513 50.5699 60.8702 50.6287 61.2826 50.7168V50.7168Z" fill="#263238"/>
<path d="M60.0572 50.6712L60.1721 49.6778L60.1478 49.675L60.1234 49.6734L60.0572 50.6712ZM56.7181 50.4496L56.7843 49.4518L56.7805 49.4516L56.7181 50.4496ZM34.6871 50.4496L34.6244 49.4516L34.6209 49.4518L34.6871 50.4496ZM31.348 50.6712L31.2818 49.6734L31.2574 49.675L31.2331 49.6778L31.348 50.6712ZM30.1226 50.7168L29.9112 49.7394L30.0819 51.716L30.1226 50.7168ZM31.3343 50.5409L31.4098 51.538L31.4339 51.5362L31.4579 51.5332L31.3343 50.5409ZM34.6664 50.2084L34.5834 49.2119L34.579 49.2123L34.6664 50.2084ZM56.6974 50.2084L56.7823 49.2121L56.7811 49.212L56.6974 50.2084ZM60.0296 50.5409L59.906 51.5332L59.9334 51.5366L59.961 51.5385L60.0296 50.5409ZM61.242 49.7177C60.8847 49.7322 60.5269 49.7189 60.1721 49.6778L59.9423 51.6646C60.4004 51.7176 60.8623 51.7348 61.3233 51.716L61.242 49.7177ZM60.1234 49.6734L56.7843 49.4518L56.6519 51.4474L59.9909 51.669L60.1234 49.6734ZM56.7805 49.4516C53.9511 49.2747 50.0256 49.0911 45.7026 49.0911V51.0911C49.9717 51.0911 53.8534 51.2725 56.6557 51.4477L56.7805 49.4516ZM45.7026 49.0911C41.3797 49.0911 37.4404 49.2747 34.6244 49.4516L34.7498 51.4476C37.5379 51.2725 41.4334 51.0911 45.7026 51.0911V49.0911ZM34.6209 49.4518L31.2818 49.6734L31.4143 51.669L34.7533 51.4474L34.6209 49.4518ZM31.2331 49.6778C30.8783 49.7189 30.5205 49.7322 30.1632 49.7177L30.0819 51.716C30.5429 51.7348 31.0048 51.7176 31.4629 51.6646L31.2331 49.6778ZM30.3339 51.6943C30.6879 51.6177 31.0475 51.5655 31.4098 51.538L31.2587 49.5437C30.8053 49.5781 30.3549 49.6435 29.9112 49.7394L30.3339 51.6943ZM31.4579 51.5332C32.2233 51.4378 33.3438 51.3283 34.7539 51.2046L34.579 49.2123C33.1664 49.3362 32.0149 49.4483 31.2107 49.5485L31.4579 51.5332ZM34.7495 51.205C37.543 50.9722 41.4254 50.7522 45.6819 50.7522V48.7522C41.3602 48.7522 37.4216 48.9754 34.5834 49.2119L34.7495 51.205ZM45.6819 50.7522C49.9388 50.7522 53.8417 50.9722 56.6138 51.2049L56.7811 49.212C53.9629 48.9754 50.0034 48.7522 45.6819 48.7522V50.7522ZM56.6125 51.2048C57.9839 51.3217 59.1397 51.4377 59.906 51.5332L60.1532 49.5485C59.3498 49.4484 58.1649 49.3299 56.7823 49.2121L56.6125 51.2048ZM59.961 51.5385C60.3356 51.5643 60.7076 51.6165 61.0736 51.6948L61.4916 49.7389C61.0328 49.6409 60.5671 49.5755 60.0983 49.5432L59.961 51.5385Z" fill="url(#paint10_linear_99_4304)" mask="url(#path-17-inside-7_99_4304)"/>
<mask id="path-19-inside-8_99_4304" fill="white">
<path d="M64.5463 22.1362C64.2681 23.1349 63.8016 24.0777 63.1694 24.9193C62.637 25.8212 61.9373 26.6248 61.104 27.2918C61.0214 27.2332 61.9095 26.1577 62.8389 24.7369C63.7684 23.316 64.4224 22.0906 64.5463 22.1362Z"/>
</mask>
<path d="M64.5463 22.1362C64.2681 23.1349 63.8016 24.0777 63.1694 24.9193C62.637 25.8212 61.9373 26.6248 61.104 27.2918C61.0214 27.2332 61.9095 26.1577 62.8389 24.7369C63.7684 23.316 64.4224 22.0906 64.5463 22.1362Z" fill="#263238"/>
<path d="M64.5463 22.1362L65.5096 22.4047L65.7571 21.5164L64.8918 21.1978L64.5463 22.1362ZM63.1694 24.9193L62.3698 24.3188L62.3365 24.3631L62.3083 24.411L63.1694 24.9193ZM61.104 27.2918L60.525 28.1072L61.14 28.5439L61.7289 28.0726L61.104 27.2918ZM63.583 21.8678C63.3387 22.7446 62.9284 23.5751 62.3698 24.3188L63.9689 25.5199C64.6748 24.5803 65.1974 23.5251 65.5096 22.4047L63.583 21.8678ZM62.3083 24.411C61.8386 25.2064 61.2197 25.9183 60.4791 26.5111L61.7289 28.0726C62.655 27.3313 63.4353 26.4359 64.0305 25.4277L62.3083 24.411ZM61.6829 26.4765C62.2104 26.851 62.0862 27.434 62.0818 27.4573C62.0592 27.5752 62.0196 27.6534 62.0177 27.6572C62.0055 27.6826 62.0061 27.6765 62.0455 27.6164C62.1167 27.5079 62.2343 27.3436 62.4025 27.1108C62.7279 26.6604 63.1962 26.0175 63.6758 25.2843L62.0021 24.1894C61.5522 24.8771 61.1117 25.4823 60.7814 25.9395C60.6217 26.1605 60.4746 26.3649 60.3735 26.519C60.3268 26.5901 60.2643 26.6888 60.2156 26.7898C60.1956 26.8314 60.1445 26.9401 60.1175 27.0809C60.1087 27.127 59.9872 27.7253 60.525 28.1072L61.6829 26.4765ZM63.6758 25.2843C64.1501 24.5592 64.5591 23.876 64.8456 23.4118C64.995 23.1698 65.1009 23.004 65.1719 22.9045C65.2114 22.8492 65.2132 22.8528 65.1866 22.8798C65.1769 22.8895 65.1176 22.9503 65.0163 23.0087C64.9449 23.0499 64.6165 23.2277 64.2008 23.0747L64.8918 21.1978C64.4606 21.0391 64.1127 21.2211 64.0176 21.2759C63.8926 21.348 63.8056 21.4318 63.7645 21.4735C63.6747 21.5642 63.5978 21.6672 63.544 21.7426C63.4285 21.9044 63.2895 22.1251 63.1437 22.3614C62.8399 22.8537 62.4572 23.4937 62.0021 24.1894L63.6758 25.2843Z" fill="url(#paint11_linear_99_4304)" mask="url(#path-19-inside-8_99_4304)"/>
<mask id="path-21-inside-9_99_4304" fill="white">
<path d="M27.3482 25.7927C27.4546 26.0598 27.5285 26.3375 27.5685 26.6205L28.0848 28.9082C28.5254 30.9092 29.1106 33.5424 29.7578 36.4559C30.405 39.3693 30.9557 42.0807 31.3275 44.0231C31.5065 44.9942 31.6442 45.7829 31.7268 46.3304C31.7825 46.6141 31.8102 46.9021 31.8094 47.1907C31.7038 46.9211 31.63 46.6413 31.5891 46.3564L31.0728 44.0687C30.6322 42.0742 30.047 39.4345 29.4067 36.521C28.7664 33.6076 28.2019 30.9027 27.837 28.9539C27.6511 27.9827 27.5134 27.1941 27.4308 26.6466C27.3752 26.365 27.3475 26.0792 27.3482 25.7927V25.7927Z"/>
</mask>
<path d="M27.3482 25.7927C27.4546 26.0598 27.5285 26.3375 27.5685 26.6205L28.0848 28.9082C28.5254 30.9092 29.1106 33.5424 29.7578 36.4559C30.405 39.3693 30.9557 42.0807 31.3275 44.0231C31.5065 44.9942 31.6442 45.7829 31.7268 46.3304C31.7825 46.6141 31.8102 46.9021 31.8094 47.1907C31.7038 46.9211 31.63 46.6413 31.5891 46.3564L31.0728 44.0687C30.6322 42.0742 30.047 39.4345 29.4067 36.521C28.7664 33.6076 28.2019 30.9027 27.837 28.9539C27.6511 27.9827 27.5134 27.1941 27.4308 26.6466C27.3752 26.365 27.3475 26.0792 27.3482 25.7927V25.7927Z" fill="#263238"/>
<path d="M27.5685 26.6205L26.5783 26.7603L26.584 26.8008L26.593 26.8406L27.5685 26.6205ZM28.0848 28.9082L29.0614 28.6932L29.0603 28.6881L28.0848 28.9082ZM31.3275 44.0231L32.311 43.8418L32.3097 43.8351L31.3275 44.0231ZM31.7268 46.3304L30.738 46.4796L30.7413 46.5014L30.7456 46.523L31.7268 46.3304ZM31.8094 47.1907L30.8783 47.5555L32.8094 47.1933L31.8094 47.1907ZM31.5891 46.3564L32.579 46.2146L32.5734 46.1751L32.5646 46.1363L31.5891 46.3564ZM31.0728 44.0687L30.0963 44.2844L30.0973 44.2888L31.0728 44.0687ZM27.837 28.9539L28.8199 28.7698L28.8191 28.7659L27.837 28.9539ZM27.4308 26.6466L28.4196 26.4973L28.4162 26.475L28.4118 26.4529L27.4308 26.6466ZM26.4192 26.1629C26.4963 26.3564 26.5496 26.5568 26.5783 26.7603L28.5586 26.4807C28.5075 26.1183 28.4129 25.7632 28.2771 25.4225L26.4192 26.1629ZM26.593 26.8406L27.1094 29.1284L29.0603 28.6881L28.5439 26.4003L26.593 26.8406ZM27.1082 29.1233C27.5491 31.1254 28.1345 33.7597 28.7816 36.6727L30.734 36.239C30.0867 33.3251 29.5018 30.693 29.0614 28.6932L27.1082 29.1233ZM28.7816 36.6727C29.4265 39.5761 29.9753 42.2778 30.3454 44.211L32.3097 43.8351C31.9362 41.8836 31.3834 39.1626 30.734 36.239L28.7816 36.6727ZM30.3441 44.2043C30.5228 45.1736 30.658 45.949 30.738 46.4796L32.7156 46.1811C32.6305 45.6167 32.4903 44.8148 32.311 43.8418L30.3441 44.2043ZM30.7456 46.523C30.7887 46.7425 30.81 46.9652 30.8095 47.1881L32.8094 47.1933C32.8104 46.839 32.7764 46.4856 32.7081 46.1377L30.7456 46.523ZM32.7405 46.8259C32.6629 46.6277 32.6088 46.4227 32.579 46.2146L30.5992 46.4982C30.6511 46.8599 30.7448 47.2145 30.8783 47.5555L32.7405 46.8259ZM32.5646 46.1363L32.0482 43.8485L30.0973 44.2888L30.6137 46.5766L32.5646 46.1363ZM32.0492 43.853C31.6084 41.8576 31.0235 39.2192 30.3834 36.3064L28.43 36.7357C29.0704 39.6499 29.6559 42.2908 30.0963 44.2844L32.0492 43.853ZM30.3834 36.3064C29.744 33.397 29.182 30.7037 28.8199 28.7698L26.8541 29.1379C27.2217 31.1017 27.7888 33.8182 28.43 36.7357L30.3834 36.3064ZM28.8191 28.7659C28.6345 27.8011 28.4994 27.0267 28.4196 26.4973L26.442 26.7958C26.5273 27.3614 26.6677 28.1643 26.8548 29.1419L28.8191 28.7659ZM28.4118 26.4529C28.369 26.2357 28.3477 26.0155 28.3482 25.7949L26.3482 25.7905C26.3474 26.1428 26.3814 26.4943 26.4497 26.8403L28.4118 26.4529Z" fill="url(#paint12_linear_99_4304)" mask="url(#path-21-inside-9_99_4304)"/>
<mask id="path-23-inside-10_99_4304" fill="white">
<path d="M61.1591 29.2993C61.1851 29.5159 61.1851 29.7345 61.1591 29.9511C61.1591 30.3748 61.1178 30.9874 61.0834 31.7435C61.0008 33.2491 60.8631 35.3348 60.6909 37.6095C60.5188 39.8843 60.3398 41.996 60.1953 43.4756C60.1195 44.2316 60.0576 44.8443 60.0025 45.2615C59.9899 45.4822 59.9506 45.7009 59.8854 45.9132C59.8507 45.6972 59.8507 45.4775 59.8854 45.2615C59.8854 44.8378 59.8854 44.2251 59.9612 43.4691C60.0438 41.9634 60.1815 39.8777 60.3536 37.603C60.5257 35.3283 60.7047 33.2165 60.8493 31.737C60.9181 30.9809 60.987 30.3748 61.0421 29.9511C61.0446 29.7294 61.0841 29.5094 61.1591 29.2993V29.2993Z"/>
</mask>
<path d="M61.1591 29.2993C61.1851 29.5159 61.1851 29.7345 61.1591 29.9511C61.1591 30.3748 61.1178 30.9874 61.0834 31.7435C61.0008 33.2491 60.8631 35.3348 60.6909 37.6095C60.5188 39.8843 60.3398 41.996 60.1953 43.4756C60.1195 44.2316 60.0576 44.8443 60.0025 45.2615C59.9899 45.4822 59.9506 45.7009 59.8854 45.9132C59.8507 45.6972 59.8507 45.4775 59.8854 45.2615C59.8854 44.8378 59.8854 44.2251 59.9612 43.4691C60.0438 41.9634 60.1815 39.8777 60.3536 37.603C60.5257 35.3283 60.7047 33.2165 60.8493 31.737C60.9181 30.9809 60.987 30.3748 61.0421 29.9511C61.0446 29.7294 61.0841 29.5094 61.1591 29.2993V29.2993Z" fill="#263238"/>
<path d="M61.1591 29.9511L60.1662 29.832L60.1591 29.8913V29.9511H61.1591ZM61.0834 31.7435L62.0819 31.7983L62.0823 31.789L61.0834 31.7435ZM60.1953 43.4756L61.1903 43.5752L61.1905 43.5728L60.1953 43.4756ZM60.0025 45.2615L59.0111 45.1306L59.0062 45.1674L59.0041 45.2045L60.0025 45.2615ZM59.8854 45.9132L58.8981 46.0721L60.8414 46.2067L59.8854 45.9132ZM59.8854 45.2615L60.8727 45.4203L60.8854 45.3414V45.2615H59.8854ZM59.9612 43.4691L60.9562 43.5687L60.9584 43.5463L60.9597 43.5238L59.9612 43.4691ZM60.8493 31.737L61.8446 31.8342L61.8452 31.8277L60.8493 31.737ZM61.0421 29.9511L62.0337 30.08L62.0413 30.0215L62.042 29.9624L61.0421 29.9511ZM60.1662 29.4184C60.1827 29.5559 60.1827 29.6945 60.1662 29.832L62.152 30.0702C62.1875 29.7745 62.1875 29.4759 62.152 29.1802L60.1662 29.4184ZM60.1591 29.9511C60.1591 30.3447 60.1206 30.903 60.0844 31.698L62.0823 31.789C62.115 31.0718 62.1591 30.4048 62.1591 29.9511H60.1591ZM60.0849 31.6887C60.0027 33.1857 59.8655 35.2643 59.6938 37.5341L61.6881 37.685C61.8606 35.4054 61.9988 33.3125 62.0819 31.7983L60.0849 31.6887ZM59.6938 37.5341C59.522 39.8046 59.3436 41.9085 59.2 43.3783L61.1905 43.5728C61.336 42.0835 61.5157 39.9639 61.6881 37.685L59.6938 37.5341ZM59.2002 43.3759C59.1238 44.1385 59.0636 44.7327 59.0111 45.1306L60.9939 45.3924C61.0515 44.9559 61.1152 44.3248 61.1903 43.5752L59.2002 43.3759ZM59.0041 45.2045C58.9961 45.3447 58.9712 45.484 58.9295 45.6197L60.8414 46.2067C60.9301 45.9179 60.9837 45.6198 61.0009 45.3184L59.0041 45.2045ZM60.8727 45.7544C60.8549 45.6436 60.8549 45.5311 60.8727 45.4203L58.8981 45.1026C58.8465 45.4238 58.8465 45.7509 58.8981 46.0721L60.8727 45.7544ZM60.8854 45.2615C60.8854 44.8419 60.8858 44.2717 60.9562 43.5687L58.9661 43.3694C58.8851 44.1786 58.8854 44.8337 58.8854 45.2615H60.8854ZM60.9597 43.5238C61.0418 42.0269 61.179 39.9483 61.3507 37.6785L59.3564 37.5276C59.184 39.8072 59.0458 41.9 58.9627 43.4143L60.9597 43.5238ZM61.3507 37.6785C61.5225 35.408 61.7009 33.304 61.8445 31.8342L59.854 31.6397C59.7085 33.129 59.5289 35.2486 59.3564 37.5276L61.3507 37.6785ZM61.8452 31.8277C61.913 31.0829 61.9805 30.4895 62.0337 30.08L60.0504 29.8222C59.9935 30.26 59.9233 30.879 59.8534 31.6463L61.8452 31.8277ZM62.042 29.9624C62.0432 29.8522 62.0629 29.742 62.1008 29.6357L60.2174 28.963C60.1053 29.2768 60.0459 29.6065 60.0421 29.9398L62.042 29.9624Z" fill="url(#paint13_linear_99_4304)" mask="url(#path-23-inside-10_99_4304)"/>
<mask id="path-25-inside-11_99_4304" fill="white">
<path d="M68.6149 21.9995C68.3755 22.6672 68.0927 23.3202 67.768 23.9549C67.231 25.1476 66.5426 26.8162 65.9023 28.6933C65.262 30.5704 64.8145 32.3172 64.5254 33.5882C64.4008 34.2792 64.233 34.9626 64.0228 35.6348C63.9911 35.4469 63.9911 35.2555 64.0228 35.0677C64.0641 34.7027 64.1398 34.1813 64.2569 33.536C64.5648 31.863 64.995 30.2122 65.5443 28.5955C66.0884 26.9754 66.7485 25.3922 67.5202 23.8571C67.8162 23.2705 68.071 22.8012 68.2637 22.4818C68.3571 22.3067 68.4752 22.1444 68.6149 21.9995V21.9995Z"/>
</mask>
<path d="M68.6149 21.9995C68.3755 22.6672 68.0927 23.3202 67.768 23.9549C67.231 25.1476 66.5426 26.8162 65.9023 28.6933C65.262 30.5704 64.8145 32.3172 64.5254 33.5882C64.4008 34.2792 64.233 34.9626 64.0228 35.6348C63.9911 35.4469 63.9911 35.2555 64.0228 35.0677C64.0641 34.7027 64.1398 34.1813 64.2569 33.536C64.5648 31.863 64.995 30.2122 65.5443 28.5955C66.0884 26.9754 66.7485 25.3922 67.5202 23.8571C67.8162 23.2705 68.071 22.8012 68.2637 22.4818C68.3571 22.3067 68.4752 22.1444 68.6149 21.9995V21.9995Z" fill="#263238"/>
<path d="M67.768 23.9549L66.8778 23.4994L66.8664 23.5216L66.8562 23.5443L67.768 23.9549ZM64.5254 33.5882L63.5503 33.3663L63.5452 33.3885L63.5412 33.4108L64.5254 33.5882ZM64.0228 35.6348L63.0367 35.801L64.9772 35.9332L64.0228 35.6348ZM64.0228 35.0677L65.0089 35.234L65.0134 35.2072L65.0164 35.1802L64.0228 35.0677ZM64.2569 33.536L63.2734 33.355L63.2729 33.3576L64.2569 33.536ZM65.5443 28.5955L66.4911 28.9173L66.4923 28.9139L65.5443 28.5955ZM67.5202 23.8571L66.6274 23.4065L66.6267 23.408L67.5202 23.8571ZM68.2637 22.4818L69.1199 22.9986L69.1337 22.9757L69.1462 22.9521L68.2637 22.4818ZM67.6735 21.6621C67.4487 22.2892 67.183 22.9028 66.8778 23.4994L68.6583 24.4103C69.0024 23.7377 69.3023 23.0453 69.5562 22.337L67.6735 21.6621ZM66.8562 23.5443C66.3083 24.7614 65.6077 26.4594 64.9558 28.3705L66.8487 29.0161C67.4774 27.173 68.1538 25.5339 68.6799 24.3654L66.8562 23.5443ZM64.9558 28.3705C64.301 30.2902 63.8446 32.0726 63.5503 33.3663L65.5004 33.81C65.7844 32.5618 66.223 30.8506 66.8487 29.0161L64.9558 28.3705ZM63.5412 33.4108C63.4241 34.0607 63.2662 34.7037 63.0684 35.3363L64.9772 35.9332C65.1998 35.2215 65.3775 34.4977 65.5095 33.7656L63.5412 33.4108ZM65.0089 35.4685C64.9957 35.3907 64.9957 35.3117 65.0089 35.234L63.0367 34.9015C62.9865 35.1994 62.9865 35.5031 63.0367 35.801L65.0089 35.4685ZM65.0164 35.1802C65.0547 34.8419 65.1268 34.343 65.2408 33.7145L63.2729 33.3576C63.1528 34.0196 63.0735 34.5635 63.0291 34.9553L65.0164 35.1802ZM65.2403 33.717C65.5395 32.0919 65.9574 30.4881 66.4911 28.9173L64.5975 28.2738C64.0326 29.9363 63.5901 31.6341 63.2734 33.355L65.2403 33.717ZM66.4923 28.9139C67.0212 27.3388 67.6631 25.7993 68.4137 24.3062L66.6267 23.408C65.8339 24.9851 65.1555 26.612 64.5963 28.2772L66.4923 28.9139ZM68.4129 24.3076C68.7038 23.7313 68.9457 23.2872 69.1199 22.9986L67.4076 21.9651C67.1963 22.3152 66.9287 22.8096 66.6274 23.4065L68.4129 24.3076ZM69.1462 22.9521C69.1954 22.8598 69.2586 22.7726 69.3349 22.6934L67.8948 21.3056C67.6918 21.5162 67.5187 21.7535 67.3812 22.0115L69.1462 22.9521Z" fill="url(#paint14_linear_99_4304)" mask="url(#path-25-inside-11_99_4304)"/>
<mask id="path-27-inside-12_99_4304" fill="white">
<path d="M63.2589 57.5736C63.131 57.5622 63.0043 57.5404 62.8803 57.5084L61.82 57.2672C61.3587 57.1564 60.7942 57.0261 60.1333 56.9022C59.4723 56.7784 58.7563 56.6024 57.8889 56.4851C57.0214 56.3678 56.1401 56.1983 55.135 56.1006C54.1298 56.0028 53.0696 55.8985 51.968 55.8073C49.5468 55.6702 47.119 55.6702 44.6978 55.8073C42.2752 55.9738 39.8656 56.2807 37.4826 56.7263C36.388 56.9544 35.3484 57.1499 34.3914 57.4106C33.4344 57.6713 32.5394 57.8995 31.727 58.1406C30.9146 58.3818 30.1986 58.6229 29.5652 58.8315C28.9319 59.0401 28.388 59.2356 27.9473 59.4051L26.9284 59.7831C26.8107 59.8366 26.6855 59.8739 26.5566 59.8939C26.663 59.8273 26.776 59.7705 26.894 59.7245L27.8854 59.2943C28.3191 59.1053 28.8492 58.8837 29.4895 58.6425C30.1298 58.4013 30.8665 58.1341 31.6444 57.8995C32.4224 57.6648 33.3381 57.365 34.3088 57.1239C35.2795 56.8827 36.3122 56.6415 37.4069 56.4069C42.2111 55.4488 47.1346 55.1416 52.03 55.4944C53.1453 55.5922 54.2124 55.6704 55.2038 55.8203C56.1952 55.9702 57.1178 56.094 57.9577 56.2505C58.7976 56.4069 59.5412 56.5698 60.2021 56.7198C60.863 56.8697 61.4207 57.0065 61.8751 57.1434L62.9216 57.4432C63.0404 57.4701 63.1541 57.5141 63.2589 57.5736V57.5736Z"/>
</mask>
<path d="M63.2589 57.5736C63.131 57.5622 63.0043 57.5404 62.8803 57.5084L61.82 57.2672C61.3587 57.1564 60.7942 57.0261 60.1333 56.9022C59.4723 56.7784 58.7563 56.6024 57.8889 56.4851C57.0214 56.3678 56.1401 56.1983 55.135 56.1006C54.1298 56.0028 53.0696 55.8985 51.968 55.8073C49.5468 55.6702 47.119 55.6702 44.6978 55.8073C42.2752 55.9738 39.8656 56.2807 37.4826 56.7263C36.388 56.9544 35.3484 57.1499 34.3914 57.4106C33.4344 57.6713 32.5394 57.8995 31.727 58.1406C30.9146 58.3818 30.1986 58.6229 29.5652 58.8315C28.9319 59.0401 28.388 59.2356 27.9473 59.4051L26.9284 59.7831C26.8107 59.8366 26.6855 59.8739 26.5566 59.8939C26.663 59.8273 26.776 59.7705 26.894 59.7245L27.8854 59.2943C28.3191 59.1053 28.8492 58.8837 29.4895 58.6425C30.1298 58.4013 30.8665 58.1341 31.6444 57.8995C32.4224 57.6648 33.3381 57.365 34.3088 57.1239C35.2795 56.8827 36.3122 56.6415 37.4069 56.4069C42.2111 55.4488 47.1346 55.1416 52.03 55.4944C53.1453 55.5922 54.2124 55.6704 55.2038 55.8203C56.1952 55.9702 57.1178 56.094 57.9577 56.2505C58.7976 56.4069 59.5412 56.5698 60.2021 56.7198C60.863 56.8697 61.4207 57.0065 61.8751 57.1434L62.9216 57.4432C63.0404 57.4701 63.1541 57.5141 63.2589 57.5736V57.5736Z" fill="#263238"/>
<path d="M62.8803 57.5084L63.1297 56.54L63.1159 56.5365L63.102 56.5333L62.8803 57.5084ZM61.82 57.2672L61.5864 58.2397L61.5982 58.2423L61.82 57.2672ZM51.968 55.8073L52.0506 54.8107L52.0376 54.8096L52.0245 54.8088L51.968 55.8073ZM44.6978 55.8073L44.6413 54.8088L44.6292 54.8096L44.6978 55.8073ZM37.4826 56.7263L37.2988 55.7433L37.2887 55.7452L37.2786 55.7473L37.4826 56.7263ZM27.9473 59.4051L28.2952 60.3427L28.3063 60.3384L27.9473 59.4051ZM26.9284 59.7831L26.5806 58.8456L26.5474 58.8579L26.5152 58.8725L26.9284 59.7831ZM26.5566 59.8939L26.0257 59.0465L26.7105 60.882L26.5566 59.8939ZM26.894 59.7245L27.2576 60.656L27.2749 60.6492L27.292 60.6418L26.894 59.7245ZM27.8854 59.2943L28.2834 60.2116L28.2849 60.211L27.8854 59.2943ZM37.4069 56.4069L37.2113 55.4262L37.2043 55.4276L37.1973 55.4291L37.4069 56.4069ZM52.03 55.4944L52.1173 54.4982L52.1096 54.4975L52.1019 54.497L52.03 55.4944ZM61.8751 57.1434L61.5866 58.101L61.5997 58.1047L61.8751 57.1434ZM62.9216 57.4432L62.6461 58.4045L62.6732 58.4123L62.7006 58.4185L62.9216 57.4432ZM63.3478 56.5775C63.2739 56.5709 63.2009 56.5584 63.1297 56.54L62.6308 58.4768C62.8076 58.5223 62.988 58.5534 63.17 58.5696L63.3478 56.5775ZM63.102 56.5333L62.0418 56.2921L61.5982 58.2423L62.6585 58.4835L63.102 56.5333ZM62.0536 56.2949C61.5848 56.1823 61.0019 56.0476 60.3174 55.9194L59.9491 57.8851C60.5864 58.0046 61.1327 58.1306 61.5864 58.2396L62.0536 56.2949ZM60.3174 55.9194C59.7266 55.8087 58.9198 55.6154 58.0229 55.4941L57.7548 57.4761C58.5928 57.5894 59.2181 57.7482 59.9491 57.8851L60.3174 55.9194ZM58.0229 55.4941C57.2346 55.3875 56.2518 55.2045 55.2318 55.1052L55.0382 57.0959C56.0285 57.1922 56.8082 57.3481 57.7548 57.4761L58.0229 55.4941ZM55.2318 55.1052C54.2286 55.0077 53.1607 54.9026 52.0506 54.8107L51.8855 56.8038C52.9785 56.8944 54.031 56.9979 55.0382 57.0959L55.2318 55.1052ZM52.0245 54.8088C49.5656 54.6697 47.1002 54.6697 44.6413 54.8088L44.7543 56.8057C47.1379 56.6707 49.5279 56.6707 51.9115 56.8057L52.0245 54.8088ZM44.6292 54.8096C42.168 54.9788 39.72 55.2906 37.2988 55.7433L37.6664 57.7092C40.0113 57.2708 42.3823 56.9688 44.7664 56.8049L44.6292 54.8096ZM37.2786 55.7473C36.2124 55.9695 35.1241 56.1746 34.1286 56.4458L34.6543 58.3755C35.5727 58.1253 36.5636 57.9393 37.6867 57.7052L37.2786 55.7473ZM34.1286 56.4458C33.1944 56.7003 32.2688 56.9367 31.4425 57.182L32.0116 59.0993C32.8101 58.8623 33.6744 58.6424 34.6543 58.3755L34.1286 56.4458ZM31.4425 57.182C30.6122 57.4284 29.8785 57.6755 29.2525 57.8817L29.878 59.7813C30.5187 59.5704 31.2171 59.3351 32.0116 59.0993L31.4425 57.182ZM29.2525 57.8817C28.6046 58.095 28.0453 58.296 27.5884 58.4717L28.3063 60.3384C28.7307 60.1752 29.2591 59.9851 29.878 59.7813L29.2525 57.8817ZM27.5995 58.4675L26.5806 58.8456L27.2763 60.7207L28.2952 60.3426L27.5995 58.4675ZM26.5152 58.8725C26.4807 58.8881 26.4428 58.8996 26.4028 58.9058L26.7105 60.882C26.9281 60.8481 27.1406 60.785 27.3417 60.6937L26.5152 58.8725ZM27.0876 60.7413C27.1405 60.7082 27.1974 60.6795 27.2576 60.656L26.5304 58.7929C26.3547 58.8615 26.1856 58.9463 26.0257 59.0465L27.0876 60.7413ZM27.292 60.6418L28.2834 60.2116L27.4873 58.3769L26.4959 58.8071L27.292 60.6418ZM28.2849 60.211C28.7068 60.0272 29.2209 59.8123 29.842 59.5783L29.137 57.7067C28.4776 57.9551 27.9315 58.1834 27.4859 58.3776L28.2849 60.211ZM29.842 59.5783C30.4749 59.3399 31.1872 59.0819 31.9332 58.8569L31.3557 56.9421C30.5458 57.1863 29.7847 57.4627 29.137 57.7067L29.842 59.5783ZM31.9332 58.8569C32.7399 58.6136 33.6111 58.3276 34.5499 58.0944L34.0677 56.1534C33.065 56.4024 32.1049 56.7161 31.3557 56.9421L31.9332 58.8569ZM34.5499 58.0944C35.511 57.8556 36.5331 57.6169 37.6165 57.3847L37.1973 55.4291C36.0914 55.6662 35.0481 55.9098 34.0677 56.1534L34.5499 58.0944ZM37.6025 57.3876C42.3185 56.4471 47.152 56.1454 51.9581 56.4918L52.1019 54.497C47.1171 54.1377 42.1036 54.4505 37.2113 55.4262L37.6025 57.3876ZM51.9427 56.4906C53.0807 56.5903 54.103 56.6652 55.0543 56.8091L55.3533 54.8315C54.3218 54.6756 53.2099 54.594 52.1173 54.4982L51.9427 56.4906ZM55.0543 56.8091C56.0695 56.9626 56.957 57.0813 57.7746 57.2336L58.1408 55.2674C57.2785 55.1068 56.3209 54.9778 55.3533 54.8315L55.0543 56.8091ZM57.7746 57.2336C58.5961 57.3866 59.3254 57.5463 59.9809 57.695L60.4233 55.7445C59.757 55.5934 58.9991 55.4272 58.1408 55.2674L57.7746 57.2336ZM59.9809 57.695C60.6369 57.8438 61.1668 57.9744 61.5867 58.1009L62.1635 56.1859C61.6746 56.0386 61.0892 55.8956 60.4233 55.7445L59.9809 57.695ZM61.5997 58.1047L62.6461 58.4045L63.197 56.4819L62.1505 56.1821L61.5997 58.1047ZM62.7006 58.4185C62.7249 58.424 62.7466 58.4327 62.7652 58.4432L63.7526 56.704C63.5616 56.5955 63.3558 56.5163 63.1425 56.4679L62.7006 58.4185Z" fill="url(#paint15_linear_99_4304)" mask="url(#path-27-inside-12_99_4304)"/>
</g>
<defs>
<filter id="filter0_d_99_4304" x="0.416504" y="0" width="83.2085" height="79.2007" filterUnits="userSpaceOnUse" color-interpolation-filters="sRGB">
<feFlood flood-opacity="0" result="BackgroundImageFix"/>
<feColorMatrix in="SourceAlpha" type="matrix" values="0 0 0 0 0 0 0 0 0 0 0 0 0 0 0 0 0 0 127 0" result="hardAlpha"/>
<feOffset dx="-2" dy="2"/>
<feGaussianBlur stdDeviation="2"/>
<feComposite in2="hardAlpha" operator="out"/>
<feColorMatrix type="matrix" values="0 0 0 0 0 0 0 0 0 0 0 0 0 0 0 0 0 0 0.25 0"/>
<feBlend mode="normal" in2="BackgroundImageFix" result="effect1_dropShadow_99_4304"/>
<feBlend mode="normal" in="SourceGraphic" in2="effect1_dropShadow_99_4304" result="shape"/>
</filter>
<linearGradient id="paint0_linear_99_4304" x1="44.0207" y1="2" x2="44.0207" y2="73.2006" gradientUnits="userSpaceOnUse">
<stop offset="0.864583" stop-color="#BABFC3"/>
<stop offset="1" stop-color="#BBBFC3"/>
</linearGradient>
<linearGradient id="paint1_linear_99_4304" x1="45.108" y1="17.3784" x2="45.108" y2="60.2983" gradientUnits="userSpaceOnUse">
<stop offset="0.864583" stop-color="#BABFC3"/>
<stop offset="1" stop-color="#BBBFC3"/>
</linearGradient>
<linearGradient id="paint2_linear_99_4304" x1="23.441" y1="20.7153" x2="23.441" y2="38.17" gradientUnits="userSpaceOnUse">
<stop offset="0.864583" stop-color="#BABFC3"/>
<stop offset="1" stop-color="#BBBFC3"/>
</linearGradient>
<linearGradient id="paint3_linear_99_4304" x1="65.3964" y1="18.7471" x2="65.3964" y2="38.3853" gradientUnits="userSpaceOnUse">
<stop offset="0.864583" stop-color="#BABFC3"/>
<stop offset="1" stop-color="#BBBFC3"/>
</linearGradient>
<linearGradient id="paint4_linear_99_4304" x1="21.9546" y1="25.7668" x2="21.9546" y2="36.9449" gradientUnits="userSpaceOnUse">
<stop offset="0.864583" stop-color="#BABFC3"/>
<stop offset="1" stop-color="#BBBFC3"/>
</linearGradient>
<linearGradient id="paint5_linear_99_4304" x1="25.3588" y1="23.7397" x2="25.3588" y2="32.1021" gradientUnits="userSpaceOnUse">
<stop offset="0.864583" stop-color="#BABFC3"/>
<stop offset="1" stop-color="#BBBFC3"/>
</linearGradient>
<linearGradient id="paint6_linear_99_4304" x1="44.0262" y1="19.6465" x2="44.0262" y2="23.9058" gradientUnits="userSpaceOnUse">
<stop offset="0.864583" stop-color="#BABFC3"/>
<stop offset="1" stop-color="#BBBFC3"/>
</linearGradient>
<linearGradient id="paint7_linear_99_4304" x1="44.4981" y1="28.5952" x2="44.4981" y2="29.769" gradientUnits="userSpaceOnUse">
<stop offset="0.864583" stop-color="#BABFC3"/>
<stop offset="1" stop-color="#BBBFC3"/>
</linearGradient>
<linearGradient id="paint8_linear_99_4304" x1="44.9799" y1="34.5593" x2="44.9799" y2="36.5417" gradientUnits="userSpaceOnUse">
<stop offset="0.864583" stop-color="#BABFC3"/>
<stop offset="1" stop-color="#BBBFC3"/>
</linearGradient>
<linearGradient id="paint9_linear_99_4304" x1="45.2142" y1="42.6875" x2="45.2142" y2="43.569" gradientUnits="userSpaceOnUse">
<stop offset="0.864583" stop-color="#BABFC3"/>
<stop offset="1" stop-color="#BBBFC3"/>
</linearGradient>
<linearGradient id="paint10_linear_99_4304" x1="45.7026" y1="49.7522" x2="45.7026" y2="50.7234" gradientUnits="userSpaceOnUse">
<stop offset="0.864583" stop-color="#BABFC3"/>
<stop offset="1" stop-color="#BBBFC3"/>
</linearGradient>
<linearGradient id="paint11_linear_99_4304" x1="62.8225" y1="22.135" x2="62.8225" y2="27.2918" gradientUnits="userSpaceOnUse">
<stop offset="0.864583" stop-color="#BABFC3"/>
<stop offset="1" stop-color="#BBBFC3"/>
</linearGradient>
<linearGradient id="paint12_linear_99_4304" x1="29.5788" y1="25.7927" x2="29.5788" y2="47.1907" gradientUnits="userSpaceOnUse">
<stop offset="0.864583" stop-color="#BABFC3"/>
<stop offset="1" stop-color="#BBBFC3"/>
</linearGradient>
<linearGradient id="paint13_linear_99_4304" x1="60.519" y1="29.2993" x2="60.519" y2="45.9132" gradientUnits="userSpaceOnUse">
<stop offset="0.864583" stop-color="#BABFC3"/>
<stop offset="1" stop-color="#BBBFC3"/>
</linearGradient>
<linearGradient id="paint14_linear_99_4304" x1="66.3069" y1="21.9995" x2="66.3069" y2="35.6348" gradientUnits="userSpaceOnUse">
<stop offset="0.864583" stop-color="#BABFC3"/>
<stop offset="1" stop-color="#BBBFC3"/>
</linearGradient>
<linearGradient id="paint15_linear_99_4304" x1="44.9078" y1="55.3528" x2="44.9078" y2="59.8939" gradientUnits="userSpaceOnUse">
<stop offset="0.864583" stop-color="#BABFC3"/>
<stop offset="1" stop-color="#BBBFC3"/>
</linearGradient>
</defs>
</svg>
